<svg xmlns="http://www.w3.org/2000/svg" width="452.203" height="457.054" viewBox="0 0 452.203 457.054">
  <g id="Group_37" data-name="Group 37" transform="translate(-17.395 -29.707)">
    <g id="Background_Simple" data-name="Background Simple">
      <g id="Group_1" data-name="Group 1">
        <path id="Path_1" data-name="Path 1" d="M466.005,255.679c-7.8,41.364-30.173,88.54-69.736,108.2-59.776,29.707-58.529,81.812-172.232,96.6a231.232,231.232,0,0,1-50.051,1.274,192.508,192.508,0,0,1-24.27-3.67c-70.563-15.319-115.122-68.167-128.6-129.187C3.367,248.642,53.155,200.328,85.941,171.411S147.831,47.364,259.494,31.947a224.018,224.018,0,0,1,51.442-1.338c39.1,3.657,80.935,19.459,108.648,48.336q3.12,3.255,6.051,6.709C463.818,130.653,476.635,199.287,466.005,255.679Z" fill="#92e3a9"/>
        <path id="Path_2" data-name="Path 2" d="M466.005,255.679c-7.8,41.364-30.173,88.54-69.736,108.2-59.776,29.707-58.529,81.812-172.232,96.6a231.232,231.232,0,0,1-50.051,1.274,192.508,192.508,0,0,1-24.27-3.67c-70.563-15.319-115.122-68.167-128.6-129.187C3.367,248.642,53.155,200.328,85.941,171.411S147.831,47.364,259.494,31.947a224.018,224.018,0,0,1,51.442-1.338c39.1,3.657,80.935,19.459,108.648,48.336q3.12,3.255,6.051,6.709C463.818,130.653,476.635,199.287,466.005,255.679Z" fill="#fff" opacity="0.7"/>
      </g>
    </g>
    <g id="Clouds">
      <g id="Group_2" data-name="Group 2">
        <path id="Path_3" data-name="Path 3" d="M361.988,217.236c.292-.911-.364-2.676-.6-3.21-1.24-2.756-4.3-4-7.2-3.764a8.428,8.428,0,0,1-3.149.025,5.108,5.108,0,0,1-2.732-2.726,26.163,26.163,0,0,0-4.292-6.026c-2.612-2.724-6.136-4.728-10.017-4.594-10.437.36-9.36,9-12.237,11.517-1.6,1.4-2.756-.593-4.12-1.28a4.762,4.762,0,0,0-5.372.57c-1.493,1.256-2.373,3.073-3.547,4.631s-2.926,2.965-4.865,2.753c-1.623-.176-2.914-1.432-4.462-1.951a6.667,6.667,0,0,0-5.388.79,14.415,14.415,0,0,0-3.624,3.265Z" fill="#fff" stroke="#263238" stroke-miterlimit="10" stroke-width="1"/>
        <path id="Path_4" data-name="Path 4" d="M463.781,106.124c.449-1.4-.559-4.108-.928-4.927-1.9-4.231-6.6-6.143-11.053-5.779-1.618.133-3.282.516-4.834.04-1.938-.6-3.244-2.391-4.193-4.184a40.119,40.119,0,0,0-6.586-9.25c-4.01-4.18-9.419-7.256-15.375-7.051-16.019.553-14.366,13.806-18.782,17.677-2.459,2.155-4.229-.91-6.323-1.964a7.31,7.31,0,0,0-8.246.874c-2.291,1.928-3.642,4.718-5.444,7.109s-4.49,4.549-7.467,4.225c-2.491-.271-4.472-2.2-6.848-2.995a10.228,10.228,0,0,0-8.27,1.213,22.121,22.121,0,0,0-5.562,5.012Z" fill="#fff" stroke="#263238" stroke-miterlimit="10" stroke-width="1"/>
        <path id="Path_5" data-name="Path 5" d="M128.218,59.225c.292-.911-.364-2.676-.6-3.21-1.24-2.757-4.3-4-7.2-3.764a8.428,8.428,0,0,1-3.149.025,5.108,5.108,0,0,1-2.732-2.726,26.141,26.141,0,0,0-4.292-6.026C107.627,40.8,104.1,38.8,100.222,38.93c-10.437.36-9.36,8.995-12.237,11.517-1.6,1.4-2.755-.593-4.119-1.28a4.762,4.762,0,0,0-5.373.57C77,50.993,76.12,52.81,74.946,54.368s-2.926,2.965-4.865,2.753c-1.623-.177-2.914-1.432-4.462-1.952a6.668,6.668,0,0,0-5.388.791,14.432,14.432,0,0,0-3.624,3.265Z" fill="#fff" stroke="#263238" stroke-miterlimit="10" stroke-width="1"/>
      </g>
    </g>
    <g id="Smoke">
      <path id="Path_6" data-name="Path 6" d="M445.151,431.362a11.149,11.149,0,0,0,1.11-4.822A10.612,10.612,0,0,0,435.9,415.691a9.937,9.937,0,0,0-5.314,1.55,9.523,9.523,0,0,0,.136-1.55,8.622,8.622,0,1,0-17.233-.571c-.2-.006-.4-.032-.6-.032a19.33,19.33,0,0,0-10.124,2.881,20.828,20.828,0,0,0-12.02-9.323,9.39,9.39,0,0,0,4.884-8.325,8.928,8.928,0,1,0-17.836,0,9.444,9.444,0,0,0,4.093,7.85,19.9,19.9,0,0,0-6.178,2.148,16.463,16.463,0,0,0-15.462-11.5,15.9,15.9,0,0,0-10.722,4.2c-1.392-12.789-11.751-22.726-24.331-22.726a23.959,23.959,0,0,0-18.208,8.5c-4.156-12.078-15.189-20.714-28.15-20.714a28.788,28.788,0,0,0-16.075,4.915,17.778,17.778,0,0,0-16.123,1.422,17.778,17.778,0,0,0-16.123-1.422,28.791,28.791,0,0,0-16.076-4.915c-12.961,0-23.994,8.636-28.15,20.714a23.957,23.957,0,0,0-18.207-8.5c-12.58,0-22.94,9.937-24.331,22.726a15.9,15.9,0,0,0-10.722-4.2,16.464,16.464,0,0,0-15.463,11.5,19.9,19.9,0,0,0-6.177-2.148,9.445,9.445,0,0,0,4.092-7.85,8.928,8.928,0,1,0-17.836,0,9.39,9.39,0,0,0,4.885,8.325,20.825,20.825,0,0,0-12.02,9.323,19.331,19.331,0,0,0-10.125-2.881c-.2,0-.4.026-.6.032a8.622,8.622,0,1,0-17.232.571,9.524,9.524,0,0,0,.135,1.55,9.934,9.934,0,0,0-5.313-1.55A10.611,10.611,0,0,0,47.017,426.54a11.135,11.135,0,0,0,1.11,4.822Z" fill="#fff" stroke="#263238" stroke-miterlimit="10" stroke-width="1"/>
    </g>
    <g id="Platform">
      <g id="Group_6" data-name="Group 6">
        <g id="Group_3" data-name="Group 3">
          <rect id="Rectangle_1" data-name="Rectangle 1" width="19.991" height="350.063" transform="translate(322.537 79.854)" fill="none" stroke="#263238" stroke-miterlimit="10" stroke-width="1"/>
          <line id="Line_1" data-name="Line 1" x1="15.353" transform="translate(307.173 184.093)" fill="none" stroke="#263238" stroke-miterlimit="10" stroke-width="1"/>
          <line id="Line_2" data-name="Line 2" x1="19.955" transform="translate(302.571 276.94)" fill="none" stroke="#263238" stroke-miterlimit="10" stroke-width="1"/>
          <path id="Path_7" data-name="Path 7" d="M342.528,79.854l-19.25,24.433h19.037L322.537,79.854" fill="none" stroke="#263238" stroke-miterlimit="10" stroke-width="1"/>
          <path id="Path_8" data-name="Path 8" d="M342.528,104.9l-19.25,24.433h19.037L322.537,104.9" fill="none" stroke="#263238" stroke-miterlimit="10" stroke-width="1"/>
          <path id="Path_9" data-name="Path 9" d="M342.528,129.941l-19.25,24.433h19.037l-19.777-24.433" fill="none" stroke="#263238" stroke-miterlimit="10" stroke-width="1"/>
          <path id="Path_10" data-name="Path 10" d="M342.528,154.985l-19.25,24.433h19.037l-19.777-24.433" fill="none" stroke="#263238" stroke-miterlimit="10" stroke-width="1"/>
          <path id="Path_11" data-name="Path 11" d="M342.528,180.028l-19.25,24.433h19.037l-19.777-24.433H307.206" fill="none" stroke="#263238" stroke-miterlimit="10" stroke-width="1"/>
          <path id="Path_12" data-name="Path 12" d="M342.528,205.072l-19.25,24.433h19.037l-19.777-24.433" fill="none" stroke="#263238" stroke-miterlimit="10" stroke-width="1"/>
          <path id="Path_13" data-name="Path 13" d="M342.528,230.115l-19.25,24.433h19.037l-19.777-24.433" fill="none" stroke="#263238" stroke-miterlimit="10" stroke-width="1"/>
          <path id="Path_14" data-name="Path 14" d="M342.528,255.159l-19.25,24.433h19.037l-19.777-24.433" fill="none" stroke="#263238" stroke-miterlimit="10" stroke-width="1"/>
          <path id="Path_15" data-name="Path 15" d="M342.528,280.2l-19.25,24.433h19.037L322.537,280.2H302.6" fill="none" stroke="#263238" stroke-miterlimit="10" stroke-width="1"/>
          <path id="Path_16" data-name="Path 16" d="M342.528,305.246l-19.25,24.433h19.037l-19.777-24.433" fill="none" stroke="#263238" stroke-miterlimit="10" stroke-width="1"/>
          <path id="Path_17" data-name="Path 17" d="M342.528,330.289l-19.25,24.433h19.037l-19.777-24.433" fill="none" stroke="#263238" stroke-miterlimit="10" stroke-width="1"/>
          <path id="Path_18" data-name="Path 18" d="M342.528,355.333l-19.25,24.433h19.037l-19.777-24.433" fill="none" stroke="#263238" stroke-miterlimit="10" stroke-width="1"/>
          <path id="Path_19" data-name="Path 19" d="M342.528,380.376l-19.25,24.433h19.037l-19.777-24.433" fill="none" stroke="#263238" stroke-miterlimit="10" stroke-width="1"/>
          <path id="Path_20" data-name="Path 20" d="M342.528,405.42l-19.25,24.433h19.037L322.537,405.42" fill="none" stroke="#263238" stroke-miterlimit="10" stroke-width="1"/>
        </g>
        <g id="Group_5" data-name="Group 5">
          <path id="Path_21" data-name="Path 21" d="M342.127,430.556H150.363l27.395-29.616H314.732Z" fill="#fff" stroke="#263238" stroke-miterlimit="10" stroke-width="1"/>
          <g id="Group_4" data-name="Group 4">
            <circle id="Ellipse_1" data-name="Ellipse 1" cx="7.537" cy="7.537" r="7.537" transform="translate(179.895 408.852)" fill="#263238" stroke="#263238" stroke-linecap="round" stroke-linejoin="round" stroke-width="1"/>
            <circle id="Ellipse_2" data-name="Ellipse 2" cx="7.537" cy="7.537" r="7.537" transform="translate(210.044 408.852)" fill="#263238" stroke="#263238" stroke-linecap="round" stroke-linejoin="round" stroke-width="1"/>
            <circle id="Ellipse_3" data-name="Ellipse 3" cx="7.537" cy="7.537" r="7.537" transform="translate(240.193 408.852)" fill="#263238" stroke="#263238" stroke-linecap="round" stroke-linejoin="round" stroke-width="1"/>
            <circle id="Ellipse_4" data-name="Ellipse 4" cx="7.537" cy="7.537" r="7.537" transform="translate(270.341 408.852)" fill="#263238" stroke="#263238" stroke-linecap="round" stroke-linejoin="round" stroke-width="1"/>
            <circle id="Ellipse_5" data-name="Ellipse 5" cx="7.537" cy="7.537" r="7.537" transform="translate(300.49 408.852)" fill="#263238" stroke="#263238" stroke-linecap="round" stroke-linejoin="round" stroke-width="1"/>
          </g>
        </g>
        <rect id="Rectangle_2" data-name="Rectangle 2" width="442.621" height="12.909" transform="translate(24.935 429.937)" fill="#263238" stroke="#263238" stroke-linecap="round" stroke-linejoin="round" stroke-width="1"/>
      </g>
    </g>
    <g id="Rocket">
      <g id="Group_8" data-name="Group 8">
        <g id="Group_7" data-name="Group 7">
          <path id="Path_22" data-name="Path 22" d="M307.56,167.552l-10,219.24H194.83l-10-219.24c0-29.9,12.51-57.25,26.1-78.53,12.41-19.43,25.72-33.8,31.24-40.48a4.686,4.686,0,0,1,7.19-.03c5.62,6.67,19.15,21.06,31.73,40.51C294.88,110.3,307.56,137.642,307.56,167.552Z" fill="#fff" stroke="#263238" stroke-miterlimit="10" stroke-width="1"/>
          <line id="Line_3" data-name="Line 3" x1="8.335" y2="188.738" transform="translate(291.753 190.122)" fill="#fff" stroke="#263238" stroke-miterlimit="10" stroke-width="1"/>
          <path id="Path_23" data-name="Path 23" d="M281.564,103.406c10.173,18.054,18.66,39.777,19.371,63.27" fill="#fff" stroke="#263238" stroke-miterlimit="10" stroke-width="1"/>
          <path id="Path_24" data-name="Path 24" d="M281.09,89.022H210.93c12.41-19.43,25.72-33.8,31.24-40.48a4.686,4.686,0,0,1,7.19-.03C254.98,55.182,268.51,69.572,281.09,89.022Z" fill="#92e3a9" stroke="#263238" stroke-linecap="round" stroke-linejoin="round" stroke-width="1"/>
          <path id="Path_25" data-name="Path 25" d="M189.678,275.111s-26.063,8.983-35.856,33.465c-7.686,19.217-9.717,56.157-10.234,71.158a6.357,6.357,0,0,0,6.358,6.574h0a6.349,6.349,0,0,0,5.59-3.325c5.1-9.459,20.993-35.88,37.584-31.858Z" fill="#92e3a9" stroke="#263238" stroke-linecap="round" stroke-linejoin="round" stroke-width="1"/>
          <path id="Path_26" data-name="Path 26" d="M302.736,274.894s26.139,9.2,35.932,33.682c7.687,19.217,9.717,56.157,10.235,71.158a6.358,6.358,0,0,1-6.359,6.574h0a6.35,6.35,0,0,1-5.59-3.325c-5.1-9.459-21.192-35.738-37.783-31.716Z" fill="#92e3a9" stroke="#263238" stroke-linecap="round" stroke-linejoin="round" stroke-width="1"/>
          <path id="Path_27" data-name="Path 27" d="M310.03,278.271a57.393,57.393,0,0,0-7.294-3.377l-3.565,76.373a14.906,14.906,0,0,1,5.239-.3Z" fill="#263238" stroke="#263238" stroke-linecap="round" stroke-linejoin="round" stroke-width="1"/>
        </g>
        <rect id="Rectangle_3" data-name="Rectangle 3" width="84.63" height="15.005" transform="translate(204.511 386.635)" fill="#263238" stroke="#263238" stroke-linecap="round" stroke-linejoin="round" stroke-width="1"/>
      </g>
    </g>
    <g id="Icon_4" data-name="Icon 4">
      <g id="Group_12" data-name="Group 12">
        <circle id="Ellipse_6" data-name="Ellipse 6" cx="22.808" cy="22.808" r="22.808" transform="translate(217.811 311.388) rotate(-13.543)" fill="#fff" stroke="#263238" stroke-miterlimit="10" stroke-width="1"/>
        <g id="Group_11" data-name="Group 11">
          <g id="Group_9" data-name="Group 9">
            <circle id="Ellipse_7" data-name="Ellipse 7" cx="17.957" cy="17.957" r="17.957" transform="translate(223.748 314.831) rotate(-13.179)" fill="#92e3a9" stroke="#263238" stroke-miterlimit="10" stroke-width="1"/>
            <circle id="Ellipse_8" data-name="Ellipse 8" cx="14.763" cy="14.763" r="14.763" transform="translate(227.583 317.218) rotate(-13.198)" fill="#fff" stroke="#263238" stroke-miterlimit="10" stroke-width="1"/>
            <circle id="Ellipse_9" data-name="Ellipse 9" cx="10.753" cy="10.753" r="10.753" transform="translate(232.399 320.212) rotate(-13.22)" fill="#92e3a9" stroke="#263238" stroke-miterlimit="10" stroke-width="1"/>
            <circle id="Ellipse_10" data-name="Ellipse 10" cx="6.788" cy="6.788" r="6.788" transform="translate(238.537 321.432)" fill="#fff" stroke="#263238" stroke-miterlimit="10" stroke-width="1"/>
            <path id="Path_28" data-name="Path 28" d="M248.469,328.22a3.143,3.143,0,1,0-3.143,3.143A3.143,3.143,0,0,0,248.469,328.22Z" fill="#92e3a9" stroke="#263238" stroke-miterlimit="10" stroke-width="1"/>
          </g>
          <g id="Group_10" data-name="Group 10">
            <path id="Path_29" data-name="Path 29" d="M246.623,323.293l-1.3,4.928,4.652,1.019Z" fill="#fff" stroke="#263238" stroke-miterlimit="10" stroke-width="1"/>
            <line id="Line_4" data-name="Line 4" y1="11.13" x2="20.431" transform="translate(248.605 314.907)" fill="#fff" stroke="#263238" stroke-miterlimit="10" stroke-width="1"/>
            <path id="Path_30" data-name="Path 30" d="M262.48,318.566l.3-5.336,9.605-5.489v6.1Z" fill="#fff" stroke="#263238" stroke-miterlimit="10" stroke-width="1"/>
            <path id="Path_31" data-name="Path 31" d="M276.507,316.737l-4.206-3.1-9.86,5.186,4.748,2.747Z" fill="#fff" stroke="#263238" stroke-miterlimit="10" stroke-width="1"/>
          </g>
        </g>
      </g>
    </g>
    <g id="Icon_3" data-name="Icon 3">
      <g id="Group_14" data-name="Group 14">
        <circle id="Ellipse_11" data-name="Ellipse 11" cx="22.808" cy="22.808" r="22.808" transform="translate(222.518 239.268)" fill="none" stroke="#263238" stroke-miterlimit="10" stroke-width="1"/>
        <g id="Group_13" data-name="Group 13">
          <rect id="Rectangle_4" data-name="Rectangle 4" width="6.855" height="13.868" transform="translate(231.675 258.88)" fill="#92e3a9" stroke="#263238" stroke-miterlimit="10" stroke-width="1"/>
          <rect id="Rectangle_5" data-name="Rectangle 5" width="6.855" height="18.281" transform="translate(241.958 254.467)" fill="#92e3a9" stroke="#263238" stroke-miterlimit="10" stroke-width="1"/>
          <rect id="Rectangle_6" data-name="Rectangle 6" width="6.855" height="22.378" transform="translate(252.241 250.37)" fill="#92e3a9" stroke="#263238" stroke-miterlimit="10" stroke-width="1"/>
        </g>
      </g>
    </g>
    <g id="Icon_2" data-name="Icon 2">
      <g id="Group_15" data-name="Group 15">
        <circle id="Ellipse_12" data-name="Ellipse 12" cx="22.808" cy="22.808" r="22.808" transform="translate(222.518 174.759)" fill="none" stroke="#263238" stroke-miterlimit="10" stroke-width="1"/>
        <path id="Path_32" data-name="Path 32" d="M261.863,200.666v-5.917h-3.931a12.664,12.664,0,0,0-1.564-3.841l2.843-2.843-4.184-4.184-2.829,2.828a12.719,12.719,0,0,0-3.773-1.572V181.03h-5.918v4.107a12.716,12.716,0,0,0-3.7,1.528l-2.983-2.983-4.184,4.185,2.969,2.968a12.667,12.667,0,0,0-1.536,3.633h-4.284v5.918H233a12.688,12.688,0,0,0,1.458,3.667l-3.017,3.017,4.184,4.184,2.935-2.934a12.717,12.717,0,0,0,3.667,1.606V214.1h5.917V210.07a12.653,12.653,0,0,0,3.807-1.5l2.877,2.878,4.185-4.185-2.8-2.794a12.677,12.677,0,0,0,1.642-3.808Zm-16.4,3.645a6.743,6.743,0,1,1,6.743-6.743A6.743,6.743,0,0,1,245.466,204.311Z" fill="#92e3a9" stroke="#263238" stroke-miterlimit="10" stroke-width="1"/>
      </g>
    </g>
    <g id="Icon_1" data-name="Icon 1">
      <g id="Group_18" data-name="Group 18">
        <circle id="Ellipse_13" data-name="Ellipse 13" cx="22.808" cy="22.808" r="22.808" transform="translate(222.518 110.251)" fill="none" stroke="#263238" stroke-miterlimit="10" stroke-width="1"/>
        <g id="Group_17" data-name="Group 17">
          <path id="Path_33" data-name="Path 33" d="M257.118,127.859a11.976,11.976,0,1,0-21.453,7.313,13.527,13.527,0,0,1,2.982,8.259v.639h12.99v-.644a13.181,13.181,0,0,1,2.91-8.162A11.9,11.9,0,0,0,257.118,127.859Z" fill="#92e3a9" stroke="#263238" stroke-miterlimit="10" stroke-width="1"/>
          <g id="Group_16" data-name="Group 16">
            <rect id="Rectangle_7" data-name="Rectangle 7" width="9.012" height="6.342" rx="1.9" transform="translate(240.703 146.173)" fill="#fff" stroke="#263238" stroke-linecap="round" stroke-linejoin="round" stroke-width="1"/>
            <rect id="Rectangle_8" data-name="Rectangle 8" width="13.076" height="2.974" transform="translate(238.647 144.07)" fill="#fff" stroke="#263238" stroke-linecap="round" stroke-linejoin="round" stroke-width="1"/>
            <path id="Path_34" data-name="Path 34" d="M250.415,150.246H239.954l-1.308-2.974h13.076Z" fill="#fff" stroke="#263238" stroke-linecap="round" stroke-linejoin="round" stroke-width="1"/>
          </g>
        </g>
      </g>
    </g>
    <g id="Stage_4" data-name="Stage 4">
      <g id="Group_20" data-name="Group 20">
        <g id="Group_19" data-name="Group 19">
          <path id="Path_35" data-name="Path 35" d="M68.492,286.355a3.071,3.071,0,0,1-1.5-.33,2.094,2.094,0,0,1-.9-.995,4.571,4.571,0,0,1-.354-1.7l1.7-.288a4.966,4.966,0,0,0,.126,1,1.213,1.213,0,0,0,.312.6.727.727,0,0,0,.522.2.549.549,0,0,0,.522-.24,1.085,1.085,0,0,0,.138-.552,1.727,1.727,0,0,0-.294-1.026,4.933,4.933,0,0,0-.774-.834l-1.007-.876a4.045,4.045,0,0,1-.883-1.032,2.73,2.73,0,0,1-.342-1.416,2.37,2.37,0,0,1,.7-1.842,2.746,2.746,0,0,1,1.926-.642,2.63,2.63,0,0,1,1.2.24,1.838,1.838,0,0,1,.725.642,2.657,2.657,0,0,1,.361.876,6.149,6.149,0,0,1,.126.942l-1.693.252a7.541,7.541,0,0,0-.078-.78,1.066,1.066,0,0,0-.216-.528.6.6,0,0,0-.486-.192.576.576,0,0,0-.516.258,1.023,1.023,0,0,0-.168.57,1.429,1.429,0,0,0,.234.846,4.1,4.1,0,0,0,.642.69l.984.864a5.594,5.594,0,0,1,1.05,1.206,3.026,3.026,0,0,1,.438,1.675,2.466,2.466,0,0,1-.312,1.235,2.233,2.233,0,0,1-.87.865A2.649,2.649,0,0,1,68.492,286.355Z" fill="#263238"/>
          <path id="Path_36" data-name="Path 36" d="M72.944,286.223v-8.244h-1.5V276.5h4.968v1.476H74.937v8.244Z" fill="#263238"/>
          <path id="Path_37" data-name="Path 37" d="M76.46,286.223l1.884-9.72h2.2l1.872,9.72H80.576l-.348-2.136H78.692l-.372,2.136Zm2.412-3.347h1.164l-.588-3.925Z" fill="#263238"/>
          <path id="Path_38" data-name="Path 38" d="M85.748,286.368a2.631,2.631,0,0,1-1.56-.414,2.251,2.251,0,0,1-.822-1.176,5.78,5.78,0,0,1-.246-1.771v-3.252a5.715,5.715,0,0,1,.252-1.8,2.145,2.145,0,0,1,.883-1.164,3.111,3.111,0,0,1,1.709-.408,3.318,3.318,0,0,1,1.65.348,1.986,1.986,0,0,1,.87.984,3.932,3.932,0,0,1,.264,1.512v.564H86.816v-.684a4.257,4.257,0,0,0-.048-.678.808.808,0,0,0-.221-.462.787.787,0,0,0-.559-.168.731.731,0,0,0-.576.2,1,1,0,0,0-.228.522,4.546,4.546,0,0,0-.048.678v4.308a3.39,3.39,0,0,0,.072.733.932.932,0,0,0,.27.5.819.819,0,0,0,.57.179.808.808,0,0,0,.576-.191,1.02,1.02,0,0,0,.282-.523,3.261,3.261,0,0,0,.078-.75v-1.032h-.948v-1.2h2.737v4.992h-1.3l-.12-.876a1.794,1.794,0,0,1-.576.733A1.687,1.687,0,0,1,85.748,286.368Z" fill="#263238"/>
          <path id="Path_39" data-name="Path 39" d="M90.128,286.223V276.5h4.236v1.368H92.108v2.58h1.74v1.38h-1.74v3.048h2.28v1.344Z" fill="#263238"/>
          <path id="Path_40" data-name="Path 40" d="M100.94,286.223v-2.267H97.988V282.5l2.532-6h2.16v6.037h.936v1.416h-.936v2.267Zm-1.488-3.683h1.488v-4.129Z" fill="#263238"/>
        </g>
        <line id="Line_5" data-name="Line 5" x2="48.76" transform="translate(65.36 295.171)" fill="none" stroke="#263238" stroke-miterlimit="10" stroke-width="1"/>
        <line id="Line_6" data-name="Line 6" x2="48.76" transform="translate(65.36 301.955)" fill="none" stroke="#263238" stroke-miterlimit="10" stroke-width="1"/>
        <line id="Line_7" data-name="Line 7" x2="48.76" transform="translate(65.36 308.739)" fill="none" stroke="#263238" stroke-miterlimit="10" stroke-width="1"/>
        <line id="Line_8" data-name="Line 8" x2="48.76" transform="translate(65.36 315.523)" fill="none" stroke="#263238" stroke-miterlimit="10" stroke-width="1"/>
      </g>
      <path id="Path_41" data-name="Path 41" d="M222.518,327.755H164.325V281.1H113.076" fill="none" stroke="#263238" stroke-miterlimit="10" stroke-width="1"/>
    </g>
    <g id="Stage_3" data-name="Stage 3">
      <g id="Group_22" data-name="Group 22">
        <g id="Group_21" data-name="Group 21">
          <path id="Path_42" data-name="Path 42" d="M68.492,224.252a3.071,3.071,0,0,1-1.5-.33,2.085,2.085,0,0,1-.9-.995,4.562,4.562,0,0,1-.354-1.7l1.7-.289a4.967,4.967,0,0,0,.126,1,1.217,1.217,0,0,0,.312.6.732.732,0,0,0,.522.2.55.55,0,0,0,.522-.24,1.087,1.087,0,0,0,.138-.552,1.733,1.733,0,0,0-.294-1.027,4.971,4.971,0,0,0-.774-.834l-1.007-.876a4.024,4.024,0,0,1-.883-1.031,2.73,2.73,0,0,1-.342-1.416,2.374,2.374,0,0,1,.7-1.843,2.75,2.75,0,0,1,1.926-.641,2.629,2.629,0,0,1,1.2.24,1.838,1.838,0,0,1,.725.642,2.657,2.657,0,0,1,.361.876,6.149,6.149,0,0,1,.126.942l-1.693.252a7.54,7.54,0,0,0-.078-.78,1.066,1.066,0,0,0-.216-.528.6.6,0,0,0-.486-.192.574.574,0,0,0-.516.258,1.023,1.023,0,0,0-.168.57,1.429,1.429,0,0,0,.234.846,4.182,4.182,0,0,0,.642.69l.984.864a5.594,5.594,0,0,1,1.05,1.206,3.023,3.023,0,0,1,.438,1.674,2.468,2.468,0,0,1-.312,1.236,2.221,2.221,0,0,1-.87.863A2.639,2.639,0,0,1,68.492,224.252Z" fill="#263238"/>
          <path id="Path_43" data-name="Path 43" d="M72.944,224.121v-8.244h-1.5V214.4h4.968v1.477H74.937v8.244Z" fill="#263238"/>
          <path id="Path_44" data-name="Path 44" d="M76.46,224.121l1.884-9.721h2.2l1.872,9.721H80.576l-.348-2.137H78.692l-.372,2.137Zm2.412-3.348h1.164l-.588-3.924Z" fill="#263238"/>
          <path id="Path_45" data-name="Path 45" d="M85.748,224.265a2.624,2.624,0,0,1-1.56-.414,2.247,2.247,0,0,1-.822-1.176,5.769,5.769,0,0,1-.246-1.77v-3.252a5.711,5.711,0,0,1,.252-1.8,2.145,2.145,0,0,1,.883-1.164,3.111,3.111,0,0,1,1.709-.408,3.329,3.329,0,0,1,1.65.347,1.992,1.992,0,0,1,.87.985,3.932,3.932,0,0,1,.264,1.512v.564H86.816v-.684a4.248,4.248,0,0,0-.048-.678.8.8,0,0,0-.221-.462.782.782,0,0,0-.559-.168.734.734,0,0,0-.576.2,1,1,0,0,0-.228.522,4.569,4.569,0,0,0-.048.679v4.308a3.388,3.388,0,0,0,.072.732.936.936,0,0,0,.27.5.819.819,0,0,0,.57.18.808.808,0,0,0,.576-.192,1.017,1.017,0,0,0,.282-.522,3.273,3.273,0,0,0,.078-.75v-1.032h-.948v-1.2h2.737v4.993h-1.3l-.12-.876a1.785,1.785,0,0,1-.576.732A1.681,1.681,0,0,1,85.748,224.265Z" fill="#263238"/>
          <path id="Path_46" data-name="Path 46" d="M90.128,224.121V214.4h4.236v1.369H92.108v2.58h1.74v1.38h-1.74v3.047h2.28v1.345Z" fill="#263238"/>
          <path id="Path_47" data-name="Path 47" d="M100.724,224.289a2.819,2.819,0,0,1-1.542-.367,2.045,2.045,0,0,1-.822-1.031,4.306,4.306,0,0,1-.252-1.53v-.348h1.848v.324a4.29,4.29,0,0,0,.078.774.859.859,0,0,0,.234.462.68.68,0,0,0,.48.156.635.635,0,0,0,.48-.163.911.911,0,0,0,.216-.473,4.152,4.152,0,0,0,.06-.768,2.438,2.438,0,0,0-.216-1.135.914.914,0,0,0-.864-.414H100.1v-1.367h.288a.989.989,0,0,0,.882-.348,2.586,2.586,0,0,0,.066-1.992.638.638,0,0,0-.624-.324.579.579,0,0,0-.6.36,2.672,2.672,0,0,0-.156.924v.432H98.108v-.528a3.078,3.078,0,0,1,.312-1.446,2.133,2.133,0,0,1,.888-.906,2.913,2.913,0,0,1,1.4-.312,3.084,3.084,0,0,1,1.416.3,2.035,2.035,0,0,1,.894.876,3.017,3.017,0,0,1,.306,1.428,2.618,2.618,0,0,1-.354,1.416,1.574,1.574,0,0,1-.87.72,1.609,1.609,0,0,1,.636.4,1.87,1.87,0,0,1,.432.738,3.621,3.621,0,0,1,.156,1.146,4.443,4.443,0,0,1-.252,1.554,2.137,2.137,0,0,1-.828,1.062A2.706,2.706,0,0,1,100.724,224.289Z" fill="#263238"/>
        </g>
        <line id="Line_9" data-name="Line 9" x2="48.76" transform="translate(65.36 233.068)" fill="none" stroke="#263238" stroke-miterlimit="10" stroke-width="1"/>
        <line id="Line_10" data-name="Line 10" x2="48.76" transform="translate(65.36 239.852)" fill="none" stroke="#263238" stroke-miterlimit="10" stroke-width="1"/>
        <line id="Line_11" data-name="Line 11" x2="48.76" transform="translate(65.36 246.636)" fill="none" stroke="#263238" stroke-miterlimit="10" stroke-width="1"/>
        <line id="Line_12" data-name="Line 12" x2="48.76" transform="translate(65.36 253.42)" fill="none" stroke="#263238" stroke-miterlimit="10" stroke-width="1"/>
      </g>
      <path id="Path_48" data-name="Path 48" d="M222.518,263.574H164.325v-46.66H113.076" fill="none" stroke="#263238" stroke-miterlimit="10" stroke-width="1"/>
    </g>
    <g id="Stage_2" data-name="Stage 2">
      <g id="Group_24" data-name="Group 24">
        <g id="Group_23" data-name="Group 23">
          <path id="Path_49" data-name="Path 49" d="M68.492,162.15a3.071,3.071,0,0,1-1.5-.331,2.085,2.085,0,0,1-.9-.995,4.562,4.562,0,0,1-.354-1.7l1.7-.289a4.947,4.947,0,0,0,.126,1,1.216,1.216,0,0,0,.312.6.732.732,0,0,0,.522.2.549.549,0,0,0,.522-.24,1.087,1.087,0,0,0,.138-.552,1.732,1.732,0,0,0-.294-1.027,4.971,4.971,0,0,0-.774-.834l-1.007-.876a4.024,4.024,0,0,1-.883-1.031,2.73,2.73,0,0,1-.342-1.416,2.374,2.374,0,0,1,.7-1.843,2.75,2.75,0,0,1,1.926-.641,2.629,2.629,0,0,1,1.2.24,1.838,1.838,0,0,1,.725.642,2.657,2.657,0,0,1,.361.876,6.137,6.137,0,0,1,.126.941l-1.693.253a7.54,7.54,0,0,0-.078-.78,1.066,1.066,0,0,0-.216-.528.6.6,0,0,0-.486-.192.574.574,0,0,0-.516.258,1.023,1.023,0,0,0-.168.57,1.429,1.429,0,0,0,.234.846,4.182,4.182,0,0,0,.642.69l.984.864a5.594,5.594,0,0,1,1.05,1.206,3.023,3.023,0,0,1,.438,1.674,2.468,2.468,0,0,1-.312,1.236,2.221,2.221,0,0,1-.87.863A2.639,2.639,0,0,1,68.492,162.15Z" fill="#263238"/>
          <path id="Path_50" data-name="Path 50" d="M72.944,162.018v-8.244h-1.5V152.3h4.968v1.477H74.937v8.244Z" fill="#263238"/>
          <path id="Path_51" data-name="Path 51" d="M76.46,162.018l1.884-9.721h2.2l1.872,9.721H80.576l-.348-2.137H78.692l-.372,2.137Zm2.412-3.349h1.164l-.588-3.923Z" fill="#263238"/>
          <path id="Path_52" data-name="Path 52" d="M85.748,162.162a2.624,2.624,0,0,1-1.56-.414,2.247,2.247,0,0,1-.822-1.176,5.769,5.769,0,0,1-.246-1.77V155.55a5.711,5.711,0,0,1,.252-1.8,2.145,2.145,0,0,1,.883-1.164,3.111,3.111,0,0,1,1.709-.408,3.329,3.329,0,0,1,1.65.347,1.992,1.992,0,0,1,.87.985,3.932,3.932,0,0,1,.264,1.512v.564H86.816V154.9a4.244,4.244,0,0,0-.048-.677.805.805,0,0,0-.221-.462.787.787,0,0,0-.559-.168.734.734,0,0,0-.576.2,1,1,0,0,0-.228.522,4.569,4.569,0,0,0-.048.679v4.308a3.387,3.387,0,0,0,.072.732.936.936,0,0,0,.27.5.819.819,0,0,0,.57.18.808.808,0,0,0,.576-.192,1.017,1.017,0,0,0,.282-.522,3.273,3.273,0,0,0,.078-.75v-1.032h-.948v-1.2h2.737v4.993h-1.3l-.12-.876a1.785,1.785,0,0,1-.576.732A1.687,1.687,0,0,1,85.748,162.162Z" fill="#263238"/>
          <path id="Path_53" data-name="Path 53" d="M90.128,162.018V152.3h4.236v1.369H92.108v2.58h1.74v1.38h-1.74v3.047h2.28v1.345Z" fill="#263238"/>
          <path id="Path_54" data-name="Path 54" d="M98.144,162.018V160.71l2.364-3.636q.264-.408.5-.78a4.389,4.389,0,0,0,.384-.762,2.3,2.3,0,0,0,.15-.834,1.2,1.2,0,0,0-.18-.714.6.6,0,0,0-.516-.246.734.734,0,0,0-.552.2,1.062,1.062,0,0,0-.264.522,3.258,3.258,0,0,0-.072.708v.456H98.144v-.48a4.09,4.09,0,0,1,.27-1.536,2.192,2.192,0,0,1,.852-1.05,2.769,2.769,0,0,1,1.53-.378,2.566,2.566,0,0,1,1.932.672,2.6,2.6,0,0,1,.648,1.884,3.163,3.163,0,0,1-.18,1.085,4.846,4.846,0,0,1-.474.961c-.2.307-.406.626-.63.954l-1.872,2.82h2.892v1.464Z" fill="#263238"/>
        </g>
        <line id="Line_13" data-name="Line 13" x2="48.76" transform="translate(65.36 170.965)" fill="none" stroke="#263238" stroke-miterlimit="10" stroke-width="1"/>
        <line id="Line_14" data-name="Line 14" x2="48.76" transform="translate(65.36 177.749)" fill="none" stroke="#263238" stroke-miterlimit="10" stroke-width="1"/>
        <line id="Line_15" data-name="Line 15" x2="48.76" transform="translate(65.36 184.533)" fill="none" stroke="#263238" stroke-miterlimit="10" stroke-width="1"/>
        <line id="Line_16" data-name="Line 16" x2="48.76" transform="translate(65.36 191.318)" fill="none" stroke="#263238" stroke-miterlimit="10" stroke-width="1"/>
      </g>
      <path id="Path_55" data-name="Path 55" d="M222.518,199.393H164.325v-46.66H113.076" fill="none" stroke="#263238" stroke-miterlimit="10" stroke-width="1"/>
    </g>
    <g id="Stage_1" data-name="Stage 1">
      <g id="Group_26" data-name="Group 26">
        <g id="Group_25" data-name="Group 25">
          <path id="Path_56" data-name="Path 56" d="M68.492,88.992a3.083,3.083,0,0,1-1.5-.33,2.091,2.091,0,0,1-.9-1,4.562,4.562,0,0,1-.354-1.7l1.7-.288a4.966,4.966,0,0,0,.126,1,1.217,1.217,0,0,0,.312.6.732.732,0,0,0,.522.2.549.549,0,0,0,.522-.24,1.087,1.087,0,0,0,.138-.552,1.727,1.727,0,0,0-.294-1.026,4.895,4.895,0,0,0-.774-.834l-1.007-.876A4.045,4.045,0,0,1,66.1,82.92a2.73,2.73,0,0,1-.342-1.416,2.37,2.37,0,0,1,.7-1.842,2.746,2.746,0,0,1,1.926-.642,2.629,2.629,0,0,1,1.2.24,1.838,1.838,0,0,1,.725.642,2.657,2.657,0,0,1,.361.876,6.149,6.149,0,0,1,.126.942l-1.693.252a7.541,7.541,0,0,0-.078-.78,1.066,1.066,0,0,0-.216-.528.6.6,0,0,0-.486-.192.574.574,0,0,0-.516.258,1.023,1.023,0,0,0-.168.57,1.429,1.429,0,0,0,.234.846,4.143,4.143,0,0,0,.642.69l.984.864a5.594,5.594,0,0,1,1.05,1.206,3.023,3.023,0,0,1,.438,1.674,2.468,2.468,0,0,1-.312,1.236,2.23,2.23,0,0,1-.87.864A2.649,2.649,0,0,1,68.492,88.992Z" fill="#263238"/>
          <path id="Path_57" data-name="Path 57" d="M72.944,88.86V80.616h-1.5V79.14h4.968v1.476H74.937V88.86Z" fill="#263238"/>
          <path id="Path_58" data-name="Path 58" d="M76.46,88.86l1.884-9.72h2.2l1.872,9.72H80.576l-.348-2.136H78.692L78.32,88.86Zm2.412-3.348h1.164l-.588-3.924Z" fill="#263238"/>
          <path id="Path_59" data-name="Path 59" d="M85.748,89a2.624,2.624,0,0,1-1.56-.414,2.247,2.247,0,0,1-.822-1.176,5.769,5.769,0,0,1-.246-1.77V82.392a5.715,5.715,0,0,1,.252-1.8,2.145,2.145,0,0,1,.883-1.164,3.111,3.111,0,0,1,1.709-.408,3.318,3.318,0,0,1,1.65.348,1.986,1.986,0,0,1,.87.984,3.932,3.932,0,0,1,.264,1.512v.564H86.816v-.684a4.248,4.248,0,0,0-.048-.678.805.805,0,0,0-.221-.462.787.787,0,0,0-.559-.168.731.731,0,0,0-.576.2.993.993,0,0,0-.228.522,4.546,4.546,0,0,0-.048.678v4.308a3.388,3.388,0,0,0,.072.732.932.932,0,0,0,.27.5.819.819,0,0,0,.57.18.808.808,0,0,0,.576-.192,1.017,1.017,0,0,0,.282-.522,3.273,3.273,0,0,0,.078-.75V85.068h-.948v-1.2h2.737V88.86h-1.3l-.12-.876a1.785,1.785,0,0,1-.576.732A1.681,1.681,0,0,1,85.748,89Z" fill="#263238"/>
          <path id="Path_60" data-name="Path 60" d="M90.128,88.86V79.14h4.236v1.368H92.108v2.58h1.74v1.38h-1.74v3.048h2.28V88.86Z" fill="#263238"/>
          <path id="Path_61" data-name="Path 61" d="M99.344,88.86v-7.8a2,2,0,0,1-.294.126l-.4.144q-.216.078-.408.144t-.3.114V80.22l.39-.192q.246-.12.522-.264a5.141,5.141,0,0,0,.522-.312,2.2,2.2,0,0,0,.378-.312h1.44v9.72Z" fill="#263238"/>
        </g>
        <line id="Line_17" data-name="Line 17" x2="48.76" transform="translate(65.36 97.808)" fill="none" stroke="#263238" stroke-miterlimit="10" stroke-width="1"/>
        <line id="Line_18" data-name="Line 18" x2="48.76" transform="translate(65.36 104.592)" fill="none" stroke="#263238" stroke-miterlimit="10" stroke-width="1"/>
        <line id="Line_19" data-name="Line 19" x2="48.76" transform="translate(65.36 111.376)" fill="none" stroke="#263238" stroke-miterlimit="10" stroke-width="1"/>
        <line id="Line_20" data-name="Line 20" x2="48.76" transform="translate(65.36 118.16)" fill="none" stroke="#263238" stroke-miterlimit="10" stroke-width="1"/>
      </g>
      <path id="Path_62" data-name="Path 62" d="M222.518,133.059H164.325V84.245H113.076" fill="none" stroke="#263238" stroke-miterlimit="10" stroke-width="1"/>
    </g>
    <g id="Character">
      <g id="Group_36" data-name="Group 36">
        <g id="Group_30" data-name="Group 30">
          <g id="Group_27" data-name="Group 27">
            <path id="Path_63" data-name="Path 63" d="M412.543,465.131a19.993,19.993,0,0,1-4.482,5.923c-2.721,2.241-7.684,5.923-8.8,6.883s-.961,1.921,2.881,3.041,9.444,1.121,12.326,0,5.6-.96,7.043-1.6,2.241-1.281,2.4-2.882-1.281-11.525-1.281-11.525Z" fill="#92e3a9" stroke="#263238" stroke-linecap="round" stroke-linejoin="round" stroke-width="1"/>
            <path id="Path_64" data-name="Path 64" d="M423.887,475.361a40.58,40.58,0,0,0-5.582,2.1c-4.642,2.081-5.442,2.721-11.2,2.721a11.312,11.312,0,0,1-7.492-2.531c-.137.111-.261.212-.351.29-1.121.96-.961,1.921,2.881,3.041s9.444,1.121,12.326,0,5.6-.96,7.043-1.6,2.241-1.281,2.4-2.882A8.171,8.171,0,0,0,423.887,475.361Z" fill="#fff" stroke="#263238" stroke-linecap="round" stroke-linejoin="round" stroke-width="1"/>
          </g>
          <g id="Group_28" data-name="Group 28">
            <path id="Path_65" data-name="Path 65" d="M431.271,466.892s-2.881,8.964-4.161,11.2-4.162,4.482-4,6.083,3.041,2.081,8,2.081,8.324-.961,9.765-3.522,1.6-3.2,2.4-4.8-.48-11.205-.48-11.205S432.712,467.052,431.271,466.892Z" fill="#92e3a9" stroke="#263238" stroke-linecap="round" stroke-linejoin="round" stroke-width="1"/>
            <path id="Path_66" data-name="Path 66" d="M440.876,482.739c1.44-2.561,1.6-3.2,2.4-4.8a8.885,8.885,0,0,0,.247-3.17c-.591,1.041-1.263,2.284-2.008,3.65-1.921,3.522-3.041,5.123-9.6,5.443a26.042,26.042,0,0,1-8.571-.709,1.983,1.983,0,0,0-.233,1.029c.16,1.6,3.041,2.081,8,2.081S439.435,485.3,440.876,482.739Z" fill="#fff" stroke="#263238" stroke-linecap="round" stroke-linejoin="round" stroke-width="1"/>
          </g>
          <g id="Group_29" data-name="Group 29">
            <path id="Path_67" data-name="Path 67" d="M397.976,355.641s-.8,15.847-.16,28.013,7.363,35.216,7.363,35.216,3.2,19.529,4.162,25.132,3.042,18.248,3.042,18.248l10.885-.64V443.2c0-3.361-.48-24.491-.48-24.491s5.6,28.813,6.082,32.015,1.6,12.645,1.6,12.645a24.834,24.834,0,0,0,5.6,1.121c2.081,0,7.2-1.441,7.2-1.441s1.921-19.209,1.761-24.971-2.722-14.407-3.522-16.968-3.2-10.085-3.041-10.725,1.921-21.77,1.921-26.092V372.769L437.034,355.8l-1.441-2.561s-18.728,3.2-27.212.96-10.725-2.881-10.725-2.881Z" fill="#263238" stroke="#263238" stroke-linecap="round" stroke-linejoin="round" stroke-width="1"/>
            <path id="Path_68" data-name="Path 68" d="M409.5,377.091l5.923,4.482s3.522,24.171,5.6,31.694" fill="none" stroke="#949494" stroke-linecap="round" stroke-linejoin="round" stroke-width="1"/>
          </g>
          <path id="Path_69" data-name="Path 69" d="M410.622,457.608s5.763-.16,9.764-.16,4.643.16,4.643,1.12.48,6.723,0,7.364-5.123.64-7.524.64-5.6.48-5.923-.961a37.281,37.281,0,0,0-.8-4.482C410.3,459.849,409.662,458.728,410.622,457.608Z" fill="#707070" stroke="#263238" stroke-linecap="round" stroke-linejoin="round" stroke-width="1"/>
          <path id="Path_70" data-name="Path 70" d="M429.03,458.728a6.346,6.346,0,0,0-.32,2.4,49.216,49.216,0,0,1,.48,5.443c0,1.441-.32,1.12,3.042,2.241s10.565,0,11.365-.961.8-6.082.8-7.2-.32-1.6-1.44-1.28-6.883,1.28-8.964.8a21.365,21.365,0,0,1-3.522-1.121S429.351,457.768,429.03,458.728Z" fill="#707070" stroke="#263238" stroke-linecap="round" stroke-linejoin="round" stroke-width="1"/>
        </g>
        <path id="Path_71" data-name="Path 71" d="M430.631,285.689l-6.083-3.2-15.207,4.162s-4.322,7.524-5.122,13.927-1.921,38.737-1.921,44.66-.32,10.4-.32,10.4,4,2.881,11.045,3.2a78.874,78.874,0,0,0,13.126-.32c1.6-.16,6.883-3.2,6.883-3.2s-.96-30.414-.96-34.736,3.041-24.812,3.681-27.693S430.631,285.689,430.631,285.689Z" fill="#707070" stroke="#263238" stroke-linecap="round" stroke-linejoin="round" stroke-width="1"/>
        <path id="Path_72" data-name="Path 72" d="M421.44,288.542c1.118,3.068-.928,6.632-4.571,7.96s-7.5-.082-8.621-3.15.928-6.631,4.571-7.959S420.322,285.475,421.44,288.542Z" fill="#fff" stroke="#263238" stroke-linecap="round" stroke-linejoin="round" stroke-width="1"/>
        <path id="Path_73" data-name="Path 73" d="M412.863,290.651s5.923,6.563,6.4,6.243,9.124-12.166,9.124-12.166l-2.241-3.681Z" fill="#fff" stroke="#263238" stroke-linecap="round" stroke-linejoin="round" stroke-width="1"/>
        <path id="Path_74" data-name="Path 74" d="M412.383,283.448a18.188,18.188,0,0,1-1.761,3.041c-.8.961-2.881,8.324-2.881,8.324l5.122-4.162s.32-4.642.48-5.762A1.327,1.327,0,0,0,412.383,283.448Z" fill="#fff" stroke="#263238" stroke-linecap="round" stroke-linejoin="round" stroke-width="1"/>
        <g id="Group_31" data-name="Group 31">
          <path id="Path_75" data-name="Path 75" d="M411.422,275.124a18.052,18.052,0,0,1,.961,3.362c0,.8-.641,12.645.48,12.165s12.806-8.324,13.286-9.6-.32-8.964,0-10.885.961-4.8.961-4.8-4.643,4.8-8.324,6.883A29.586,29.586,0,0,1,411.422,275.124Z" fill="#b5b5b5" stroke="#263238" stroke-linecap="round" stroke-linejoin="round" stroke-width="1"/>
          <path id="Path_76" data-name="Path 76" d="M412.383,278.486c0,.392-.154,3.438-.179,6.385l10.564-10.8-11.206,1.436A14.447,14.447,0,0,1,412.383,278.486Z" fill="#263238" stroke="#263238" stroke-linecap="round" stroke-linejoin="round" stroke-width="1"/>
        </g>
        <path id="Path_77" data-name="Path 77" d="M440.236,336.272l3.2-11.685s.963-15.547,2.628-22.206a21.872,21.872,0,0,1,5.7-10.289c-.8-1.441-10.725-4.162-13.766-5.283s-10.725-3.841-10.725-3.841-5.443,20.649-5.763,29.453-.8,14.247.48,22.73-5.589,28.7-2.228,33.826,10.194,4.966,13.319,5.661c5.994,1.331,14.158-2.21,14.319-3.33s-2.679-7.023-5.08-17.268A72.511,72.511,0,0,1,440.236,336.272Z" fill="#92e3a9" stroke="#263238" stroke-linecap="round" stroke-linejoin="round" stroke-width="1"/>
        <path id="Path_78" data-name="Path 78" d="M437.954,353.155l-13.459-1.641-.656,4.268,14.444,2.626" fill="none" stroke="#263238" stroke-linecap="round" stroke-linejoin="round" stroke-width="1"/>
        <path id="Path_79" data-name="Path 79" d="M396.269,292.829a8.067,8.067,0,0,0-4.8,3.108c-1.7,2.543-14.975,36.731-15.258,38.709s1.413,5.086,3.956,6.216,3.391,3.391,4.238,1.978,9.324-13,9.324-13l3.673-32.776Z" fill="#92e3a9" stroke="#263238" stroke-linecap="round" stroke-linejoin="round" stroke-width="1"/>
        <path id="Path_80" data-name="Path 80" d="M382.707,323.909s-7.911,9.889-8.194,12.15-.565,4.8.565,6.5,6.216,2.826,8.194,1.978,5.651-11.3,5.651-11.3Z" fill="#92e3a9" stroke="#263238" stroke-linecap="round" stroke-linejoin="round" stroke-width="1"/>
        <path id="Path_81" data-name="Path 81" d="M411.9,284.088a81.884,81.884,0,0,0-4.643,13.446,166.258,166.258,0,0,0-3.041,26.412c-.16,7.684-1.281,39.859-1.441,42.58s-2.241,4.162-5.282,4.8a20.983,20.983,0,0,1-6.723,0s3.361-22.89,3.521-26.572.161-9.124.161-12.166-1.416-18.561-1.576-22.243,2.91-16.718,3.39-17.518,8.75-4.1,9.391-4.579S410.142,285.369,411.9,284.088Z" fill="#92e3a9" stroke="#263238" stroke-linecap="round" stroke-linejoin="round" stroke-width="1"/>
        <path id="Path_82" data-name="Path 82" d="M394.293,354.468l5.581-.657.985-2.954-5.909.657" fill="none" stroke="#263238" stroke-linecap="round" stroke-linejoin="round" stroke-width="1"/>
        <path id="Path_83" data-name="Path 83" d="M424.868,337.553c-.16,2.881-.16,4.482-.16,4.482" fill="none" stroke="#263238" stroke-linecap="round" stroke-linejoin="round" stroke-width="1"/>
        <path id="Path_84" data-name="Path 84" d="M432.114,291.066c.048,5.4.118,13.191.118,13.191l-5.923,2.722,3.522,6.242s-2.931,13.089-4.289,20.191" fill="none" stroke="#263238" stroke-linecap="round" stroke-linejoin="round" stroke-width="1"/>
        <path id="Path_85" data-name="Path 85" d="M432.072,286.009c0,.124.01,1.4.026,3.232" fill="none" stroke="#263238" stroke-linecap="round" stroke-linejoin="round" stroke-width="1"/>
        <path id="Path_86" data-name="Path 86" d="M401.207,331.289c-1.313-7.753-3.551-20.469-3.551-20.469l5.282-5.6-3.681-2.882s1.12-2.241,2.081-4,5.122-9.285,5.122-9.285" fill="none" stroke="#263238" stroke-linecap="round" stroke-linejoin="round" stroke-width="1"/>
        <path id="Path_87" data-name="Path 87" d="M401.978,335.952c-.1-.656-.25-1.556-.428-2.627" fill="none" stroke="#263238" stroke-linecap="round" stroke-linejoin="round" stroke-width="1"/>
        <g id="Group_34" data-name="Group 34">
          <path id="Path_88" data-name="Path 88" d="M406.158,256.334c-.5-.033-6.736.391-7.071-4.664a5.9,5.9,0,0,1,4.107-6.268s-3.908-4.286,1.113-6.636,10.977-1.115,10.977-1.115-.579-3.9,4.041-2.751,7.795,6.39,7.928,6.9,6.536,2.615,8.663,5.944,1.5,7.649-.2,10.555a76.82,76.82,0,0,1-5.354,7.36,4.2,4.2,0,0,1-4.231.557c-2.449-1-4.075-1.781-3.941-3.785s-.514-7.415-1.137-8.127-2.116-.98-5.177-.345S406.158,256.334,406.158,256.334Z" fill="#263238" stroke="#263238" stroke-linecap="round" stroke-linejoin="round" stroke-width="1"/>
          <g id="Group_33" data-name="Group 33">
            <g id="Group_32" data-name="Group 32">
              <path id="Path_89" data-name="Path 89" d="M406.091,254.82a45.584,45.584,0,0,1-.734,5.99,134.2,134.2,0,0,0-2.27,13.94c-.2,3.006,3,5.4,4.666,5.51s4.453-1.381,7-1.883,9.418-2.9,10.531-4.5,1.481-2.082,1.481-2.082,5.266-.992,6.056-5.3-2.027-4.831-4.109-3.8a15.979,15.979,0,0,0-3.151,1.972s-1.5-.1-1.258-1.258a13.963,13.963,0,0,0,.479-2.149c.055-.835-.413-1.37-.958-3.251s-.891-1.737-.112-3.362,2.315-4.543,2.315-4.543S411.568,250.655,406.091,254.82Z" fill="#b5b5b5" stroke="#263238" stroke-linecap="round" stroke-linejoin="round" stroke-width="1"/>
              <path id="Path_90" data-name="Path 90" d="M413.105,255.933a6.921,6.921,0,0,1,4.1.761" fill="none" stroke="#263238" stroke-linecap="round" stroke-linejoin="round" stroke-width="1"/>
              <path id="Path_91" data-name="Path 91" d="M408.81,255.647a3.156,3.156,0,0,0-2.6-.091" fill="none" stroke="#263238" stroke-linecap="round" stroke-linejoin="round" stroke-width="1"/>
              <path id="Path_92" data-name="Path 92" d="M407.084,270.151s2.1,1.146,4.921-.847" fill="none" stroke="#263238" stroke-linecap="round" stroke-linejoin="round" stroke-width="1"/>
              <path id="Path_93" data-name="Path 93" d="M415.354,259.294a1,1,0,1,1-.935-1.068A1,1,0,0,1,415.354,259.294Z" fill="#263238"/>
              <path id="Path_94" data-name="Path 94" d="M408.039,258.3a.837.837,0,1,1-.779-.891A.836.836,0,0,1,408.039,258.3Z" fill="#263238"/>
            </g>
          </g>
          <path id="Path_95" data-name="Path 95" d="M409.432,258.538s-6.625,5.29-6.079,7.171,6.091,1.747,6.091,1.747" fill="#b5b5b5" stroke="#263238" stroke-linecap="round" stroke-linejoin="round" stroke-width="1"/>
        </g>
        <g id="Group_35" data-name="Group 35">
          <path id="Path_96" data-name="Path 96" d="M386.1,314.3l3.674-3.391s4.238,1.978,3.955,3.956S386.1,314.3,386.1,314.3Z" fill="#b5b5b5" stroke="#263238" stroke-linecap="round" stroke-linejoin="round" stroke-width="1"/>
          <path id="Path_97" data-name="Path 97" d="M384.394,315.884l3.673-3.39s4.239,1.977,3.956,3.955S384.394,315.884,384.394,315.884Z" fill="#b5b5b5" stroke="#263238" stroke-linecap="round" stroke-linejoin="round" stroke-width="1"/>
          <path id="Path_98" data-name="Path 98" d="M398.326,314.861s.365-3.042,1.7-3.042,2.555.852,2.19,2.433A17.435,17.435,0,0,1,401,317.537Z" fill="#b5b5b5" stroke="#263238" stroke-linecap="round" stroke-linejoin="round" stroke-width="1"/>
          <path id="Path_99" data-name="Path 99" d="M389.771,310.912s0-1.413,3.108-.565,4.8,4.238,3.955,5.651-3.108-1.13-3.108-1.13S392.6,311.76,389.771,310.912Z" fill="#b5b5b5" stroke="#263238" stroke-linecap="round" stroke-linejoin="round" stroke-width="1"/>
        </g>
        <path id="Path_100" data-name="Path 100" d="M374.191,313.642l13.652,30.634,24.641,2-11.654-31.3Z" fill="#263238" stroke="#263238" stroke-linecap="round" stroke-linejoin="round" stroke-width="1"/>
        <path id="Path_101" data-name="Path 101" d="M445.73,289.5s-5.182,2.057-6.192,5.711-.039,38.3-.039,38.3l-23.452-1.13-.847,10.736,28.857,7.352s4.208.9,6.268-1.807,4.907-40.988,5.254-45.088.643-9.916-2.9-11.812A15.315,15.315,0,0,0,445.73,289.5Z" fill="#92e3a9" stroke="#263238" stroke-linecap="round" stroke-linejoin="round" stroke-width="1"/>
        <path id="Path_102" data-name="Path 102" d="M439.5,333.516s4.364.927,6.662,2.9" fill="none" stroke="#263238" stroke-linecap="round" stroke-linejoin="round" stroke-width="1"/>
        <path id="Path_103" data-name="Path 103" d="M416.047,332.386s-1.13.565-4.238-1.7a13.141,13.141,0,0,0-5.651-2.543l.565,3.108s-9.324,1.131-10.171,1.978-1.7,3.108.565,3.956,2.825,0,3.673,1.413a14.229,14.229,0,0,0,5.651,4.238c1.695.565,9.041-2.261,9.041-2.261Z" fill="#b5b5b5" stroke="#263238" stroke-linecap="round" stroke-linejoin="round" stroke-width="1"/>
      </g>
    </g>
  </g>
</svg>
