<svg xmlns="http://www.w3.org/2000/svg" width="500" height="368.761" viewBox="0 0 500 368.761">
  <g id="Group_139" data-name="Group 139" transform="translate(0 -54.953)">
    <g id="Background_Complete" data-name="Background Complete">
      <g id="Group_1" data-name="Group 1">
        <rect id="Rectangle_1" data-name="Rectangle 1" width="33.122" height="0.25" transform="translate(416.779 398.494)" fill="#ebebeb"/>
        <rect id="Rectangle_2" data-name="Rectangle 2" width="8.693" height="0.25" transform="translate(322.527 401.208)" fill="#ebebeb"/>
        <rect id="Rectangle_3" data-name="Rectangle 3" width="19.192" height="0.25" transform="translate(396.586 389.208)" fill="#ebebeb"/>
        <rect id="Rectangle_4" data-name="Rectangle 4" width="43.193" height="0.25" transform="translate(52.459 390.888)" fill="#ebebeb"/>
        <rect id="Rectangle_5" data-name="Rectangle 5" width="6.333" height="0.25" transform="translate(104.556 390.888)" fill="#ebebeb"/>
        <rect id="Rectangle_6" data-name="Rectangle 6" width="93.676" height="0.25" transform="translate(131.471 395.111)" fill="#ebebeb"/>
        <path id="Path_1" data-name="Path 1" d="M237.014,337.8H43.915a5.715,5.715,0,0,1-5.708-5.708V60.66a5.714,5.714,0,0,1,5.708-5.707h193.1a5.714,5.714,0,0,1,5.707,5.707V332.092A5.715,5.715,0,0,1,237.014,337.8ZM43.915,55.2a5.463,5.463,0,0,0-5.458,5.457V332.092a5.464,5.464,0,0,0,5.458,5.458h193.1a5.463,5.463,0,0,0,5.457-5.458V60.66a5.463,5.463,0,0,0-5.457-5.457Z" fill="#ebebeb"/>
        <path id="Path_2" data-name="Path 2" d="M453.311,337.8h-193.1a5.714,5.714,0,0,1-5.707-5.708V60.66a5.713,5.713,0,0,1,5.707-5.707h193.1a5.714,5.714,0,0,1,5.708,5.707V332.092A5.715,5.715,0,0,1,453.311,337.8ZM260.212,55.2a5.463,5.463,0,0,0-5.457,5.457V332.092a5.463,5.463,0,0,0,5.457,5.458h193.1a5.464,5.464,0,0,0,5.458-5.458V60.66a5.464,5.464,0,0,0-5.458-5.457Z" fill="#ebebeb"/>
        <rect id="Rectangle_7" data-name="Rectangle 7" width="500" height="0.25" transform="translate(0 382.398)" fill="#ebebeb"/>
      </g>
      <g id="Group_2" data-name="Group 2">
        <path id="Path_3" data-name="Path 3" d="M85.856,180.765V161.29h-1.5v19.475a2.408,2.408,0,0,0-1.666,2.286v6.166a2.417,2.417,0,0,0,2.416,2.417h0a2.417,2.417,0,0,0,2.417-2.417v-6.166A2.408,2.408,0,0,0,85.856,180.765Z" fill="#e0e0e0"/>
        <rect id="Rectangle_8" data-name="Rectangle 8" width="2.988" height="219.258" transform="translate(90.184 161.29)" fill="#ebebeb"/>
        <path id="Path_4" data-name="Path 4" d="M111.178,381.449h-39a3.649,3.649,0,0,1,3.649-3.648h31.7a3.648,3.648,0,0,1,3.648,3.648Z" fill="#e0e0e0"/>
        <path id="Path_5" data-name="Path 5" d="M90.184,176.8l2.988-.983V161.29H90.184Z" fill="#e0e0e0"/>
        <path id="Path_6" data-name="Path 6" d="M109.578,115.8h-35.8l-11,47.5h57.8Z" fill="#f0f0f0"/>
      </g>
      <g id="Group_21" data-name="Group 21">
        <g id="Group_9" data-name="Group 9">
          <g id="Group_4" data-name="Group 4">
            <path id="Path_7" data-name="Path 7" d="M266.658,129.186v-8.528a.817.817,0,0,1,0-1.633c3.251,0,6.5-.022,9.756-.041v11.835h-9.756A.817.817,0,0,1,266.658,129.186Z" fill="#ebebeb"/>
            <rect id="Rectangle_9" data-name="Rectangle 9" width="7.578" height="8.516" transform="translate(266.658 120.658)" fill="#f5f5f5"/>
            <path id="Path_8" data-name="Path 8" d="M272.646,130h26.271c1.806,0,3.27-2.275,3.27-5.081s-1.464-5.08-3.27-5.08H272.646Z" fill="#fafafa"/>
            <g id="Group_3" data-name="Group 3">
              <path id="Path_9" data-name="Path 9" d="M272.646,119.025c8.6,0,17.216-.155,25.815,0,5.891.107,6.208,11.4.43,11.794-4.028.277-8.171,0-12.206,0H272.646a.817.817,0,0,1,0-1.633H297.1c1.887,0,3.236-.021,3.965-2.246.631-1.926.433-5.856-2.15-6.282a5.684,5.684,0,0,0-.885,0H272.646a.817.817,0,0,1,0-1.633Z" fill="#e6e6e6"/>
            </g>
          </g>
          <g id="Group_6" data-name="Group 6">
            <path id="Path_10" data-name="Path 10" d="M266.57,117.67v-7.579a.726.726,0,0,1,0-1.451c2.889,0,5.779-.02,8.67-.037v10.518h-8.67A.726.726,0,0,1,266.57,117.67Z" fill="#ebebeb"/>
            <rect id="Rectangle_10" data-name="Rectangle 10" width="6.734" height="7.568" transform="translate(266.57 110.091)" fill="#f5f5f5"/>
            <path id="Path_11" data-name="Path 11" d="M271.892,118.4h23.347c1.6,0,2.906-2.022,2.906-4.515s-1.3-4.515-2.906-4.515H271.892Z" fill="#fafafa"/>
            <g id="Group_5" data-name="Group 5">
              <path id="Path_12" data-name="Path 12" d="M271.892,108.64c7.643,0,15.3-.138,22.942,0,5.235.1,5.516,10.129.381,10.481-3.579.246-7.261,0-10.847,0H271.892a.726.726,0,0,1,0-1.451h21.734c1.676,0,2.875-.019,3.523-2,.561-1.711.385-5.2-1.91-5.582a5.169,5.169,0,0,0-.787,0h-22.56a.726.726,0,0,1,0-1.451Z" fill="#e6e6e6"/>
            </g>
          </g>
          <g id="Group_8" data-name="Group 8">
            <path id="Path_13" data-name="Path 13" d="M266.658,140.777v-8.528a.817.817,0,0,1,0-1.633c3.251,0,6.5-.022,9.756-.042V142.41h-9.756A.817.817,0,0,1,266.658,140.777Z" fill="#ebebeb"/>
            <rect id="Rectangle_11" data-name="Rectangle 11" width="7.578" height="8.516" transform="translate(266.658 132.249)" fill="#f5f5f5"/>
            <path id="Path_14" data-name="Path 14" d="M272.646,141.594h26.271c1.806,0,3.27-2.275,3.27-5.081s-1.464-5.081-3.27-5.081H272.646Z" fill="#fafafa"/>
            <g id="Group_7" data-name="Group 7">
              <path id="Path_15" data-name="Path 15" d="M272.646,130.616c8.6,0,17.216-.155,25.815,0,5.891.106,6.208,11.4.43,11.794-4.028.276-8.171,0-12.206,0H272.646a.817.817,0,0,1,0-1.633H297.1c1.887,0,3.236-.021,3.965-2.247.631-1.926.433-5.856-2.15-6.281a5.685,5.685,0,0,0-.885,0H272.646a.817.817,0,0,1,0-1.633Z" fill="#e6e6e6"/>
            </g>
          </g>
        </g>
        <g id="Group_12" data-name="Group 12">
          <path id="Path_16" data-name="Path 16" d="M331.2,141.089h54.9v7.045H154.247v-7.045Z" fill="#f5f5f5"/>
          <g id="Group_10" data-name="Group 10">
            <path id="Path_17" data-name="Path 17" d="M372.98,165.263V148.134h8.564Z" fill="#e0e0e0"/>
            <path id="Path_18" data-name="Path 18" d="M377.262,165.263l8.564-17.129h-4.282l-8.564,17.129Z" fill="#f5f5f5"/>
          </g>
          <g id="Group_11" data-name="Group 11">
            <path id="Path_19" data-name="Path 19" d="M167.094,165.263V148.134h-8.564Z" fill="#e0e0e0"/>
            <path id="Path_20" data-name="Path 20" d="M162.811,165.263l-8.564-17.129h4.282l8.564,17.129Z" fill="#f5f5f5"/>
          </g>
        </g>
        <g id="Group_13" data-name="Group 13">
          <path id="Path_21" data-name="Path 21" d="M317.4,123.933a18.631,18.631,0,1,0,37.263,0v-.649a18.631,18.631,0,1,0-37.263,0Z" fill="#e6e6e6"/>
          <path id="Path_22" data-name="Path 22" d="M317.4,121.254a18.631,18.631,0,1,0,37.263,0v-.649a18.631,18.631,0,0,0-37.263,0Z" fill="#f0f0f0"/>
          <path id="Path_23" data-name="Path 23" d="M321.478,120.605a14.556,14.556,0,1,0,14.556-14.556A14.556,14.556,0,0,0,321.478,120.605Z" fill="#fafafa"/>
          <path id="Path_24" data-name="Path 24" d="M336.034,108.348a14.548,14.548,0,0,0-14.5,13.407c-.03-.381-.058-.762-.058-1.15a14.557,14.557,0,0,1,29.113,0c0,.388-.029.769-.058,1.15A14.549,14.549,0,0,0,336.034,108.348Z" fill="#e6e6e6"/>
          <path id="Path_25" data-name="Path 25" d="M326.841,120.6h7.653v-7.654a1.54,1.54,0,0,1,3.08,0v9.194a1.54,1.54,0,0,1-1.54,1.54h-9.193a1.54,1.54,0,1,1,0-3.08Z" fill="#e0e0e0"/>
          <path id="Path_26" data-name="Path 26" d="M326.841,122.145a1.54,1.54,0,1,1,0-3.08h9.193a1.54,1.54,0,1,1,0,3.08Z" fill="#f5f5f5"/>
          <path id="Path_27" data-name="Path 27" d="M334.494,111.412a1.54,1.54,0,0,1,3.08,0v9.193a1.54,1.54,0,0,1-3.08,0Z" fill="#ebebeb"/>
        </g>
        <g id="Group_20" data-name="Group 20">
          <g id="Group_14" data-name="Group 14">
            <rect id="Rectangle_12" data-name="Rectangle 12" width="11.229" height="46.645" transform="translate(230.188 141.331) rotate(180)" fill="#e0e0e0"/>
            <circle id="Ellipse_1" data-name="Ellipse 1" cx="3.455" cy="3.455" r="3.455" transform="translate(221.118 127.917)" fill="#fafafa"/>
            <rect id="Rectangle_13" data-name="Rectangle 13" width="6.91" height="22.458" transform="translate(228.028 121.655) rotate(180)" fill="#f0f0f0" opacity="0.6"/>
            <rect id="Rectangle_14" data-name="Rectangle 14" width="6.91" height="3.167" transform="translate(228.028 102.364) rotate(180)" fill="#fafafa" opacity="0.6"/>
          </g>
          <g id="Group_15" data-name="Group 15">
            <rect id="Rectangle_15" data-name="Rectangle 15" width="9.069" height="37.674" transform="translate(219.602 141.331) rotate(180)" fill="#e6e6e6"/>
            <path id="Path_28" data-name="Path 28" d="M212.276,133.287a2.79,2.79,0,1,0,2.791-2.791A2.792,2.792,0,0,0,212.276,133.287Z" fill="#fafafa"/>
            <rect id="Rectangle_16" data-name="Rectangle 16" width="5.581" height="18.139" transform="translate(217.857 125.438) rotate(180)" fill="#f0f0f0" opacity="0.6"/>
            <rect id="Rectangle_17" data-name="Rectangle 17" width="5.581" height="2.558" transform="translate(217.857 109.858) rotate(180)" fill="#fafafa" opacity="0.6"/>
          </g>
          <g id="Group_16" data-name="Group 16">
            <rect id="Rectangle_18" data-name="Rectangle 18" width="11.229" height="46.645" transform="translate(248.669 141.331) rotate(180)" fill="#ebebeb"/>
            <circle id="Ellipse_2" data-name="Ellipse 2" cx="3.455" cy="3.455" r="3.455" transform="translate(239.6 127.917)" fill="#e0e0e0"/>
            <rect id="Rectangle_19" data-name="Rectangle 19" width="6.91" height="22.458" transform="translate(246.51 121.655) rotate(180)" fill="#fafafa" opacity="0.6"/>
            <rect id="Rectangle_20" data-name="Rectangle 20" width="6.91" height="3.167" transform="translate(246.51 102.364) rotate(180)" fill="#fafafa" opacity="0.6"/>
          </g>
          <g id="Group_17" data-name="Group 17">
            <rect id="Rectangle_21" data-name="Rectangle 21" width="11.229" height="46.645" transform="translate(211.334 141.331) rotate(180)" fill="#e0e0e0"/>
            <circle id="Ellipse_3" data-name="Ellipse 3" cx="3.455" cy="3.455" r="3.455" transform="translate(202.265 127.917)" fill="#fafafa"/>
            <rect id="Rectangle_22" data-name="Rectangle 22" width="6.91" height="22.458" transform="translate(209.175 121.655) rotate(180)" fill="#f0f0f0" opacity="0.6"/>
            <rect id="Rectangle_23" data-name="Rectangle 23" width="6.91" height="3.167" transform="translate(209.175 102.364) rotate(180)" fill="#fafafa" opacity="0.6"/>
          </g>
          <g id="Group_18" data-name="Group 18">
            <rect id="Rectangle_24" data-name="Rectangle 24" width="11.229" height="46.645" transform="matrix(-0.995, -0.105, 0.105, -0.995, 195.25, 141.79)" fill="#ebebeb"/>
            <path id="Path_29" data-name="Path 29" d="M187.272,130.937a3.455,3.455,0,1,0,3.8-3.075A3.455,3.455,0,0,0,187.272,130.937Z" fill="#e0e0e0"/>
            <rect id="Rectangle_25" data-name="Rectangle 25" width="6.91" height="22.457" transform="translate(195.16 121.996) rotate(-174)" fill="#f5f5f5" opacity="0.6"/>
            <rect id="Rectangle_26" data-name="Rectangle 26" width="6.91" height="3.167" transform="translate(197.176 102.811) rotate(-174)" fill="#fafafa" opacity="0.6"/>
          </g>
          <g id="Group_19" data-name="Group 19">
            <rect id="Rectangle_27" data-name="Rectangle 27" width="9.069" height="37.674" transform="translate(238.455 141.331) rotate(180)" fill="#e6e6e6"/>
            <path id="Path_30" data-name="Path 30" d="M231.13,133.287a2.79,2.79,0,1,0,2.79-2.791A2.791,2.791,0,0,0,231.13,133.287Z" fill="#fafafa"/>
            <rect id="Rectangle_28" data-name="Rectangle 28" width="5.581" height="18.139" transform="translate(236.711 125.438) rotate(180)" fill="#f0f0f0" opacity="0.6"/>
            <rect id="Rectangle_29" data-name="Rectangle 29" width="5.581" height="2.558" transform="translate(236.711 109.858) rotate(180)" fill="#fafafa" opacity="0.6"/>
          </g>
        </g>
      </g>
    </g>
    <g id="Shadow">
      <ellipse id="_Path_" data-name="&lt;Path&gt;" cx="193.889" cy="11.323" rx="193.889" ry="11.323" transform="translate(51.289 401.068)" fill="#f5f5f5"/>
    </g>
    <g id="Screen">
      <g id="Group_91" data-name="Group 91">
        <path id="Path_33" data-name="Path 33" d="M249.427,274.8h-18.74l9-28.5h18.74Z" fill="#407bff"/>
        <path id="Path_34" data-name="Path 34" d="M237.06,254.627H255.8l2.627-8.319h-18.74Z" opacity="0.2"/>
        <g id="Group_23" data-name="Group 23">
          <rect id="Rectangle_30" data-name="Rectangle 30" width="35.864" height="4.333" transform="translate(228.398 272.992)" fill="#407bff"/>
          <rect id="Rectangle_31" data-name="Rectangle 31" width="35.864" height="4.333" transform="translate(228.398 272.992)" fill="#fff" opacity="0.5"/>
          <rect id="Rectangle_32" data-name="Rectangle 32" width="17.932" height="4.333" transform="translate(228.398 272.992)" fill="#fff" opacity="0.6"/>
        </g>
        <g id="Group_24" data-name="Group 24">
          <path id="Path_35" data-name="Path 35" d="M403.213,240.117l-6.53-74.64-102.214,9.012h-103L87.678,165.477l-2,2,6.53,74.64L196,251.129H299l102.212-9.011Z" fill="#407bff"/>
          <path id="Path_36" data-name="Path 36" d="M403.213,240.117l-6.53-74.64-102.214,9.012h-103L87.678,165.477l6.53,74.64L198,249.129H301Z" fill="#fff" opacity="0.2"/>
        </g>
        <rect id="Rectangle_33" data-name="Rectangle 33" width="96.634" height="68.902" transform="matrix(0.996, -0.087, 0.087, 0.996, 297.705, 177.195)" fill="#fff" opacity="0.8"/>
        <g id="Group_36" data-name="Group 36">
          <g id="Group_27" data-name="Group 27">
            <g id="Group_25" data-name="Group 25">
              <path id="Path_37" data-name="Path 37" d="M315.77,184.138a1.072,1.072,0,0,1-.187-2.135l24.209-2.135a1.072,1.072,0,0,1,.187,2.136Z" fill="#263238" opacity="0.5"/>
            </g>
            <g id="Group_26" data-name="Group 26" opacity="0.5">
              <path id="Path_38" data-name="Path 38" d="M315.77,184.138a1.072,1.072,0,0,1-.187-2.135l24.209-2.135a1.072,1.072,0,0,1,.187,2.136Z" fill="#fff" opacity="0.5"/>
            </g>
          </g>
          <g id="Group_30" data-name="Group 30">
            <g id="Group_28" data-name="Group 28">
              <path id="Path_39" data-name="Path 39" d="M355.155,180.666a1.072,1.072,0,0,1-.187-2.136l24.21-2.134a1.072,1.072,0,0,1,.187,2.135Z" fill="#263238" opacity="0.5"/>
            </g>
            <g id="Group_29" data-name="Group 29" opacity="0.5">
              <path id="Path_40" data-name="Path 40" d="M355.155,180.666a1.072,1.072,0,0,1-.187-2.136l24.21-2.134a1.072,1.072,0,0,1,.187,2.135Z" fill="#fff" opacity="0.5"/>
            </g>
          </g>
          <g id="Group_32" data-name="Group 32">
            <ellipse id="Ellipse_4" data-name="Ellipse 4" cx="12.319" cy="12.414" rx="12.319" ry="12.414" transform="translate(316.349 186.381) rotate(-2.515)" fill="#407bff"/>
            <g id="Group_31" data-name="Group 31" opacity="0.9">
              <path id="Path_41" data-name="Path 41" d="M323.866,204.658l-1.4.123a.659.659,0,0,1-.712-.6l-.579-6.616a.66.66,0,0,1,.6-.717l1.4-.124a.659.659,0,0,1,.712.6l.579,6.616A.66.66,0,0,1,323.866,204.658Z" fill="#fff"/>
              <path id="Path_42" data-name="Path 42" d="M325.7,196.233c.9-.9,3.16-3.412,3.149-6.124a1.363,1.363,0,0,1,2.5-.745c.5.861.617,2.514-.284,5.6l3.456-.305a2.328,2.328,0,0,1,2.251,1.218h0a2.371,2.371,0,0,1,.24,1.57L336,202.667a2.33,2.33,0,0,1-2.447,1.891l-6.614-.466a1.122,1.122,0,0,1-1.035-1.025l-.52-5.945A1.111,1.111,0,0,1,325.7,196.233Z" fill="#fff"/>
            </g>
          </g>
          <g id="Group_34" data-name="Group 34">
            <ellipse id="Ellipse_5" data-name="Ellipse 5" cx="12.319" cy="12.414" rx="12.319" ry="12.414" transform="matrix(0.999, -0.044, 0.044, 0.999, 355.734, 182.909)" fill="#fff" opacity="0.9"/>
            <g id="Group_33" data-name="Group 33">
              <path id="Path_43" data-name="Path 43" d="M362.22,189.386l-1.4.124a.66.66,0,0,0-.6.717l.579,6.616a.658.658,0,0,0,.712.6l1.4-.123a.66.66,0,0,0,.6-.717l-.579-6.617A.66.66,0,0,0,362.22,189.386Z" fill="#407bff"/>
              <path id="Path_44" data-name="Path 44" d="M365.487,197.361c1.043.725,3.7,2.807,4.163,5.479a1.362,1.362,0,0,0,2.588.3c.342-.935.172-2.583-1.251-5.462l3.456-.305a2.33,2.33,0,0,0,2.005-1.593h0a2.366,2.366,0,0,0-.037-1.588l-1.9-4.965a2.327,2.327,0,0,0-2.738-1.434l-6.431,1.616a1.125,1.125,0,0,0-.842,1.191l.52,5.945A1.1,1.1,0,0,0,365.487,197.361Z" fill="#407bff"/>
            </g>
          </g>
          <g id="Group_35" data-name="Group 35">
            <rect id="Rectangle_34" data-name="Rectangle 34" width="7.33" height="8.479" transform="translate(318.717 230.059) rotate(-5.038)" fill="#407bff"/>
            <rect id="Rectangle_35" data-name="Rectangle 35" width="7.33" height="6.63" transform="translate(326.18 231.257) rotate(-5.039)" fill="#fff" opacity="0.9"/>
            <rect id="Rectangle_36" data-name="Rectangle 36" width="7.33" height="15.244" transform="translate(340.03 221.389) rotate(-5.038)" fill="#fff" opacity="0.9"/>
            <rect id="Rectangle_37" data-name="Rectangle 37" width="7.33" height="17.058" transform="translate(354.474 218.294) rotate(-5.038)" fill="#fff" opacity="0.9"/>
            <rect id="Rectangle_38" data-name="Rectangle 38" width="7.33" height="13.26" transform="translate(369.409 220.79) rotate(-5.039)" fill="#fff" opacity="0.9"/>
            <rect id="Rectangle_39" data-name="Rectangle 39" width="7.33" height="13.874" transform="translate(332.848 223.398) rotate(-5.038)" fill="#407bff"/>
            <rect id="Rectangle_40" data-name="Rectangle 40" width="7.33" height="18.881" transform="translate(347.013 217.122) rotate(-5.039)" fill="#407bff"/>
            <rect id="Rectangle_41" data-name="Rectangle 41" width="7.33" height="15.244" transform="translate(361.934 219.458) rotate(-5.038)" fill="#407bff"/>
            <rect id="Rectangle_42" data-name="Rectangle 42" width="7.33" height="23.683" transform="translate(375.799 209.764) rotate(-5.038)" fill="#407bff"/>
          </g>
        </g>
        <path id="Path_45" data-name="Path 45" d="M90.964,168.74l6.005,68.64,97.745,8.487-6.005-68.64Z" fill="#fff" opacity="0.8"/>
        <g id="Group_41" data-name="Group 41">
          <path id="Path_46" data-name="Path 46" d="M160.772,200.52l-52.457-4.555a4.937,4.937,0,0,1-4.348-4.318l-.662-7.558a3.243,3.243,0,0,1,3.654-3.624l52.457,4.555a4.938,4.938,0,0,1,4.349,4.318l.661,7.558A3.243,3.243,0,0,1,160.772,200.52Z" fill="#fff"/>
          <path id="Path_47" data-name="Path 47" d="M116.987,189.027a3.878,3.878,0,0,1-4.37,4.334,5.905,5.905,0,0,1-5.2-5.165,3.879,3.879,0,0,1,4.37-4.335A5.907,5.907,0,0,1,116.987,189.027Z" fill="#407bff"/>
          <g id="Group_39" data-name="Group 39">
            <g id="Group_37" data-name="Group 37">
              <path id="Path_48" data-name="Path 48" d="M123.113,186.892a1.282,1.282,0,0,1-1.129-1.122.842.842,0,0,1,.949-.941l32.15,2.792a1.283,1.283,0,0,1,1.13,1.121.842.842,0,0,1-.949.941Z" fill="#263238"/>
              <path id="Path_49" data-name="Path 49" d="M123.764,194.329a1.283,1.283,0,0,1-1.13-1.121.842.842,0,0,1,.949-.941l18.831,1.635a1.282,1.282,0,0,1,1.129,1.121.842.842,0,0,1-.949.941Z" fill="#263238"/>
              <path id="Path_50" data-name="Path 50" d="M123.438,190.611a1.283,1.283,0,0,1-1.129-1.122.842.842,0,0,1,.949-.941l27.27,2.368a1.282,1.282,0,0,1,1.129,1.121.842.842,0,0,1-.949.941Z" fill="#263238"/>
            </g>
            <g id="Group_38" data-name="Group 38" opacity="0.5">
              <path id="Path_51" data-name="Path 51" d="M123.113,186.892a1.282,1.282,0,0,1-1.129-1.122.842.842,0,0,1,.949-.941l32.15,2.792a1.283,1.283,0,0,1,1.13,1.121.842.842,0,0,1-.949.941Z" fill="#fff"/>
              <path id="Path_52" data-name="Path 52" d="M123.764,194.329a1.283,1.283,0,0,1-1.13-1.121.842.842,0,0,1,.949-.941l18.831,1.635a1.282,1.282,0,0,1,1.129,1.121.842.842,0,0,1-.949.941Z" fill="#fff"/>
              <path id="Path_53" data-name="Path 53" d="M123.438,190.611a1.283,1.283,0,0,1-1.129-1.122.842.842,0,0,1,.949-.941l27.27,2.368a1.282,1.282,0,0,1,1.129,1.121.842.842,0,0,1-.949.941Z" fill="#fff"/>
            </g>
          </g>
          <path id="Path_54" data-name="Path 54" d="M163.512,177.85l-6.133-.467a1.237,1.237,0,0,0-1.377,1.4l.5,5.1a1.887,1.887,0,0,0,1.671,1.634l1.774.14.871,1.245a.65.65,0,0,0,1.1.077l.625-1.146,1.765.14a1.238,1.238,0,0,0,1.382-1.4l-.5-5.091A1.884,1.884,0,0,0,163.512,177.85Z" fill="#407bff"/>
          <g id="Group_40" data-name="Group 40" opacity="0.9">
            <path id="Path_55" data-name="Path 55" d="M158.794,181.994a2.505,2.505,0,0,1-.825-1.518,1.031,1.031,0,0,1,1.225-1.206c.753.066,1.04.434,1.525.974.4-.463.624-.787,1.377-.721a1.544,1.544,0,0,1,1.456,1.438,1.72,1.72,0,0,1-.57,1.4l-1.913,1.887Z" fill="#fff"/>
          </g>
        </g>
        <g id="Group_46" data-name="Group 46">
          <path id="Path_56" data-name="Path 56" d="M175.11,219.937l-52.457-4.555a4.938,4.938,0,0,1-4.349-4.318l-.661-7.558a3.243,3.243,0,0,1,3.654-3.624l52.457,4.555a4.938,4.938,0,0,1,4.348,4.318l.661,7.559A3.242,3.242,0,0,1,175.11,219.937Z" fill="#fff"/>
          <path id="Path_57" data-name="Path 57" d="M131.325,208.444a3.88,3.88,0,0,1-4.371,4.335,5.909,5.909,0,0,1-5.2-5.166,3.879,3.879,0,0,1,4.371-4.334A5.907,5.907,0,0,1,131.325,208.444Z" fill="#407bff"/>
          <g id="Group_44" data-name="Group 44">
            <g id="Group_42" data-name="Group 42">
              <path id="Path_58" data-name="Path 58" d="M137.451,206.309a1.283,1.283,0,0,1-1.13-1.122.843.843,0,0,1,.949-.941l32.151,2.792a1.282,1.282,0,0,1,1.129,1.121.842.842,0,0,1-.949.941Z" fill="#263238"/>
              <path id="Path_59" data-name="Path 59" d="M138.1,213.746a1.281,1.281,0,0,1-1.129-1.121.842.842,0,0,1,.949-.941l18.83,1.635a1.283,1.283,0,0,1,1.13,1.121.842.842,0,0,1-.949.941Z" fill="#263238"/>
              <path id="Path_60" data-name="Path 60" d="M137.776,210.028a1.281,1.281,0,0,1-1.129-1.122.842.842,0,0,1,.949-.941l27.269,2.368a1.283,1.283,0,0,1,1.13,1.121.843.843,0,0,1-.949.941Z" fill="#263238"/>
            </g>
            <g id="Group_43" data-name="Group 43" opacity="0.5">
              <path id="Path_61" data-name="Path 61" d="M137.451,206.309a1.283,1.283,0,0,1-1.13-1.122.843.843,0,0,1,.949-.941l32.151,2.792a1.282,1.282,0,0,1,1.129,1.121.842.842,0,0,1-.949.941Z" fill="#fff"/>
              <path id="Path_62" data-name="Path 62" d="M138.1,213.746a1.281,1.281,0,0,1-1.129-1.121.842.842,0,0,1,.949-.941l18.83,1.635a1.283,1.283,0,0,1,1.13,1.121.842.842,0,0,1-.949.941Z" fill="#fff"/>
              <path id="Path_63" data-name="Path 63" d="M137.776,210.028a1.281,1.281,0,0,1-1.129-1.122.842.842,0,0,1,.949-.941l27.269,2.368a1.283,1.283,0,0,1,1.13,1.121.843.843,0,0,1-.949.941Z" fill="#fff"/>
            </g>
          </g>
          <path id="Path_64" data-name="Path 64" d="M177.849,197.267l-6.133-.467a1.238,1.238,0,0,0-1.377,1.4l.5,5.1a1.887,1.887,0,0,0,1.67,1.634l1.775.141.87,1.244a.651.651,0,0,0,1.1.077l.624-1.146,1.765.141a1.238,1.238,0,0,0,1.382-1.4l-.5-5.092A1.886,1.886,0,0,0,177.849,197.267Z" fill="#407bff"/>
          <g id="Group_45" data-name="Group 45" opacity="0.9">
            <path id="Path_65" data-name="Path 65" d="M173.132,201.412a2.517,2.517,0,0,1-.826-1.519,1.03,1.03,0,0,1,1.225-1.205c.753.065,1.041.433,1.525.973.4-.463.624-.787,1.377-.722a1.548,1.548,0,0,1,1.457,1.438,1.722,1.722,0,0,1-.571,1.4l-1.912,1.887Z" fill="#fff"/>
          </g>
        </g>
        <g id="Group_51" data-name="Group 51">
          <path id="Path_66" data-name="Path 66" d="M168.255,238.747,115.8,234.192a4.936,4.936,0,0,1-4.348-4.318l-.661-7.558a3.241,3.241,0,0,1,3.653-3.623l52.457,4.554a4.938,4.938,0,0,1,4.349,4.318l.661,7.559A3.242,3.242,0,0,1,168.255,238.747Z" fill="#fff"/>
          <path id="Path_67" data-name="Path 67" d="M124.471,227.254a3.88,3.88,0,0,1-4.371,4.335,5.906,5.906,0,0,1-5.2-5.166,3.878,3.878,0,0,1,4.371-4.334A5.907,5.907,0,0,1,124.471,227.254Z" fill="#407bff"/>
          <g id="Group_49" data-name="Group 49">
            <g id="Group_47" data-name="Group 47">
              <path id="Path_68" data-name="Path 68" d="M130.6,225.119A1.282,1.282,0,0,1,129.467,224a.842.842,0,0,1,.949-.941l32.15,2.791a1.283,1.283,0,0,1,1.13,1.122.841.841,0,0,1-.949.94Z" fill="#263238"/>
              <path id="Path_69" data-name="Path 69" d="M131.247,232.557a1.281,1.281,0,0,1-1.129-1.122.842.842,0,0,1,.949-.941l25.884,2.248a1.28,1.28,0,0,1,1.129,1.121.842.842,0,0,1-.949.941Z" fill="#263238"/>
              <path id="Path_70" data-name="Path 70" d="M130.922,228.838a1.283,1.283,0,0,1-1.13-1.122.843.843,0,0,1,.949-.941l23.239,2.018a1.283,1.283,0,0,1,1.13,1.121.843.843,0,0,1-.949.942Z" fill="#263238"/>
            </g>
            <g id="Group_48" data-name="Group 48" opacity="0.5">
              <path id="Path_71" data-name="Path 71" d="M130.6,225.119A1.282,1.282,0,0,1,129.467,224a.842.842,0,0,1,.949-.941l32.15,2.791a1.283,1.283,0,0,1,1.13,1.122.841.841,0,0,1-.949.94Z" fill="#fff"/>
              <path id="Path_72" data-name="Path 72" d="M131.247,232.557a1.281,1.281,0,0,1-1.129-1.122.842.842,0,0,1,.949-.941l25.884,2.248a1.28,1.28,0,0,1,1.129,1.121.842.842,0,0,1-.949.941Z" fill="#fff"/>
              <path id="Path_73" data-name="Path 73" d="M130.922,228.838a1.283,1.283,0,0,1-1.13-1.122.843.843,0,0,1,.949-.941l23.239,2.018a1.283,1.283,0,0,1,1.13,1.121.843.843,0,0,1-.949.942Z" fill="#fff"/>
            </g>
          </g>
          <path id="Path_74" data-name="Path 74" d="M171.171,218.093l-6.133-.467a1.238,1.238,0,0,0-1.377,1.4l.5,5.1a1.887,1.887,0,0,0,1.67,1.634l1.775.141.87,1.245a.652.652,0,0,0,1.1.076l.624-1.146,1.765.141a1.238,1.238,0,0,0,1.382-1.4l-.5-5.092A1.887,1.887,0,0,0,171.171,218.093Z" fill="#407bff"/>
          <g id="Group_50" data-name="Group 50">
            <path id="Path_75" data-name="Path 75" d="M166.492,223.815h0a.561.561,0,0,1-.493-.49l-.15-1.717a.368.368,0,0,1,.414-.411h0a.56.56,0,0,1,.493.49l.15,1.717A.367.367,0,0,1,166.492,223.815Z" fill="#fff" opacity="0.9"/>
            <path id="Path_76" data-name="Path 76" d="M167.344,221.205A2.554,2.554,0,0,0,168.4,219.4c0-.433.614-.51.836-.1a2.4,2.4,0,0,1-.1,1.8l1.157.1a.962.962,0,0,1,.753.525h0a.8.8,0,0,1,.08.524l-.34,1.638a.641.641,0,0,1-.821.472l-2.214-.533a.46.46,0,0,1-.346-.392l-.172-1.961A.3.3,0,0,1,167.344,221.205Z" fill="#fff" opacity="0.9"/>
          </g>
        </g>
        <path id="Path_77" data-name="Path 77" d="M194.73,177.489l6.005,68.64h97l-6.005-68.64Z" fill="#fff" opacity="0.8"/>
        <g id="Group_55" data-name="Group 55">
          <g id="Group_52" data-name="Group 52" opacity="0.2">
            <path id="Path_78" data-name="Path 78" d="M197.709,245.809h0a.835.835,0,0,1-.815-.75L195,223.447a.676.676,0,0,1,.684-.75h0a.836.836,0,0,1,.816.75l1.891,21.612A.677.677,0,0,1,197.709,245.809Z"/>
          </g>
          <g id="Group_53" data-name="Group 53" opacity="0.2">
            <path id="Path_79" data-name="Path 79" d="M195.468,220.2h0a.835.835,0,0,1-.815-.75L191.97,188.78a.676.676,0,0,1,.684-.75h0a.835.835,0,0,1,.816.75l2.683,30.667A.677.677,0,0,1,195.468,220.2Z"/>
          </g>
          <g id="Group_54" data-name="Group 54" opacity="0.2">
            <path id="Path_80" data-name="Path 80" d="M192.45,185.7h0a.836.836,0,0,1-.816-.75l-.558-6.388a.676.676,0,0,1,.684-.75h0a.836.836,0,0,1,.816.75l.558,6.388A.676.676,0,0,1,192.45,185.7Z"/>
          </g>
        </g>
        <g id="Group_59" data-name="Group 59">
          <g id="Group_56" data-name="Group 56" opacity="0.2">
            <path id="Path_81" data-name="Path 81" d="M300.708,245.809h0a.835.835,0,0,1-.816-.75l-2.751-31.446a.676.676,0,0,1,.684-.75h0a.835.835,0,0,1,.816.75l2.751,31.446A.676.676,0,0,1,300.708,245.809Z"/>
          </g>
          <g id="Group_57" data-name="Group 57" opacity="0.2">
            <path id="Path_82" data-name="Path 82" d="M297.636,210.7h0a.835.835,0,0,1-.816-.75l-2.143-24.5a.676.676,0,0,1,.684-.75h0a.836.836,0,0,1,.816.75l2.143,24.5A.676.676,0,0,1,297.636,210.7Z"/>
          </g>
          <g id="Group_58" data-name="Group 58" opacity="0.2">
            <path id="Path_83" data-name="Path 83" d="M295.1,181.753h0a.835.835,0,0,1-.816-.75l-.214-2.444a.676.676,0,0,1,.684-.75h0a.835.835,0,0,1,.816.75l.214,2.444A.676.676,0,0,1,295.1,181.753Z"/>
          </g>
        </g>
        <g id="Group_87" data-name="Group 87">
          <path id="Path_84" data-name="Path 84" d="M280.42,207.707a.931.931,0,0,1,.941-1.031,1.149,1.149,0,0,1,1.122,1.031l1.186,13.563a.93.93,0,0,1-.941,1.031,1.148,1.148,0,0,1-1.121-1.031Z" fill="#407bff"/>
          <g id="Group_60" data-name="Group 60">
            <path id="Path_85" data-name="Path 85" d="M202.028,183.262a1.148,1.148,0,0,1-1.121-1.032.93.93,0,0,1,.941-1.031H225.41a1.149,1.149,0,0,1,1.122,1.031.93.93,0,0,1-.941,1.032Z" fill="#263238"/>
            <path id="Path_86" data-name="Path 86" d="M202.679,190.7a1.148,1.148,0,0,1-1.122-1.031.931.931,0,0,1,.942-1.031h19.562a1.147,1.147,0,0,1,1.121,1.031.929.929,0,0,1-.941,1.031Z" fill="#263238"/>
            <path id="Path_87" data-name="Path 87" d="M202.354,186.98a1.148,1.148,0,0,1-1.122-1.031.93.93,0,0,1,.941-1.031h15.563a1.148,1.148,0,0,1,1.121,1.031.929.929,0,0,1-.941,1.031Z" fill="#263238"/>
          </g>
          <g id="Group_61" data-name="Group 61" opacity="0.5">
            <path id="Path_88" data-name="Path 88" d="M202.028,183.262a1.148,1.148,0,0,1-1.121-1.032.93.93,0,0,1,.941-1.031H225.41a1.149,1.149,0,0,1,1.122,1.031.93.93,0,0,1-.941,1.032Z" fill="#fff"/>
            <path id="Path_89" data-name="Path 89" d="M202.679,190.7a1.148,1.148,0,0,1-1.122-1.031.931.931,0,0,1,.942-1.031h19.562a1.147,1.147,0,0,1,1.121,1.031.929.929,0,0,1-.941,1.031Z" fill="#fff"/>
            <path id="Path_90" data-name="Path 90" d="M202.354,186.98a1.148,1.148,0,0,1-1.122-1.031.93.93,0,0,1,.941-1.031h15.563a1.148,1.148,0,0,1,1.121,1.031.929.929,0,0,1-.941,1.031Z" fill="#fff"/>
          </g>
          <g id="Group_63" data-name="Group 63">
            <path id="Path_91" data-name="Path 91" d="M286.049,199.257a4.812,4.812,0,0,1-4.87,5.337,5.941,5.941,0,0,1-5.8-5.337,4.811,4.811,0,0,1,4.87-5.336A5.941,5.941,0,0,1,286.049,199.257Z" fill="#407bff"/>
            <g id="Group_62" data-name="Group 62">
              <path id="Path_92" data-name="Path 92" d="M278.086,201.8h0a.654.654,0,0,1-.64-.589l-.2-2.246a.532.532,0,0,1,.538-.589h0a.655.655,0,0,1,.64.589l.2,2.246A.531.531,0,0,1,278.086,201.8Z" fill="#fff"/>
              <path id="Path_93" data-name="Path 93" d="M279.19,198.265a3.758,3.758,0,0,0,1.37-2.5.575.575,0,0,1,1.086-.225,3.224,3.224,0,0,1-.125,2.387h1.5a1.124,1.124,0,0,1,.979.606h0a1.034,1.034,0,0,1,.1.682l-.44,2.2a.914.914,0,0,1-1.065.717l-2.875-.449a.54.54,0,0,1-.45-.478l-.225-2.566A.437.437,0,0,1,279.19,198.265Z" fill="#fff"/>
            </g>
          </g>
          <g id="Group_65" data-name="Group 65">
            <path id="Path_94" data-name="Path 94" d="M288.714,229.72a5.942,5.942,0,0,0-5.8-5.337,4.812,4.812,0,0,0-4.87,5.337,5.941,5.941,0,0,0,5.8,5.336A4.811,4.811,0,0,0,288.714,229.72Z" fill="#407bff"/>
            <g id="Group_64" data-name="Group 64">
              <path id="Path_95" data-name="Path 95" d="M280.306,227.174h0a.531.531,0,0,0-.537.589l.2,2.247a.655.655,0,0,0,.641.588h0a.531.531,0,0,0,.537-.588l-.2-2.247A.655.655,0,0,0,280.306,227.174Z" fill="#fff"/>
              <path id="Path_96" data-name="Path 96" d="M282.028,230.712a4.723,4.723,0,0,1,1.809,2.5c.1.57.926.742,1.125.225.15-.388.076-1.1-.542-2.387h1.5a.906.906,0,0,0,.872-.606h0a1.007,1.007,0,0,0-.015-.682l-.826-2.2a1.113,1.113,0,0,0-1.19-.717l-2.8.449a.436.436,0,0,0-.366.478l.225,2.566A.522.522,0,0,0,282.028,230.712Z" fill="#fff"/>
            </g>
          </g>
          <g id="Group_86" data-name="Group 86">
            <g id="Group_67" data-name="Group 67">
              <ellipse id="Ellipse_6" data-name="Ellipse 6" cx="26.403" cy="28.816" rx="26.403" ry="28.816" transform="translate(207.219 213.68) rotate(-46.253)" fill="#407bff"/>
              <path id="Path_97" data-name="Path 97" d="M264.091,195.028a30.014,30.014,0,0,0-20.211-8.079c-15.234,0-26.5,12.35-25.171,27.584h27.584Z" fill="#fff" opacity="0.6"/>
              <g id="Group_66" data-name="Group 66">
                <path id="Path_98" data-name="Path 98" d="M225.082,195.028l21.211,19.505-2.413-27.584A25.148,25.148,0,0,0,225.082,195.028Z" opacity="0.2"/>
                <path id="Path_99" data-name="Path 99" d="M225.082,195.028l21.211,19.505-2.413-27.584A25.148,25.148,0,0,0,225.082,195.028Z" fill="#407bff"/>
                <path id="Path_100" data-name="Path 100" d="M225.082,195.028l21.211,19.505-2.413-27.584A25.148,25.148,0,0,0,225.082,195.028Z" opacity="0.3"/>
              </g>
              <path id="Path_101" data-name="Path 101" d="M248.706,242.116c15.234,0,26.5-12.35,25.17-27.583H246.293l-17.8,19.5A30.008,30.008,0,0,0,248.706,242.116Z" fill="#fff" opacity="0.3"/>
            </g>
            <g id="Group_69" data-name="Group 69">
              <path id="Path_102" data-name="Path 102" d="M266.757,237.4a6.046,6.046,0,0,1-6.119,6.7,7.465,7.465,0,0,1-7.291-6.7,6.046,6.046,0,0,1,6.118-6.705A7.465,7.465,0,0,1,266.757,237.4Z" fill="#263238"/>
              <g id="Group_68" data-name="Group 68">
                <path id="Path_103" data-name="Path 103" d="M257.724,238.516a2.678,2.678,0,0,1-.958-1.7,1.323,1.323,0,0,1,1.419-1.543c.872,0,1.205.4,1.767.99.46-.586.722-.99,1.6-.99a1.62,1.62,0,0,1,1.688,1.543,2.219,2.219,0,0,1-.66,1.7l-2.214,2.415Z" fill="#407bff"/>
              </g>
            </g>
            <g id="Group_74" data-name="Group 74">
              <path id="Path_104" data-name="Path 104" d="M228.931,203.8a6.046,6.046,0,0,1-6.118,6.705,7.464,7.464,0,0,1-7.291-6.705,6.045,6.045,0,0,1,6.118-6.7A7.463,7.463,0,0,1,228.931,203.8Z" fill="#263238"/>
              <g id="Group_73" data-name="Group 73">
                <path id="Path_105" data-name="Path 105" d="M226.449,203.8a3.807,3.807,0,0,1-3.853,4.223A4.7,4.7,0,0,1,218,203.8a3.809,3.809,0,0,1,3.854-4.223A4.7,4.7,0,0,1,226.449,203.8Z" fill="#407bff"/>
                <path id="Path_106" data-name="Path 106" d="M226.449,203.8a3.807,3.807,0,0,1-3.853,4.223A4.7,4.7,0,0,1,218,203.8a3.809,3.809,0,0,1,3.854-4.223A4.7,4.7,0,0,1,226.449,203.8Z" fill="#fff" opacity="0.5"/>
                <g id="Group_72" data-name="Group 72">
                  <g id="Group_70" data-name="Group 70">
                    <path id="Path_107" data-name="Path 107" d="M223.773,204.7a2.108,2.108,0,0,1-2.937,0,.348.348,0,1,0-.468.514,2.857,2.857,0,0,0,3.963,0c.317-.318-.242-.83-.558-.514Z" fill="#407bff"/>
                  </g>
                  <g id="Group_71" data-name="Group 71">
                    <path id="Path_108" data-name="Path 108" d="M221.1,202.428c.04.459-.087.832-.285.832s-.391-.373-.431-.832.087-.832.285-.832S221.057,201.968,221.1,202.428Z" fill="#407bff"/>
                    <path id="Path_109" data-name="Path 109" d="M223.831,202.428c.04.459-.087.832-.285.832s-.391-.373-.431-.832.088-.832.285-.832S223.791,201.968,223.831,202.428Z" fill="#407bff"/>
                  </g>
                </g>
              </g>
            </g>
            <g id="Group_79" data-name="Group 79">
              <path id="Path_110" data-name="Path 110" d="M269.871,197.708a6.046,6.046,0,0,1-6.118,6.705,7.464,7.464,0,0,1-7.291-6.705,6.046,6.046,0,0,1,6.118-6.7A7.464,7.464,0,0,1,269.871,197.708Z" fill="#263238"/>
              <g id="Group_78" data-name="Group 78">
                <path id="Path_111" data-name="Path 111" d="M267.39,197.708a3.809,3.809,0,0,1-3.854,4.223,4.7,4.7,0,0,1-4.592-4.223,3.807,3.807,0,0,1,3.853-4.223A4.7,4.7,0,0,1,267.39,197.708Z" fill="#407bff"/>
                <path id="Path_112" data-name="Path 112" d="M267.39,197.708a3.809,3.809,0,0,1-3.854,4.223,4.7,4.7,0,0,1-4.592-4.223,3.807,3.807,0,0,1,3.853-4.223A4.7,4.7,0,0,1,267.39,197.708Z" fill="#fff" opacity="0.5"/>
                <g id="Group_77" data-name="Group 77">
                  <g id="Group_75" data-name="Group 75">
                    <path id="Path_113" data-name="Path 113" d="M261.883,199.816a2.106,2.106,0,0,1,2.936,0,.348.348,0,1,0,.469-.514,2.858,2.858,0,0,0-3.964,0c-.316.318.243.83.559.514Z" fill="#407bff"/>
                  </g>
                  <g id="Group_76" data-name="Group 76">
                    <path id="Path_114" data-name="Path 114" d="M262.037,196.333c.041.459-.087.832-.285.832s-.391-.373-.431-.832.088-.832.285-.832S262,195.873,262.037,196.333Z" fill="#407bff"/>
                    <path id="Path_115" data-name="Path 115" d="M264.771,196.333c.041.459-.087.832-.285.832s-.391-.373-.431-.832.088-.832.286-.832S264.731,195.873,264.771,196.333Z" fill="#407bff"/>
                  </g>
                </g>
              </g>
            </g>
            <g id="Group_85" data-name="Group 85">
              <ellipse id="Ellipse_7" data-name="Ellipse 7" cx="6.418" cy="7.004" rx="6.418" ry="7.004" transform="matrix(0.691, -0.722, 0.722, 0.691, 213.286, 224.176)" fill="#263238"/>
              <g id="Group_84" data-name="Group 84">
                <g id="Group_80" data-name="Group 80">
                  <ellipse id="Ellipse_8" data-name="Ellipse 8" cx="4.042" cy="4.412" rx="4.042" ry="4.412" transform="translate(216.802 224.252) rotate(-46.248)" fill="#407bff"/>
                  <ellipse id="Ellipse_9" data-name="Ellipse 9" cx="4.042" cy="4.412" rx="4.042" ry="4.412" transform="translate(216.802 224.252) rotate(-46.248)" fill="#fff" opacity="0.5"/>
                </g>
                <path id="Path_116" data-name="Path 116" d="M220.806,225.722a2.96,2.96,0,0,0,4.191,0l-.062-.706h-4.191Z" fill="#407bff"/>
                <g id="Group_83" data-name="Group 83">
                  <g id="Group_81" data-name="Group 81">
                    <path id="Path_117" data-name="Path 117" d="M222.226,223.117a1.341,1.341,0,0,0-1.839,0c-.248.227.172.61.418.385a.77.77,0,0,1,1.07,0c.285.225.638-.158.351-.385Z" fill="#407bff"/>
                  </g>
                  <g id="Group_82" data-name="Group 82">
                    <path id="Path_118" data-name="Path 118" d="M224.96,223.117a1.341,1.341,0,0,0-1.839,0c-.248.227.172.61.418.385a.77.77,0,0,1,1.07,0c.285.225.638-.158.351-.385Z" fill="#407bff"/>
                  </g>
                </g>
              </g>
            </g>
          </g>
        </g>
        <g id="Group_88" data-name="Group 88">
          <path id="Path_119" data-name="Path 119" d="M298.882,272.284H267.869v5.042h62.026v-2.072Z" fill="#407bff"/>
          <path id="Path_120" data-name="Path 120" d="M298.882,272.284H267.869v5.042h62.026v-2.072Z" fill="#fff" opacity="0.6"/>
          <path id="Path_121" data-name="Path 121" d="M298.882,277.325H267.869v-5.042l31.013,2.969Z" fill="#fff" opacity="0.6"/>
        </g>
        <g id="Group_89" data-name="Group 89" opacity="0.5">
          <path id="Path_122" data-name="Path 122" d="M398.235,217.507l-4.267-48.767-5.774.509L363.457,240.6l27.616-2.435Z" fill="#fff"/>
        </g>
        <g id="Group_90" data-name="Group 90" opacity="0.5">
          <path id="Path_123" data-name="Path 123" d="M266.911,246.129l23.8-68.64H263.937l-23.8,68.64Z" fill="#fff"/>
        </g>
        <path id="Path_124" data-name="Path 124" d="M170.07,243.727,189.6,187.4l-.89-10.171-21.7-1.884L144.081,241.47Z" fill="#fff" opacity="0.5"/>
      </g>
    </g>
    <g id="Desk">
      <g id="Group_99" data-name="Group 99">
        <g id="Group_92" data-name="Group 92">
          <path id="Rectangle_43" data-name="Rectangle 43" d="M0,0H199.256a0,0,0,0,1,0,0V4.251a1.723,1.723,0,0,1-1.723,1.723H1.723A1.723,1.723,0,0,1,0,4.251V0A0,0,0,0,1,0,0Z" transform="translate(150.241 281.21)" fill="#407bff"/>
          <path id="Rectangle_44" data-name="Rectangle 44" d="M0,0H199.256a0,0,0,0,1,0,0V4.251a1.723,1.723,0,0,1-1.723,1.723H1.723A1.723,1.723,0,0,1,0,4.251V0A0,0,0,0,1,0,0Z" transform="translate(150.241 281.21)" opacity="0.2"/>
          <path id="Rectangle_45" data-name="Rectangle 45" d="M0,0H90.2a0,0,0,0,1,0,0V5.974a0,0,0,0,1,0,0H1.723A1.723,1.723,0,0,1,0,4.251V0A0,0,0,0,1,0,0Z" transform="translate(150.241 281.21)" fill="#fff" opacity="0.3"/>
        </g>
        <g id="Group_93" data-name="Group 93">
          <rect id="Rectangle_46" data-name="Rectangle 46" width="211.436" height="5" rx="2.032" transform="translate(144.151 277.325)" fill="#407bff"/>
          <path id="Rectangle_47" data-name="Rectangle 47" d="M2.032,0H96.29a0,0,0,0,1,0,0V5a0,0,0,0,1,0,0H2.032A2.032,2.032,0,0,1,0,2.968V2.032A2.032,2.032,0,0,1,2.032,0Z" transform="translate(144.151 277.325)" fill="#fff" opacity="0.4"/>
        </g>
        <g id="Group_96" data-name="Group 96">
          <g id="Group_94" data-name="Group 94">
            <path id="Path_125" data-name="Path 125" d="M229.922,407.408H160.76a7.527,7.527,0,0,1-7.519-7.519V294.716a7.527,7.527,0,0,1,7.519-7.518h69.162a7.527,7.527,0,0,1,7.519,7.518V399.889A7.527,7.527,0,0,1,229.922,407.408ZM160.76,291.2a3.523,3.523,0,0,0-3.519,3.518V399.889a3.523,3.523,0,0,0,3.519,3.519h69.162a3.523,3.523,0,0,0,3.519-3.519V294.716a3.523,3.523,0,0,0-3.519-3.518Z" fill="#263238"/>
          </g>
          <g id="Group_95" data-name="Group 95" opacity="0.4">
            <path id="Path_126" data-name="Path 126" d="M229.922,407.408H160.76a7.527,7.527,0,0,1-7.519-7.519V294.716a7.527,7.527,0,0,1,7.519-7.518h69.162a7.527,7.527,0,0,1,7.519,7.518V399.889A7.527,7.527,0,0,1,229.922,407.408ZM160.76,291.2a3.523,3.523,0,0,0-3.519,3.518V399.889a3.523,3.523,0,0,0,3.519,3.519h69.162a3.523,3.523,0,0,0,3.519-3.519V294.716a3.523,3.523,0,0,0-3.519-3.518Z" fill="#fff" opacity="0.2"/>
          </g>
          <path id="Path_127" data-name="Path 127" d="M229.922,287.2H160.76a7.529,7.529,0,0,0-7.48,6.758h4.049a3.521,3.521,0,0,1,3.431-2.758h69.162a3.521,3.521,0,0,1,3.431,2.758H237.4A7.528,7.528,0,0,0,229.922,287.2Z" opacity="0.2"/>
        </g>
        <g id="Group_98" data-name="Group 98">
          <g id="Group_97" data-name="Group 97">
            <path id="Path_128" data-name="Path 128" d="M337.577,407.408H268.416a7.527,7.527,0,0,1-7.519-7.519V294.716a7.527,7.527,0,0,1,7.519-7.518h69.161a7.528,7.528,0,0,1,7.52,7.518V399.889A7.528,7.528,0,0,1,337.577,407.408ZM268.416,291.2a3.523,3.523,0,0,0-3.519,3.518V399.889a3.523,3.523,0,0,0,3.519,3.519h69.161a3.524,3.524,0,0,0,3.52-3.519V294.716a3.523,3.523,0,0,0-3.52-3.518Z" fill="#263238"/>
          </g>
          <path id="Path_129" data-name="Path 129" d="M337.577,407.408H268.416a7.527,7.527,0,0,1-7.519-7.519V294.716a7.527,7.527,0,0,1,7.519-7.518h69.161a7.528,7.528,0,0,1,7.52,7.518V399.889A7.528,7.528,0,0,1,337.577,407.408ZM268.416,291.2a3.523,3.523,0,0,0-3.519,3.518V399.889a3.523,3.523,0,0,0,3.519,3.519h69.161a3.524,3.524,0,0,0,3.52-3.519V294.716a3.523,3.523,0,0,0-3.52-3.518Z" fill="#fff" opacity="0.1"/>
          <path id="Path_130" data-name="Path 130" d="M337.577,287.2H268.416a7.528,7.528,0,0,0-7.48,6.758h4.049a3.521,3.521,0,0,1,3.431-2.758h69.161a3.521,3.521,0,0,1,3.432,2.758h4.049A7.529,7.529,0,0,0,337.577,287.2Z" opacity="0.2"/>
        </g>
      </g>
    </g>
    <g id="Device">
      <g id="Group_107" data-name="Group 107">
        <rect id="Rectangle_48" data-name="Rectangle 48" width="94.193" height="95.889" rx="8.423" transform="translate(127.437 311.908)" fill="#407bff"/>
        <rect id="Rectangle_49" data-name="Rectangle 49" width="94.193" height="95.889" rx="8.423" transform="translate(127.437 311.908)" fill="#fff" opacity="0.4"/>
        <path id="Path_131" data-name="Path 131" d="M127.437,399.307v.067a8.423,8.423,0,0,0,8.423,8.423h77.347a8.423,8.423,0,0,0,8.423-8.423v-.067Z" opacity="0.1"/>
        <rect id="Rectangle_50" data-name="Rectangle 50" width="38.288" height="95.889" rx="8.423" transform="translate(183.342 311.908)" fill="#407bff"/>
        <rect id="Rectangle_51" data-name="Rectangle 51" width="29.289" height="86.889" rx="3.923" transform="translate(187.842 316.409)" fill="#fff" opacity="0.3"/>
        <g id="Group_106" data-name="Group 106">
          <g id="Group_100" data-name="Group 100">
            <rect id="Rectangle_52" data-name="Rectangle 52" width="23.5" height="6.25" transform="translate(190.736 322.659)" fill="#fff" opacity="0.7"/>
            <rect id="Rectangle_53" data-name="Rectangle 53" width="23.5" height="6.25" transform="translate(190.736 330.159)" fill="#fff" opacity="0.7"/>
          </g>
          <g id="Group_104" data-name="Group 104">
            <circle id="Ellipse_10" data-name="Ellipse 10" cx="4.895" cy="4.895" r="4.895" transform="translate(197.591 354.958)" fill="#407bff"/>
            <g id="Group_103" data-name="Group 103" opacity="0.9">
              <g id="Group_101" data-name="Group 101">
                <path id="Path_132" data-name="Path 132" d="M203.624,358.885a1.609,1.609,0,1,1-2.276,0c.467-.507-.289-1.266-.758-.758a2.681,2.681,0,1,0,3.791,0c-.468-.508-1.224.251-.757.758Z" fill="#fff"/>
              </g>
              <g id="Group_102" data-name="Group 102">
                <path id="Path_133" data-name="Path 133" d="M201.95,357v2.441a.536.536,0,0,0,1.071,0V357a.536.536,0,0,0-1.071,0Z" fill="#fff"/>
              </g>
            </g>
          </g>
          <g id="Group_105" data-name="Group 105">
            <circle id="Ellipse_11" data-name="Ellipse 11" cx="1.5" cy="1.5" r="1.5" transform="translate(191.716 372.825)" fill="#407bff"/>
            <circle id="Ellipse_12" data-name="Ellipse 12" cx="1.5" cy="1.5" r="1.5" transform="translate(197.896 372.825)" fill="#407bff"/>
            <circle id="Ellipse_13" data-name="Ellipse 13" cx="1.5" cy="1.5" r="1.5" transform="translate(204.076 372.825)" fill="#407bff"/>
            <circle id="Ellipse_14" data-name="Ellipse 14" cx="1.5" cy="1.5" r="1.5" transform="translate(210.255 372.825)" fill="#407bff"/>
            <circle id="Ellipse_15" data-name="Ellipse 15" cx="1.5" cy="1.5" r="1.5" transform="translate(194.806 378.159)" fill="#407bff"/>
            <circle id="Ellipse_16" data-name="Ellipse 16" cx="1.5" cy="1.5" r="1.5" transform="translate(200.986 378.159)" fill="#407bff"/>
            <circle id="Ellipse_17" data-name="Ellipse 17" cx="1.5" cy="1.5" r="1.5" transform="translate(207.166 378.159)" fill="#407bff"/>
            <circle id="Ellipse_18" data-name="Ellipse 18" cx="1.5" cy="1.5" r="1.5" transform="translate(191.716 384.066)" fill="#407bff"/>
            <circle id="Ellipse_19" data-name="Ellipse 19" cx="1.5" cy="1.5" r="1.5" transform="translate(197.896 384.066)" fill="#407bff"/>
            <circle id="Ellipse_20" data-name="Ellipse 20" cx="1.5" cy="1.5" r="1.5" transform="translate(204.076 384.066)" fill="#407bff"/>
            <circle id="Ellipse_21" data-name="Ellipse 21" cx="1.5" cy="1.5" r="1.5" transform="translate(210.255 384.066)" fill="#407bff"/>
            <circle id="Ellipse_22" data-name="Ellipse 22" cx="1.5" cy="1.5" r="1.5" transform="translate(194.806 389.399)" fill="#407bff"/>
            <circle id="Ellipse_23" data-name="Ellipse 23" cx="1.5" cy="1.5" r="1.5" transform="translate(200.986 389.399)" fill="#407bff"/>
            <circle id="Ellipse_24" data-name="Ellipse 24" cx="1.5" cy="1.5" r="1.5" transform="translate(207.166 389.399)" fill="#407bff"/>
            <circle id="Ellipse_25" data-name="Ellipse 25" cx="1.5" cy="1.5" r="1.5" transform="translate(191.716 395.307)" fill="#407bff"/>
            <circle id="Ellipse_26" data-name="Ellipse 26" cx="1.5" cy="1.5" r="1.5" transform="translate(197.896 395.307)" fill="#407bff"/>
            <circle id="Ellipse_27" data-name="Ellipse 27" cx="1.5" cy="1.5" r="1.5" transform="translate(204.076 395.307)" fill="#407bff"/>
            <circle id="Ellipse_28" data-name="Ellipse 28" cx="1.5" cy="1.5" r="1.5" transform="translate(210.255 395.307)" fill="#407bff"/>
          </g>
        </g>
      </g>
    </g>
    <g id="Character">
      <g id="Group_122" data-name="Group 122">
        <g id="Group_108" data-name="Group 108">
          <path id="Path_134" data-name="Path 134" d="M330.128,267.632l-6.041-2.723-8.468,3.532v4.215s13.147-.438,13.144-.417c0,0,14.829,4.937,20.3,4.177s22.918-25.065,22.918-25.065l-8.763-7.671-16.682,23.773Z" fill="#fcc1bb"/>
          <path id="Path_135" data-name="Path 135" d="M330.128,267.632l-6.041-2.723-8.468,3.532v4.215s13.147-.438,13.144-.417c0,0,.371.123,1.016.328l4.243-4.977Z" opacity="0.1"/>
          <path id="Path_136" data-name="Path 136" d="M357.325,250.591s6.067-10.785,9.942-14.2a13.824,13.824,0,0,1,7.847-2.909,2.4,2.4,0,0,1,2.593,2.384c.031,4.263-1.079,13.538-9.85,23.084Z" fill="#263238"/>
          <path id="Path_137" data-name="Path 137" d="M357.325,248.56a31.305,31.305,0,0,1,11.712,10.311l-2.359,1.822a44.8,44.8,0,0,0-10.827-9.551Z" fill="#407bff"/>
        </g>
        <g id="Group_111" data-name="Group 111">
          <path id="Path_138" data-name="Path 138" d="M342.5,209.62l-2.994,4.7a4.178,4.178,0,0,0,3.744.368Z" fill="#eb827e"/>
          <g id="Group_109" data-name="Group 109">
            <path id="Path_139" data-name="Path 139" d="M341.993,212.6a3.571,3.571,0,1,1,3.331-3.563A3.457,3.457,0,0,1,341.993,212.6Zm0-6.375a2.823,2.823,0,1,0,2.581,2.812A2.708,2.708,0,0,0,341.993,206.221Z" fill="#407bff"/>
          </g>
          <path id="Path_140" data-name="Path 140" d="M340.7,208.965c-.006.607.3,1.1.7,1.11s.752-.508.743-1.1-.3-1.1-.7-1.1S340.712,208.36,340.7,208.965Z" fill="#1a2e35"/>
          <path id="Path_141" data-name="Path 141" d="M364.124,205.173c.267,8.069.555,11.485-3.107,15.986-5.8,4.779-15.491,5.341-18.163-2.492-2.408-7.048-2.44-19.03,5.115-23.013a11.023,11.023,0,0,1,16.155,9.519Z" fill="#fcc1bb"/>
          <path id="Path_142" data-name="Path 142" d="M352.791,224.6l-.059-.4a1.472,1.472,0,0,0-1.844-1.205l-3.281.9A10.744,10.744,0,0,0,352.791,224.6Z" fill="#1a2e35" opacity="0.2"/>
          <path id="Path_143" data-name="Path 143" d="M342.883,206.215a.33.33,0,0,1-.282-.11,2.5,2.5,0,0,0-2.076-.94.318.318,0,0,1-.355-.271.324.324,0,0,1,.278-.356,3.1,3.1,0,0,1,2.638,1.153.317.317,0,0,1-.035.449h0A.346.346,0,0,1,342.883,206.215Z" fill="#1a2e35"/>
          <path id="Path_144" data-name="Path 144" d="M352.49,222.556l1.769,11.984,10.008-2.072L361.061,220.2Z" fill="#fcc1bb"/>
          <path id="Path_145" data-name="Path 145" d="M342.463,198.631c3.4,6.483,5.766.553,5.14,5.779s1.252,6.92,1.252,6.92l6.856,10.225a1.333,1.333,0,0,0,1.655.458,4.529,4.529,0,0,1,3.567-.351,1.241,1.241,0,0,0,1.3-.192,20.807,20.807,0,0,0,6.351-12.5c2.211-14.108-8.63-16.259-8.63-16.259-6.025-1.252-4.481-7.638-8.061-7.637-2.73,0-1.926,4.494-1.926,4.494s-2.925-2.19-4.62-1.444c-2.189.963-.247,5.457-.247,5.457S339.125,192.273,342.463,198.631Z" fill="#1a2e35"/>
          <g id="Group_110" data-name="Group 110">
            <path id="Path_146" data-name="Path 146" d="M349.512,207.533h-10l.482-1h9.521Z" fill="#407bff"/>
          </g>
          <path id="Path_147" data-name="Path 147" d="M347.459,208.768a6.2,6.2,0,0,0,1.026,4.647c1.269,1.782,3.29.987,4.1-.916.732-1.724.939-4.715-.9-5.829A2.809,2.809,0,0,0,347.459,208.768Z" fill="#ffc3bd"/>
        </g>
        <path id="Path_148" data-name="Path 148" d="M349.79,230.158s6.426-6.073,13.167-5.583c4.583.333,6,6.083,6,6.083Z" fill="#263238"/>
        <path id="Path_149" data-name="Path 149" d="M349.79,230.158s6.426-6.073,13.167-5.583c4.583.333,6,6.083,6,6.083Z" fill="#fff" opacity="0.2"/>
        <path id="Path_150" data-name="Path 150" d="M354.131,303.658,340.047,234.9a4.525,4.525,0,0,1,4.06-5.511c8.833-.736,26.645-1.449,32.6,4.018,13.883,12.745,14.984,71.25,14.984,71.25Z" fill="#263238"/>
        <path id="Path_151" data-name="Path 151" d="M344.04,233.825a12.309,12.309,0,0,0-3.732,2.347l4.632,22.617c4.138-9.269,3.853-24.964,3.853-24.964Z" opacity="0.5"/>
        <g id="Group_112" data-name="Group 112">
          <path id="Path_152" data-name="Path 152" d="M302.056,266.771l-5.974-2.988-8.375,3.875v4.625s13-.481,13-.458c0,0,14.666,5.417,20.083,4.583s22.667-27.5,22.667-27.5l-8.667-8.416-16.5,26.083Z" fill="#fcc1bb"/>
          <path id="Path_153" data-name="Path 153" d="M328.957,248.075s6-11.833,9.833-15.583,10.155-3.246,10.155-3.246,2.25,13.723-9.572,28Z" fill="#263238"/>
          <path id="Path_154" data-name="Path 154" d="M328.957,245.846a31.926,31.926,0,0,1,11.583,11.312l-2.333,2s-4.758-6.656-10.709-10.479Z" fill="#263238"/>
          <path id="Path_155" data-name="Path 155" d="M328.957,245.846a31.926,31.926,0,0,1,11.583,11.312l-2.333,2s-4.758-6.656-10.709-10.479Z" fill="#fff" opacity="0.2"/>
        </g>
        <g id="Group_117" data-name="Group 117">
          <g id="Group_113" data-name="Group 113">
            <path id="Path_156" data-name="Path 156" d="M350.082,378.721l3.427,16.6,6.76-1-1.625-16.166Z" fill="#fcc1bb"/>
            <path id="Path_157" data-name="Path 157" d="M359.715,388.809l-1.071-10.65-8.562.563,2.142,10.379Z" opacity="0.2"/>
          </g>
          <g id="Group_114" data-name="Group 114">
            <path id="Path_158" data-name="Path 158" d="M390.194,303.158s3.433,18-8.317,18S354.5,325,354.5,325s4.5,4.274,5.5,58.744l-9.75.414s-16.2-61.479-13-68.234c4.5-9.516,27.8-12.766,27.8-12.766Z" fill="#407bff"/>
            <path id="Path_159" data-name="Path 159" d="M390.194,303.158s3.433,18-8.317,18S354.5,325,354.5,325s4.5,4.274,5.5,58.744l-9.75.414s-16.2-61.479-13-68.234c4.5-9.516,27.8-12.766,27.8-12.766Z" opacity="0.2"/>
          </g>
          <g id="Group_115" data-name="Group 115">
            <path id="Path_160" data-name="Path 160" d="M348.182,381.242l13.256-.333-.423,5.5-11.122.477Z" fill="#407bff"/>
            <path id="Path_161" data-name="Path 161" d="M348.182,381.242l13.256-.333-.423,5.5-11.122.477Z" fill="#fff" opacity="0.5"/>
          </g>
          <g id="Group_116" data-name="Group 116">
            <path id="Path_162" data-name="Path 162" d="M350.466,396.369a3.02,3.02,0,0,1-2.134-.287.632.632,0,0,1-.075-.727.877.877,0,0,1,.479-.454c1.137-.464,3.761.644,3.877.693a.166.166,0,0,1,.1.164.175.175,0,0,1-.118.153A12.4,12.4,0,0,1,350.466,396.369Zm-1.284-1.235a1.13,1.13,0,0,0-.314.079.467.467,0,0,0-.3.273c-.1.222-.044.317.01.368.382.42,2.159.218,3.45-.1A7.774,7.774,0,0,0,349.182,395.134Z" fill="#407bff"/>
            <path id="Path_163" data-name="Path 163" d="M352.57,395.912a.1.1,0,0,1-.071,0c-.886-.273-2.762-1.6-2.706-2.406-.006-.193.109-.442.563-.544a1.249,1.249,0,0,1,.963.174,4.816,4.816,0,0,1,1.421,2.593.165.165,0,0,1-.057.16A.16.16,0,0,1,352.57,395.912Zm-2.064-2.645-.1,0c-.3.062-.3.185-.309.229.014.483,1.267,1.544,2.2,1.955a3.945,3.945,0,0,0-1.194-2.046.881.881,0,0,0-.6-.141Z" fill="#407bff"/>
            <path id="Path_164" data-name="Path 164" d="M353.2,394.839l7.685-.923a.625.625,0,0,1,.663.411l2.14,6.086a1.037,1.037,0,0,1-.838,1.378c-2.776.284-5.258.428-8.707.847-4.071.49-2.979.853-7.757,1.5-2.879.384-3.8-2.83-2.6-3.138,5.512-1.376,5.89-3.136,7.808-5.4A2.493,2.493,0,0,1,353.2,394.839Z" fill="#407bff"/>
          </g>
        </g>
        <g id="Group_121" data-name="Group 121">
          <g id="Group_118" data-name="Group 118">
            <path id="Path_165" data-name="Path 165" d="M330.3,383.169l6.375,15.479,6.208-1.24-4.271-16.562Z" fill="#fcc1bb"/>
            <path id="Path_166" data-name="Path 166" d="M341.464,391.9l-2.849-11.049-8.312,2.323,4.144,10.063Z" opacity="0.2"/>
          </g>
          <path id="Path_167" data-name="Path 167" d="M390.194,303.158s7.259,18.775-16.737,18c-9.19-.3-48.991,9-48.991,9s7.178,3.75,16.178,54l-10.187,2.313s-28.88-57.057-25.685-63.813c4.5-9.515,51.857-19.5,51.857-19.5Z" fill="#407bff"/>
          <g id="Group_119" data-name="Group 119">
            <path id="Path_168" data-name="Path 168" d="M329.207,385.825l12.083-2.583,1.25,5-11.583,2.667Z" fill="#407bff"/>
            <path id="Path_169" data-name="Path 169" d="M329.207,385.825l12.083-2.583,1.25,5-11.583,2.667Z" fill="#fff" opacity="0.5"/>
          </g>
          <g id="Group_120" data-name="Group 120">
            <path id="Path_170" data-name="Path 170" d="M332.84,399.356a3.025,3.025,0,0,1-2.134-.288.63.63,0,0,1-.074-.727.873.873,0,0,1,.478-.453c1.137-.465,3.762.643,3.877.693a.167.167,0,0,1,.1.164.175.175,0,0,1-.119.152A12.4,12.4,0,0,1,332.84,399.356Zm-1.284-1.236a1.107,1.107,0,0,0-.314.08.465.465,0,0,0-.3.272c-.1.223-.043.318.011.369.381.419,2.159.217,3.449-.1A7.766,7.766,0,0,0,331.556,398.12Z" fill="#407bff"/>
            <path id="Path_171" data-name="Path 171" d="M334.944,398.9a.1.1,0,0,1-.07,0c-.887-.272-2.762-1.6-2.707-2.406-.006-.193.11-.442.564-.543a1.247,1.247,0,0,1,.962.173,4.819,4.819,0,0,1,1.421,2.593.167.167,0,0,1-.056.16A.158.158,0,0,1,334.944,398.9Zm-2.064-2.644-.1,0c-.3.061-.3.184-.309.228.014.483,1.267,1.544,2.2,1.956a3.956,3.956,0,0,0-1.2-2.047.874.874,0,0,0-.6-.14Z" fill="#407bff"/>
            <path id="Path_172" data-name="Path 172" d="M335.571,397.825l7.686-.922a.623.623,0,0,1,.662.411l2.14,6.086a1.035,1.035,0,0,1-.624,1.325,1.048,1.048,0,0,1-.214.053c-2.776.284-5.258.428-8.707.847-4.07.49-2.979.853-7.756,1.495-2.879.384-3.8-2.83-2.6-3.138,5.511-1.376,5.889-3.135,7.807-5.4A2.494,2.494,0,0,1,335.571,397.825Z" fill="#407bff"/>
          </g>
        </g>
      </g>
    </g>
    <g id="Chair">
      <g id="Group_138" data-name="Group 138">
        <g id="Group_124" data-name="Group 124">
          <path id="Path_173" data-name="Path 173" d="M412.158,388.133c-6.112-1-15.176-2.427-19.214-2.725-.886-.065-2-.114-3.222-.146V353.908h-7.677v31.354c-1.223.032-2.336.081-3.222.146-4.037.3-13.1,1.721-19.214,2.725a7.284,7.284,0,0,0-6.1,7.191v1.584h7.445l1-2.228s13.995-2.424,18.711-2.772a95.153,95.153,0,0,1,10.438,0c4.715.348,18.71,2.772,18.71,2.772l1,2.228h7.446v-1.584A7.284,7.284,0,0,0,412.158,388.133Z" fill="#263238"/>
          <path id="Path_174" data-name="Path 174" d="M412.158,388.133c-6.112-1-15.176-2.427-19.214-2.725-.886-.065-2-.114-3.222-.146V353.908h-7.677v31.354c-1.223.032-2.336.081-3.222.146-4.037.3-13.1,1.721-19.214,2.725a7.284,7.284,0,0,0-6.1,7.191v1.584h7.445l1-2.228s13.995-2.424,18.711-2.772a95.153,95.153,0,0,1,10.438,0c4.715.348,18.71,2.772,18.71,2.772l1,2.228h7.446v-1.584A7.284,7.284,0,0,0,412.158,388.133Z" fill="#fff" opacity="0.1"/>
          <path id="Rectangle_54" data-name="Rectangle 54" d="M0,0H12.326a0,0,0,0,1,0,0V26.5A3.566,3.566,0,0,1,8.76,30.067H3.566A3.566,3.566,0,0,1,0,26.5V0A0,0,0,0,1,0,0Z" transform="translate(379.721 328.341)" fill="#263238"/>
          <rect id="Rectangle_55" data-name="Rectangle 55" width="12.326" height="7.317" transform="translate(379.721 328.341)" opacity="0.2"/>
          <g id="Group_123" data-name="Group 123">
            <circle id="Ellipse_29" data-name="Ellipse 29" cx="5.25" cy="5.25" r="5.25" transform="translate(409.888 396.909)" fill="#263238"/>
            <circle id="Ellipse_30" data-name="Ellipse 30" cx="5.25" cy="5.25" r="5.25" transform="translate(351.379 396.909)" fill="#263238"/>
          </g>
        </g>
        <g id="Group_137" data-name="Group 137">
          <g id="Group_128" data-name="Group 128">
            <g id="Group_125" data-name="Group 125">
              <path id="Path_175" data-name="Path 175" d="M427.556,322.1a101.319,101.319,0,0,0-22.488-3.1c-7.809-.2-37.039-.029-43.98-.032a101.442,101.442,0,0,0-25.1,3.129c-5.153,1.314-3.565,8.751,1.09,8.837.411.007,88.771-.019,89.1,0C431.046,331.155,432.822,323.444,427.556,322.1Z" fill="#407bff"/>
              <path id="Path_176" data-name="Path 176" d="M427.556,322.1a101.319,101.319,0,0,0-22.488-3.1c-7.809-.2-37.039-.029-43.98-.032a101.442,101.442,0,0,0-25.1,3.129c-5.153,1.314-3.565,8.751,1.09,8.837.411.007,88.771-.019,89.1,0C431.046,331.155,432.822,323.444,427.556,322.1Z" opacity="0.3"/>
            </g>
            <g id="Group_126" data-name="Group 126">
              <path id="Path_177" data-name="Path 177" d="M338.384,330.779a92.211,92.211,0,0,1,45.408,0c5.615,1.432,8.01-7.246,2.392-8.678a102,102,0,0,0-50.193,0c-5.608,1.43-3.232,10.112,2.393,8.678Z" fill="#407bff"/>
            </g>
            <g id="Group_127" data-name="Group 127" opacity="0.4">
              <path id="Path_178" data-name="Path 178" d="M338.384,330.779a92.211,92.211,0,0,1,45.408,0c5.615,1.432,8.01-7.246,2.392-8.678a102,102,0,0,0-50.193,0c-5.608,1.43-3.232,10.112,2.393,8.678Z" fill="#fff"/>
            </g>
          </g>
          <path id="Path_179" data-name="Path 179" d="M403.923,257.7a2.765,2.765,0,0,0-2.485,1.432,96.055,96.055,0,0,0-12.027,66.3,2.438,2.438,0,0,0,2.313,2.16c1.8.122,33.882.009,35.046.006a3.231,3.231,0,0,0,3.261-3.761,89.658,89.658,0,0,1,11.422-61.677c1.371-2.281-.652-4.421-2.7-4.46C437.827,257.683,405.968,257.74,403.923,257.7Z" fill="#407bff"/>
          <path id="Path_180" data-name="Path 180" d="M403.923,257.7a2.765,2.765,0,0,0-2.485,1.432,96.055,96.055,0,0,0-12.027,66.3,2.438,2.438,0,0,0,2.313,2.16c1.8.122,33.882.009,35.046.006a3.231,3.231,0,0,0,3.261-3.761,89.658,89.658,0,0,1,11.422-61.677c1.371-2.281-.652-4.421-2.7-4.46C437.827,257.683,405.968,257.74,403.923,257.7Z" opacity="0.2"/>
          <g id="Group_129" data-name="Group 129">
            <path id="Path_181" data-name="Path 181" d="M395.2,323.838a89.658,89.658,0,0,1,11.422-61.677c2-3.317-3.191-6.337-5.181-3.028a96.049,96.049,0,0,0-12.026,66.3c.686,3.794,6.469,2.186,5.785-1.6Z" fill="#407bff"/>
          </g>
          <g id="Group_130" data-name="Group 130" opacity="0.4">
            <path id="Path_182" data-name="Path 182" d="M395.2,323.838a89.658,89.658,0,0,1,11.422-61.677c2-3.317-3.191-6.337-5.181-3.028a96.049,96.049,0,0,0-12.026,66.3c.686,3.794,6.469,2.186,5.785-1.6Z" fill="#fff"/>
          </g>
          <g id="Group_133" data-name="Group 133">
            <g id="Group_131" data-name="Group 131">
              <path id="Path_183" data-name="Path 183" d="M355.908,297.749l30.912,28.275c2.134,1.951,5.325-1.222,3.183-3.182L359.09,294.567c-2.134-1.951-5.325,1.223-3.182,3.182Z" fill="#263238"/>
            </g>
            <g id="Group_132" data-name="Group 132" opacity="0.5">
              <path id="Path_184" data-name="Path 184" d="M355.908,297.749l30.912,28.275c2.134,1.951,5.325-1.222,3.183-3.182L359.09,294.567c-2.134-1.951-5.325,1.223-3.182,3.182Z" fill="#fff"/>
            </g>
            <path id="Path_185" data-name="Path 185" d="M359.09,294.567c-2.134-1.951-5.325,1.223-3.182,3.182l5.913,5.409h6.661Z" opacity="0.2"/>
          </g>
          <g id="Group_136" data-name="Group 136">
            <g id="Group_134" data-name="Group 134">
              <path id="Path_186" data-name="Path 186" d="M339.791,299.158h42.416c3.86,0,3.867-6,0-6H339.791c-3.861,0-3.868,6,0,6Z" fill="#407bff"/>
            </g>
            <g id="Group_135" data-name="Group 135" opacity="0.3">
              <path id="Path_187" data-name="Path 187" d="M339.791,299.158h42.416c3.86,0,3.867-6,0-6H339.791c-3.861,0-3.868,6,0,6Z" fill="#fff"/>
            </g>
          </g>
        </g>
      </g>
    </g>
  </g>
</svg>
