<svg xmlns="http://www.w3.org/2000/svg" width="444.267" height="450.998" viewBox="0 0 444.267 450.998">
  <g id="Group_126" data-name="Group 126" transform="translate(-27.733 -23.057)">
    <g id="Background_Simple" data-name="Background Simple">
      <g id="Group_1" data-name="Group 1">
        <path id="Path_1" data-name="Path 1" d="M455.667,244.815a260.319,260.319,0,0,0-59.43-127.777c-18.216-21.117-41.906-44.093-70.4-62.251C254,9,165,22,128,68S24,319,29,373s151,103,246,91,176-73,184-140C462.136,297.735,459.74,269.473,455.667,244.815Z" fill="#92e3a9"/>
        <path id="Path_2" data-name="Path 2" d="M455.667,244.815a260.319,260.319,0,0,0-59.43-127.777c-18.216-21.117-41.906-44.093-70.4-62.251C254,9,165,22,128,68S24,319,29,373s151,103,246,91,176-73,184-140C462.136,297.735,459.74,269.473,455.667,244.815Z" fill="#fff" opacity="0.7"/>
      </g>
    </g>
    <g id="Floor">
      <g id="Group_2" data-name="Group 2">
        <line id="Line_1" data-name="Line 1" x2="76" transform="translate(396 458)" fill="none" stroke="#263238" stroke-miterlimit="10" stroke-width="1"/>
        <line id="Line_2" data-name="Line 2" x2="269" transform="translate(118 458)" fill="none" stroke="#263238" stroke-miterlimit="10" stroke-width="1"/>
        <line id="Line_3" data-name="Line 3" x2="75" transform="translate(32 458)" fill="none" stroke="#263238" stroke-miterlimit="10" stroke-width="1"/>
      </g>
    </g>
    <g id="Graphics">
      <g id="Group_9" data-name="Group 9" opacity="0.3">
        <g id="Group_3" data-name="Group 3">
          <path id="Path_3" data-name="Path 3" d="M461.34,119.566l6.605,1.508,1.56-6.834-6.165-1.407c.014-.265.04-.527.04-.795a14.952,14.952,0,0,0-1.2-5.875l4.95-3.947-4.37-5.481-4.764,3.8a14.952,14.952,0,0,0-6.115-3.067V91.092h-7.01v6.375a14.942,14.942,0,0,0-5.861,2.865l-5.334-4.253-4.37,5.48,5.407,4.312a14.925,14.925,0,0,0-1.324,5.915l-7.164,1.635,1.559,6.834,7.132-1.628a15.05,15.05,0,0,0,3.506,4.611l-3.285,6.822,6.316,3.041,3.158-6.559a14.18,14.18,0,0,0,5.914.325l3.178,6.6,6.315-3.041-2.967-6.163A15.052,15.052,0,0,0,461.34,119.566Zm-23.605-7.528a10.645,10.645,0,1,1,10.645,10.645A10.645,10.645,0,0,1,437.735,112.038Z" fill="none" stroke="#000" stroke-miterlimit="10" stroke-width="1"/>
          <path id="Path_4" data-name="Path 4" d="M461.34,164.862l6.605,1.507,1.56-6.834-6.165-1.407c.014-.264.04-.526.04-.794a14.945,14.945,0,0,0-1.2-5.875l4.95-3.948-4.37-5.48L458,145.83a14.941,14.941,0,0,0-6.115-3.068v-6.374h-7.01v6.374a14.931,14.931,0,0,0-5.861,2.866l-5.334-4.254-4.37,5.481,5.407,4.312a14.921,14.921,0,0,0-1.324,5.914l-7.164,1.636,1.559,6.833,7.132-1.627a15.05,15.05,0,0,0,3.506,4.611l-3.285,6.821,6.316,3.041,3.158-6.558a14.15,14.15,0,0,0,5.914.324l3.178,6.6,6.315-3.041-2.967-6.163A15.052,15.052,0,0,0,461.34,164.862Zm-23.605-7.528a10.645,10.645,0,1,1,10.645,10.645A10.645,10.645,0,0,1,437.735,157.334Z" fill="none" stroke="#000" stroke-miterlimit="10" stroke-width="1"/>
          <path id="Path_5" data-name="Path 5" d="M291.594,406.27l5.182,1.183L298,402.091l-4.837-1.1c.011-.208.031-.413.031-.624a11.734,11.734,0,0,0-.938-4.609l3.884-3.1-3.429-4.3-3.738,2.981a11.725,11.725,0,0,0-4.8-2.407v-5h-5.5v5a11.721,11.721,0,0,0-4.6,2.249l-4.185-3.338-3.429,4.3,4.243,3.384a11.7,11.7,0,0,0-1.039,4.64l-5.621,1.283,1.223,5.362,5.6-1.277a11.779,11.779,0,0,0,2.751,3.618l-2.577,5.352,4.955,2.387,2.478-5.146a11.1,11.1,0,0,0,4.64.254l2.494,5.178,4.955-2.387-2.329-4.835A11.82,11.82,0,0,0,291.594,406.27Zm-18.521-5.907a8.352,8.352,0,1,1,8.352,8.353A8.352,8.352,0,0,1,273.073,400.363Z" fill="none" stroke="#000" stroke-miterlimit="10" stroke-width="1"/>
          <path id="Path_6" data-name="Path 6" d="M215.34,52.032l6.605,1.507,1.56-6.834L217.34,45.3c.014-.265.04-.526.04-.8a14.943,14.943,0,0,0-1.2-5.874l4.95-3.948-4.37-5.48L212,33a14.941,14.941,0,0,0-6.115-3.068V23.557h-7.01v6.375a14.931,14.931,0,0,0-5.861,2.866l-5.334-4.254-4.37,5.481,5.407,4.312a14.917,14.917,0,0,0-1.324,5.914l-7.164,1.635,1.559,6.834,7.132-1.628a15.038,15.038,0,0,0,3.506,4.611l-3.285,6.822,6.316,3.041,3.158-6.558a14.2,14.2,0,0,0,5.914.324l3.178,6.6,6.315-3.042-2.967-6.162A15.063,15.063,0,0,0,215.34,52.032Zm-23.6-7.529A10.645,10.645,0,1,1,202.38,55.149,10.644,10.644,0,0,1,191.735,44.5Z" fill="none" stroke="#000" stroke-miterlimit="10" stroke-width="1"/>
        </g>
        <g id="Group_4" data-name="Group 4">
          <path id="Path_7" data-name="Path 7" d="M96.545,169.926l5.594,1.277,1.321-5.787-5.221-1.192c.012-.224.034-.446.034-.673a12.662,12.662,0,0,0-1.013-4.975l4.192-3.343-3.7-4.641-4.034,3.217a12.663,12.663,0,0,0-5.179-2.6v-5.4H82.6v5.4a12.644,12.644,0,0,0-4.963,2.426l-4.517-3.6-3.7,4.641L74,158.329a12.617,12.617,0,0,0-1.121,5.008l-6.067,1.385,1.32,5.787,6.04-1.378a12.737,12.737,0,0,0,2.969,3.9l-2.782,5.777,5.349,2.575,2.674-5.554a12.654,12.654,0,0,0,3.188.42,12.84,12.84,0,0,0,1.82-.145l2.691,5.588,5.349-2.576L92.916,173.9A12.738,12.738,0,0,0,96.545,169.926Zm-19.989-6.375a9.014,9.014,0,1,1,9.014,9.015A9.014,9.014,0,0,1,76.556,163.551Z" fill="none" stroke="#000" stroke-miterlimit="10" stroke-width="1"/>
          <path id="Path_8" data-name="Path 8" d="M69.434,145.495l7.732,1.765,1.826-8-7.217-1.647c.016-.311.047-.617.047-.931a17.5,17.5,0,0,0-1.4-6.877l5.8-4.621L71.1,118.769l-5.576,4.447a17.484,17.484,0,0,0-7.159-3.591v-7.463H50.16v7.463a17.482,17.482,0,0,0-6.862,3.354L37.055,118l-5.116,6.415,6.329,5.048a17.463,17.463,0,0,0-1.55,6.924L28.332,138.3l1.826,8,8.348-1.906a17.606,17.606,0,0,0,4.1,5.4l-3.845,7.986,7.393,3.56,3.7-7.677a16.585,16.585,0,0,0,6.923.379l3.72,7.725,7.393-3.561-3.474-7.214A17.637,17.637,0,0,0,69.434,145.495ZM41.8,136.682a12.462,12.462,0,1,1,12.462,12.462A12.461,12.461,0,0,1,41.8,136.682Z" fill="none" stroke="#000" stroke-miterlimit="10" stroke-width="1"/>
        </g>
        <g id="Group_6" data-name="Group 6">
          <g id="Group_5" data-name="Group 5">
            <path id="Path_9" data-name="Path 9" d="M180.573,335.35l2.139,6.582h6.921l-5.6,4.068,2.139,6.582-5.6-4.068-5.6,4.068L177.113,346l-5.6-4.068h6.921Z" fill="none" stroke="#000" stroke-miterlimit="10" stroke-width="1"/>
            <path id="Path_10" data-name="Path 10" d="M202.945,335.35l2.139,6.582H212l-5.6,4.068,2.139,6.582-5.6-4.068-5.6,4.068L199.485,346l-5.6-4.068h6.921Z" fill="none" stroke="#000" stroke-miterlimit="10" stroke-width="1"/>
            <path id="Path_11" data-name="Path 11" d="M225.317,335.35l2.139,6.582h6.921l-5.6,4.068,2.139,6.582-5.6-4.068-5.6,4.068L221.857,346l-5.6-4.068h6.921Z" fill="none" stroke="#000" stroke-miterlimit="10" stroke-width="1"/>
            <path id="Path_12" data-name="Path 12" d="M247.689,335.35l2.139,6.582h6.921l-5.6,4.068,2.139,6.582-5.6-4.068-5.6,4.068L244.229,346l-5.6-4.068h6.921Z" fill="none" stroke="#000" stroke-miterlimit="10" stroke-width="1"/>
            <path id="Path_13" data-name="Path 13" d="M270.061,335.35l2.139,6.582h6.921l-5.6,4.068,2.139,6.582-5.6-4.068-5.6,4.068L266.6,346l-5.6-4.068h6.921Z" fill="none" stroke="#000" stroke-miterlimit="10" stroke-width="1"/>
          </g>
          <rect id="Rectangle_1" data-name="Rectangle 1" width="121" height="32" rx="7.5" transform="translate(164 329)" fill="none" stroke="#000" stroke-miterlimit="10" stroke-width="1"/>
        </g>
        <g id="Group_8" data-name="Group 8">
          <g id="Group_7" data-name="Group 7">
            <path id="Path_14" data-name="Path 14" d="M39.2,228.809l1.347,4.147h4.361l-3.528,2.563,1.347,4.147L39.2,237.1l-3.528,2.563,1.347-4.147L33.5,232.956h4.36Z" fill="none" stroke="#000" stroke-miterlimit="10" stroke-width="1"/>
            <path id="Path_15" data-name="Path 15" d="M53.3,228.809l1.348,4.147h4.36l-3.528,2.563,1.347,4.147L53.3,237.1l-3.528,2.563,1.347-4.147-3.528-2.563h4.36Z" fill="none" stroke="#000" stroke-miterlimit="10" stroke-width="1"/>
            <path id="Path_16" data-name="Path 16" d="M67.4,228.809l1.347,4.147H73.1l-3.528,2.563,1.347,4.147L67.4,237.1l-3.528,2.563,1.347-4.147-3.528-2.563h4.36Z" fill="none" stroke="#000" stroke-miterlimit="10" stroke-width="1"/>
            <path id="Path_17" data-name="Path 17" d="M81.491,228.809l1.347,4.147H87.2l-3.528,2.563,1.347,4.147L81.491,237.1l-3.528,2.563,1.347-4.147-3.528-2.563h4.36Z" fill="none" stroke="#000" stroke-miterlimit="10" stroke-width="1"/>
            <path id="Path_18" data-name="Path 18" d="M95.588,228.809l1.347,4.147h4.36l-3.528,2.563,1.347,4.147L95.588,237.1l-3.528,2.563,1.347-4.147-3.528-2.563h4.36Z" fill="none" stroke="#000" stroke-miterlimit="10" stroke-width="1"/>
          </g>
          <rect id="Rectangle_2" data-name="Rectangle 2" width="76.239" height="20.162" rx="7.5" transform="translate(28.761 224.808)" fill="none" stroke="#000" stroke-miterlimit="10" stroke-width="1"/>
        </g>
      </g>
    </g>
    <g id="Plants">
      <g id="Group_10" data-name="Group 10">
        <path id="Path_19" data-name="Path 19" d="M104.532,347.24c.046.029.956-3.492.988-3.72.368-2.647-.476-7.979-3.171-9.281a3.542,3.542,0,0,0-4.819,2.134c-.723,1.986.194,4.422,1.279,6.1C100.082,344.438,104.529,347.237,104.532,347.24Z" fill="#263238"/>
        <path id="Path_20" data-name="Path 20" d="M51.4,346.084c2.147.938,7.4.82,7.4.82.054,0-1.129-3.439-1.229-3.648-1.153-2.411-4.8-6.392-7.763-5.991a3.542,3.542,0,0,0-2.843,4.439C47.46,343.758,49.568,345.284,51.4,346.084Z" fill="#263238"/>
        <path id="Path_21" data-name="Path 21" d="M53.21,361.3c2.228.325,6.916-1.034,7.289-1.144a62.693,62.693,0,0,0,2.843,7.868c.645,1.493,1.341,2.977,2.058,4.455-.428-.626-.815-1.183-.877-1.255-1.749-2.021-6.316-4.9-9.071-3.729a3.542,3.542,0,0,0-1.569,5.032c1.017,1.852,3.454,2.767,5.429,3.055,2,.292,6.025-.786,7.085-1.086.281.564.555,1.131.838,1.694,1.358,2.7,2.724,5.395,3.983,8.076.445.945.847,1.891,1.254,2.837-.381-.556-.706-1.021-.762-1.087-1.749-2.021-6.316-4.9-9.07-3.729a3.542,3.542,0,0,0-1.57,5.032c1.018,1.852,3.454,2.767,5.429,3.055,1.913.279,5.633-.683,6.894-1.034.387.981.777,1.963,1.108,2.931.21.666.46,1.293.634,1.974s.372,1.334.556,1.991c.307,1.279.631,2.6.9,3.852.193.871.361,1.7.532,2.544-.431-.945-1.314-2.778-1.4-2.923-1.423-2.263-5.5-5.8-8.4-5.059A3.541,3.541,0,0,0,65,399.385c.726,1.985,3,3.259,4.9,3.843,2.1.642,6.755.055,7.336-.022.279,1.39.537,2.745.76,4.028.783,4.444,1.267,8.175,1.569,10.787.053.464.1.878.141,1.269H70.705L72.689,458H90.647l1.984-38.71H84.239c.062-.129.121-.249.186-.385,1.152-2.4,2.748-5.846,4.473-10.065.548-1.331,1.107-2.765,1.667-4.243.563.118,5.17,1.054,7.317.569,1.947-.44,4.3-1.541,5.176-3.466a3.541,3.541,0,0,0-1.954-4.9c-2.837-.953-7.168,2.269-8.754,4.419-.094.127-.956,1.617-1.484,2.566.226-.605.452-1.19.676-1.816.453-1.234.869-2.479,1.32-3.817q.294-.98.593-1.981c.212-.656.352-1.377.533-2.072.385-1.62.7-3.281.975-4.96,1.082.393,4.943,1.736,6.944,1.6s4.488-.871,5.641-2.642a3.542,3.542,0,0,0-1.19-5.135c-2.66-1.371-7.428,1.157-9.323,3.043-.118.117-1.325,1.623-1.972,2.463.158-1.012.322-2.02.449-3.048.369-2.967.649-5.982.942-8.989.09-.921.19-1.838.286-2.756.384.145,4.939,1.84,7.179,1.683,1.991-.14,4.489-.871,5.642-2.642a3.542,3.542,0,0,0-1.19-5.135c-2.66-1.371-7.429,1.157-9.323,3.043-.143.142-1.876,2.31-2.29,2.884.213-2.022.445-4.035.754-6.01a62.6,62.6,0,0,1,1.725-7.9c.179.068,4.925,1.859,7.219,1.7,1.991-.14,4.489-.872,5.642-2.643a3.541,3.541,0,0,0-1.19-5.134c-2.66-1.372-7.428,1.157-9.323,3.042-.124.124-1.446,1.774-2.057,2.574l-.152-.078a45.553,45.553,0,0,1,3.139-7.505c.681-1.332,1.406-2.567,2.139-3.753.849.424,4.754,2.321,6.835,2.4,2,.079,4.558-.373,5.9-2.006a3.542,3.542,0,0,0-.619-5.235c-2.493-1.656-7.51.335-9.6,2-.114.091-1.167,1.14-1.924,1.914.339-.53.679-1.083,1.013-1.585,1.252-1.885,2.515-3.534,3.645-4.986.649-.82,1.253-1.549,1.824-2.225,1.051-.019,5.286-.148,7.138-1.017,1.806-.848,3.872-2.431,4.309-4.5a3.541,3.541,0,0,0-2.961-4.36c-2.976-.321-6.512,3.757-7.6,6.2-.094.211-1.184,3.679-1.129,3.679h.063c-.563.64-1.159,1.332-1.8,2.1-1.164,1.43-2.466,3.056-3.764,4.922a62.843,62.843,0,0,0-3.9,6.217,46.2,46.2,0,0,0-3.334,7.505c-.01.03-.017.064-.027.1.015-.877-.023-3.33-.048-3.518-.343-2.65-2.565-7.569-5.508-8.114a3.543,3.543,0,0,0-4.085,3.332c-.172,2.105,1.355,4.213,2.843,5.543,1.679,1.5,6.339,2.952,6.711,3.066a62.671,62.671,0,0,0-1.969,8.131c-.286,1.6-.524,3.222-.742,4.851-.011-.758-.026-1.436-.039-1.531-.344-2.65-2.565-7.569-5.508-8.113a3.542,3.542,0,0,0-4.085,3.33c-.173,2.106,1.354,4.214,2.843,5.544,1.511,1.349,5.459,2.667,6.509,3-.077.626-.162,1.25-.236,1.876-.359,3-.7,6-1.133,8.933-.15,1.033-.337,2.045-.519,3.058-.011-.674-.025-1.241-.037-1.327-.343-2.651-2.564-7.57-5.508-8.114a3.542,3.542,0,0,0-4.085,3.331c-.172,2.106,1.355,4.214,2.844,5.543,1.441,1.288,5.075,2.537,6.32,2.941-.219,1.032-.436,2.065-.694,3.055-.191.672-.329,1.332-.559,2q-.321.993-.635,1.967c-.45,1.236-.906,2.514-1.375,3.709-.32.833-.64,1.621-.96,2.416.162-1.027.437-3.043.441-3.214a13.758,13.758,0,0,0-1.844-6.69,4.291,4.291,0,0,0-.049-.784,3.543,3.543,0,0,0-4.331-3c-2.892.77-4.727,5.846-4.864,8.515-.008.158.1,1.876.178,2.959-.146-.63-.28-1.242-.437-1.888-.3-1.279-.644-2.546-1.005-3.912q-.3-.979-.6-1.978c-.185-.665-.466-1.344-.7-2.024-.573-1.563-1.228-3.12-1.923-4.675,1.119-.268,5.081-1.278,6.671-2.5s3.264-3.2,3.248-5.316a3.542,3.542,0,0,0-3.825-3.627c-2.975.324-5.558,5.064-6.1,7.681-.034.163-.21,2.085-.287,3.143-.425-.931-.845-1.863-1.306-2.79-1.33-2.679-2.759-5.348-4.173-8.018-.434-.817-.856-1.637-1.282-2.456.4-.091,5.134-1.189,6.916-2.557,1.584-1.215,3.263-3.2,3.248-5.316a3.542,3.542,0,0,0-3.825-3.626c-2.975.324-5.558,5.064-6.1,7.681-.04.2-.29,2.963-.319,3.669-.937-1.8-1.854-3.611-2.686-5.428A62.37,62.37,0,0,1,61.2,360.13c.186-.041,5.133-1.166,6.958-2.566,1.583-1.215,3.263-3.2,3.248-5.316a3.542,3.542,0,0,0-3.825-3.626c-2.976.323-5.558,5.063-6.1,7.68-.036.173-.228,2.281-.3,3.284l-.169.018a45.548,45.548,0,0,1-1.523-7.992c-.167-1.487-.243-2.917-.286-4.31.943-.115,5.245-.688,7.027-1.766,1.708-1.034,3.6-2.826,3.813-4.927a3.541,3.541,0,0,0-3.4-4.024c-2.993-.006-6.08,4.422-6.9,6.964-.045.138-.345,1.594-.549,2.657-.01-.629-.032-1.277-.029-1.88,0-2.264.147-4.336.289-6.17.089-1.043.19-1.983.294-2.862.866-.6,4.327-3.039,5.392-4.786,1.039-1.7,1.889-4.164,1.113-6.129a3.542,3.542,0,0,0-4.875-2c-2.659,1.374-3.358,6.726-2.918,9.362.038.228,1.042,3.723,1.088,3.692l.052-.036c-.117.844-.233,1.751-.339,2.743-.182,1.835-.371,3.91-.424,6.182a62.757,62.757,0,0,0,.175,7.338,46.12,46.12,0,0,0,1.359,8.1c.009.031.021.062.03.094-.471-.74-1.856-2.764-1.98-2.908-1.749-2.021-6.316-4.9-9.07-3.728a3.542,3.542,0,0,0-1.57,5.032C48.8,360.1,51.235,361.013,53.21,361.3Zm29.677,39.225c1.532,1.658,5.457,3.6,5.966,3.847-.535,1.313-1.067,2.586-1.589,3.778-1.8,4.14-3.453,7.519-4.642,9.863-.24.473-.455.891-.655,1.277h-.2c-.059-.458-.124-.958-.2-1.52-.364-2.636-.934-6.392-1.822-10.862-.278-1.413-.6-2.918-.95-4.459A38.6,38.6,0,0,0,82.887,400.525Z" fill="#263238"/>
        <path id="Path_22" data-name="Path 22" d="M51.4,346.084c2.147.938,7.4.82,7.4.82.054,0-1.129-3.439-1.229-3.648-1.153-2.411-4.8-6.392-7.763-5.991a3.542,3.542,0,0,0-2.843,4.439C47.46,343.758,49.568,345.284,51.4,346.084Z" fill="#263238" opacity="0.3"/>
        <path id="Path_23" data-name="Path 23" d="M104.532,347.24c.046.029.956-3.492.988-3.72.368-2.647-.476-7.979-3.171-9.281a3.542,3.542,0,0,0-4.819,2.134c-.723,1.986.194,4.422,1.279,6.1C100.082,344.438,104.529,347.237,104.532,347.24Z" fill="#263238" opacity="0.3"/>
        <path id="Path_24" data-name="Path 24" d="M53.21,361.3c2.228.325,6.916-1.034,7.289-1.144a62.693,62.693,0,0,0,2.843,7.868c.645,1.493,1.341,2.977,2.058,4.455-.428-.626-.815-1.183-.877-1.255-1.749-2.021-6.316-4.9-9.071-3.729a3.542,3.542,0,0,0-1.569,5.032c1.017,1.852,3.454,2.767,5.429,3.055,2,.292,6.025-.786,7.085-1.086.281.564.555,1.131.838,1.694,1.358,2.7,2.724,5.395,3.983,8.076.445.945.847,1.891,1.254,2.837-.381-.556-.706-1.021-.762-1.087-1.749-2.021-6.316-4.9-9.07-3.729a3.542,3.542,0,0,0-1.57,5.032c1.018,1.852,3.454,2.767,5.429,3.055,1.913.279,5.633-.683,6.894-1.034.387.981.777,1.963,1.108,2.931.21.666.46,1.293.634,1.974s.372,1.334.556,1.991c.307,1.279.631,2.6.9,3.852.193.871.361,1.7.532,2.544-.431-.945-1.314-2.778-1.4-2.923-1.423-2.263-5.5-5.8-8.4-5.059A3.541,3.541,0,0,0,65,399.385c.726,1.985,3,3.259,4.9,3.843,2.1.642,6.755.055,7.336-.022.279,1.39.537,2.745.76,4.028.783,4.444,1.267,8.175,1.569,10.787.053.464.1.878.141,1.269H70.705L72.689,458H90.647l1.984-38.71H84.239c.062-.129.121-.249.186-.385,1.152-2.4,2.748-5.846,4.473-10.065.548-1.331,1.107-2.765,1.667-4.243.563.118,5.17,1.054,7.317.569,1.947-.44,4.3-1.541,5.176-3.466a3.541,3.541,0,0,0-1.954-4.9c-2.837-.953-7.168,2.269-8.754,4.419-.094.127-.956,1.617-1.484,2.566.226-.605.452-1.19.676-1.816.453-1.234.869-2.479,1.32-3.817q.294-.98.593-1.981c.212-.656.352-1.377.533-2.072.385-1.62.7-3.281.975-4.96,1.082.393,4.943,1.736,6.944,1.6s4.488-.871,5.641-2.642a3.542,3.542,0,0,0-1.19-5.135c-2.66-1.371-7.428,1.157-9.323,3.043-.118.117-1.325,1.623-1.972,2.463.158-1.012.322-2.02.449-3.048.369-2.967.649-5.982.942-8.989.09-.921.19-1.838.286-2.756.384.145,4.939,1.84,7.179,1.683,1.991-.14,4.489-.871,5.642-2.642a3.542,3.542,0,0,0-1.19-5.135c-2.66-1.371-7.429,1.157-9.323,3.043-.143.142-1.876,2.31-2.29,2.884.213-2.022.445-4.035.754-6.01a62.6,62.6,0,0,1,1.725-7.9c.179.068,4.925,1.859,7.219,1.7,1.991-.14,4.489-.872,5.642-2.643a3.541,3.541,0,0,0-1.19-5.134c-2.66-1.372-7.428,1.157-9.323,3.042-.124.124-1.446,1.774-2.057,2.574l-.152-.078a45.553,45.553,0,0,1,3.139-7.505c.681-1.332,1.406-2.567,2.139-3.753.849.424,4.754,2.321,6.835,2.4,2,.079,4.558-.373,5.9-2.006a3.542,3.542,0,0,0-.619-5.235c-2.493-1.656-7.51.335-9.6,2-.114.091-1.167,1.14-1.924,1.914.339-.53.679-1.083,1.013-1.585,1.252-1.885,2.515-3.534,3.645-4.986.649-.82,1.253-1.549,1.824-2.225,1.051-.019,5.286-.148,7.138-1.017,1.806-.848,3.872-2.431,4.309-4.5a3.541,3.541,0,0,0-2.961-4.36c-2.976-.321-6.512,3.757-7.6,6.2-.094.211-1.184,3.679-1.129,3.679h.063c-.563.64-1.159,1.332-1.8,2.1-1.164,1.43-2.466,3.056-3.764,4.922a62.843,62.843,0,0,0-3.9,6.217,46.2,46.2,0,0,0-3.334,7.505c-.01.03-.017.064-.027.1.015-.877-.023-3.33-.048-3.518-.343-2.65-2.565-7.569-5.508-8.114a3.543,3.543,0,0,0-4.085,3.332c-.172,2.105,1.355,4.213,2.843,5.543,1.679,1.5,6.339,2.952,6.711,3.066a62.671,62.671,0,0,0-1.969,8.131c-.286,1.6-.524,3.222-.742,4.851-.011-.758-.026-1.436-.039-1.531-.344-2.65-2.565-7.569-5.508-8.113a3.542,3.542,0,0,0-4.085,3.33c-.173,2.106,1.354,4.214,2.843,5.544,1.511,1.349,5.459,2.667,6.509,3-.077.626-.162,1.25-.236,1.876-.359,3-.7,6-1.133,8.933-.15,1.033-.337,2.045-.519,3.058-.011-.674-.025-1.241-.037-1.327-.343-2.651-2.564-7.57-5.508-8.114a3.542,3.542,0,0,0-4.085,3.331c-.172,2.106,1.355,4.214,2.844,5.543,1.441,1.288,5.075,2.537,6.32,2.941-.219,1.032-.436,2.065-.694,3.055-.191.672-.329,1.332-.559,2q-.321.993-.635,1.967c-.45,1.236-.906,2.514-1.375,3.709-.32.833-.64,1.621-.96,2.416.162-1.027.437-3.043.441-3.214a13.758,13.758,0,0,0-1.844-6.69,4.291,4.291,0,0,0-.049-.784,3.543,3.543,0,0,0-4.331-3c-2.892.77-4.727,5.846-4.864,8.515-.008.158.1,1.876.178,2.959-.146-.63-.28-1.242-.437-1.888-.3-1.279-.644-2.546-1.005-3.912q-.3-.979-.6-1.978c-.185-.665-.466-1.344-.7-2.024-.573-1.563-1.228-3.12-1.923-4.675,1.119-.268,5.081-1.278,6.671-2.5s3.264-3.2,3.248-5.316a3.542,3.542,0,0,0-3.825-3.627c-2.975.324-5.558,5.064-6.1,7.681-.034.163-.21,2.085-.287,3.143-.425-.931-.845-1.863-1.306-2.79-1.33-2.679-2.759-5.348-4.173-8.018-.434-.817-.856-1.637-1.282-2.456.4-.091,5.134-1.189,6.916-2.557,1.584-1.215,3.263-3.2,3.248-5.316a3.542,3.542,0,0,0-3.825-3.626c-2.975.324-5.558,5.064-6.1,7.681-.04.2-.29,2.963-.319,3.669-.937-1.8-1.854-3.611-2.686-5.428A62.37,62.37,0,0,1,61.2,360.13c.186-.041,5.133-1.166,6.958-2.566,1.583-1.215,3.263-3.2,3.248-5.316a3.542,3.542,0,0,0-3.825-3.626c-2.976.323-5.558,5.063-6.1,7.68-.036.173-.228,2.281-.3,3.284l-.169.018a45.548,45.548,0,0,1-1.523-7.992c-.167-1.487-.243-2.917-.286-4.31.943-.115,5.245-.688,7.027-1.766,1.708-1.034,3.6-2.826,3.813-4.927a3.541,3.541,0,0,0-3.4-4.024c-2.993-.006-6.08,4.422-6.9,6.964-.045.138-.345,1.594-.549,2.657-.01-.629-.032-1.277-.029-1.88,0-2.264.147-4.336.289-6.17.089-1.043.19-1.983.294-2.862.866-.6,4.327-3.039,5.392-4.786,1.039-1.7,1.889-4.164,1.113-6.129a3.542,3.542,0,0,0-4.875-2c-2.659,1.374-3.358,6.726-2.918,9.362.038.228,1.042,3.723,1.088,3.692l.052-.036c-.117.844-.233,1.751-.339,2.743-.182,1.835-.371,3.91-.424,6.182a62.757,62.757,0,0,0,.175,7.338,46.12,46.12,0,0,0,1.359,8.1c.009.031.021.062.03.094-.471-.74-1.856-2.764-1.98-2.908-1.749-2.021-6.316-4.9-9.07-3.728a3.542,3.542,0,0,0-1.57,5.032C48.8,360.1,51.235,361.013,53.21,361.3Zm29.677,39.225c1.532,1.658,5.457,3.6,5.966,3.847-.535,1.313-1.067,2.586-1.589,3.778-1.8,4.14-3.453,7.519-4.642,9.863-.24.473-.455.891-.655,1.277h-.2c-.059-.458-.124-.958-.2-1.52-.364-2.636-.934-6.392-1.822-10.862-.278-1.413-.6-2.918-.95-4.459A38.6,38.6,0,0,0,82.887,400.525Z" fill="#263238" opacity="0.3"/>
      </g>
    </g>
    <g id="Page">
      <rect id="Rectangle_3" data-name="Rectangle 3" width="349" height="258" transform="translate(72 56)" opacity="0.3"/>
      <g id="Group_116" data-name="Group 116">
        <rect id="Rectangle_4" data-name="Rectangle 4" width="352.754" height="259.17" transform="translate(80.646 46)" fill="#fff" stroke="#263238" stroke-miterlimit="10" stroke-width="1"/>
        <rect id="Rectangle_5" data-name="Rectangle 5" width="58.118" height="259.17" transform="translate(80.646 46)" fill="#92e3a9" stroke="#263238" stroke-miterlimit="10" stroke-width="1"/>
        <g id="Group_115" data-name="Group 115">
          <rect id="Rectangle_6" data-name="Rectangle 6" width="352.754" height="21.279" transform="translate(80.646 46)" fill="#263238" stroke="#263238" stroke-linecap="round" stroke-linejoin="round" stroke-width="1"/>
          <path id="Path_25" data-name="Path 25" d="M96.935,96.379a5.857,5.857,0,1,0-5.857,5.857A5.857,5.857,0,0,0,96.935,96.379Z" fill="#fff" stroke="#263238" stroke-linecap="round" stroke-linejoin="round" stroke-width="1"/>
          <line id="Line_4" data-name="Line 4" x2="28.8" transform="translate(101.816 96.867)" fill="none" stroke="#263238" stroke-linecap="round" stroke-linejoin="round" stroke-width="1"/>
          <path id="Path_26" data-name="Path 26" d="M96.935,123.226a5.857,5.857,0,1,0-5.857,5.858A5.858,5.858,0,0,0,96.935,123.226Z" fill="#fff" stroke="#263238" stroke-linecap="round" stroke-linejoin="round" stroke-width="1"/>
          <line id="Line_5" data-name="Line 5" x2="28.8" transform="translate(101.816 123.714)" fill="none" stroke="#263238" stroke-linecap="round" stroke-linejoin="round" stroke-width="1"/>
          <path id="Path_27" data-name="Path 27" d="M96.935,150.074a5.857,5.857,0,1,0-5.857,5.857A5.858,5.858,0,0,0,96.935,150.074Z" fill="#fff" stroke="#263238" stroke-linecap="round" stroke-linejoin="round" stroke-width="1"/>
          <line id="Line_6" data-name="Line 6" x2="28.8" transform="translate(101.816 150.562)" fill="none" stroke="#263238" stroke-linecap="round" stroke-linejoin="round" stroke-width="1"/>
          <path id="Path_28" data-name="Path 28" d="M96.935,176.921a5.857,5.857,0,1,0-5.857,5.858A5.857,5.857,0,0,0,96.935,176.921Z" fill="#fff" stroke="#263238" stroke-linecap="round" stroke-linejoin="round" stroke-width="1"/>
          <line id="Line_7" data-name="Line 7" x2="28.8" transform="translate(101.816 177.41)" fill="none" stroke="#263238" stroke-linecap="round" stroke-linejoin="round" stroke-width="1"/>
          <path id="Path_29" data-name="Path 29" d="M96.935,203.769a5.857,5.857,0,1,0-5.857,5.858A5.858,5.858,0,0,0,96.935,203.769Z" fill="#fff" stroke="#263238" stroke-linecap="round" stroke-linejoin="round" stroke-width="1"/>
          <line id="Line_8" data-name="Line 8" x2="28.8" transform="translate(101.816 204.257)" fill="none" stroke="#263238" stroke-linecap="round" stroke-linejoin="round" stroke-width="1"/>
          <g id="Group_11" data-name="Group 11" opacity="0.05">
            <rect id="Rectangle_7" data-name="Rectangle 7" width="230.915" height="8.282" transform="translate(146.072 222.918)"/>
            <rect id="Rectangle_8" data-name="Rectangle 8" width="230.915" height="8.282" transform="translate(146.072 237.533)"/>
            <rect id="Rectangle_9" data-name="Rectangle 9" width="230.915" height="8.282" transform="translate(146.072 252.147)"/>
            <rect id="Rectangle_10" data-name="Rectangle 10" width="230.915" height="8.282" transform="translate(146.072 266.762)"/>
          </g>
          <g id="Group_26" data-name="Group 26">
            <g id="Group_13" data-name="Group 13">
              <g id="Group_12" data-name="Group 12">
                <rect id="Rectangle_11" data-name="Rectangle 11" width="13.24" height="38.671" transform="translate(242.185 244.168)" fill="#92e3a9"/>
              </g>
            </g>
            <g id="Group_15" data-name="Group 15">
              <g id="Group_14" data-name="Group 14">
                <rect id="Rectangle_12" data-name="Rectangle 12" width="13.24" height="54.63" transform="translate(227.473 228.208)" fill="#263238"/>
              </g>
            </g>
            <g id="Group_17" data-name="Group 17">
              <g id="Group_16" data-name="Group 16">
                <rect id="Rectangle_13" data-name="Rectangle 13" width="13.24" height="34.988" transform="translate(212.762 247.851)" fill="#92e3a9"/>
              </g>
            </g>
            <g id="Group_19" data-name="Group 19">
              <g id="Group_18" data-name="Group 18">
                <rect id="Rectangle_14" data-name="Rectangle 14" width="13.24" height="14.118" transform="translate(198.051 268.721)" fill="#263238"/>
              </g>
            </g>
            <g id="Group_21" data-name="Group 21">
              <g id="Group_20" data-name="Group 20">
                <rect id="Rectangle_15" data-name="Rectangle 15" width="13.24" height="41.74" transform="translate(183.339 241.098)" fill="#92e3a9"/>
              </g>
            </g>
            <g id="Group_23" data-name="Group 23">
              <g id="Group_22" data-name="Group 22">
                <rect id="Rectangle_16" data-name="Rectangle 16" width="13.24" height="33.146" transform="translate(168.628 249.692)" fill="#263238"/>
              </g>
            </g>
            <g id="Group_25" data-name="Group 25">
              <g id="Group_24" data-name="Group 24">
                <rect id="Rectangle_17" data-name="Rectangle 17" width="13.24" height="12.276" transform="translate(153.917 270.562)" fill="#92e3a9"/>
              </g>
            </g>
          </g>
          <g id="Group_41" data-name="Group 41">
            <g id="Group_28" data-name="Group 28">
              <g id="Group_27" data-name="Group 27">
                <rect id="Rectangle_18" data-name="Rectangle 18" width="13.24" height="38.671" transform="translate(273.043 244.168)" fill="#263238"/>
              </g>
            </g>
            <g id="Group_30" data-name="Group 30">
              <g id="Group_29" data-name="Group 29">
                <rect id="Rectangle_19" data-name="Rectangle 19" width="13.24" height="54.63" transform="translate(287.754 228.208)" fill="#92e3a9"/>
              </g>
            </g>
            <g id="Group_32" data-name="Group 32">
              <g id="Group_31" data-name="Group 31">
                <rect id="Rectangle_20" data-name="Rectangle 20" width="13.24" height="34.988" transform="translate(302.465 247.851)" fill="#263238"/>
              </g>
            </g>
            <g id="Group_34" data-name="Group 34">
              <g id="Group_33" data-name="Group 33">
                <rect id="Rectangle_21" data-name="Rectangle 21" width="13.24" height="14.118" transform="translate(317.177 268.721)" fill="#92e3a9"/>
              </g>
            </g>
            <g id="Group_36" data-name="Group 36">
              <g id="Group_35" data-name="Group 35">
                <rect id="Rectangle_22" data-name="Rectangle 22" width="13.24" height="41.74" transform="translate(331.888 241.098)" fill="#263238"/>
              </g>
            </g>
            <g id="Group_38" data-name="Group 38">
              <g id="Group_37" data-name="Group 37">
                <rect id="Rectangle_23" data-name="Rectangle 23" width="13.24" height="33.146" transform="translate(346.599 249.692)" fill="#92e3a9"/>
              </g>
            </g>
            <g id="Group_40" data-name="Group 40">
              <g id="Group_39" data-name="Group 39">
                <rect id="Rectangle_24" data-name="Rectangle 24" width="13.24" height="12.276" transform="translate(361.311 270.562)" fill="#263238"/>
              </g>
            </g>
          </g>
          <g id="Group_42" data-name="Group 42">
            <line id="Line_9" data-name="Line 9" x2="42.951" transform="translate(88.411 241.808)" fill="none" stroke="#263238" stroke-linecap="round" stroke-linejoin="round" stroke-width="1"/>
            <line id="Line_10" data-name="Line 10" x2="42.951" transform="translate(88.411 249.517)" fill="none" stroke="#263238" stroke-linecap="round" stroke-linejoin="round" stroke-width="1"/>
            <line id="Line_11" data-name="Line 11" x2="42.951" transform="translate(88.411 257.226)" fill="none" stroke="#263238" stroke-linecap="round" stroke-linejoin="round" stroke-width="1"/>
            <line id="Line_12" data-name="Line 12" x2="42.951" transform="translate(88.411 264.936)" fill="none" stroke="#263238" stroke-linecap="round" stroke-linejoin="round" stroke-width="1"/>
            <line id="Line_13" data-name="Line 13" x2="42.951" transform="translate(88.411 272.645)" fill="none" stroke="#263238" stroke-linecap="round" stroke-linejoin="round" stroke-width="1"/>
            <line id="Line_14" data-name="Line 14" x2="42.951" transform="translate(88.411 280.354)" fill="none" stroke="#263238" stroke-linecap="round" stroke-linejoin="round" stroke-width="1"/>
          </g>
          <g id="Group_43" data-name="Group 43">
            <line id="Line_15" data-name="Line 15" x2="18.851" transform="translate(96.205 52.79)" fill="none" stroke="#fff" stroke-linecap="round" stroke-linejoin="round" stroke-width="1"/>
            <line id="Line_16" data-name="Line 16" x2="18.851" transform="translate(96.205 57.91)" fill="none" stroke="#fff" stroke-linecap="round" stroke-linejoin="round" stroke-width="1"/>
            <line id="Line_17" data-name="Line 17" x2="18.851" transform="translate(96.205 63.031)" fill="none" stroke="#fff" stroke-linecap="round" stroke-linejoin="round" stroke-width="1"/>
          </g>
          <g id="Group_45" data-name="Group 45">
            <rect id="Rectangle_25" data-name="Rectangle 25" width="110.128" height="44.595" transform="translate(267.375 166.923)" opacity="0.05"/>
            <path id="Path_30" data-name="Path 30" d="M377.5,203.811v7.707H267.375V186.741l17.616-4.95h24.777l9.919,12.657H337.3l13.767,9.363Z" fill="#92e3a9"/>
            <line id="Line_18" data-name="Line 18" x2="26.431" transform="translate(344.464 175.179)" fill="none" stroke="#263238" stroke-linecap="round" stroke-linejoin="round" stroke-width="1"/>
            <g id="Group_44" data-name="Group 44">
              <path id="Path_31" data-name="Path 31" d="M351.3,192.56v2.258h-1.217V192.56h-3.618v-1.136l3.474-7.814H351.3v7.814h.9v1.136Zm-3.682-1.136h2.465v-5.476Z" fill="#263238"/>
              <path id="Path_32" data-name="Path 32" d="M354.41,188.174a1.8,1.8,0,0,1,1.665-.929c1.44,0,2.082,1.057,2.082,2.658V192.1c0,1.714-.818,2.835-2.53,2.835s-2.514-1.121-2.514-2.835v-.752h1.168v.832c0,1.009.417,1.617,1.313,1.617s1.313-.608,1.313-1.617V190c0-1.008-.416-1.616-1.313-1.616a1.206,1.206,0,0,0-1.264,1.2v.257h-1.17l.3-6.229h4.419v1.121h-3.3Z" fill="#263238"/>
              <path id="Path_33" data-name="Path 33" d="M362.494,185.355v3.539c0,1.089-.512,1.809-1.6,1.809s-1.6-.72-1.6-1.809v-3.539c0-1.072.512-1.809,1.6-1.809S362.494,184.283,362.494,185.355Zm-2.4-.048v3.651c0,.609.225,1.009.8,1.009.561,0,.8-.4.8-1.009v-3.651c0-.608-.239-1.024-.8-1.024C360.317,184.283,360.092,184.7,360.092,185.307Zm6.1-1.7-4.42,11.208h-.752l4.419-11.208ZM368,189.534v3.523c0,1.089-.5,1.809-1.6,1.809-1.088,0-1.6-.72-1.6-1.809v-3.523c0-1.073.512-1.793,1.6-1.793C367.506,187.741,368,188.461,368,189.534Zm-2.4-.048v3.635c0,.608.241,1.025.8,1.025s.8-.417.8-1.025v-3.635c0-.608-.241-1.008-.8-1.008S365.6,188.878,365.6,189.486Z" fill="#263238"/>
            </g>
          </g>
          <g id="Group_55" data-name="Group 55">
            <g id="Group_46" data-name="Group 46">
              <path id="Path_34" data-name="Path 34" d="M146.752,87.352V80h-1.507v-.829h3.915V80h-1.508v7.35Z" fill="#263238"/>
              <path id="Path_35" data-name="Path 35" d="M151.6,79.173c1.285,0,1.823.654,1.823,1.869v.666c0,.9-.315,1.461-1.017,1.683.748.222,1.029.83,1.029,1.706v1.274a2.045,2.045,0,0,0,.163.981h-.923a2.139,2.139,0,0,1-.152-.993V85.074c0-.923-.432-1.215-1.192-1.215h-.643v3.493h-.911V79.173Zm-.234,3.856c.725,0,1.157-.234,1.157-1.122v-.783c0-.736-.268-1.122-.946-1.122h-.889v3.027Z" fill="#263238"/>
              <path id="Path_36" data-name="Path 36" d="M157.3,82.795v.818h-2v2.91h2.454v.829h-3.365V79.173h3.365V80H155.3v2.793Z" fill="#263238"/>
              <path id="Path_37" data-name="Path 37" d="M159.4,87.352h-.818V79.173h1.157l1.893,5.913V79.173h.806v8.179h-.946L159.4,80.739Z" fill="#263238"/>
              <path id="Path_38" data-name="Path 38" d="M165.295,79.173c1.273,0,1.858.771,1.858,2.033v4.125c0,1.25-.585,2.021-1.858,2.021h-1.917V79.173Zm-.012,7.35c.655,0,.97-.409.97-1.157V81.159c0-.748-.315-1.157-.981-1.157h-.982v6.521Z" fill="#263238"/>
            </g>
            <g id="Group_54" data-name="Group 54">
              <g id="Group_51" data-name="Group 51">
                <g id="Group_48" data-name="Group 48" opacity="0.3">
                  <line id="Line_19" data-name="Line 19" y1="3.945" transform="translate(145.154 144.021)" fill="none" stroke="#000" stroke-linecap="round" stroke-linejoin="round" stroke-width="0.5"/>
                  <g id="Group_47" data-name="Group 47">
                    <line id="Line_20" data-name="Line 20" x2="279.324" transform="translate(144.168 134.653)" fill="none" stroke="#000" stroke-linecap="round" stroke-linejoin="round" stroke-width="0.5" opacity="0.3"/>
                    <line id="Line_21" data-name="Line 21" x2="279.324" transform="translate(144.168 143.775)" fill="none" stroke="#000" stroke-linecap="round" stroke-linejoin="round" stroke-width="0.5" opacity="0.3"/>
                    <line id="Line_22" data-name="Line 22" x2="279.324" transform="translate(144.168 126.024)" fill="none" stroke="#000" stroke-linecap="round" stroke-linejoin="round" stroke-width="0.5" opacity="0.3"/>
                    <line id="Line_23" data-name="Line 23" x2="279.324" transform="translate(144.168 117.396)" fill="none" stroke="#000" stroke-linecap="round" stroke-linejoin="round" stroke-width="0.5" opacity="0.3"/>
                    <line id="Line_24" data-name="Line 24" x2="279.324" transform="translate(144.168 108.767)" fill="none" stroke="#000" stroke-linecap="round" stroke-linejoin="round" stroke-width="0.5" opacity="0.3"/>
                    <line id="Line_25" data-name="Line 25" x2="279.324" transform="translate(144.168 100.138)" fill="none" stroke="#000" stroke-linecap="round" stroke-linejoin="round" stroke-width="0.5" opacity="0.3"/>
                    <line id="Line_26" data-name="Line 26" x2="279.324" transform="translate(144.168 91.509)" fill="none" stroke="#000" stroke-linecap="round" stroke-linejoin="round" stroke-width="0.5" opacity="0.3"/>
                    <line id="Line_27" data-name="Line 27" y1="3.945" transform="translate(168.164 144.021)" fill="none" stroke="#000" stroke-linecap="round" stroke-linejoin="round" stroke-width="0.5" opacity="0.3"/>
                  </g>
                  <line id="Line_28" data-name="Line 28" y1="3.945" transform="translate(191.174 144.021)" fill="none" stroke="#000" stroke-linecap="round" stroke-linejoin="round" stroke-width="0.5"/>
                  <line id="Line_29" data-name="Line 29" y1="3.945" transform="translate(214.184 144.021)" fill="none" stroke="#000" stroke-linecap="round" stroke-linejoin="round" stroke-width="0.5"/>
                  <line id="Line_30" data-name="Line 30" y1="3.945" transform="translate(237.194 144.021)" fill="none" stroke="#000" stroke-linecap="round" stroke-linejoin="round" stroke-width="0.5"/>
                  <line id="Line_31" data-name="Line 31" y1="3.945" transform="translate(260.204 144.021)" fill="none" stroke="#000" stroke-linecap="round" stroke-linejoin="round" stroke-width="0.5"/>
                  <line id="Line_32" data-name="Line 32" y1="3.945" transform="translate(283.214 144.021)" fill="none" stroke="#000" stroke-linecap="round" stroke-linejoin="round" stroke-width="0.5"/>
                  <line id="Line_33" data-name="Line 33" y1="3.945" transform="translate(306.224 144.021)" fill="none" stroke="#000" stroke-linecap="round" stroke-linejoin="round" stroke-width="0.5"/>
                  <line id="Line_34" data-name="Line 34" y1="3.945" transform="translate(329.233 144.021)" fill="none" stroke="#000" stroke-linecap="round" stroke-linejoin="round" stroke-width="0.5"/>
                  <line id="Line_35" data-name="Line 35" y1="3.945" transform="translate(352.243 144.021)" fill="none" stroke="#000" stroke-linecap="round" stroke-linejoin="round" stroke-width="0.5"/>
                  <line id="Line_36" data-name="Line 36" y1="3.945" transform="translate(375.253 144.021)" fill="none" stroke="#000" stroke-linecap="round" stroke-linejoin="round" stroke-width="0.5"/>
                  <line id="Line_37" data-name="Line 37" y1="3.945" transform="translate(398.263 144.021)" fill="none" stroke="#000" stroke-linecap="round" stroke-linejoin="round" stroke-width="0.5"/>
                  <line id="Line_38" data-name="Line 38" y1="3.945" transform="translate(421.273 144.021)" fill="none" stroke="#000" stroke-linecap="round" stroke-linejoin="round" stroke-width="0.5"/>
                </g>
                <path id="Path_39" data-name="Path 39" d="M419.857,142.344V93.17l.125-4.41-14.734,3-18.49,5.917-22.435,2.465-23.421,6.9-22.188-2.712L293.568,97.18l-24.16,11.063-18.983-7.118-25.393,3.205-21.2-8.875-24.407,34.268-22.928-27.365-11.4,11.274v28.713Z" fill="#92e3a9"/>
                <path id="Path_40" data-name="Path 40" d="M419.857,142.344V93.17l.125-4.41-14.734,3-18.49,5.917-22.435,2.465-23.421,6.9-22.188-2.712L293.568,97.18l-24.16,11.063-18.983-7.118-25.393,3.205-21.2-8.875-24.407,34.268-22.928-27.365-11.4,11.274v28.713Z" fill="#fff" opacity="0.5"/>
                <path id="Path_41" data-name="Path 41" d="M420.053,142.344V125.807l.059-2.024-14.863-6.009-18.49-4.191-22.435,2.465L340.9,120.24l-22.188-3.205-25.147-2.465-24.16.493-18.983,5.424-25.393,4.438-21.2-4.438-24.407,2.219-22.928,2.465L145.4,126.649h-.523v15.695Z" opacity="0.15"/>
                <g id="Group_49" data-name="Group 49">
                  <circle id="Ellipse_1" data-name="Ellipse 1" cx="1.479" cy="1.479" r="1.479" transform="translate(155.016 123.691)" fill="#263238"/>
                  <path id="Path_42" data-name="Path 42" d="M180.9,122.705a1.479,1.479,0,1,0-1.48,1.479A1.48,1.48,0,0,0,180.9,122.705Z" fill="#263238"/>
                  <circle id="Ellipse_2" data-name="Ellipse 2" cx="1.479" cy="1.479" r="1.479" transform="translate(202.35 119.007)" fill="#263238"/>
                  <circle id="Ellipse_3" data-name="Ellipse 3" cx="1.479" cy="1.479" r="1.479" transform="translate(223.552 123.445)" fill="#263238"/>
                  <circle id="Ellipse_4" data-name="Ellipse 4" cx="1.479" cy="1.479" r="1.479" transform="translate(248.945 119.007)" fill="#263238"/>
                  <circle id="Ellipse_5" data-name="Ellipse 5" cx="1.479" cy="1.479" r="1.479" transform="translate(267.928 113.583)" fill="#263238"/>
                  <circle id="Ellipse_6" data-name="Ellipse 6" cx="1.479" cy="1.479" r="1.479" transform="translate(292.089 113.09)" fill="#263238"/>
                  <path id="Path_43" data-name="Path 43" d="M320.194,117.035a1.48,1.48,0,1,0-1.479,1.479A1.48,1.48,0,0,0,320.194,117.035Z" fill="#263238"/>
                  <circle id="Ellipse_7" data-name="Ellipse 7" cx="1.479" cy="1.479" r="1.479" transform="translate(339.424 118.76)" fill="#263238"/>
                  <circle id="Ellipse_8" data-name="Ellipse 8" cx="1.479" cy="1.479" r="1.479" transform="translate(362.844 114.569)" fill="#263238"/>
                  <circle id="Ellipse_9" data-name="Ellipse 9" cx="1.479" cy="1.479" r="1.479" transform="translate(385.279 112.104)" fill="#263238"/>
                  <path id="Path_44" data-name="Path 44" d="M406.728,117.774a1.479,1.479,0,1,0-1.48,1.479A1.48,1.48,0,0,0,406.728,117.774Z" fill="#263238"/>
                </g>
                <g id="Group_50" data-name="Group 50" opacity="0.3">
                  <circle id="Ellipse_10" data-name="Ellipse 10" cx="1.479" cy="1.479" r="1.479" transform="translate(155.016 100.878)"/>
                  <circle id="Ellipse_11" data-name="Ellipse 11" cx="1.479" cy="1.479" r="1.479" transform="translate(177.943 128.243)"/>
                  <path id="Path_45" data-name="Path 45" d="M205.309,95.454a1.479,1.479,0,1,0-1.48,1.479A1.48,1.48,0,0,0,205.309,95.454Z"/>
                  <circle id="Ellipse_12" data-name="Ellipse 12" cx="1.479" cy="1.479" r="1.479" transform="translate(223.552 102.85)"/>
                  <path id="Path_46" data-name="Path 46" d="M251.9,101.124a1.479,1.479,0,1,0-1.48,1.48A1.48,1.48,0,0,0,251.9,101.124Z"/>
                  <circle id="Ellipse_13" data-name="Ellipse 13" cx="1.479" cy="1.479" r="1.479" transform="translate(267.928 106.176)"/>
                  <circle id="Ellipse_14" data-name="Ellipse 14" cx="1.479" cy="1.479" r="1.479" transform="translate(292.089 95.701)"/>
                  <circle id="Ellipse_15" data-name="Ellipse 15" cx="1.479" cy="1.479" r="1.479" transform="translate(317.236 102.85)"/>
                  <circle id="Ellipse_16" data-name="Ellipse 16" cx="1.479" cy="1.479" r="1.479" transform="translate(339.424 105.562)"/>
                  <circle id="Ellipse_17" data-name="Ellipse 17" cx="1.479" cy="1.479" r="1.479" transform="translate(362.844 98.659)"/>
                  <circle id="Ellipse_18" data-name="Ellipse 18" cx="1.479" cy="1.479" r="1.479" transform="translate(385.279 96.194)"/>
                  <circle id="Ellipse_19" data-name="Ellipse 19" cx="1.479" cy="1.479" r="1.479" transform="translate(403.769 90.277)"/>
                </g>
              </g>
              <g id="Group_52" data-name="Group 52">
                <path id="Path_47" data-name="Path 47" d="M401.964,85.183v2.258h-1.217V85.183h-3.618V84.047l3.475-7.814h1.36v7.814h.9v1.136Zm-3.682-1.136h2.465V78.57Z" fill="#263238"/>
                <path id="Path_48" data-name="Path 48" d="M405.07,80.8a1.8,1.8,0,0,1,1.665-.928c1.44,0,2.082,1.056,2.082,2.658v2.193c0,1.713-.818,2.834-2.53,2.834s-2.514-1.121-2.514-2.834v-.752h1.168V84.8c0,1.009.417,1.617,1.313,1.617s1.313-.608,1.313-1.617V82.621c0-1.008-.416-1.617-1.313-1.617a1.207,1.207,0,0,0-1.264,1.2v.256h-1.17l.3-6.228h4.419v1.121h-3.3Z" fill="#263238"/>
                <path id="Path_49" data-name="Path 49" d="M413.154,77.978v3.539c0,1.089-.512,1.809-1.6,1.809s-1.6-.72-1.6-1.809V77.978c0-1.073.512-1.809,1.6-1.809S413.154,76.9,413.154,77.978Zm-2.4-.048v3.651c0,.608.225,1.008.8,1.008.561,0,.8-.4.8-1.008V77.93c0-.608-.239-1.025-.8-1.025C410.977,76.9,410.752,77.322,410.752,77.93Zm6.1-1.7-4.42,11.208h-.752L416.1,76.233Zm1.809,5.924V85.68c0,1.088-.5,1.809-1.6,1.809-1.088,0-1.6-.721-1.6-1.809V82.157c0-1.073.512-1.793,1.6-1.793C418.166,80.364,418.662,81.084,418.662,82.157Zm-2.4-.048v3.635c0,.608.241,1.024.8,1.024s.8-.416.8-1.024V82.109c0-.608-.241-1.009-.8-1.009S416.26,81.5,416.26,82.109Z" fill="#263238"/>
              </g>
              <g id="Group_53" data-name="Group 53">
                <path id="Path_50" data-name="Path 50" d="M402.461,127.709c0,3.379-3.8,4.6-3.811,7.173v.176h3.682V136.2h-4.915v-.96c0-3.619,3.8-4.324,3.8-7.478,0-1.153-.384-1.761-1.314-1.761-.912,0-1.312.656-1.312,1.649v.993h-1.169v-.913c0-1.713.785-2.85,2.514-2.85C401.676,124.875,402.461,126,402.461,127.709Z" fill="#263238"/>
                <path id="Path_51" data-name="Path 51" d="M403.516,127.693c0-1.713.849-2.818,2.562-2.818,1.729,0,2.578,1.105,2.578,2.818v5.78c0,1.714-.849,2.834-2.578,2.834-1.713,0-2.562-1.12-2.562-2.834Zm1.233,5.861c0,1.008.432,1.617,1.329,1.617.913,0,1.329-.609,1.329-1.617v-5.925c0-1.025-.416-1.633-1.329-1.633-.9,0-1.329.608-1.329,1.633Z" fill="#263238"/>
                <path id="Path_52" data-name="Path 52" d="M412.978,126.732v3.539c0,1.089-.512,1.809-1.6,1.809s-1.6-.72-1.6-1.809v-3.539c0-1.073.512-1.809,1.6-1.809S412.978,125.659,412.978,126.732Zm-2.4-.048v3.651c0,.609.225,1.009.8,1.009.561,0,.8-.4.8-1.009v-3.651c0-.608-.239-1.025-.8-1.025C410.8,125.659,410.576,126.076,410.576,126.684Zm6.1-1.7-4.42,11.208h-.752l4.419-11.208Zm1.809,5.924v3.523c0,1.089-.5,1.809-1.6,1.809-1.089,0-1.6-.72-1.6-1.809v-3.523c0-1.073.512-1.793,1.6-1.793C417.99,129.118,418.486,129.838,418.486,130.911Zm-2.4-.048V134.5c0,.608.241,1.025.8,1.025s.8-.417.8-1.025v-3.635c0-.608-.241-1.008-.8-1.008S416.084,130.255,416.084,130.863Z" fill="#263238"/>
              </g>
            </g>
          </g>
          <g id="Group_57" data-name="Group 57">
            <rect id="Rectangle_26" data-name="Rectangle 26" width="7.246" height="7.246" transform="translate(215.959 173.353)" fill="#263238"/>
            <line id="Line_39" data-name="Line 39" x2="29.437" transform="translate(227.734 176.976)" fill="none" stroke="#263238" stroke-linejoin="round" stroke-width="1"/>
            <rect id="Rectangle_27" data-name="Rectangle 27" width="7.246" height="7.246" transform="translate(215.959 186.486)" fill="#92e3a9"/>
            <line id="Line_40" data-name="Line 40" x2="29.437" transform="translate(227.734 190.109)" fill="none" stroke="#263238" stroke-linejoin="round" stroke-width="1"/>
            <rect id="Rectangle_28" data-name="Rectangle 28" width="7.246" height="7.246" transform="translate(215.959 199.62)" fill="#7d7d7d"/>
            <line id="Line_41" data-name="Line 41" x2="29.437" transform="translate(227.734 203.243)" fill="none" stroke="#263238" stroke-linejoin="round" stroke-width="1"/>
            <g id="Group_56" data-name="Group 56">
              <path id="Path_53" data-name="Path 53" d="M185.56,211.641a25.823,25.823,0,0,0,10.016-40.029" fill="none" stroke="#92e3a9" stroke-linejoin="round" stroke-width="7"/>
              <path id="Path_54" data-name="Path 54" d="M153.9,201.972a25.841,25.841,0,0,0,31.664,9.669" fill="none" stroke="#7d7d7d" stroke-linejoin="round" stroke-width="7"/>
              <path id="Path_55" data-name="Path 55" d="M195.576,171.612a25.816,25.816,0,0,0-41.68,30.36" fill="none" stroke="#263238" stroke-linejoin="round" stroke-width="7"/>
              <line id="Line_42" data-name="Line 42" x2="22.596" transform="translate(164.605 185.038)" fill="none" stroke="#263238" stroke-linejoin="round" stroke-width="1"/>
              <line id="Line_43" data-name="Line 43" x2="22.596" transform="translate(164.605 191.714)" fill="none" stroke="#263238" stroke-linejoin="round" stroke-width="1"/>
            </g>
          </g>
          <g id="Group_71" data-name="Group 71">
            <g id="Group_58" data-name="Group 58">
              <line id="Line_44" data-name="Line 44" x2="29.717" transform="translate(390.627 182.808)" fill="none" stroke="#263238" stroke-linecap="round" stroke-linejoin="round" stroke-width="1"/>
              <line id="Line_45" data-name="Line 45" x2="29.717" transform="translate(390.627 186.218)" fill="none" stroke="#263238" stroke-linecap="round" stroke-linejoin="round" stroke-width="1"/>
            </g>
            <path id="Path_56" data-name="Path 56" d="M417.941,166.9a15.985,15.985,0,0,0-28.917,9.4h31.97A15.32,15.32,0,0,0,417.941,166.9Z" fill="#92e3a9"/>
            <g id="Group_69" data-name="Group 69">
              <g id="Group_60" data-name="Group 60">
                <g id="Group_59" data-name="Group 59">
                  <path id="Path_57" data-name="Path 57" d="M405.009,176.3l12.932-9.4a15.32,15.32,0,0,1,3.053,9.4Z" fill="none" stroke="#fff" stroke-linecap="round" stroke-linejoin="round" stroke-width="0.5"/>
                </g>
              </g>
              <g id="Group_62" data-name="Group 62">
                <g id="Group_61" data-name="Group 61">
                  <path id="Path_58" data-name="Path 58" d="M405.009,176.3l4.939-15.2a15.315,15.315,0,0,1,7.993,5.807Z" fill="none" stroke="#fff" stroke-linecap="round" stroke-linejoin="round" stroke-width="0.5"/>
                </g>
              </g>
              <g id="Group_64" data-name="Group 64">
                <g id="Group_63" data-name="Group 63">
                  <path id="Path_59" data-name="Path 59" d="M405.009,176.3l-4.94-15.2a15.318,15.318,0,0,1,9.879,0Z" fill="none" stroke="#fff" stroke-linecap="round" stroke-linejoin="round" stroke-width="0.5"/>
                </g>
              </g>
              <g id="Group_66" data-name="Group 66">
                <g id="Group_65" data-name="Group 65">
                  <path id="Path_60" data-name="Path 60" d="M405.009,176.3l-12.933-9.4a15.315,15.315,0,0,1,7.993-5.807Z" fill="none" stroke="#fff" stroke-linecap="round" stroke-linejoin="round" stroke-width="0.5"/>
                </g>
              </g>
              <g id="Group_68" data-name="Group 68">
                <g id="Group_67" data-name="Group 67">
                  <path id="Path_61" data-name="Path 61" d="M405.009,176.3H389.024a15.319,15.319,0,0,1,3.052-9.4Z" fill="none" stroke="#fff" stroke-linecap="round" stroke-linejoin="round" stroke-width="0.5"/>
                </g>
              </g>
            </g>
            <g id="Group_70" data-name="Group 70">
              <path id="Path_62" data-name="Path 62" d="M406.943,176.3a1.934,1.934,0,1,0-1.934,1.934A1.934,1.934,0,0,0,406.943,176.3Z" fill="#263238"/>
              <line id="Line_46" data-name="Line 46" y1="9.569" x2="6.567" transform="translate(405.009 166.732)" fill="none" stroke="#263238" stroke-linecap="round" stroke-linejoin="round" stroke-width="1"/>
            </g>
          </g>
          <g id="Group_85" data-name="Group 85">
            <g id="Group_72" data-name="Group 72">
              <line id="Line_47" data-name="Line 47" x2="29.717" transform="translate(390.627 214.81)" fill="none" stroke="#263238" stroke-linecap="round" stroke-linejoin="round" stroke-width="1"/>
              <line id="Line_48" data-name="Line 48" x2="29.717" transform="translate(390.627 218.22)" fill="none" stroke="#263238" stroke-linecap="round" stroke-linejoin="round" stroke-width="1"/>
            </g>
            <path id="Path_63" data-name="Path 63" d="M417.941,198.907a15.985,15.985,0,0,0-28.917,9.4h31.97A15.32,15.32,0,0,0,417.941,198.907Z" fill="#92e3a9"/>
            <g id="Group_83" data-name="Group 83">
              <g id="Group_74" data-name="Group 74">
                <g id="Group_73" data-name="Group 73">
                  <path id="Path_64" data-name="Path 64" d="M405.009,208.3l12.932-9.4a15.32,15.32,0,0,1,3.053,9.4Z" fill="none" stroke="#fff" stroke-linecap="round" stroke-linejoin="round" stroke-width="0.5"/>
                </g>
              </g>
              <g id="Group_76" data-name="Group 76">
                <g id="Group_75" data-name="Group 75">
                  <path id="Path_65" data-name="Path 65" d="M405.009,208.3l4.939-15.2a15.315,15.315,0,0,1,7.993,5.807Z" fill="none" stroke="#fff" stroke-linecap="round" stroke-linejoin="round" stroke-width="0.5"/>
                </g>
              </g>
              <g id="Group_78" data-name="Group 78">
                <g id="Group_77" data-name="Group 77">
                  <path id="Path_66" data-name="Path 66" d="M405.009,208.3l-4.94-15.2a15.318,15.318,0,0,1,9.879,0Z" fill="none" stroke="#fff" stroke-linecap="round" stroke-linejoin="round" stroke-width="0.5"/>
                </g>
              </g>
              <g id="Group_80" data-name="Group 80">
                <g id="Group_79" data-name="Group 79">
                  <path id="Path_67" data-name="Path 67" d="M405.009,208.3l-12.933-9.4a15.315,15.315,0,0,1,7.993-5.807Z" fill="none" stroke="#fff" stroke-linecap="round" stroke-linejoin="round" stroke-width="0.5"/>
                </g>
              </g>
              <g id="Group_82" data-name="Group 82">
                <g id="Group_81" data-name="Group 81">
                  <path id="Path_68" data-name="Path 68" d="M405.009,208.3H389.024a15.319,15.319,0,0,1,3.052-9.4Z" fill="none" stroke="#fff" stroke-linecap="round" stroke-linejoin="round" stroke-width="0.5"/>
                </g>
              </g>
            </g>
            <g id="Group_84" data-name="Group 84">
              <path id="Path_69" data-name="Path 69" d="M406.943,208.3a1.934,1.934,0,1,0-1.934,1.934A1.934,1.934,0,0,0,406.943,208.3Z" fill="#263238"/>
              <line id="Line_49" data-name="Line 49" x1="6.424" y1="9.094" transform="translate(398.584 199.209)" fill="none" stroke="#263238" stroke-linecap="round" stroke-linejoin="round" stroke-width="1"/>
            </g>
          </g>
          <g id="Group_99" data-name="Group 99">
            <g id="Group_86" data-name="Group 86">
              <line id="Line_50" data-name="Line 50" x1="29.717" transform="translate(389.673 246.812)" fill="none" stroke="#263238" stroke-linecap="round" stroke-linejoin="round" stroke-width="1"/>
              <line id="Line_51" data-name="Line 51" x1="29.717" transform="translate(389.673 250.222)" fill="none" stroke="#263238" stroke-linecap="round" stroke-linejoin="round" stroke-width="1"/>
            </g>
            <path id="Path_70" data-name="Path 70" d="M392.077,230.909a15.985,15.985,0,0,1,28.917,9.4h-31.97A15.316,15.316,0,0,1,392.077,230.909Z" fill="#92e3a9"/>
            <g id="Group_97" data-name="Group 97">
              <g id="Group_88" data-name="Group 88">
                <g id="Group_87" data-name="Group 87">
                  <path id="Path_71" data-name="Path 71" d="M405.009,240.3l-12.933-9.4a15.321,15.321,0,0,0-3.052,9.4Z" fill="none" stroke="#fff" stroke-linecap="round" stroke-linejoin="round" stroke-width="0.5"/>
                </g>
              </g>
              <g id="Group_90" data-name="Group 90">
                <g id="Group_89" data-name="Group 89">
                  <path id="Path_72" data-name="Path 72" d="M405.009,240.3l-4.94-15.2a15.324,15.324,0,0,0-7.993,5.807Z" fill="none" stroke="#fff" stroke-linecap="round" stroke-linejoin="round" stroke-width="0.5"/>
                </g>
              </g>
              <g id="Group_92" data-name="Group 92">
                <g id="Group_91" data-name="Group 91">
                  <path id="Path_73" data-name="Path 73" d="M405.009,240.3l4.939-15.2a15.318,15.318,0,0,0-9.879,0Z" fill="none" stroke="#fff" stroke-linecap="round" stroke-linejoin="round" stroke-width="0.5"/>
                </g>
              </g>
              <g id="Group_94" data-name="Group 94">
                <g id="Group_93" data-name="Group 93">
                  <path id="Path_74" data-name="Path 74" d="M405.009,240.3l12.932-9.4a15.32,15.32,0,0,0-7.993-5.807Z" fill="none" stroke="#fff" stroke-linecap="round" stroke-linejoin="round" stroke-width="0.5"/>
                </g>
              </g>
              <g id="Group_96" data-name="Group 96">
                <g id="Group_95" data-name="Group 95">
                  <path id="Path_75" data-name="Path 75" d="M405.009,240.3h15.985a15.322,15.322,0,0,0-3.053-9.4Z" fill="none" stroke="#fff" stroke-linecap="round" stroke-linejoin="round" stroke-width="0.5"/>
                </g>
              </g>
            </g>
            <g id="Group_98" data-name="Group 98">
              <path id="Path_76" data-name="Path 76" d="M403.074,240.3a1.934,1.934,0,1,1,1.935,1.934A1.934,1.934,0,0,1,403.074,240.3Z" fill="#263238"/>
              <line id="Line_52" data-name="Line 52" x1="11.763" y1="4.721" transform="translate(393.246 235.584)" fill="none" stroke="#263238" stroke-linecap="round" stroke-linejoin="round" stroke-width="1"/>
            </g>
          </g>
          <g id="Group_113" data-name="Group 113">
            <g id="Group_100" data-name="Group 100">
              <line id="Line_53" data-name="Line 53" x2="29.717" transform="translate(390.627 278.814)" fill="none" stroke="#263238" stroke-linecap="round" stroke-linejoin="round" stroke-width="1"/>
              <line id="Line_54" data-name="Line 54" x2="29.717" transform="translate(390.627 282.224)" fill="none" stroke="#263238" stroke-linecap="round" stroke-linejoin="round" stroke-width="1"/>
            </g>
            <path id="Path_77" data-name="Path 77" d="M417.941,262.911a15.985,15.985,0,0,0-28.917,9.4h31.97A15.322,15.322,0,0,0,417.941,262.911Z" fill="#92e3a9"/>
            <g id="Group_111" data-name="Group 111">
              <g id="Group_102" data-name="Group 102">
                <g id="Group_101" data-name="Group 101">
                  <path id="Path_78" data-name="Path 78" d="M405.009,272.307l12.932-9.4a15.322,15.322,0,0,1,3.053,9.4Z" fill="none" stroke="#fff" stroke-linecap="round" stroke-linejoin="round" stroke-width="0.5"/>
                </g>
              </g>
              <g id="Group_104" data-name="Group 104">
                <g id="Group_103" data-name="Group 103">
                  <path id="Path_79" data-name="Path 79" d="M405.009,272.307l4.939-15.2a15.32,15.32,0,0,1,7.993,5.807Z" fill="none" stroke="#fff" stroke-linecap="round" stroke-linejoin="round" stroke-width="0.5"/>
                </g>
              </g>
              <g id="Group_106" data-name="Group 106">
                <g id="Group_105" data-name="Group 105">
                  <path id="Path_80" data-name="Path 80" d="M405.009,272.307l-4.94-15.2a15.318,15.318,0,0,1,9.879,0Z" fill="none" stroke="#fff" stroke-linecap="round" stroke-linejoin="round" stroke-width="0.5"/>
                </g>
              </g>
              <g id="Group_108" data-name="Group 108">
                <g id="Group_107" data-name="Group 107">
                  <path id="Path_81" data-name="Path 81" d="M405.009,272.307l-12.933-9.4a15.32,15.32,0,0,1,7.993-5.807Z" fill="none" stroke="#fff" stroke-linecap="round" stroke-linejoin="round" stroke-width="0.5"/>
                </g>
              </g>
              <g id="Group_110" data-name="Group 110">
                <g id="Group_109" data-name="Group 109">
                  <path id="Path_82" data-name="Path 82" d="M405.009,272.307H389.024a15.321,15.321,0,0,1,3.052-9.4Z" fill="none" stroke="#fff" stroke-linecap="round" stroke-linejoin="round" stroke-width="0.5"/>
                </g>
              </g>
            </g>
            <g id="Group_112" data-name="Group 112">
              <path id="Path_83" data-name="Path 83" d="M406.943,272.307a1.934,1.934,0,1,0-1.934,1.934A1.934,1.934,0,0,0,406.943,272.307Z" fill="#263238"/>
              <line id="Line_55" data-name="Line 55" x1="14.544" y1="0.024" transform="translate(390.465 272.283)" fill="none" stroke="#263238" stroke-linecap="round" stroke-linejoin="round" stroke-width="1"/>
            </g>
          </g>
          <g id="Group_114" data-name="Group 114">
            <path id="Path_84" data-name="Path 84" d="M352.81,50.857c1.3.183,1.9,1.193,1.9,2.629v.29H353.59V53.41c0-.948-.382-1.529-1.238-1.529-.84,0-1.223.581-1.223,1.529,0,2.4,3.592,2.414,3.592,5.425,0,1.437-.612,2.461-1.911,2.644v.81h-.978v-.81c-1.329-.183-1.926-1.192-1.926-2.644v-.657h1.116v.734c0,.962.4,1.513,1.254,1.513s1.253-.551,1.253-1.513c0-2.385-3.577-2.415-3.577-5.426,0-1.467.6-2.43,1.88-2.629V50h.978Z" fill="#fff"/>
            <path id="Path_85" data-name="Path 85" d="M360.638,53.394v.275a2.126,2.126,0,0,1-1.3,2.2,2.127,2.127,0,0,1,1.3,2.216v.826c0,1.635-.764,2.705-2.415,2.705-1.635,0-2.4-1.07-2.4-2.705v-.734h1.116v.81c0,.963.4,1.544,1.253,1.544s1.253-.566,1.253-1.651v-.825c0-1.055-.443-1.559-1.344-1.59h-.643V55.4h.7a1.283,1.283,0,0,0,1.284-1.467V53.44c0-1.1-.383-1.666-1.253-1.666s-1.253.6-1.253,1.559v.55h-1.116v-.489c0-1.635.764-2.689,2.4-2.689C359.874,50.705,360.638,51.759,360.638,53.394Z" fill="#fff"/>
            <path id="Path_86" data-name="Path 86" d="M366.616,53.41c0,3.224-3.622,4.386-3.637,6.847v.168h3.516V61.51H361.8v-.917c0-3.454,3.622-4.127,3.622-7.138,0-1.1-.366-1.681-1.253-1.681-.871,0-1.253.627-1.253,1.574V54.3H361.8v-.871c0-1.635.75-2.72,2.4-2.72C365.868,50.705,366.616,51.774,366.616,53.41Z" fill="#fff"/>
            <path id="Path_87" data-name="Path 87" d="M368.24,61.51H367.8V60.027h1.146V61.4l-.6,1.452h-.489Z" fill="#fff"/>
            <path id="Path_88" data-name="Path 88" d="M371.358,55.167a1.721,1.721,0,0,1,1.59-.886c1.375,0,1.986,1.008,1.986,2.537v2.094c0,1.635-.779,2.705-2.415,2.705s-2.4-1.07-2.4-2.705v-.719h1.116v.795c0,.963.4,1.544,1.253,1.544s1.253-.581,1.253-1.544V56.909c0-.962-.4-1.543-1.253-1.543a1.152,1.152,0,0,0-1.207,1.146v.245h-1.117l.292-5.945h4.218v1.069h-3.149Z" fill="#fff"/>
            <path id="Path_89" data-name="Path 89" d="M380.882,53.379v.2h-1.115V53.3c0-.963-.4-1.529-1.269-1.529-.9,0-1.3.581-1.3,1.728v2.4a1.721,1.721,0,0,1,1.727-1.146c1.376,0,1.986.993,1.986,2.536v1.621c0,1.635-.809,2.705-2.445,2.705-1.651,0-2.46-1.07-2.46-2.705V53.455c0-1.7.764-2.75,2.46-2.75C380.118,50.705,380.882,51.744,380.882,53.379Zm-3.683,4v1.6c0,.963.4,1.544,1.268,1.544s1.268-.581,1.268-1.544v-1.6c0-.963-.412-1.543-1.268-1.543S377.2,56.42,377.2,57.383Z" fill="#fff"/>
            <path id="Path_90" data-name="Path 90" d="M386.83,53.394V58.85c0,1.7-.764,2.767-2.476,2.767-1.636,0-2.415-1.055-2.415-2.69v-.2h1.116V59c0,.963.412,1.529,1.269,1.529.917,0,1.314-.581,1.314-1.712v-2.4a1.71,1.71,0,0,1-1.727,1.131c-1.375,0-1.987-.978-1.987-2.521V53.394c0-1.635.794-2.689,2.445-2.689S386.83,51.759,386.83,53.394Zm-3.729-.061v1.6c0,.963.413,1.543,1.268,1.543.872,0,1.269-.58,1.269-1.543v-1.6c0-.978-.4-1.543-1.269-1.543C383.514,51.79,383.1,52.355,383.1,53.333Z" fill="#fff"/>
            <path id="Path_91" data-name="Path 91" d="M388.5,61.51h-.444V60.027H389.2V61.4l-.6,1.452h-.489Z" fill="#fff"/>
            <path id="Path_92" data-name="Path 92" d="M395.331,53.348v.337a2.108,2.108,0,0,1-1.222,2.2,2.173,2.173,0,0,1,1.222,2.263v.794a2.526,2.526,0,1,1-5.044,0v-.794a2.16,2.16,0,0,1,1.238-2.263,2.09,2.09,0,0,1-1.238-2.2v-.337a2.525,2.525,0,1,1,5.044,0Zm-3.867.031v.52c0,1.039.505,1.5,1.345,1.5s1.345-.458,1.345-1.5v-.52c0-1.1-.5-1.605-1.345-1.605S391.464,52.279,391.464,53.379Zm0,4.631v.9c0,1.1.49,1.62,1.345,1.62s1.33-.52,1.345-1.62v-.9c0-1.039-.458-1.544-1.345-1.544S391.464,56.971,391.464,58.01Z" fill="#fff"/>
            <path id="Path_93" data-name="Path 93" d="M401.217,53.394V58.85c0,1.7-.764,2.767-2.476,2.767-1.635,0-2.414-1.055-2.414-2.69v-.2h1.116V59c0,.963.412,1.529,1.268,1.529.917,0,1.314-.581,1.314-1.712v-2.4a1.71,1.71,0,0,1-1.727,1.131c-1.375,0-1.987-.978-1.987-2.521V53.394c0-1.635.795-2.689,2.446-2.689S401.217,51.759,401.217,53.394Zm-3.729-.061v1.6c0,.963.413,1.543,1.269,1.543.871,0,1.268-.58,1.268-1.543v-1.6c0-.978-.4-1.543-1.268-1.543C397.9,51.79,397.488,52.355,397.488,53.333Z" fill="#fff"/>
            <path id="Path_94" data-name="Path 94" d="M407.119,53.394v.275a2.126,2.126,0,0,1-1.3,2.2,2.126,2.126,0,0,1,1.3,2.216v.826c0,1.635-.764,2.705-2.415,2.705-1.635,0-2.4-1.07-2.4-2.705v-.734h1.116v.81c0,.963.4,1.544,1.253,1.544.872,0,1.253-.566,1.253-1.651v-.825c0-1.055-.443-1.559-1.344-1.59h-.643V55.4h.7a1.283,1.283,0,0,0,1.283-1.467V53.44c0-1.1-.381-1.666-1.253-1.666-.856,0-1.253.6-1.253,1.559v.55H402.3v-.489c0-1.635.764-2.689,2.4-2.689C406.355,50.705,407.119,51.759,407.119,53.394Z" fill="#fff"/>
            <path id="Path_95" data-name="Path 95" d="M409.43,60.027V61.51h-1.146V60.027Z" fill="#fff"/>
            <path id="Path_96" data-name="Path 96" d="M410.562,53.394c0-1.635.809-2.689,2.445-2.689,1.651,0,2.461,1.054,2.461,2.689v5.518c0,1.635-.81,2.705-2.461,2.705-1.636,0-2.445-1.07-2.445-2.705Zm1.177,5.594c0,.963.413,1.544,1.268,1.544.872,0,1.268-.581,1.268-1.544V53.333c0-.978-.4-1.559-1.268-1.559-.855,0-1.268.581-1.268,1.559Z" fill="#fff"/>
            <path id="Path_97" data-name="Path 97" d="M421.354,53.394v.275a2.126,2.126,0,0,1-1.3,2.2,2.126,2.126,0,0,1,1.3,2.216v.826c0,1.635-.764,2.705-2.414,2.705s-2.4-1.07-2.4-2.705v-.734h1.116v.81c0,.963.4,1.544,1.253,1.544.871,0,1.253-.566,1.253-1.651v-.825c0-1.055-.443-1.559-1.344-1.59h-.642V55.4h.7a1.283,1.283,0,0,0,1.283-1.467V53.44c0-1.1-.382-1.666-1.253-1.666-.856,0-1.253.6-1.253,1.559v.55H416.54v-.489c0-1.635.764-2.689,2.4-2.689S421.354,51.759,421.354,53.394Z" fill="#fff"/>
          </g>
        </g>
      </g>
    </g>
    <g id="Character_2" data-name="Character 2">
      <g id="Group_122" data-name="Group 122">
        <g id="Group_117" data-name="Group 117">
          <path id="Path_98" data-name="Path 98" d="M419.768,230.519a22.382,22.382,0,0,0-3.041,4.563c-.652,1.738-1.087,4.128-1.956,5.432s-3.911.869-3.911,2.824a9.631,9.631,0,0,0,1.3,4.128s.652,6.3,1.521,7.822,9.994,0,9.994,0,3.477-5.214,3.477-10.646S423.245,230.954,419.768,230.519Z" fill="#fff" stroke="#263238" stroke-miterlimit="10" stroke-width="1"/>
          <path id="Path_99" data-name="Path 99" d="M418.027,240.466c-.087.775-.4,1.376-.7,1.343s-.469-.69-.382-1.464.4-1.377.7-1.343S418.114,239.691,418.027,240.466Z" fill="#263238"/>
          <path id="Path_100" data-name="Path 100" d="M417.6,236.6s2.39-.652,2.39,2.39" fill="none" stroke="#263238" stroke-miterlimit="10" stroke-width="1"/>
        </g>
        <g id="Group_118" data-name="Group 118">
          <path id="Path_101" data-name="Path 101" d="M440.192,380l-.869,18.033s5.866,10.647,6.083,20.641,4.78,33.46,4.78,33.46l.869,13.47-2.172.218-1.739-3.477s-.869,3.694-1.521,3.694-5.866-.435-6.083-1.956-.652-2.39.652-2.607,5-8.908,5-8.908-9.125-21.075-10.864-25.2a99.836,99.836,0,0,1-3.476-10.864s-1.3-7.17-2.824-14.557-2.825-20.858-2.825-20.858Z" fill="#fff" stroke="#263238" stroke-miterlimit="10" stroke-width="1"/>
          <path id="Path_102" data-name="Path 102" d="M445.189,452.569c-1.086,3.259-2.825,8.256-2.825,8.256l-2.172.652c-1.3.217-.869,1.086-.652,2.607s5.432,1.956,6.083,1.956,1.521-3.694,1.521-3.694l1.739,3.477,2.172-.218-.869-13.47S446.275,449.31,445.189,452.569Z" fill="#263238" stroke="#263238" stroke-miterlimit="10" stroke-width="1"/>
        </g>
        <g id="Group_119" data-name="Group 119">
          <path id="Path_103" data-name="Path 103" d="M411.512,378.48s.217,5.866,1.738,8.691,3.042,12.6,3.042,12.6-.217,15.427,2.173,23.031,5.649,32.373,5.649,32.373-6.518,7.822-7.387,8.691-5.867,3.042-4.78,3.911,7.17,1.521,9.125,1.3,8.256-4.78,8.908-5.215.869,5.649.869,5.649h2.607l.652-9.125s.435-3.259-.217-4.78a26.893,26.893,0,0,0-2.173-3.694l1.087-27.159s1.738-9.125.434-15.208-3.042-15.861-3.042-15.861l.869-13.036.652-8.474s-2.607-1.955-9.125-1.955a81.308,81.308,0,0,0-12.6,1.086Z" fill="#fff" stroke="#263238" stroke-miterlimit="10" stroke-width="1"/>
          <path id="Path_104" data-name="Path 104" d="M434.108,460.391s.435-3.259-.217-4.78a21.942,21.942,0,0,0-1.65-2.915,18.342,18.342,0,0,0-4.216,3.567c-1.739,2.172-5.432,6.735-7.388,7.821-1.426.793-4,.776-5.3.708-1.719,1.012-4.191,2.349-3.394,2.986,1.086.869,7.17,1.521,9.125,1.3s8.256-4.78,8.908-5.215.869,5.649.869,5.649h2.607Z" fill="#263238" stroke="#263238" stroke-miterlimit="10" stroke-width="1"/>
        </g>
        <path id="Path_105" data-name="Path 105" d="M406.515,331.767s-1.086,16.947-.869,25.638,1.3,22.813,1.3,22.813,3.911,1.3,6.3,1.956a15.182,15.182,0,0,0,3.477.652l2.824-5,1.956,5.432s4.562.434,10.428.434,11.3-2.607,11.733-3.259a16.445,16.445,0,0,1,1.521-1.738l-1.955-20.64s3.91-10.212,4.128-15.426-2.39-11.516-2.39-11.516-10.212,3.259-18.468,1.738-19.772-4.128-19.772-4.128Z" fill="#92e3a9" stroke="#263238" stroke-miterlimit="10" stroke-width="1"/>
        <path id="Path_106" data-name="Path 106" d="M443.016,295.266s4.128,18.033,3.911,20.64-5,10.647-5,10.647-5.215-9.56-6.084-14.992,0-9.56,1.087-11.515,4.128-6.953,4.128-6.953Z" fill="#92e3a9" stroke="#263238" stroke-miterlimit="10" stroke-width="1"/>
        <path id="Path_107" data-name="Path 107" d="M415.64,275.929s-8.039,13.905-8.039,17.6.218,18.25-1.086,22.6-3.042,16.729-3.042,16.729,3.042,4.129,14.123,5.649,24.551-3.259,25.855-3.693a32.308,32.308,0,0,0,3.693-1.738l1.3-.435s-4.128-7.387-5.866-10.863-5.215-9.126-4.346-13.906,5.867-12.384,8.039-19.337,1.3-15.86-1.955-20.206-16.078-4.345-21.727-1.086A15.091,15.091,0,0,0,415.64,275.929Z" fill="#92e3a9" stroke="#263238" stroke-miterlimit="10" stroke-width="1"/>
        <path id="Path_108" data-name="Path 108" d="M423.076,220.349c-3.459,1.5-6.177,4.212-5.263,8,1.521,6.3,6.084,10.429,6.084,15.86s-2.608,16.078-6.3,20.207-6.736,17.381-3.477,17.816,2.173-5,6.736-9.126,10.646-.869,12.167,5.215-1.087,11.515,2.173,15.426,10.863,2.39,13.688-2.39.434-8.908,2.172-10.864,5.649-5.214,4.346-10.211-9.56-5.866-8.691-12.6,5.866-15.643,3.693-21.075-6.3-11.733-9.777-14.123a22.935,22.935,0,0,0-9.9-3.4A15.768,15.768,0,0,0,423.076,220.349Z" fill="#263238" stroke="#263238" stroke-miterlimit="10" stroke-width="1"/>
        <g id="Group_121" data-name="Group 121">
          <g id="Group_120" data-name="Group 120">
            <path id="Path_109" data-name="Path 109" d="M408.688,339.589s-4.128,8.473-4.346,9.777-.434,10.863-.434,10.863,1.086,3.259,1.738,3.694,1.521-.217,1.521-1.738v-2.173s1.3-2.824,2.39-5,.652-7.605.652-7.605l3.476-5.866Z" fill="#fff" stroke="#263238" stroke-miterlimit="10" stroke-width="1"/>
            <path id="Path_110" data-name="Path 110" d="M406.949,342.413l5.432,3.694,2.173-4.563-5.866-1.955Z" fill="#fff" stroke="#263238" stroke-miterlimit="10" stroke-width="1"/>
          </g>
          <path id="Path_111" data-name="Path 111" d="M432.37,281.143s-3.259-9.777-9.343-9.342-7.6,14.122-7.6,19.771.869,26.942.869,26.942L407.6,339.589l6.3,3.911s14.557-21.727,14.992-22.814,1.738-29.548,1.738-29.548" fill="#92e3a9" stroke="#263238" stroke-miterlimit="10" stroke-width="1"/>
        </g>
      </g>
    </g>
    <g id="Character_1" data-name="Character 1">
      <g id="Group_125" data-name="Group 125">
        <path id="Path_112" data-name="Path 112" d="M352.833,239.922s2.817-.217,1.951,2.167-2.384,3.9-3.467,4.117a9.855,9.855,0,0,1-1.734.216Z" fill="none" stroke="#263238" stroke-miterlimit="10" stroke-width="1"/>
        <path id="Path_113" data-name="Path 113" d="M329.432,238.838s-2.6.434-2.167,2.384,1.95,5.2,2.817,5.417,2.167-1.083,2.167-1.083Z" fill="#fff" stroke="#263238" stroke-miterlimit="10" stroke-width="1"/>
        <path id="Path_114" data-name="Path 114" d="M292.761,298s3.041-7.6,4.562-9.125,3.911-6.953,3.911-6.953l2.173,6.953-10,11.081S292.543,300.174,292.761,298Z" fill="#fff" stroke="#263238" stroke-miterlimit="10" stroke-width="1"/>
        <path id="Path_115" data-name="Path 115" d="M295.3,267.629l5.4,21.981a2.3,2.3,0,0,0,2.917,1.643l13.15-4.122a2.3,2.3,0,0,0,1.543-2.741l-5.279-21.437a2.3,2.3,0,0,0-2.828-1.668l-13.274,3.578A2.3,2.3,0,0,0,295.3,267.629Z" fill="#263238" stroke="#263238" stroke-miterlimit="10" stroke-width="1"/>
        <path id="Path_116" data-name="Path 116" d="M332.9,247.289l-.217,11.051,15.384,1.517-.433-10.834Z" fill="#fff" stroke="#263238" stroke-miterlimit="10" stroke-width="1"/>
        <path id="Path_117" data-name="Path 117" d="M334.632,218.471s-6.067,4.333-7.367,8.883.867,10.618,1.734,12.351,3.683,9.317,4.767,10.617,6.067,3.467,7.8,3.034,7.151-1.084,7.8-3.25,4.116-10.4,4.55-11.7,1.733-10.617.433-12.567a64.022,64.022,0,0,0-5.417-6.067,10.032,10.032,0,0,0-6.067-3.9C338.749,215,334.632,218.471,334.632,218.471Z" fill="#263238" stroke="#263238" stroke-miterlimit="10" stroke-width="1"/>
        <path id="Path_118" data-name="Path 118" d="M326.4,260.506a10.138,10.138,0,0,1,8.667-4.55c6.067,0,11.917.217,13.434.65s4.333,5.851,4.333,5.851-15.6-1.084-19.934-1.084a61.6,61.6,0,0,0-8.451.65Z" fill="#fff" stroke="#263238" stroke-miterlimit="10" stroke-width="1"/>
        <g id="Group_123" data-name="Group 123">
          <path id="Path_119" data-name="Path 119" d="M358.9,248.806a41.829,41.829,0,0,1-3.683-4.767,3.119,3.119,0,0,1,.433-3.467,5.876,5.876,0,0,1,1.734-.65s.65-6.067.433-6.934.65-1.083,1.733-.867,1.517,5.2,1.517,5.2a7.261,7.261,0,0,1,2.817,1.733c1.3,1.3,1.517,4.117,1.517,4.984v3.467l.433,3.033-6.067,1.517Z" fill="#fff" stroke="#263238" stroke-miterlimit="10" stroke-width="1"/>
          <path id="Path_120" data-name="Path 120" d="M360.634,267.223s-1.3-15.384-1.3-16.251,1.733-2.383,3.467-2.383,3.467,1.733,3.467,1.733,6.283,18.418,7.583,20.152,3.9,8.883,3.9,11.05-7.8-.216-9.967-2.167-6.5-9.967-6.5-9.967Z" fill="#fff" stroke="#263238" stroke-miterlimit="10" stroke-width="1"/>
        </g>
        <path id="Path_121" data-name="Path 121" d="M316.443,326.681l-1.955,21.509s-1.956,50.19-1.956,53.666.652,28.462,1.521,34.98.652,18.251.652,18.251-2.607,1.3-2.607,2.607v2.39a33.656,33.656,0,0,0-4.346,3.042c-1.086,1.086-2.39,3.476-.869,4.78s12.385,5.649,13.9,5.649,5.432-.652,6.3-2.173.217-8.473.217-8.473,1.956-3.042,1.956-4.128-.217-2.607-.217-4.346.869-21.944.869-21.944,3.041-42.368,3.476-43.019,2.39-30.2,2.39-30.2l3.694.435,5,36.284s6.735,33.894,6.952,34.98,3.477,19.12,3.477,19.12v5.649c0,1.738,2.172,5.214,2.172,5.214s-.434,5.432.652,7.388,5.432,2.172,8.691,1.086,2.607-5.432,2.607-7.6-.217-4.346-.217-4.346a41.3,41.3,0,0,1,0-5.432c.217-2.172-1.738-8.473-1.738-9.559s.652-27.376.217-33.026-4.128-23.465-4.128-23.465-2.173-33.459-2.173-34.328.084-23.99.084-23.99-8.774,2.263-23.549.742-21.292-2.825-21.292-2.825Z" fill="#263238" stroke="#263238" stroke-miterlimit="10" stroke-width="1"/>
        <g id="Group_124" data-name="Group 124">
          <path id="Path_122" data-name="Path 122" d="M324.448,262.023s-15.6,6.284-14.95,7.151-7.367,16.034-8.018,16.9-8.45,10.833-9.317,12.784-2.6,4.55.217,7.583,4.117,4.117,8.017,3.467,13.868-11.917,13.868-11.917.433,14.084.65,17.768.216,4.766.216,6.717-1.083,3.033,1.517,5.417,13.651,5.416,21.451,4.983,14.084-.433,17.118-1.3,5.417-1.3,5.85-3.9a115.858,115.858,0,0,0,.65-11.917c0-2.167,1.3-24.7,1.3-24.7s6.934.65,10.184,0,5.417-6.717,4.55-9.534-4.333-4.983-6.067-6.717-2.816-4.117-5.2-6.717-3.467-2.6-5.417-3.033-8.234-2.6-8.234-2.6S337.233,260.506,324.448,262.023Z" fill="#fff" stroke="#263238" stroke-miterlimit="10" stroke-width="1"/>
          <path id="Path_123" data-name="Path 123" d="M338.779,325.873a88.909,88.909,0,0,0,9.618-8.726" fill="none" stroke="#263238" stroke-miterlimit="10" stroke-width="1"/>
          <path id="Path_124" data-name="Path 124" d="M334.1,329.581s.669-.511,1.729-1.345" fill="none" stroke="#263238" stroke-miterlimit="10" stroke-width="1"/>
          <line id="Line_56" data-name="Line 56" y1="4.352" x2="4.973" transform="translate(344.667 322.121)" fill="none" stroke="#263238" stroke-miterlimit="10" stroke-width="1"/>
          <line id="Line_57" data-name="Line 57" x1="3.684" y1="21.668" transform="translate(310.581 276.324)" fill="none" stroke="#263238" stroke-miterlimit="10" stroke-width="1"/>
          <line id="Line_58" data-name="Line 58" x2="5.417" y2="7.584" transform="translate(307.114 279.574)" fill="none" stroke="#263238" stroke-miterlimit="10" stroke-width="1"/>
          <path id="Path_125" data-name="Path 125" d="M326.615,264.623a61.457,61.457,0,0,1,11.918,19.718" fill="none" stroke="#263238" stroke-miterlimit="10" stroke-width="1"/>
          <path id="Path_126" data-name="Path 126" d="M334.849,271.557s4.767,8.45,6.067,11.484" fill="none" stroke="#263238" stroke-miterlimit="10" stroke-width="1"/>
          <path id="Path_127" data-name="Path 127" d="M364.751,267.657s1.517,6.934,1.733,7.8" fill="none" stroke="#263238" stroke-miterlimit="10" stroke-width="1"/>
          <path id="Path_128" data-name="Path 128" d="M366.918,281.524c-.434,2.167-3.9,9.534-3.9,9.534s5.417-6.284,5.851-6.934" fill="none" stroke="#263238" stroke-miterlimit="10" stroke-width="1"/>
        </g>
      </g>
    </g>
  </g>
</svg>
