<svg xmlns="http://www.w3.org/2000/svg" width="717.392" height="427.13" viewBox="0 0 717.392 427.13">
  <g id="Group_28" data-name="Group 28" transform="translate(-16.369 -37.496)">
    <g id="Background_Simple" data-name="Background Simple">
      <g id="Group_1" data-name="Group 1">
        <path id="Path_1" data-name="Path 1" d="M676,431.431c36.217-29.035,57.072-73.116,57.713-119.53.405-29.257-1.7-66.012-11.524-97.457-32.417-103.735-124-160-191-172s-136,10-188,45-47,29-136,16-162,25-186,95,48.991,109.669,57,146.335-6,101.665,133,117.665,181-62,250-40C516.714,440.148,599.433,492.817,676,431.431Z" fill="#92e3a9"/>
        <path id="Path_2" data-name="Path 2" d="M676,431.431c36.217-29.035,57.072-73.116,57.713-119.53.405-29.257-1.7-66.012-11.524-97.457-32.417-103.735-124-160-191-172s-136,10-188,45-47,29-136,16-162,25-186,95,48.991,109.669,57,146.335-6,101.665,133,117.665,181-62,250-40C516.714,440.148,599.433,492.817,676,431.431Z" fill="#fff" opacity="0.7"/>
      </g>
    </g>
    <g id="Clouds">
      <g id="Group_2" data-name="Group 2">
        <path id="Path_3" data-name="Path 3" d="M120.142,78.061c-1.412-1.465-3.863-2.813-8.112-2.916-9.552-.233-6.99,6.523-9.552,8.154s-3.262-.932-5.825.7-1.4,4.893-3.5,5.359-4.893-2.1-7.456-.466-2.563,3.029-3.728,3.029-3.5-.932-4.892,0-3.029,2.1-3.029,2.1H99.069" fill="none" stroke="#263238" stroke-linecap="round" stroke-linejoin="round" stroke-width="1"/>
        <path id="Path_4" data-name="Path 4" d="M122.773,82.233c-.228-.111-.469-.221-.724-.332a6.288,6.288,0,0,0-.859-2.457" fill="none" stroke="#263238" stroke-linecap="round" stroke-linejoin="round" stroke-width="1"/>
        <path id="Path_5" data-name="Path 5" d="M102.273,94.017H133s.7-2.1-1.864-3.495-3.728-.233-4.659-1.4c-.83-1.037,1.85-3.553-2.489-6.23" fill="none" stroke="#263238" stroke-linecap="round" stroke-linejoin="round" stroke-width="1"/>
      </g>
      <g id="Group_3" data-name="Group 3">
        <path id="Path_6" data-name="Path 6" d="M408.647,153.106c-1.413-1.465-3.864-2.813-8.112-2.917-9.553-.233-6.99,6.524-9.553,8.155s-3.262-.932-5.825.7-1.4,4.892-3.5,5.358-4.892-2.1-7.455-.466-2.563,3.029-3.728,3.029-3.495-.932-4.893,0-3.029,2.1-3.029,2.1h25.017" fill="none" stroke="#263238" stroke-linecap="round" stroke-linejoin="round" stroke-width="1"/>
        <path id="Path_7" data-name="Path 7" d="M411.277,157.277c-.228-.11-.469-.221-.724-.331a6.27,6.27,0,0,0-.858-2.457" fill="none" stroke="#263238" stroke-linecap="round" stroke-linejoin="round" stroke-width="1"/>
        <path id="Path_8" data-name="Path 8" d="M390.778,169.061H421.5s.7-2.1-1.864-3.5-3.728-.233-4.66-1.4c-.83-1.037,1.851-3.553-2.488-6.23" fill="none" stroke="#263238" stroke-linecap="round" stroke-linejoin="round" stroke-width="1"/>
      </g>
      <g id="Group_4" data-name="Group 4">
        <path id="Path_9" data-name="Path 9" d="M612.26,49.451c-2.545-2.641-6.963-5.07-14.62-5.257-17.217-.42-12.6,11.758-17.217,14.7s-5.88-1.68-10.5,1.259-2.52,8.819-6.3,9.659-8.819-3.779-13.438-.84-4.619,5.459-6.719,5.459-6.3-1.68-8.818,0-5.46,3.779-5.46,3.779h45.09" fill="none" stroke="#263238" stroke-linecap="round" stroke-linejoin="round" stroke-width="1"/>
        <path id="Path_10" data-name="Path 10" d="M617,56.969q-.617-.3-1.3-.6a11.314,11.314,0,0,0-1.547-4.428" fill="none" stroke="#263238" stroke-linecap="round" stroke-linejoin="round" stroke-width="1"/>
        <path id="Path_11" data-name="Path 11" d="M580.054,78.208h55.38s1.26-3.779-3.36-6.3-6.719-.419-8.4-2.519c-1.5-1.87,3.335-6.4-4.485-11.229" fill="none" stroke="#263238" stroke-linecap="round" stroke-linejoin="round" stroke-width="1"/>
      </g>
      <g id="Group_5" data-name="Group 5">
        <path id="Path_12" data-name="Path 12" d="M278.128,94.061H339.05s2.076-6.228-5.536-10.379-11.071-.692-13.839-4.152,7.611-12.455-13.148-21.451c0,0-1.383-19.375-29.754-20.067-12.243-.3-17.785,3.269-20.741,7.811" fill="none" stroke="#263238" stroke-linecap="round" stroke-linejoin="round" stroke-width="1"/>
        <line id="Line_1" data-name="Line 1" x2="10.14" transform="translate(259.537 94.061)" fill="none" stroke="#263238" stroke-linecap="round" stroke-linejoin="round" stroke-width="1"/>
        <path id="Path_13" data-name="Path 13" d="M252.338,55.379c-.867,2.95-1.8,5.5-3.935,6.852-7.611,4.844-9.687-2.768-17.3,2.076s-4.152,14.531-10.379,15.915S206.194,74,198.582,78.838s-7.612,9-11.071,9-10.38-2.767-14.532,0-9,6.228-9,6.228h77.808" fill="none" stroke="#263238" stroke-linecap="round" stroke-linejoin="round" stroke-width="1"/>
      </g>
    </g>
    <g id="Graphics">
      <g id="Group_9" data-name="Group 9">
        <g id="Group_6" data-name="Group 6">
          <path id="Path_14" data-name="Path 14" d="M410.83,79.5a45.907,45.907,0,1,1-.85,2.09" fill="none" stroke="#263238" stroke-miterlimit="10" stroke-width="1"/>
          <path id="Path_15" data-name="Path 15" d="M410.31,79.31a46.449,46.449,0,1,1-.85,2.09" fill="none" stroke="#263238" stroke-miterlimit="10" stroke-width="0.5"/>
        </g>
        <g id="Group_7" data-name="Group 7">
          <path id="Path_16" data-name="Path 16" d="M422.45,83.89a34.173,34.173,0,1,1-.86,2.08" fill="none" stroke="#263238" stroke-miterlimit="10" stroke-width="1"/>
          <path id="Path_17" data-name="Path 17" d="M421.93,83.69a34.394,34.394,0,1,1-3.08,14.23,34.032,34.032,0,0,1,2.22-12.15" fill="none" stroke="#263238" stroke-miterlimit="10" stroke-width="0.5"/>
        </g>
        <g id="Group_8" data-name="Group 8">
          <path id="Path_18" data-name="Path 18" d="M437.27,89.53a.076.076,0,0,1,.02-.04,17.829,17.829,0,1,1-.93,2.05c.01-.03.03-.06.04-.09" fill="none" stroke="#263238" stroke-miterlimit="10" stroke-width="1"/>
          <path id="Path_19" data-name="Path 19" d="M436.55,89.71l.21-.42h.01a18.6,18.6,0,1,1-2.13,8.63,18.415,18.415,0,0,1,1.2-6.57" fill="none" stroke="#263238" stroke-miterlimit="10" stroke-width="0.5"/>
        </g>
        <path id="Path_20" data-name="Path 20" d="M437.57,89.59c-.05-.02-.1-.03-.15-.05l-.13-.05-.52-.2h-.01l-14.31-5.4-.52-.2-11.1-4.19-.52-.19-17.88-6.75.88-6.6a.564.564,0,0,0-.33-.59l-14.14-6.34a.571.571,0,0,0-.77.7l2.87,8.5-2.11-.8a1.128,1.128,0,1,0-.8,2.11l2.2.83-6.6,5.07a.559.559,0,0,0-.2.59.546.546,0,0,0,.46.41l15.85,2.44a.249.249,0,0,0,.08.01.574.574,0,0,0,.53-.36l1.49-3.78,17.62,6.65.52.19,11.09,4.18.52.2,14.25,5.38.52.19.42.16" fill="none" stroke="#263238" stroke-miterlimit="10" stroke-width="1"/>
        <path id="Path_21" data-name="Path 21" d="M437.27,89.53c.05,0,.1.01.15.01.05.02.1.03.15.05l10.19,3.85,1.12-3.36a1.117,1.117,0,0,1,1.06-.77h.02a1.125,1.125,0,0,1,1.06.8l2.04,6.62a1.136,1.136,0,0,1-.57,1.34l-5.1,2.54a1.115,1.115,0,0,1-.5.12,1.126,1.126,0,0,1-.74-.27,1.148,1.148,0,0,1-.33-1.21l1.22-3.67L436.78,91.7a1.008,1.008,0,0,1-.38-.25" fill="none" stroke="#263238" stroke-miterlimit="10" stroke-width="1"/>
      </g>
      <g id="Group_10" data-name="Group 10">
        <path id="Path_22" data-name="Path 22" d="M152.384,208.46l8.986,2.051,2.081-9.117-8.633-1.971c.01-.257.039-.51.039-.77a20.611,20.611,0,0,0-1.632-8.062l7-5.584L154.4,177.7l-6.7,5.34a20.589,20.589,0,0,0-8.126-4.316V170h-9.352v8.376a20.547,20.547,0,0,0-8.488,3.814l-6.77-5.4-5.831,7.311,6.609,5.272a20.544,20.544,0,0,0-2.2,8.926l-8.612,1.966,2.081,9.117,8.5-1.939a20.71,20.71,0,0,0,5.471,7.1l-3.952,8.206,8.426,4.058,3.891-8.079a20.179,20.179,0,0,0,8.772.213l4.03,8.369,8.426-4.058-3.918-8.136A20.732,20.732,0,0,0,152.384,208.46Zm-27.37-9.807a9.176,9.176,0,1,1,9.176,9.176A9.175,9.175,0,0,1,125.014,198.653Z" fill="none" stroke="#263238" stroke-linecap="round" stroke-linejoin="round" stroke-width="1"/>
        <path id="Path_23" data-name="Path 23" d="M698.125,301.6l6.091,1.39,1.411-6.18-5.852-1.336c.007-.174.027-.345.027-.522a13.965,13.965,0,0,0-1.107-5.464l4.746-3.785-3.952-4.956-4.539,3.619a13.955,13.955,0,0,0-5.508-2.925v-5.91H683.1V281.2a13.92,13.92,0,0,0-5.753,2.585l-4.589-3.66-3.952,4.956,4.48,3.573a13.912,13.912,0,0,0-1.493,6.05l-5.837,1.332,1.41,6.18,5.759-1.314a14.05,14.05,0,0,0,3.709,4.811l-2.679,5.562,5.711,2.751,2.637-5.476a13.683,13.683,0,0,0,5.946.144l2.732,5.672,5.712-2.75-2.656-5.515A14.05,14.05,0,0,0,698.125,301.6Zm-18.551-6.648a6.219,6.219,0,1,1,6.219,6.22A6.219,6.219,0,0,1,679.574,294.948Z" fill="none" stroke="#263238" stroke-linecap="round" stroke-linejoin="round" stroke-width="1"/>
        <path id="Path_24" data-name="Path 24" d="M169.615,163.641l7.372,1.683,1.708-7.48-7.083-1.617c.007-.211.032-.418.032-.632a16.9,16.9,0,0,0-1.34-6.614l5.745-4.581-4.784-6-5.494,4.381a16.872,16.872,0,0,0-6.667-3.541v-7.154h-7.673v6.872a16.835,16.835,0,0,0-6.963,3.129l-5.555-4.43-4.784,6,5.423,4.324a16.846,16.846,0,0,0-1.806,7.324l-7.066,1.612,1.707,7.481,6.971-1.591a17.016,17.016,0,0,0,4.488,5.823l-3.242,6.733,6.913,3.329,3.192-6.629a16.528,16.528,0,0,0,7.2.175l3.307,6.866,6.913-3.329-3.215-6.675A17.021,17.021,0,0,0,169.615,163.641ZM147.159,155.6a7.528,7.528,0,1,1,7.528,7.529A7.527,7.527,0,0,1,147.159,155.6Z" fill="none" stroke="#263238" stroke-linecap="round" stroke-linejoin="round" stroke-width="1"/>
      </g>
      <path id="Path_25" data-name="Path 25" d="M658.359,266.994l35.674-72.048,10.705,5.3-2.547-39.8-33.2,22.1,10.7,5.3-35.674,72.047" fill="none" stroke="#263238" stroke-linecap="round" stroke-linejoin="round" stroke-width="1"/>
      <path id="Path_26" data-name="Path 26" d="M640.962,157.592l22.482-45.4,6.746,3.34-1.6-25.083-20.923,13.929,6.745,3.34-22.482,45.4" fill="none" stroke="#263238" stroke-linecap="round" stroke-linejoin="round" stroke-width="1"/>
    </g>
    <g id="Character_3" data-name="Character 3">
      <g id="Group_14" data-name="Group 14">
        <path id="Path_27" data-name="Path 27" d="M569.748,419.551s-6.2,3.97-7.445,4.963-6.949,2.233-6.2,3.97,7.941,2.73,9.926,2.73,9.679-3.97,11.664-4.467,1.985-2.73,1.241-4.467a21.055,21.055,0,0,0-2.978-4.218l-5.212,1.489Z" fill="#fff" stroke="#263238" stroke-linecap="round" stroke-linejoin="round" stroke-width="1"/>
        <path id="Path_28" data-name="Path 28" d="M640.225,418.868s-4.715,5.707-5.459,6.948-4.964,3.226-4.964,5.211,7.2.993,9.43.745a8.984,8.984,0,0,0,6.453-4.467c1.24-2.482,2.233-7.693.744-9.678S640.225,418.868,640.225,418.868Z" fill="#fff" stroke="#263238" stroke-linecap="round" stroke-linejoin="round" stroke-width="1"/>
        <path id="Path_29" data-name="Path 29" d="M580.667,308.933l-.194,1.5-1.543,11.905s-13.8,19.481-18.852,29.633c-2.581,5.184-6.177,11.329-5.681,13.066s15.351,54.518,15.351,54.518a9.979,9.979,0,0,0,3.722.992,10.168,10.168,0,0,0,3.474-.744l-.708-50.461,21.306-23.429,2.729,3.474s7.073,25.074,10.051,29.045,28.662,41.184,28.662,41.184a10.63,10.63,0,0,0,4.219.993c2.233,0,3.226-2.978,3.226-2.978s-18.487-45.651-18.984-47.14-.124-37.979-.124-37.979l-2.978-17.619-3.474-11.168s-6.453,1.738-17.372,1.241-21.341-1.241-21.341-1.241Z" fill="#263238" stroke="#263238" stroke-linecap="round" stroke-linejoin="round" stroke-width="1"/>
        <path id="Path_30" data-name="Path 30" d="M551.384,189.32s-3.474,5.211-3.971,8.437a8.444,8.444,0,0,0,1.737,5.956l-1.985,4.219s6.7,13.649,10.671,19.853,10.423,16.626,14.393,18.612,11.664,10.174,11.664,10.174l4.467-9.678s-13.153-16.379-21.342-27.794a219.9,219.9,0,0,1-13.649-21.59,40.268,40.268,0,0,1,.5-6.452,33.171,33.171,0,0,0,.5-5.708Z" fill="#263238" stroke="#263238" stroke-linecap="round" stroke-linejoin="round" stroke-width="1"/>
        <path id="Path_31" data-name="Path 31" d="M591.586,243.171s-10.175,12.159-12.16,20.1.5,32.508.5,35.983-1.985,7.2.745,9.678,10.919,1.241,13.9.992,17.123,0,21.341-1.24,6.2-2.978,6.2-5.956-5.211-26.553-5.955-30.524,1.985-17.619-1.738-24.071S598.782,240.689,591.586,243.171Z" fill="#fff" stroke="#263238" stroke-linecap="round" stroke-linejoin="round" stroke-width="1"/>
        <path id="Path_32" data-name="Path 32" d="M589.849,244.908s-12.408,12.656-14.145,19.356-7.942,19.6-9.927,25.312a114.89,114.89,0,0,1-5.956,13.153l2.234,8.934,5.707-6.2s5.708-19.605,8.686-27.794,3.474-15.883,3.971-18.116S589.849,244.908,589.849,244.908Z" fill="#263238" stroke="#263238" stroke-linecap="round" stroke-linejoin="round" stroke-width="1"/>
        <g id="Group_11" data-name="Group 11">
          <path id="Path_33" data-name="Path 33" d="M591.586,244.163s-7.445,20.349-7.2,21.838,3.722,56.581,3.722,56.581,3.475,8.437,19.109,7.2,27.794-3.474,27.794-3.474-4.715-18.612-8.934-27.049-6.452-13.4-6.452-17.372-1.737-30.523-2.73-34.742a22.426,22.426,0,0,0-2.233-6.2l-1.489-1.241Z" fill="#92e3a9" stroke="#263238" stroke-linecap="round" stroke-linejoin="round" stroke-width="1"/>
          <path id="Path_34" data-name="Path 34" d="M585.63,286.35l12.16,29.779s-4.963,1.986-6.7,3.723-2.978,2.73-2.978,2.73Z" fill="#92e3a9" stroke="#263238" stroke-linecap="round" stroke-linejoin="round" stroke-width="1"/>
        </g>
        <g id="Group_13" data-name="Group 13">
          <g id="Group_12" data-name="Group 12">
            <path id="Path_35" data-name="Path 35" d="M601.76,204.209s-7.693,6.2-7.693,7.942-1.985,4.218-1.985,4.218-3.971.5-4.219,1.986,1.241,4.467,1.241,4.467-2.481,8.437-1.489,10.422,8.189,2.234,8.189,2.234l.249,5.459,17.123-2.73-.249-4.218s9.182-9.927,13.649-14.145-1.241-11.664-6.7-17.372-18.364-5.707-19.357-2.729A3.816,3.816,0,0,0,601.76,204.209Z" fill="#fff" stroke="#263238" stroke-linecap="round" stroke-linejoin="round" stroke-width="1"/>
            <path id="Path_36" data-name="Path 36" d="M595.308,213.143a3.428,3.428,0,0,1,3.474.248" fill="none" stroke="#263238" stroke-linecap="round" stroke-linejoin="round" stroke-width="1"/>
            <path id="Path_37" data-name="Path 37" d="M595.573,216.723c-.189.8-.072,1.513.261,1.592s.757-.506.946-1.307.073-1.513-.261-1.591S595.762,215.923,595.573,216.723Z" fill="#263238"/>
          </g>
          <path id="Path_38" data-name="Path 38" d="M619.876,202.472c-5.46-5.707-18.364-5.707-19.357-2.729a3.816,3.816,0,0,0,1.241,4.466s8.438.993,7.2,3.227-5.46,2.233-4.467,3.722,4.467,4.715,3.226,5.46-1.985,2.233-1.241,2.729,1.986-.744,4.964-.248,2.233,7.445-.5,8.438-3.97-.249.993,4.218a6.073,6.073,0,0,0,1.971,1.18c2.482-2.663,9.089-9.709,12.67-13.091C631.043,215.625,625.335,208.18,619.876,202.472Z" fill="#263238" stroke="#263238" stroke-linecap="round" stroke-linejoin="round" stroke-width="1"/>
          <path id="Path_39" data-name="Path 39" d="M608.957,228.281l-4.467-.993-2.978,2.233" fill="none" stroke="#263238" stroke-linecap="round" stroke-linejoin="round" stroke-width="1"/>
        </g>
        <path id="Path_40" data-name="Path 40" d="M614.168,235.23l-22.831,6.2-1.489,4.715,27.049-4.963Z" fill="#92e3a9" stroke="#263238" stroke-linecap="round" stroke-linejoin="round" stroke-width="1"/>
        <path id="Path_41" data-name="Path 41" d="M556.595,196.765l-.744-5.212s2.233-7.2,2.233-8.933-1.737-5.708-1.737-6.7-1.489-2.481-1.985-.5-1.489,9.43-1.489,9.43-3.226,5.46-2.978,8.189,2.73,8.438,2.73,8.438l4.467-2.73Z" fill="#fff" stroke="#263238" stroke-linecap="round" stroke-linejoin="round" stroke-width="1"/>
        <path id="Path_42" data-name="Path 42" d="M559.821,200.735l-3.226-3.971-5.956,4.715,3.474,5.956Z" fill="#fff" stroke="#263238" stroke-linecap="round" stroke-linejoin="round" stroke-width="1"/>
        <path id="Path_43" data-name="Path 43" d="M613.92,251.856a18.768,18.768,0,0,0-8.685-9.678,76.144,76.144,0,0,0-13.153-4.963l-33.75-38.465-6.7,6.7s14.145,29.531,16.875,34.494,34.246,38.962,34.246,38.962" fill="#92e3a9" stroke="#263238" stroke-linecap="round" stroke-linejoin="round" stroke-width="1"/>
      </g>
    </g>
    <g id="Character_2" data-name="Character 2">
      <g id="Group_18" data-name="Group 18">
        <path id="Path_44" data-name="Path 44" d="M319.69,414.444s-4.75,6.75-5.75,10.5-.75,8.75,1.75,8.25,8.25-6.75,8.75-8.5,2.25-9.75,2.25-9.75l-6-.5Z" fill="#fff" stroke="#263238" stroke-linecap="round" stroke-linejoin="round" stroke-width="1"/>
        <path id="Path_45" data-name="Path 45" d="M405.44,418.694s0,7,1.5,8,11.75,5.25,14.75,5.5,4-.25,2.25-3.75-11.75-10.25-11.75-10.25Z" fill="#fff" stroke="#263238" stroke-linecap="round" stroke-linejoin="round" stroke-width="1"/>
        <path id="Path_46" data-name="Path 46" d="M343.94,300.444l-5.75,24.25-3,45.5s-11,19-12,26-4.25,21.25-4.25,21.25,4.5,2,5.25,2,9.75-13,14.75-18,16.25-26.5,16.75-27.5,8.5-32.75,9-33.75,3.5-2.25,3.5-2.25,15.064,21.646,16.884,23.466c2.907,2.907,7.616,10.284,7.616,10.284s10.25,40.75,11,42.75a26.657,26.657,0,0,1,1,5.75l9.25,2s.75-27.25.25-33.75-2.5-20.5-2.5-20.5-15.25-41.75-16-42.75-5.25-11-5.25-11l-1.5-9.5a57.739,57.739,0,0,1-27,1C346.94,302.694,343.94,300.444,343.94,300.444Z" fill="#263238" stroke="#263238" stroke-linecap="round" stroke-linejoin="round" stroke-width="1"/>
        <path id="Path_47" data-name="Path 47" d="M358.068,232.654a168.041,168.041,0,0,1-16.878,9.79c-7.666,3.667-9.5,7.334-9.5,9.167s-6.666,32.167-6.166,33.833,5,4.167,7.833,4.834,6.833-.167,7.667-.834,3.5-12,3.5-12-1.5,20.5-2.167,23.167,5.5,9.5,11.5,10.667,22.167,1.166,26.333-.167,7-1.667,8.334-4.167,2.166-20.333,2.333-21.5,1.5-11.833,1.5-11.833l4.333,14.667,1.667,3s.833-1.834,6-4.834,6.833-3.333,6.833-3.333-3-9.833-4.833-15.5-3.667-16-6-20.167-6.5-6-12.167-9.5-14-5.5-15-6S363.28,230.7,358.068,232.654Z" fill="#fff" stroke="#263238" stroke-linecap="round" stroke-linejoin="round" stroke-width="1"/>
        <line id="Line_2" data-name="Line 2" y1="12.193" x2="3.52" transform="translate(344.524 265.252)" fill="none" stroke="#263238" stroke-linecap="round" stroke-linejoin="round" stroke-width="1"/>
        <line id="Line_3" data-name="Line 3" y1="2.764" x2="0.594" transform="translate(394.802 259.468)" fill="none" stroke="#263238" stroke-linecap="round" stroke-linejoin="round" stroke-width="1"/>
        <line id="Line_4" data-name="Line 4" y1="8.886" x2="1.909" transform="translate(392.357 264.725)" fill="none" stroke="#263238" stroke-linecap="round" stroke-linejoin="round" stroke-width="1"/>
        <g id="Group_17" data-name="Group 17">
          <path id="Path_48" data-name="Path 48" d="M362.44,251.944l3.5,5,2,4.5-5,41.5,7,6.5,5.5-7.25-5-40.25,3-5.75,3.993-6.536-7.243-4.214Z" fill="#92e3a9" stroke="#263238" stroke-linecap="round" stroke-linejoin="round" stroke-width="1"/>
          <path id="Path_49" data-name="Path 49" d="M359.983,230.864s-3.478.907-4.233,3.023.3,14.815,1.36,17.537a48.188,48.188,0,0,0,2.967,5.929s9.278-5.929,10.941-6.232,11.187,4.687,11.187,4.687.3-5.9-3.023-14.211-11.036-13-14.362-13.3A5.12,5.12,0,0,0,359.983,230.864Z" fill="#fff" stroke="#263238" stroke-linecap="round" stroke-linejoin="round" stroke-width="1"/>
          <g id="Group_15" data-name="Group 15">
            <path id="Path_50" data-name="Path 50" d="M358.622,229.8s.453,5.291.907,8.92,6.047,15.571,8.012,17.234,6.047-3.779,7.408-6.2a27.734,27.734,0,0,1,1.965-3.175s-9.675-4.686-12.7-10.129-2.721-8.012-4.081-8.163S358.622,229.8,358.622,229.8Z" fill="#fff" stroke="#263238" stroke-linecap="round" stroke-linejoin="round" stroke-width="1"/>
            <path id="Path_51" data-name="Path 51" d="M363.5,242.809l7.433,11.99s3.42-3.159,4.016-5.038S363.5,242.809,363.5,242.809Z" fill="#263238" stroke="#263238" stroke-linecap="round" stroke-linejoin="round" stroke-width="1"/>
          </g>
          <g id="Group_16" data-name="Group 16">
            <path id="Path_52" data-name="Path 52" d="M355.707,221.319a12.305,12.305,0,0,0-.709,5.432c.236,3.306,2.126,5.667,3.07,5.9a13.983,13.983,0,0,0,2.6.237s.236,5.9,2.834,9.918,11.336,9.683,13.934,6.849,5.9-14.169,7.084-19.6a98.956,98.956,0,0,0,1.654-10.627s-14.406-3.307-17.476-4.015-8.266-1.89-8.266-1.89Z" fill="#fff" stroke="#263238" stroke-linecap="round" stroke-linejoin="round" stroke-width="1"/>
            <path id="Path_53" data-name="Path 53" d="M365.862,218.957s.944,3.07-.945,4.96-2.6,1.889-2.6,1.889.473,3.07-.236,3.07a2.319,2.319,0,0,1-2.362-2.362,6.918,6.918,0,0,0-1.18-3.542l-2.834-1.653a23.849,23.849,0,0,1,.236-10.391c1.417-5.432,11.572-7.557,20.074-7.321s10.627,11.1,10.627,11.1a40.767,40.767,0,0,1,5.195,2.834c.709.709,1.417,2.362-2.6,4.487s-11.1,2.834-15.351,1.181A44.929,44.929,0,0,1,365.862,218.957Z" fill="#263238" stroke="#263238" stroke-linecap="round" stroke-linejoin="round" stroke-width="1"/>
            <path id="Path_54" data-name="Path 54" d="M371.586,231.564c-.273.877-.849,1.478-1.287,1.341s-.574-.957-.3-1.834.848-1.478,1.287-1.342S371.858,230.686,371.586,231.564Z" fill="#263238"/>
            <path id="Path_55" data-name="Path 55" d="M381.412,232.319c-.272.878-.848,1.478-1.287,1.342s-.573-.957-.3-1.834.848-1.478,1.287-1.342S381.684,231.442,381.412,232.319Z" fill="#263238"/>
            <path id="Path_56" data-name="Path 56" d="M367.995,228.6s1.512-2.268,4.989-1.361" fill="none" stroke="#263238" stroke-linecap="round" stroke-linejoin="round" stroke-width="1"/>
            <path id="Path_57" data-name="Path 57" d="M378.728,228.294a3.084,3.084,0,0,1,4.536.3" fill="none" stroke="#263238" stroke-linecap="round" stroke-linejoin="round" stroke-width="1"/>
            <path id="Path_58" data-name="Path 58" d="M374.042,239.178a14.894,14.894,0,0,0-4.233.756c-2.268.756-5.594-.151-4.082,1.814s4.384,2.57,7.408,2.57,5.745-.151,6.652-1.512,2.267-2.721,1.209-2.872-5.14-.453-5.594-.453A6.218,6.218,0,0,1,374.042,239.178Z" fill="#263238" stroke="#263238" stroke-linecap="round" stroke-linejoin="round" stroke-width="1"/>
            <path id="Path_59" data-name="Path 59" d="M377.972,230.41s-.3,8.315-.6,9.826a2.022,2.022,0,0,1-3.628.908,20.687,20.687,0,0,1-2.419-4.082" fill="#fff" stroke="#263238" stroke-linecap="round" stroke-linejoin="round" stroke-width="1"/>
          </g>
        </g>
        <path id="Path_60" data-name="Path 60" d="M410.19,279.444s-7.2,1.175-10.2,3.175-4.052,3.742-3.3,5.659a28.366,28.366,0,0,0,2.5,5.416c1.25,2,3.5.5,3.5.5a2.205,2.205,0,0,1,.25-3.25c1.75-1.75,8.25-4.25,8.25-4.25h2.25c1,0,0-2.75-.75-4S411.94,278.944,410.19,279.444Z" fill="#fff" stroke="#263238" stroke-linecap="round" stroke-linejoin="round" stroke-width="1"/>
        <path id="Path_61" data-name="Path 61" d="M325.44,291.444s0,7.25.5,14.5,6.5,27.5,6.5,27.5l6-1.5s-.25-19-.25-25-.25-13.25-.25-13.25Z" fill="#fff" stroke="#263238" stroke-linecap="round" stroke-linejoin="round" stroke-width="1"/>
        <path id="Path_62" data-name="Path 62" d="M324.349,286.394a1.811,1.811,0,0,1,2.86-1.253,13.037,13.037,0,0,0,5.481,2.053,25.693,25.693,0,0,0,7.253.231,1.456,1.456,0,0,1,1.586,1.861c-.624,2.077-1.575,4.895-2.339,5.658-1.25,1.25-7.25,1.25-10.25.25s-3.75-1.75-4.5-4.25A13.121,13.121,0,0,1,324.349,286.394Z" fill="#fff" stroke="#263238" stroke-linecap="round" stroke-linejoin="round" stroke-width="1"/>
        <path id="Path_63" data-name="Path 63" d="M440.94,310.944a10.94,10.94,0,0,1,3-4.75c2.25-2,3.25-2.5,1-2.75s-5,3.25-5,3.25Z" fill="#fff" stroke="#263238" stroke-linecap="round" stroke-linejoin="round" stroke-width="1"/>
        <path id="Path_64" data-name="Path 64" d="M402.69,294.194a19.266,19.266,0,0,0,5.25,3.75c3.75,2,22.5,12.25,22.5,12.25l6.75-4s-10.5-4.75-15.25-9.75-8.5-9.75-8.5-9.75S400.94,287.444,402.69,294.194Z" fill="#fff" stroke="#263238" stroke-linecap="round" stroke-linejoin="round" stroke-width="1"/>
        <path id="Path_65" data-name="Path 65" d="M427.19,307.444s1,5.25,2.75,5.5,10.25-.5,11-2,1.25-6.75,0-7S427.19,307.444,427.19,307.444Z" fill="#fff" stroke="#263238" stroke-linecap="round" stroke-linejoin="round" stroke-width="1"/>
        <path id="Path_66" data-name="Path 66" d="M333.2,339.516a10.938,10.938,0,0,0-4.484-3.384c-2.811-1.077-3.924-1.191-1.907-2.22s5.826,1.275,5.826,1.275Z" fill="#fff" stroke="#263238" stroke-linecap="round" stroke-linejoin="round" stroke-width="1"/>
        <path id="Path_67" data-name="Path 67" d="M344.825,331.386s.919,5.264-.63,6.116-9.766,3.153-11,2.014-3.553-5.874-2.472-6.549S344.825,331.386,344.825,331.386Z" fill="#fff" stroke="#263238" stroke-linecap="round" stroke-linejoin="round" stroke-width="1"/>
      </g>
    </g>
    <g id="Plants">
      <g id="Group_19" data-name="Group 19">
        <path id="Path_68" data-name="Path 68" d="M92.044,370.9c.042.026.861-3.148.89-3.354.332-2.386-.428-7.192-2.858-8.366a3.193,3.193,0,0,0-4.345,1.924c-.651,1.79.175,3.986,1.153,5.5C88.032,368.376,92.041,370.9,92.044,370.9Z" fill="#263238"/>
        <path id="Path_69" data-name="Path 69" d="M44.141,369.86c1.936.846,6.672.739,6.675.739.05,0-1.017-3.1-1.107-3.288-1.04-2.174-4.325-5.763-7-5.4a3.194,3.194,0,0,0-2.563,4C40.591,367.764,42.492,369.139,44.141,369.86Z" fill="#263238"/>
        <path id="Path_70" data-name="Path 70" d="M45.776,383.578c2.008.293,6.235-.933,6.571-1.031a56.4,56.4,0,0,0,2.563,7.092c.581,1.347,1.209,2.685,1.855,4.018-.386-.565-.735-1.067-.791-1.132-1.576-1.823-5.694-4.416-8.177-3.362a3.194,3.194,0,0,0-1.415,4.537c.917,1.669,3.114,2.494,4.9,2.754,1.807.263,5.431-.709,6.387-.98.253.509.5,1.02.755,1.528,1.224,2.437,2.456,4.864,3.591,7.281.4.851.764,1.705,1.131,2.557-.344-.5-.636-.92-.688-.98-1.576-1.822-5.693-4.416-8.177-3.361a3.193,3.193,0,0,0-1.415,4.536c.918,1.669,3.114,2.495,4.9,2.754,1.724.252,5.078-.616,6.215-.932.349.885.7,1.77,1,2.642.19.6.415,1.166.573,1.78s.335,1.2.5,1.8c.276,1.153.569,2.341.81,3.472.174.786.325,1.538.48,2.3-.389-.853-1.185-2.505-1.267-2.636-1.282-2.04-4.959-5.228-7.574-4.561a3.192,3.192,0,0,0-2.085,4.269c.654,1.789,2.7,2.938,4.421,3.464,1.894.579,6.089.05,6.613-.02.251,1.254.484,2.475.685,3.632.425,2.414.751,4.588,1,6.455h1.763c-.3-1.934-.692-4.214-1.2-6.749-.25-1.274-.543-2.63-.856-4.02a34.684,34.684,0,0,0,3.689-1.735c1.382,1.5,4.92,3.246,5.378,3.469-.481,1.184-.961,2.331-1.431,3.406-.919,2.115-1.793,4-2.576,5.629h1.9c.667-1.488,1.392-3.164,2.145-5.007.494-1.2,1-2.493,1.5-3.825.507.106,4.66.95,6.595.513,1.755-.4,3.882-1.39,4.667-3.125a3.192,3.192,0,0,0-1.762-4.413c-2.557-.859-6.461,2.045-7.892,3.984-.084.114-.861,1.458-1.338,2.313.2-.546.408-1.073.61-1.637.408-1.112.783-2.235,1.19-3.441q.265-.883.534-1.786c.191-.592.318-1.242.481-1.869.348-1.46.629-2.957.879-4.471.975.355,4.456,1.566,6.26,1.439s4.047-.786,5.086-2.382a3.192,3.192,0,0,0-1.073-4.629c-2.4-1.237-6.7,1.043-8.4,2.743-.107.106-1.2,1.463-1.778,2.22.143-.911.291-1.82.4-2.747.333-2.675.585-5.394.85-8.1.08-.831.17-1.657.258-2.485.345.131,4.452,1.659,6.472,1.518,1.8-.126,4.046-.786,5.086-2.382a3.193,3.193,0,0,0-1.073-4.629c-2.4-1.237-6.7,1.043-8.4,2.742-.129.128-1.692,2.084-2.065,2.6.193-1.822.4-3.637.68-5.417a56.274,56.274,0,0,1,1.555-7.126c.161.061,4.44,1.676,6.509,1.531,1.795-.126,4.046-.785,5.086-2.382a3.192,3.192,0,0,0-1.073-4.629c-2.4-1.237-6.7,1.043-8.4,2.743-.112.111-1.3,1.6-1.854,2.321l-.138-.071a41.166,41.166,0,0,1,2.83-6.766c.614-1.2,1.268-2.314,1.928-3.383.766.382,4.287,2.092,6.163,2.167,1.8.071,4.109-.337,5.317-1.809a3.193,3.193,0,0,0-.558-4.719c-2.248-1.493-6.771.3-8.655,1.8-.1.082-1.052,1.027-1.734,1.726.305-.478.612-.977.913-1.429,1.129-1.7,2.267-3.187,3.286-4.5.586-.739,1.129-1.4,1.645-2.006.947-.016,4.765-.133,6.434-.916,1.629-.765,3.492-2.192,3.886-4.055a3.194,3.194,0,0,0-2.67-3.931c-2.683-.289-5.871,3.387-6.851,5.588-.084.191-1.068,3.318-1.018,3.317h.057c-.507.577-1.045,1.2-1.619,1.894-1.049,1.29-2.223,2.756-3.393,4.438a56.319,56.319,0,0,0-3.518,5.6,41.7,41.7,0,0,0-3.006,6.765c-.009.028-.015.058-.024.086.014-.79-.021-3-.043-3.171-.31-2.389-2.313-6.824-4.966-7.315a3.194,3.194,0,0,0-3.683,3c-.155,1.9,1.221,3.8,2.563,5,1.514,1.352,5.715,2.661,6.05,2.764a56.511,56.511,0,0,0-1.775,7.33c-.257,1.443-.472,2.905-.669,4.374-.01-.684-.024-1.3-.035-1.381-.31-2.389-2.312-6.824-4.966-7.314a3.192,3.192,0,0,0-3.682,3c-.156,1.9,1.221,3.8,2.563,5,1.362,1.216,4.921,2.4,5.867,2.707-.069.564-.145,1.126-.212,1.691-.324,2.707-.635,5.411-1.021,8.053-.136.932-.3,1.844-.469,2.757-.009-.607-.022-1.119-.032-1.2-.31-2.39-2.313-6.825-4.966-7.315a3.193,3.193,0,0,0-3.683,3c-.155,1.9,1.221,3.8,2.563,5,1.3,1.161,4.576,2.288,5.7,2.652-.2.93-.392,1.862-.625,2.754-.173.606-.3,1.2-.5,1.8s-.383,1.188-.572,1.774c-.406,1.114-.817,2.266-1.24,3.343-.288.751-.577,1.461-.865,2.178.146-.925.393-2.743.4-2.9a12.4,12.4,0,0,0-1.663-6.032,3.8,3.8,0,0,0-.044-.706,3.194,3.194,0,0,0-3.9-2.709c-2.608.7-4.262,5.271-4.385,7.677-.008.142.086,1.691.16,2.668-.131-.568-.252-1.12-.394-1.7-.273-1.153-.58-2.3-.906-3.527l-.54-1.784c-.167-.6-.42-1.211-.629-1.824-.516-1.409-1.107-2.813-1.734-4.214,1.009-.242,4.58-1.153,6.015-2.253s2.942-2.888,2.928-4.792a3.2,3.2,0,0,0-3.449-3.27c-2.682.292-5.01,4.565-5.5,6.925-.03.147-.189,1.879-.258,2.833-.384-.84-.762-1.679-1.177-2.516-1.2-2.414-2.488-4.821-3.763-7.227-.391-.737-.771-1.476-1.156-2.215.361-.082,4.629-1.072,6.236-2.3,1.427-1.1,2.942-2.888,2.928-4.792a3.193,3.193,0,0,0-3.449-3.269c-2.682.291-5.01,4.564-5.5,6.924-.036.178-.262,2.671-.288,3.308-.845-1.627-1.671-3.255-2.421-4.894a56.189,56.189,0,0,1-2.634-6.8c.168-.038,4.628-1.052,6.273-2.314,1.428-1.1,2.942-2.888,2.928-4.793a3.194,3.194,0,0,0-3.448-3.269c-2.683.292-5.011,4.565-5.5,6.925-.033.155-.206,2.055-.267,2.96l-.153.016a41.144,41.144,0,0,1-1.373-7.205c-.15-1.34-.219-2.63-.258-3.886.85-.1,4.729-.62,6.336-1.592,1.539-.932,3.241-2.547,3.437-4.442a3.193,3.193,0,0,0-3.069-3.628c-2.7-.005-5.481,3.987-6.224,6.279-.041.124-.311,1.437-.5,2.395-.009-.566-.028-1.152-.026-1.7,0-2.04.133-3.909.26-5.562.081-.94.172-1.788.265-2.581.781-.537,3.9-2.74,4.862-4.314.936-1.536,1.7-3.754,1-5.526a3.193,3.193,0,0,0-4.4-1.8c-2.4,1.239-3.028,6.063-2.631,8.44.034.206.94,3.356.981,3.328l.047-.032c-.1.761-.21,1.578-.306,2.473-.164,1.654-.334,3.525-.382,5.573a56.6,56.6,0,0,0,.158,6.616,41.672,41.672,0,0,0,1.225,7.3c.008.028.02.056.027.084-.424-.666-1.673-2.491-1.785-2.621-1.577-1.822-5.694-4.416-8.177-3.361a3.193,3.193,0,0,0-1.415,4.536C41.8,382.493,43.995,383.319,45.776,383.578Z" fill="#263238"/>
        <path id="Path_71" data-name="Path 71" d="M44.141,369.86c1.936.846,6.672.739,6.675.739.05,0-1.017-3.1-1.107-3.288-1.04-2.174-4.325-5.763-7-5.4a3.194,3.194,0,0,0-2.563,4C40.591,367.764,42.492,369.139,44.141,369.86Z" fill="#263238" opacity="0.3"/>
        <path id="Path_72" data-name="Path 72" d="M92.044,370.9c.042.026.861-3.148.89-3.354.332-2.386-.428-7.192-2.858-8.366a3.193,3.193,0,0,0-4.345,1.924c-.651,1.79.175,3.986,1.153,5.5C88.032,368.376,92.041,370.9,92.044,370.9Z" fill="#263238" opacity="0.3"/>
        <path id="Path_73" data-name="Path 73" d="M45.776,383.578c2.008.293,6.235-.933,6.571-1.031a56.4,56.4,0,0,0,2.563,7.092c.581,1.347,1.209,2.685,1.855,4.018-.386-.565-.735-1.067-.791-1.132-1.576-1.823-5.694-4.416-8.177-3.362a3.194,3.194,0,0,0-1.415,4.537c.917,1.669,3.114,2.494,4.9,2.754,1.807.263,5.431-.709,6.387-.98.253.509.5,1.02.755,1.528,1.224,2.437,2.456,4.864,3.591,7.281.4.851.764,1.705,1.131,2.557-.344-.5-.636-.92-.688-.98-1.576-1.822-5.693-4.416-8.177-3.361a3.193,3.193,0,0,0-1.415,4.536c.918,1.669,3.114,2.495,4.9,2.754,1.724.252,5.078-.616,6.215-.932.349.885.7,1.77,1,2.642.19.6.415,1.166.573,1.78s.335,1.2.5,1.8c.276,1.153.569,2.341.81,3.472.174.786.325,1.538.48,2.3-.389-.853-1.185-2.505-1.267-2.636-1.282-2.04-4.959-5.228-7.574-4.561a3.192,3.192,0,0,0-2.085,4.269c.654,1.789,2.7,2.938,4.421,3.464,1.894.579,6.089.05,6.613-.02.251,1.254.484,2.475.685,3.632.425,2.414.751,4.588,1,6.455h1.763c-.3-1.934-.692-4.214-1.2-6.749-.25-1.274-.543-2.63-.856-4.02a34.684,34.684,0,0,0,3.689-1.735c1.382,1.5,4.92,3.246,5.378,3.469-.481,1.184-.961,2.331-1.431,3.406-.919,2.115-1.793,4-2.576,5.629h1.9c.667-1.488,1.392-3.164,2.145-5.007.494-1.2,1-2.493,1.5-3.825.507.106,4.66.95,6.595.513,1.755-.4,3.882-1.39,4.667-3.125a3.192,3.192,0,0,0-1.762-4.413c-2.557-.859-6.461,2.045-7.892,3.984-.084.114-.861,1.458-1.338,2.313.2-.546.408-1.073.61-1.637.408-1.112.783-2.235,1.19-3.441q.265-.883.534-1.786c.191-.592.318-1.242.481-1.869.348-1.46.629-2.957.879-4.471.975.355,4.456,1.566,6.26,1.439s4.047-.786,5.086-2.382a3.192,3.192,0,0,0-1.073-4.629c-2.4-1.237-6.7,1.043-8.4,2.743-.107.106-1.2,1.463-1.778,2.22.143-.911.291-1.82.4-2.747.333-2.675.585-5.394.85-8.1.08-.831.17-1.657.258-2.485.345.131,4.452,1.659,6.472,1.518,1.8-.126,4.046-.786,5.086-2.382a3.193,3.193,0,0,0-1.073-4.629c-2.4-1.237-6.7,1.043-8.4,2.742-.129.128-1.692,2.084-2.065,2.6.193-1.822.4-3.637.68-5.417a56.274,56.274,0,0,1,1.555-7.126c.161.061,4.44,1.676,6.509,1.531,1.795-.126,4.046-.785,5.086-2.382a3.192,3.192,0,0,0-1.073-4.629c-2.4-1.237-6.7,1.043-8.4,2.743-.112.111-1.3,1.6-1.854,2.321l-.138-.071a41.166,41.166,0,0,1,2.83-6.766c.614-1.2,1.268-2.314,1.928-3.383.766.382,4.287,2.092,6.163,2.167,1.8.071,4.109-.337,5.317-1.809a3.193,3.193,0,0,0-.558-4.719c-2.248-1.493-6.771.3-8.655,1.8-.1.082-1.052,1.027-1.734,1.726.305-.478.612-.977.913-1.429,1.129-1.7,2.267-3.187,3.286-4.5.586-.739,1.129-1.4,1.645-2.006.947-.016,4.765-.133,6.434-.916,1.629-.765,3.492-2.192,3.886-4.055a3.194,3.194,0,0,0-2.67-3.931c-2.683-.289-5.871,3.387-6.851,5.588-.084.191-1.068,3.318-1.018,3.317h.057c-.507.577-1.045,1.2-1.619,1.894-1.049,1.29-2.223,2.756-3.393,4.438a56.319,56.319,0,0,0-3.518,5.6,41.7,41.7,0,0,0-3.006,6.765c-.009.028-.015.058-.024.086.014-.79-.021-3-.043-3.171-.31-2.389-2.313-6.824-4.966-7.315a3.194,3.194,0,0,0-3.683,3c-.155,1.9,1.221,3.8,2.563,5,1.514,1.352,5.715,2.661,6.05,2.764a56.511,56.511,0,0,0-1.775,7.33c-.257,1.443-.472,2.905-.669,4.374-.01-.684-.024-1.3-.035-1.381-.31-2.389-2.312-6.824-4.966-7.314a3.192,3.192,0,0,0-3.682,3c-.156,1.9,1.221,3.8,2.563,5,1.362,1.216,4.921,2.4,5.867,2.707-.069.564-.145,1.126-.212,1.691-.324,2.707-.635,5.411-1.021,8.053-.136.932-.3,1.844-.469,2.757-.009-.607-.022-1.119-.032-1.2-.31-2.39-2.313-6.825-4.966-7.315a3.193,3.193,0,0,0-3.683,3c-.155,1.9,1.221,3.8,2.563,5,1.3,1.161,4.576,2.288,5.7,2.652-.2.93-.392,1.862-.625,2.754-.173.606-.3,1.2-.5,1.8s-.383,1.188-.572,1.774c-.406,1.114-.817,2.266-1.24,3.343-.288.751-.577,1.461-.865,2.178.146-.925.393-2.743.4-2.9a12.4,12.4,0,0,0-1.663-6.032,3.8,3.8,0,0,0-.044-.706,3.194,3.194,0,0,0-3.9-2.709c-2.608.7-4.262,5.271-4.385,7.677-.008.142.086,1.691.16,2.668-.131-.568-.252-1.12-.394-1.7-.273-1.153-.58-2.3-.906-3.527l-.54-1.784c-.167-.6-.42-1.211-.629-1.824-.516-1.409-1.107-2.813-1.734-4.214,1.009-.242,4.58-1.153,6.015-2.253s2.942-2.888,2.928-4.792a3.2,3.2,0,0,0-3.449-3.27c-2.682.292-5.01,4.565-5.5,6.925-.03.147-.189,1.879-.258,2.833-.384-.84-.762-1.679-1.177-2.516-1.2-2.414-2.488-4.821-3.763-7.227-.391-.737-.771-1.476-1.156-2.215.361-.082,4.629-1.072,6.236-2.3,1.427-1.1,2.942-2.888,2.928-4.792a3.193,3.193,0,0,0-3.449-3.269c-2.682.291-5.01,4.564-5.5,6.924-.036.178-.262,2.671-.288,3.308-.845-1.627-1.671-3.255-2.421-4.894a56.189,56.189,0,0,1-2.634-6.8c.168-.038,4.628-1.052,6.273-2.314,1.428-1.1,2.942-2.888,2.928-4.793a3.194,3.194,0,0,0-3.448-3.269c-2.683.292-5.011,4.565-5.5,6.925-.033.155-.206,2.055-.267,2.96l-.153.016a41.144,41.144,0,0,1-1.373-7.205c-.15-1.34-.219-2.63-.258-3.886.85-.1,4.729-.62,6.336-1.592,1.539-.932,3.241-2.547,3.437-4.442a3.193,3.193,0,0,0-3.069-3.628c-2.7-.005-5.481,3.987-6.224,6.279-.041.124-.311,1.437-.5,2.395-.009-.566-.028-1.152-.026-1.7,0-2.04.133-3.909.26-5.562.081-.94.172-1.788.265-2.581.781-.537,3.9-2.74,4.862-4.314.936-1.536,1.7-3.754,1-5.526a3.193,3.193,0,0,0-4.4-1.8c-2.4,1.239-3.028,6.063-2.631,8.44.034.206.94,3.356.981,3.328l.047-.032c-.1.761-.21,1.578-.306,2.473-.164,1.654-.334,3.525-.382,5.573a56.6,56.6,0,0,0,.158,6.616,41.672,41.672,0,0,0,1.225,7.3c.008.028.02.056.027.084-.424-.666-1.673-2.491-1.785-2.621-1.577-1.822-5.694-4.416-8.177-3.361a3.193,3.193,0,0,0-1.415,4.536C41.8,382.493,43.995,383.319,45.776,383.578Z" fill="#263238" opacity="0.3"/>
      </g>
      <g id="Group_20" data-name="Group 20">
        <path id="Path_74" data-name="Path 74" d="M699.316,370.9c.041.026.861-3.148.89-3.354.332-2.386-.429-7.192-2.858-8.366A3.193,3.193,0,0,0,693,361.106c-.652,1.79.174,3.986,1.152,5.5C695.3,368.376,699.313,370.9,699.316,370.9Z" fill="#263238"/>
        <path id="Path_75" data-name="Path 75" d="M651.412,369.86c1.936.846,6.673.739,6.676.739.049,0-1.018-3.1-1.107-3.288-1.04-2.174-4.326-5.763-7-5.4a3.194,3.194,0,0,0-2.562,4C647.863,367.764,649.763,369.139,651.412,369.86Z" fill="#263238"/>
        <path id="Path_76" data-name="Path 76" d="M653.047,383.578c2.008.293,6.235-.933,6.571-1.031a56.406,56.406,0,0,0,2.564,7.092c.581,1.347,1.208,2.685,1.854,4.018-.385-.565-.734-1.067-.79-1.132-1.577-1.823-5.694-4.416-8.178-3.362a3.194,3.194,0,0,0-1.415,4.537c.918,1.669,3.115,2.494,4.895,2.754,1.807.263,5.432-.709,6.387-.98.254.509.5,1.02.756,1.528,1.224,2.437,2.456,4.864,3.591,7.281.4.851.764,1.705,1.13,2.557-.343-.5-.636-.92-.687-.98-1.576-1.822-5.694-4.416-8.177-3.361a3.193,3.193,0,0,0-1.415,4.536c.918,1.669,3.114,2.495,4.9,2.754,1.724.252,5.078-.616,6.215-.932.348.885.7,1.77,1,2.642.19.6.415,1.166.572,1.78s.336,1.2.5,1.8c.277,1.153.569,2.341.811,3.472.174.786.325,1.538.479,2.3-.388-.853-1.185-2.505-1.267-2.636-1.282-2.04-4.958-5.228-7.573-4.561a3.192,3.192,0,0,0-2.086,4.269c.654,1.789,2.7,2.938,4.421,3.464,1.9.579,6.09.05,6.613-.02.252,1.254.484,2.475.685,3.632.426,2.414.752,4.588,1.005,6.455h1.763c-.3-1.934-.692-4.214-1.2-6.749-.25-1.274-.543-2.63-.857-4.02a34.573,34.573,0,0,0,3.69-1.735c1.381,1.5,4.92,3.246,5.378,3.469-.482,1.184-.962,2.331-1.432,3.406-.919,2.115-1.793,4-2.575,5.629h1.9c.667-1.488,1.392-3.164,2.146-5.007.494-1.2,1-2.493,1.5-3.825.508.106,4.661.95,6.6.513,1.755-.4,3.881-1.39,4.667-3.125a3.193,3.193,0,0,0-1.762-4.413c-2.558-.859-6.462,2.045-7.892,3.984-.085.114-.862,1.458-1.338,2.313.2-.546.407-1.073.61-1.637.408-1.112.782-2.235,1.19-3.441l.534-1.786c.191-.592.317-1.242.481-1.869.347-1.46.629-2.957.879-4.471.975.355,4.456,1.566,6.259,1.439s4.047-.786,5.087-2.382a3.194,3.194,0,0,0-1.073-4.629c-2.4-1.237-6.7,1.043-8.4,2.743-.107.106-1.2,1.463-1.779,2.22.144-.911.291-1.82.406-2.747.332-2.675.585-5.394.849-8.1.081-.831.171-1.657.258-2.485.346.131,4.452,1.659,6.472,1.518,1.795-.126,4.047-.786,5.086-2.382a3.192,3.192,0,0,0-1.073-4.629c-2.4-1.237-6.7,1.043-8.4,2.742-.129.128-1.692,2.084-2.065,2.6.192-1.822.4-3.637.679-5.417a56.273,56.273,0,0,1,1.556-7.126c.161.061,4.439,1.676,6.508,1.531,1.795-.126,4.047-.785,5.087-2.382a3.194,3.194,0,0,0-1.073-4.629c-2.4-1.237-6.7,1.043-8.405,2.743-.112.111-1.3,1.6-1.855,2.321l-.137-.071a41.077,41.077,0,0,1,2.83-6.766c.614-1.2,1.267-2.314,1.928-3.383.766.382,4.286,2.092,6.162,2.167,1.8.071,4.109-.337,5.318-1.809a3.193,3.193,0,0,0-.559-4.719c-2.247-1.493-6.77.3-8.654,1.8-.1.082-1.053,1.027-1.735,1.726.306-.478.612-.977.914-1.429,1.129-1.7,2.267-3.187,3.286-4.5.585-.739,1.129-1.4,1.644-2.006.948-.016,4.766-.133,6.435-.916,1.629-.765,3.491-2.192,3.885-4.055a3.193,3.193,0,0,0-2.67-3.931c-2.682-.289-5.87,3.387-6.85,5.588-.085.191-1.068,3.318-1.018,3.317h.057c-.508.577-1.045,1.2-1.619,1.894-1.05,1.29-2.224,2.756-3.394,4.438a56.683,56.683,0,0,0-3.518,5.6,41.61,41.61,0,0,0-3.005,6.765c-.01.028-.016.058-.024.086.013-.79-.022-3-.044-3.171-.309-2.389-2.312-6.824-4.965-7.315a3.193,3.193,0,0,0-3.683,3c-.156,1.9,1.221,3.8,2.563,5,1.513,1.352,5.715,2.661,6.05,2.764a56.516,56.516,0,0,0-1.775,7.33c-.258,1.443-.472,2.905-.669,4.374-.01-.684-.024-1.3-.035-1.381-.31-2.389-2.313-6.824-4.966-7.314a3.193,3.193,0,0,0-3.683,3c-.156,1.9,1.221,3.8,2.563,5,1.362,1.216,4.922,2.4,5.868,2.707-.07.564-.145,1.126-.213,1.691-.323,2.707-.634,5.411-1.021,8.053-.135.932-.3,1.844-.468,2.757-.01-.607-.023-1.119-.033-1.2-.31-2.39-2.312-6.825-4.966-7.315a3.193,3.193,0,0,0-3.682,3c-.156,1.9,1.221,3.8,2.563,5,1.3,1.161,4.575,2.288,5.7,2.652-.2.93-.392,1.862-.625,2.754-.173.606-.3,1.2-.5,1.8l-.573,1.774c-.4,1.114-.816,2.266-1.239,3.343-.289.751-.577,1.461-.866,2.178.146-.925.394-2.743.4-2.9a12.4,12.4,0,0,0-1.662-6.032,3.791,3.791,0,0,0-.045-.706,3.193,3.193,0,0,0-3.9-2.709c-2.607.7-4.261,5.271-4.385,7.677-.007.142.086,1.691.161,2.668-.131-.568-.252-1.12-.4-1.7-.273-1.153-.58-2.3-.9-3.527l-.54-1.784c-.167-.6-.421-1.211-.63-1.824-.516-1.409-1.107-2.813-1.734-4.214,1.01-.242,4.581-1.153,6.015-2.253s2.942-2.888,2.929-4.792a3.2,3.2,0,0,0-3.449-3.27c-2.682.292-5.011,4.565-5.5,6.925-.031.147-.19,1.879-.258,2.833-.384-.84-.762-1.679-1.178-2.516-1.2-2.414-2.487-4.821-3.762-7.227-.391-.737-.772-1.476-1.156-2.215.36-.082,4.629-1.072,6.235-2.3,1.428-1.1,2.942-2.888,2.929-4.792a3.193,3.193,0,0,0-3.449-3.269c-2.683.291-5.01,4.564-5.5,6.924-.037.178-.262,2.671-.288,3.308-.845-1.627-1.672-3.255-2.422-4.894a56.17,56.17,0,0,1-2.633-6.8c.167-.038,4.627-1.052,6.273-2.314,1.427-1.1,2.941-2.888,2.928-4.793A3.194,3.194,0,0,0,666,372.148c-2.682.292-5.01,4.565-5.5,6.925-.032.155-.205,2.055-.267,2.96l-.153.016a41.138,41.138,0,0,1-1.372-7.205c-.151-1.34-.22-2.63-.258-3.886.85-.1,4.729-.62,6.335-1.592,1.539-.932,3.241-2.547,3.437-4.442a3.193,3.193,0,0,0-3.069-3.628c-2.7-.005-5.481,3.987-6.224,6.279-.04.124-.311,1.437-.495,2.395-.008-.566-.028-1.152-.025-1.7,0-2.04.132-3.909.26-5.562.08-.94.171-1.788.265-2.581.781-.537,3.9-2.74,4.861-4.314.937-1.536,1.7-3.754,1-5.526a3.194,3.194,0,0,0-4.4-1.8c-2.4,1.239-3.027,6.063-2.63,8.44.034.206.939,3.356.98,3.328l.047-.032c-.1.761-.209,1.578-.3,2.473-.164,1.654-.334,3.525-.382,5.573a56.589,56.589,0,0,0,.157,6.616,41.683,41.683,0,0,0,1.226,7.3c.007.028.019.056.027.084-.425-.666-1.674-2.491-1.785-2.621-1.577-1.822-5.694-4.416-8.178-3.361a3.193,3.193,0,0,0-1.415,4.536C649.07,382.493,651.266,383.319,653.047,383.578Z" fill="#263238"/>
        <path id="Path_77" data-name="Path 77" d="M651.412,369.86c1.936.846,6.673.739,6.676.739.049,0-1.018-3.1-1.107-3.288-1.04-2.174-4.326-5.763-7-5.4a3.194,3.194,0,0,0-2.562,4C647.863,367.764,649.763,369.139,651.412,369.86Z" fill="#263238" opacity="0.3"/>
        <path id="Path_78" data-name="Path 78" d="M699.316,370.9c.041.026.861-3.148.89-3.354.332-2.386-.429-7.192-2.858-8.366A3.193,3.193,0,0,0,693,361.106c-.652,1.79.174,3.986,1.152,5.5C695.3,368.376,699.313,370.9,699.316,370.9Z" fill="#263238" opacity="0.3"/>
        <path id="Path_79" data-name="Path 79" d="M653.047,383.578c2.008.293,6.235-.933,6.571-1.031a56.406,56.406,0,0,0,2.564,7.092c.581,1.347,1.208,2.685,1.854,4.018-.385-.565-.734-1.067-.79-1.132-1.577-1.823-5.694-4.416-8.178-3.362a3.194,3.194,0,0,0-1.415,4.537c.918,1.669,3.115,2.494,4.895,2.754,1.807.263,5.432-.709,6.387-.98.254.509.5,1.02.756,1.528,1.224,2.437,2.456,4.864,3.591,7.281.4.851.764,1.705,1.13,2.557-.343-.5-.636-.92-.687-.98-1.576-1.822-5.694-4.416-8.177-3.361a3.193,3.193,0,0,0-1.415,4.536c.918,1.669,3.114,2.495,4.9,2.754,1.724.252,5.078-.616,6.215-.932.348.885.7,1.77,1,2.642.19.6.415,1.166.572,1.78s.336,1.2.5,1.8c.277,1.153.569,2.341.811,3.472.174.786.325,1.538.479,2.3-.388-.853-1.185-2.505-1.267-2.636-1.282-2.04-4.958-5.228-7.573-4.561a3.192,3.192,0,0,0-2.086,4.269c.654,1.789,2.7,2.938,4.421,3.464,1.9.579,6.09.05,6.613-.02.252,1.254.484,2.475.685,3.632.426,2.414.752,4.588,1.005,6.455h1.763c-.3-1.934-.692-4.214-1.2-6.749-.25-1.274-.543-2.63-.857-4.02a34.573,34.573,0,0,0,3.69-1.735c1.381,1.5,4.92,3.246,5.378,3.469-.482,1.184-.962,2.331-1.432,3.406-.919,2.115-1.793,4-2.575,5.629h1.9c.667-1.488,1.392-3.164,2.146-5.007.494-1.2,1-2.493,1.5-3.825.508.106,4.661.95,6.6.513,1.755-.4,3.881-1.39,4.667-3.125a3.193,3.193,0,0,0-1.762-4.413c-2.558-.859-6.462,2.045-7.892,3.984-.085.114-.862,1.458-1.338,2.313.2-.546.407-1.073.61-1.637.408-1.112.782-2.235,1.19-3.441l.534-1.786c.191-.592.317-1.242.481-1.869.347-1.46.629-2.957.879-4.471.975.355,4.456,1.566,6.259,1.439s4.047-.786,5.087-2.382a3.194,3.194,0,0,0-1.073-4.629c-2.4-1.237-6.7,1.043-8.4,2.743-.107.106-1.2,1.463-1.779,2.22.144-.911.291-1.82.406-2.747.332-2.675.585-5.394.849-8.1.081-.831.171-1.657.258-2.485.346.131,4.452,1.659,6.472,1.518,1.795-.126,4.047-.786,5.086-2.382a3.192,3.192,0,0,0-1.073-4.629c-2.4-1.237-6.7,1.043-8.4,2.742-.129.128-1.692,2.084-2.065,2.6.192-1.822.4-3.637.679-5.417a56.273,56.273,0,0,1,1.556-7.126c.161.061,4.439,1.676,6.508,1.531,1.795-.126,4.047-.785,5.087-2.382a3.194,3.194,0,0,0-1.073-4.629c-2.4-1.237-6.7,1.043-8.405,2.743-.112.111-1.3,1.6-1.855,2.321l-.137-.071a41.077,41.077,0,0,1,2.83-6.766c.614-1.2,1.267-2.314,1.928-3.383.766.382,4.286,2.092,6.162,2.167,1.8.071,4.109-.337,5.318-1.809a3.193,3.193,0,0,0-.559-4.719c-2.247-1.493-6.77.3-8.654,1.8-.1.082-1.053,1.027-1.735,1.726.306-.478.612-.977.914-1.429,1.129-1.7,2.267-3.187,3.286-4.5.585-.739,1.129-1.4,1.644-2.006.948-.016,4.766-.133,6.435-.916,1.629-.765,3.491-2.192,3.885-4.055a3.193,3.193,0,0,0-2.67-3.931c-2.682-.289-5.87,3.387-6.85,5.588-.085.191-1.068,3.318-1.018,3.317h.057c-.508.577-1.045,1.2-1.619,1.894-1.05,1.29-2.224,2.756-3.394,4.438a56.683,56.683,0,0,0-3.518,5.6,41.61,41.61,0,0,0-3.005,6.765c-.01.028-.016.058-.024.086.013-.79-.022-3-.044-3.171-.309-2.389-2.312-6.824-4.965-7.315a3.193,3.193,0,0,0-3.683,3c-.156,1.9,1.221,3.8,2.563,5,1.513,1.352,5.715,2.661,6.05,2.764a56.516,56.516,0,0,0-1.775,7.33c-.258,1.443-.472,2.905-.669,4.374-.01-.684-.024-1.3-.035-1.381-.31-2.389-2.313-6.824-4.966-7.314a3.193,3.193,0,0,0-3.683,3c-.156,1.9,1.221,3.8,2.563,5,1.362,1.216,4.922,2.4,5.868,2.707-.07.564-.145,1.126-.213,1.691-.323,2.707-.634,5.411-1.021,8.053-.135.932-.3,1.844-.468,2.757-.01-.607-.023-1.119-.033-1.2-.31-2.39-2.312-6.825-4.966-7.315a3.193,3.193,0,0,0-3.682,3c-.156,1.9,1.221,3.8,2.563,5,1.3,1.161,4.575,2.288,5.7,2.652-.2.93-.392,1.862-.625,2.754-.173.606-.3,1.2-.5,1.8l-.573,1.774c-.4,1.114-.816,2.266-1.239,3.343-.289.751-.577,1.461-.866,2.178.146-.925.394-2.743.4-2.9a12.4,12.4,0,0,0-1.662-6.032,3.791,3.791,0,0,0-.045-.706,3.193,3.193,0,0,0-3.9-2.709c-2.607.7-4.261,5.271-4.385,7.677-.007.142.086,1.691.161,2.668-.131-.568-.252-1.12-.4-1.7-.273-1.153-.58-2.3-.9-3.527l-.54-1.784c-.167-.6-.421-1.211-.63-1.824-.516-1.409-1.107-2.813-1.734-4.214,1.01-.242,4.581-1.153,6.015-2.253s2.942-2.888,2.929-4.792a3.2,3.2,0,0,0-3.449-3.27c-2.682.292-5.011,4.565-5.5,6.925-.031.147-.19,1.879-.258,2.833-.384-.84-.762-1.679-1.178-2.516-1.2-2.414-2.487-4.821-3.762-7.227-.391-.737-.772-1.476-1.156-2.215.36-.082,4.629-1.072,6.235-2.3,1.428-1.1,2.942-2.888,2.929-4.792a3.193,3.193,0,0,0-3.449-3.269c-2.683.291-5.01,4.564-5.5,6.924-.037.178-.262,2.671-.288,3.308-.845-1.627-1.672-3.255-2.422-4.894a56.17,56.17,0,0,1-2.633-6.8c.167-.038,4.627-1.052,6.273-2.314,1.427-1.1,2.941-2.888,2.928-4.793A3.194,3.194,0,0,0,666,372.148c-2.682.292-5.01,4.565-5.5,6.925-.032.155-.205,2.055-.267,2.96l-.153.016a41.138,41.138,0,0,1-1.372-7.205c-.151-1.34-.22-2.63-.258-3.886.85-.1,4.729-.62,6.335-1.592,1.539-.932,3.241-2.547,3.437-4.442a3.193,3.193,0,0,0-3.069-3.628c-2.7-.005-5.481,3.987-6.224,6.279-.04.124-.311,1.437-.495,2.395-.008-.566-.028-1.152-.025-1.7,0-2.04.132-3.909.26-5.562.08-.94.171-1.788.265-2.581.781-.537,3.9-2.74,4.861-4.314.937-1.536,1.7-3.754,1-5.526a3.194,3.194,0,0,0-4.4-1.8c-2.4,1.239-3.027,6.063-2.63,8.44.034.206.939,3.356.98,3.328l.047-.032c-.1.761-.209,1.578-.3,2.473-.164,1.654-.334,3.525-.382,5.573a56.589,56.589,0,0,0,.157,6.616,41.683,41.683,0,0,0,1.226,7.3c.007.028.019.056.027.084-.425-.666-1.674-2.491-1.785-2.621-1.577-1.822-5.694-4.416-8.178-3.361a3.193,3.193,0,0,0-1.415,4.536C649.07,382.493,651.266,383.319,653.047,383.578Z" fill="#263238" opacity="0.3"/>
      </g>
    </g>
    <g id="Character_1" data-name="Character 1">
      <g id="Group_26" data-name="Group 26">
        <g id="Group_23" data-name="Group 23">
          <path id="Path_80" data-name="Path 80" d="M177.94,341.444s1.25-.25,11.5-3.25a44.662,44.662,0,0,0,17.5-10.5l-3.25-20.5-20.75,3Z" fill="#92e3a9" stroke="#263238" stroke-linecap="round" stroke-linejoin="round" stroke-width="1"/>
          <path id="Path_81" data-name="Path 81" d="M126.94,410.944s-3.5,7-4,13.5,3.25,8.75,4.5,7,3.25-8,3.5-10.75l.75-8.25Z" fill="#fff" stroke="#263238" stroke-linecap="round" stroke-linejoin="round" stroke-width="1"/>
          <path id="Path_82" data-name="Path 82" d="M218.956,415.439s-1.013,9-1.269,13.249,4.988,8.257,5.738,8.508,1.5,0,2.754-3,1.265-10.248.518-12.5-2.242-5.754-2.242-5.754Z" fill="#fff" stroke="#263238" stroke-linecap="round" stroke-linejoin="round" stroke-width="1"/>
          <path id="Path_83" data-name="Path 83" d="M183.94,283.694s-10.091,12.035-13.591,22.035-6.294,22.377-8.659,28.965a164.9,164.9,0,0,0-5,17.25s-6.5,6.5-8.25,12.25-22.25,48.25-22.25,48.25,1.25,1.75,2.25,2,3.25-1,3.25-1,36.25-47.5,38.5-51,9.35-11.608,10.1-12.858,6.4-18.642,8.4-21.142a41.286,41.286,0,0,0,3.88-6.342l1.5,1,1.75.25s7.87,15.842,9.87,22.342,7.75,42,9.25,48.5,3.5,23.5,3.5,23.5a27.443,27.443,0,0,0,2.75.75c1.25.25,4.5-.75,4.5-.75s5.75-26,6-35-1.5-29-1.5-32-4.5-44.25-6.75-49.75-9.75-15.25-9.75-15.25Z" fill="#263238" stroke="#263238" stroke-linecap="round" stroke-linejoin="round" stroke-width="1"/>
          <path id="Path_84" data-name="Path 84" d="M198.69,236.444l-15,4.75s0,29,.25,32.75-1.75,10-.5,11.5,7.25,7.5,18.25,7.75,14-3.25,14-3.25l2.25-9.75s7.25-19.5,7.25-22.5-7.25-11.75-11.5-15.25S198.69,236.444,198.69,236.444Z" fill="#fff" stroke="#263238" stroke-linecap="round" stroke-linejoin="round" stroke-width="1"/>
          <path id="Path_85" data-name="Path 85" d="M159.94,270.694a81.724,81.724,0,0,1-10,5.75l-20,10,2.25,4.75a126.982,126.982,0,0,1,14.75-1.75c6.5-.25,17.5-4.5,18.25-5.75s3.25-8,3.25-8Z" fill="#fff" stroke="#263238" stroke-linecap="round" stroke-linejoin="round" stroke-width="1"/>
          <path id="Path_86" data-name="Path 86" d="M196.69,236.694s-10.75,29.5-11.25,33.75-4.75,15-5,16.5-7.25,16.75-7.25,16.75,7.5-23.5,8.25-28.25a18.666,18.666,0,0,0-1-9s-5.072,10.754-5.822,11.5-5.836,9.337-5.836,9.337l-8.842-16.591s9.75-17,11.75-19.75,6.25-10.25,9.25-11.75S196.69,236.694,196.69,236.694Z" fill="#92e3a9" stroke="#263238" stroke-linecap="round" stroke-linejoin="round" stroke-width="1"/>
          <path id="Path_87" data-name="Path 87" d="M211.44,240.444s-7.75,32.5-7.75,37.75-.75,21.5-1.5,30.5-2.25,37.75-2.25,37.75a61.866,61.866,0,0,0,14.5.5c7-.75,19-5.5,19-5.5s-6.25-31.5-8.75-39a190.145,190.145,0,0,1-5.25-19.75c0-.75,6.75-22.75,6.75-25.75S214.19,241.194,211.44,240.444Z" fill="#92e3a9" stroke="#263238" stroke-linecap="round" stroke-linejoin="round" stroke-width="1"/>
          <path id="Path_88" data-name="Path 88" d="M123.277,288.325a10.937,10.937,0,0,0-1.045-5.52c-1.358-2.687-2.105-3.519.08-2.925s3.457,4.859,3.457,4.859Z" fill="#fff" stroke="#263238" stroke-linecap="round" stroke-linejoin="round" stroke-width="1"/>
          <path id="Path_89" data-name="Path 89" d="M137.352,290.12s-2.859,4.516-4.578,4.105-9.35-4.23-9.5-5.9,1.317-6.738,2.572-6.511S137.352,290.12,137.352,290.12Z" fill="#fff" stroke="#263238" stroke-linecap="round" stroke-linejoin="round" stroke-width="1"/>
          <g id="Group_22" data-name="Group 22">
            <g id="Group_21" data-name="Group 21">
              <path id="Path_90" data-name="Path 90" d="M221.964,209.77a37.367,37.367,0,0,1,1.468,5.948,16.878,16.878,0,0,1-.681,3.636s4.09,3.635,4.317,4.544-2.272,2.272-2.272,2.272.227,9.543.227,10.225-11.133,1.136-11.133,1.136L202.3,251.164l-5.453-13.406,2.5-7.5s-7.5-4.317-4.772-10.906,8.862-10.225,15-11.134a36.043,36.043,0,0,1,11.952.449Z" fill="#fff" stroke="#263238" stroke-linecap="round" stroke-linejoin="round" stroke-width="1"/>
              <path id="Path_91" data-name="Path 91" d="M213.889,237.531l-5.7-1.087-.333,7.667Z" fill="#263238" stroke="#263238" stroke-linecap="round" stroke-linejoin="round" stroke-width="1"/>
              <path id="Path_92" data-name="Path 92" d="M220.422,220.235c0,.79-.3,1.432-.661,1.432s-.66-.642-.66-1.432.295-1.432.66-1.432S220.422,219.444,220.422,220.235Z" fill="#263238"/>
              <path id="Path_93" data-name="Path 93" d="M218.219,217.922s.661-1.322,3.084-.661" fill="none" stroke="#263238" stroke-linecap="round" stroke-linejoin="round" stroke-width="1"/>
              <path id="Path_94" data-name="Path 94" d="M223.727,228.5s-2.864.44-3.966-1.1" fill="none" stroke="#263238" stroke-linecap="round" stroke-linejoin="round" stroke-width="1"/>
            </g>
            <path id="Path_95" data-name="Path 95" d="M222.524,212.537s-7.5-1.817-8.862.909-.227,4.09-1.363,6.589-5.453,5.681-5.453,5.681-4.09-4.544-5.453-2.272-.909,5.68.454,6.816,5.226.455,5.226.455l-5.907,2.726s.227,3.408-5.226,4.772S183.9,235.94,184.806,231.4s8.407-7.271,8.407-7.271-7.953-9.77-1.363-17.041,19.54-3.862,19.54-3.862,1.818-2.045,7.044-2.5,7.5,4.772,7.5,7.726S222.524,212.537,222.524,212.537Z" fill="#263238" stroke="#263238" stroke-linecap="round" stroke-linejoin="round" stroke-width="1"/>
          </g>
        </g>
        <g id="Group_24" data-name="Group 24">
          <path id="Path_96" data-name="Path 96" d="M599.864,137.025l-2.671-51.579-44.339,24.1,1,4,16.768,8.558L491.708,276.723,241.266,344.816,68.136,226.663a7,7,0,0,0-7.891,11.563L236.041,358.2a7,7,0,0,0,5.782.973l256.548-69.753a7.008,7.008,0,0,0,4.4-3.572l80.323-157.381Z" fill="#263238" stroke="#263238" stroke-linecap="round" stroke-linejoin="round" stroke-width="1"/>
          <path id="Path_97" data-name="Path 97" d="M598.864,133.025l-2.671-51.579-43.339,28.1,16.768,8.558L490.708,272.723,240.266,340.816,67.136,222.663a7,7,0,0,0-7.891,11.563L235.041,354.2a7,7,0,0,0,5.782.973l256.548-69.753a7.008,7.008,0,0,0,4.4-3.572l80.323-157.381Z" fill="#92e3a9" stroke="#263238" stroke-linecap="round" stroke-linejoin="round" stroke-width="1"/>
          <path id="Path_98" data-name="Path 98" d="M591.646,90.351l-28.8,18.676,13.508,6.894L494.155,276.967l-254.8,69.278L64.317,226.792a1.957,1.957,0,0,0-1.121-.348,2,2,0,0,0-1.133,3.652l175.8,119.973a1.992,1.992,0,0,0,1.128.348,1.968,1.968,0,0,0,.524-.07L496.06,280.594a2,2,0,0,0,1.256-1.021l82.6-161.834,13.51,6.9Z" fill="#fff"/>
        </g>
        <g id="Group_25" data-name="Group 25">
          <path id="Path_99" data-name="Path 99" d="M216.818,294.729l-1.367,5.31a61.112,61.112,0,0,1-5.378,8.538c-3.3,4.375-15.156,16.565-15.156,16.565l-3.348,4.129-.39,3.619,2.718,1.053s1.359.527,2.472,1.1,3.993,1.087,4.893.424,3.008-6.1,3.008-6.1l.8-4.2s14.077-11.052,17.3-14.4,6.006-6.363,6.941-8.3.161-7.892.161-7.892Z" fill="#fff" stroke="#263238" stroke-linecap="round" stroke-linejoin="round" stroke-width="1"/>
          <path id="Path_100" data-name="Path 100" d="M216.471,269.167l-2.524,26.565a56.966,56.966,0,0,0,7.2,2.056c3.95.841,12.2-1.342,12.2-1.342s-1.274-22.105-2.921-30.192-6.244-14.145-9.209-15.157" fill="#92e3a9" stroke="#263238" stroke-linecap="round" stroke-linejoin="round" stroke-width="1"/>
        </g>
      </g>
    </g>
    <g id="Flor">
      <g id="Group_27" data-name="Group 27">
        <line id="Line_5" data-name="Line 5" x2="181" transform="translate(533.19 431.444)" fill="none" stroke="#263238" stroke-linecap="round" stroke-linejoin="round" stroke-width="1"/>
        <line id="Line_6" data-name="Line 6" x2="13" transform="translate(511.19 431.444)" fill="none" stroke="#263238" stroke-linecap="round" stroke-linejoin="round" stroke-width="1"/>
        <line id="Line_7" data-name="Line 7" x2="316" transform="translate(184.191 431.444)" fill="none" stroke="#263238" stroke-linecap="round" stroke-linejoin="round" stroke-width="1"/>
        <line id="Line_8" data-name="Line 8" x2="142" transform="translate(33.19 431.444)" fill="none" stroke="#263238" stroke-linecap="round" stroke-linejoin="round" stroke-width="1"/>
      </g>
    </g>
  </g>
</svg>
