<?xml version="1.0" encoding="UTF-8"?>
<svg xmlns="http://www.w3.org/2000/svg" width="62.82169775777959" height="63.29042232619804" viewBox="795.0370732062264 1393.2777894360115 62.82169775777959 63.29042232619804" preserveAspectRatio="none">
  <g>
    <defs>
      <path id="s-Union_1-b2a25" d="M814.9233183670998 1396.093236176272 C814.7200091799888 1396.093236176272 814.5239812460069 1396.2132070827502 814.3703581229942 1396.4180630645667 C812.0833278331723 1399.4468380060478 807.1384137910494 1402.8464664100072 805.0986442940133 1404.1444912553843 C803.7387853870895 1405.0098663034362 802.5643532114049 1405.9988340211808 801.5753854936605 1406.9878017389256 C792.3036716646797 1416.5067763606924 800.8954371768485 1426.2729363218455 800.957271238395 1426.3966044449385 C801.1188546951397 1426.590444230312 801.3310673834859 1426.6830255524806 801.5498445176587 1426.6830255524806 C801.7495319415553 1426.6830255524806 801.9546897369734 1426.6059121773728 802.1316656873793 1426.458400779785 C802.5025568765587 1426.1493436521528 802.5025568765587 1425.5930257317339 802.193499748926 1425.2221722692539 C801.8844426212933 1424.9131151416218 794.5907019545017 1416.5685726955392 802.7497799426448 1408.2240302494563 C803.6769513255425 1407.2968588665583 804.727753104834 1406.4314838185066 806.0258156769113 1405.566108770455 C807.9419547775541 1404.268083925078 812.2687545644118 1401.3011807718442 814.9266383167129 1398.33420216521 C816.5955543512695 1401.053919979058 820.9841504729735 1408.9657371744142 819.0062150374844 1416.0122547751196 C817.8317828618 1420.2154618922843 814.5557848542338 1423.491422173151 809.2399796229314 1425.7166938548264 C808.8073298256055 1425.9020828593657 808.6218653676659 1426.3966044449385 808.8073298256055 1426.8292542422646 C808.9309224952987 1427.2001077047435 809.3018136844781 1427.3855721626826 809.6108708121104 1427.3855721626826 C809.6933036519391 1427.3855721626826 809.7482337273585 1427.3581071249732 809.812331390914 1427.3581071249732 C809.8443613593419 1427.3581071249732 809.878730383179 1427.3649733844009 809.9199279397434 1427.3855721626826 C815.7301793032178 1424.9749114764677 819.3152721651171 1421.328022279722 820.6750933453408 1416.5685726955392 C823.3330148243425 1407.1732661968654 816.0392364308506 1396.9125091967396 815.7301793032178 1396.4798593994133 C815.6065866335249 1396.232598606627 815.2975295058922 1396.1090059369349 815.050268713106 1396.1090059369349 C815.0078639021373 1396.0983670074918 814.9654213644675 1396.093236176272 814.9233183670998 1396.093236176272 Z M838.9379098075833 1425.7627204290102 C836.4990295496557 1425.7627204290102 832.0346027606488 1426.2632782866071 828.4262702514568 1429.3933871446914 C828.1172131238243 1429.7024442723239 828.0553790622776 1430.2587621927428 828.3644361899103 1430.629615655222 C828.5342440672875 1430.7994612592995 828.7787508109627 1430.894607997079 829.0260870571492 1430.894607997079 C829.228868070458 1430.894607997079 829.4336108721745 1430.830623513624 829.6006647004413 1430.6914119900682 C832.7946825885804 1427.9348729168735 836.917871374726 1427.5322535728676 839.076291343735 1427.5322535728676 C839.967094187688 1427.5322535728676 840.5232234746063 1427.6008407137422 840.5412945639782 1427.6008407137422 C846.4751763238457 1428.4044194269468 848.8240406752145 1431.5567870381199 849.6893779965662 1434.0292440591822 C850.2456959169847 1435.512733362499 850.3693263133778 1437.1816116703553 850.060269185745 1438.9741581013045 C849.5657476001732 1442.2501183821714 849.936638789352 1444.5989827335393 850.3693263133778 1446.0824720368569 C847.816624601096 1445.476732139241 844.7187720716402 1445.3858862452787 842.8989115097816 1445.3858862452787 C842.1188365307705 1445.3858862452787 841.5735725334955 1445.4025614467444 841.4066696120299 1445.4025614467444 C828.4262702514568 1444.7844471914798 827.4372648070118 1438.4796365157322 827.4372648070118 1436.5634974150896 C827.4372648070118 1436.0689758295173 827.0664113445332 1435.698122367038 826.5719274856609 1435.698122367038 C826.0774059000881 1435.698122367038 825.7065524376095 1436.0689758295173 825.7065524376095 1436.5634974150896 C825.7065524376095 1441.3229469992732 829.7860914316805 1446.5769181690289 841.4066696120299 1447.1332360894478 L841.4684659468762 1447.1332360894478 C841.487178390151 1447.1332360894478 842.1245709891932 1447.1048656109347 843.0951280772645 1447.1048656109347 C845.3274546518678 1447.1048656109347 849.3222594774015 1447.2550178775334 851.6055548239085 1448.2458719302856 C851.6673511587551 1448.307668265132 851.7909815551482 1448.307668265132 851.9146119515412 1448.307668265132 C852.1618350176273 1448.307668265132 852.4090958104136 1448.1840755954393 852.5327262068067 1447.9986111375001 C852.7799492728927 1447.6895540098674 852.7799492728927 1447.256904212541 852.5327262068067 1446.9478470849083 C852.5327262068067 1446.9478470849083 850.8019761107034 1444.5371863986932 851.6673511587551 1439.2214188940911 C852.0382046212344 1437.1198153355087 851.8527778899947 1435.141804446619 851.234663634729 1433.4111298039163 C850.183861855438 1430.4441511972825 847.525978103137 1426.7354656656903 840.7267212952177 1425.8700906176387 C840.6350454138524 1425.8517554413656 839.9666791939865 1425.7627204290102 838.9379098075833 1425.7627204290102 Z M844.7771352767732 1407.837407026314 C844.4881487536202 1407.837407026314 844.192409151141 1407.9883138269158 844.0299957069928 1408.2724713324492 C841.4339082895387 1412.5992711193073 837.0453121678343 1416.3697529857454 830.6787428839409 1419.8930495127988 C828.5771393253585 1421.0674062350831 826.3519430970833 1422.1182457410741 824.1885432036546 1423.1690097936655 C819.6144826240105 1425.3942060219404 814.8549953131272 1427.6812740384628 810.7754563190555 1430.8954379844824 C804.6936858945979 1435.608860994482 800.1494294080732 1442.2753952712726 797.8583246346349 1449.6342899492233 C798.0455622474816 1443.9729458712425 800.0536035896909 1433.8397805710263 809.938451749517 1421.633834911142 C810.2475088771499 1421.2629059952624 810.1857125423033 1420.7066635282438 809.8148213531239 1420.3976064006117 C809.6545206041848 1420.2640538820785 809.459549017807 1420.1996921316215 809.2649169717307 1420.1996921316215 C809.009243124811 1420.1996921316215 808.7540597249935 1420.3106840834641 808.5785928425931 1420.521199070304 C792.6930866636329 1440.1153907808568 796.3399381336786 1454.3320186519607 796.5253648649181 1454.9501329072257 C796.587198926465 1455.3210618231053 796.9580523889441 1455.5682471624916 797.3289435781236 1455.5682471624916 L797.5761666442094 1455.5682471624916 C797.6088756932401 1455.560098195259 797.6404906679662 1455.5502892532202 797.6710115683876 1455.5389712431745 C798.0205117185818 1455.4652532710804 798.2985574986907 1455.1859247831665 798.3513371522014 1454.816504935293 C799.2007538060892 1449.7555435635068 801.1646549091223 1444.8971745715291 804.0342609026678 1440.6360192429333 C805.5592495761501 1438.5415083039795 809.1302326521935 1434.5111649269045 815.0348007660444 1432.9787063667907 C816.5855190490296 1432.591026796045 818.192978289041 1432.3968097436707 819.8540094432661 1432.3968097436707 C825.3434706753613 1432.3968097436707 831.4183748403912 1434.5181820931316 837.9668622724098 1438.788920003566 C838.098264369034 1438.8765214013158 838.252906112951 1438.9175680510793 838.4088682913732 1438.9175680510793 C838.6931012503069 1438.9175680510793 838.9816350530575 1438.7812237567355 839.1412567213943 1438.5417346641805 C839.3885175141802 1438.1708057483004 839.2648871177871 1437.6145632812816 838.894033655308 1437.367302488496 C832.0734612618039 1432.9456577774602 825.7182099879554 1430.7076344711338 819.9100713196893 1430.7076344711338 C818.0859476407139 1430.7076344711338 816.3157731429534 1430.9283356670135 814.6021132420186 1431.3715489403817 C813.606354718247 1431.6310331840164 812.6726188895226 1431.954124644105 811.7994344145401 1432.3235444919783 C811.8289366940577 1432.300757565088 811.8584767002752 1432.2780460915967 811.8880544331934 1432.2553346181064 C815.844000757572 1429.1647633417792 820.4798576720622 1426.9394916601034 824.9920841901597 1424.714295431829 C827.1554840835881 1423.6635313792374 829.3806803118637 1422.5508955383993 831.5440802052924 1421.3764633627147 C838.1579102819721 1417.72964961937 842.7319708616158 1413.7119069601445 845.51348501031 1409.1378463805013 C845.760708076396 1408.7669929180217 845.6370776800029 1408.2106749976026 845.204427882677 1407.9634142048171 C845.07717572307 1407.8786045828788 844.928079804075 1407.837407026314 844.7771352767732 1407.837407026314 Z "></path>
      <path id="s-Union_5-b2a25" d="M849.0164978513151 1395.766462139146 C849.1020242805561 1395.766462139146 849.187512983097 1395.7694048217577 849.2728130521375 1395.7754410937816 C849.2962790596309 1395.8419909928473 849.3278185809568 1395.9058245695019 849.3672429826141 1395.9649045819378 C849.7380964450931 1396.5212225023567 849.7380964450931 1397.2630048807155 849.3672429826141 1398.0047118056734 C848.9345554585881 1398.7464187306316 848.2546448684765 1399.4264047741437 847.5746965516643 1399.9208509063162 C847.3892698204247 1400.0445190294095 847.2656394240315 1400.1681116991022 847.0802126927921 1400.2917043687953 C846.4003021026801 1400.7862259543674 845.7203537858682 1401.28074753994 845.1640735921495 1401.9606581300516 C844.2986985440978 1402.949625847797 843.7424183503789 1404.1240580234808 843.5569538924393 1405.3602865340115 C843.4509041383163 1406.102747992973 843.486404963158 1406.8654309632147 843.6519119967179 1407.590538140107 C842.7705031011023 1407.0059251945754 842.2716806717129 1405.9423340639332 842.1554447085492 1404.605450717401 C842.0318143121561 1402.9983687443907 842.4645018361821 1401.3294904365348 843.3916732190801 1399.7224084635245 C844.3188446019783 1398.1152510371144 845.6168694473554 1396.879022526584 847.0385246891258 1396.2609082713184 C847.7184730059379 1395.9518511436852 848.3983835960497 1395.766462139146 849.0164978513151 1395.766462139146 Z M851.328880483638 1396.799117375665 C852.6769686601152 1398.3665108601163 852.6060801905321 1401.4330879551483 850.9944710135046 1404.1728009200754 C850.0672996306063 1405.7798828930852 848.7692370585289 1407.0161114036162 847.3475818167583 1407.6342256588814 C846.7610448095189 1407.9135541467954 846.1745455289796 1408.0666490960066 845.6222266387769 1408.0992449649364 C845.2619366523397 1407.3663660878124 845.1786738251075 1406.5487530421515 845.2877039885427 1405.7311399964904 C845.4112966582353 1404.8039686135928 845.8439841822611 1403.938593565541 846.4620984375264 1403.1968866405832 C846.9565822963989 1402.6405687201636 847.5129002168177 1402.207918922838 848.1310144720833 1401.7133973372659 C848.2546448684765 1401.5898046675727 848.440071599716 1401.4661365444792 848.6254983309555 1401.3425438747865 C849.4290393174604 1400.662633284675 850.294414365512 1399.8590545714696 850.850732285931 1398.8082905188783 C851.1961202258085 1398.1488278002482 851.3501206158227 1397.4575237466913 851.328880483638 1396.799117375665 Z M848.9529283615616 1394.0277894360115 C848.1019271862672 1394.0277894360115 847.2068234984969 1394.229174561414 846.2968177641674 1394.6538262983086 C844.5660676680642 1395.4574050115136 843.0207820299008 1396.9408943148305 841.908183915763 1398.795237080626 C840.7955858016251 1400.7113761812695 840.301101942753 1402.7511079516046 840.4247323391462 1404.6673225056475 C840.5483250088389 1406.645257941137 841.4137000568904 1408.2523399141467 842.8971893602077 1409.117714962198 C843.638896285166 1409.5503647595242 844.5042713332176 1409.7976255523101 845.3696463812693 1409.7976255523101 C846.2349837026209 1409.7976255523101 847.1621550855189 1409.5503647595242 848.0275301335704 1409.117714962198 C849.7582425029736 1408.3141362489932 851.3035281411368 1406.8307223990764 852.4161262552747 1404.9763796332804 C854.7649528799432 1401.020433308902 854.3323030826176 1396.384576394411 851.4271585375301 1394.6538262983086 C850.6716813670167 1394.2446425084763 849.8360726853841 1394.0277894360115 848.9529283615616 1394.0277894360115 Z M832.1651881485025 1400.3055877944503 C832.9669182533999 1400.5733719121185 833.6917990700913 1401.1745846057165 834.2250282500181 1402.0632747544612 C835.0904032980699 1403.4230959346853 835.5848871569419 1405.1538460307877 835.5848871569419 1407.0081887965841 C835.5391623963596 1409.7500144567202 834.4462198930004 1412.1202321203743 832.880373203255 1413.1697134651602 C832.2278144707523 1412.7137485671415 831.7207298940298 1412.0102210627354 831.3993361354479 1411.260289717144 C831.0284826729685 1410.3949146690925 830.9666486114216 1409.405946951348 831.1520753426614 1408.4169792336036 C831.337539800601 1407.6751968552448 831.5847628666874 1406.9952862651328 831.8938199943199 1406.2535793401748 C831.9556540558665 1406.0681148822348 832.0792467255595 1405.8208540894486 832.1410807871061 1405.6354650849091 C832.5119342495855 1404.6464973671639 832.8828254387648 1403.533861526327 832.8209913772179 1402.297633015796 C832.7569314403625 1401.5608305618573 832.5268740228448 1400.8739028055172 832.1651881485025 1400.3055877944503 Z M829.8117965931156 1400.4776970005373 C829.8769128775754 1400.5401724159867 829.9532717186797 1400.5917825417926 830.0394772285237 1400.6287547079394 C830.5957951489427 1400.8759400473257 830.9666486114216 1401.6177224256844 831.0284826729685 1402.421225685489 C831.0902790078147 1403.2866007335406 830.7812218801823 1404.2137721164388 830.4721647525494 1405.0173508296432 C830.410368417703 1405.2646116224298 830.2867380213098 1405.4500006269698 830.2249039597633 1405.6354650849091 C829.9158468321306 1406.4389683447137 829.6067897044978 1407.2425470579187 829.4213629732585 1408.107922105971 C829.1741399071723 1409.405946951348 829.235936242019 1410.7657681315718 829.7304201008911 1411.9402003072564 C829.9922811266355 1412.594834008267 830.3581546646948 1413.1974803164705 830.8096300853956 1413.7205987407576 C829.7865197040151 1413.5825190182068 828.7840835543165 1412.9682528863564 828.0438856973642 1411.829510169014 C827.1785106493127 1410.46961353539 826.6840267904404 1408.7389388926879 826.6840267904404 1406.8845961268914 C826.7337505812387 1403.9019232129951 828.0228719253803 1401.3589927160522 829.8117965931156 1400.4776970005373 Z M831.1962533085376 1398.3545892228694 C827.7966249045779 1398.3545892228694 825.0151107558837 1402.1250710893078 824.9533144210372 1406.8227243386443 C824.9533144210372 1409.04799602032 825.5096323414563 1411.1495241255025 826.6222304555938 1412.7566815519122 C827.7966249045779 1414.4873561946151 829.4037446042882 1415.414527577514 831.1344569736912 1415.414527577514 C834.5340853776506 1415.414527577514 837.3773958611914 1411.6440457110746 837.3773958611914 1406.946392461738 C837.3773958611914 1404.7211962334625 836.8211156674729 1402.6195926748803 835.7085175533348 1401.0125107018703 C834.5340853776506 1399.281760605767 832.9887997394874 1398.3545892228694 831.2580873700844 1398.3545892228694 Z M849.0665611824146 1414.87450759156 C851.9216423964025 1414.87450759156 854.3141942665453 1416.0520333566562 855.1341463676158 1417.782632545959 C855.071784132267 1417.8503896994293 855.0195326525587 1417.9299930367467 854.980787331504 1418.020386210307 C854.7953606002642 1418.638500465572 854.1154122834525 1419.0094293814516 853.3118712969473 1419.1330220511454 C853.2205349558833 1419.1395110435708 853.1285195342161 1419.1426046329832 853.0360136654472 1419.1426046329832 C852.2522037431208 1419.1426046329832 851.4345529707596 1418.9214507167014 850.7157838794927 1418.7003722538193 C850.4685608134067 1418.638500465572 850.2831340821671 1418.5767041307265 850.0976696242274 1418.5149077958797 C849.2941286377225 1418.205850668247 848.4905876512175 1417.9585898754608 847.6252126031657 1417.8349972057679 C847.3779140836796 1417.8102484904696 847.1257110931734 1417.7978741328193 846.8715085875594 1417.7978741328193 C845.8548494719045 1417.7978741328193 844.8066131082236 1417.9957129484087 843.9165270715733 1418.391315126187 C843.2426527534855 1418.6945623419958 842.6422323205909 1419.1079715222452 842.145333952909 1419.601587667014 C842.1447303257064 1419.591778724975 842.1441644252043 1419.5820452363355 842.1436739781022 1419.5722362942965 C842.0200435817092 1417.1615756080819 844.9251881267967 1415.0599720494997 848.5720395968422 1414.87450759156 Z M846.6739338588716 1419.457547125839 C846.9105557222151 1419.457547125839 847.146196691355 1419.473015072901 847.3779895370798 1419.503875513624 C848.0579001271918 1419.6275436367166 848.7378484440036 1419.8747289761034 849.4795553689618 1420.1219897688895 C849.6650198269017 1420.183786103736 849.9122428929878 1420.2456578919828 850.0976696242274 1420.3074542268296 C850.9335046660613 1420.568673898671 851.9017226987229 1420.8298181171128 852.8904640562666 1420.8298181171128 C853.0717031237895 1420.8298181171128 853.2535835452152 1420.8210655226778 853.4355016933405 1420.8019003590016 C854.1030756525031 1420.7438766941702 854.7160968032484 1420.5222700574861 855.2298590058973 1420.188313307754 C854.5121462622349 1422.0445424085576 852.0103378684561 1423.4989066993583 849.0047271208681 1423.6517752883685 C848.8858125619938 1423.6557743185842 848.7674639036218 1423.657811560392 848.6497943258522 1423.657811560392 C846.1305561966044 1423.657811560392 843.9208656420906 1422.7442217895482 842.8412783905848 1421.3590482668237 C843.2701555178953 1420.7189016186699 843.867520088078 1420.1871815067493 844.5964753883853 1419.8747289761034 C845.2454878110741 1419.596607742594 845.9640682688402 1419.457547125839 846.6739338588716 1419.457547125839 Z M849.0581858549813 1413.189331349238 C848.8566498227774 1413.189331349238 848.6533406356664 1413.1946885406596 848.4484092004489 1413.2056292837033 C843.8743863475054 1413.3910937416426 840.2274971507593 1416.3579968948761 840.4129238819992 1419.69582896399 C840.5983883399388 1422.9099929100096 844.1216094135914 1425.3824499310717 848.5102432619957 1425.3824499310717 L849.0665234557146 1425.3824499310717 C853.6405840353584 1425.1970609265315 857.2874732321046 1422.2300823198977 857.1020087741649 1418.892250250785 C856.9247687368578 1415.7020050326603 853.4159215359623 1413.189331349238 849.0581858549813 1413.189331349238 Z "></path>
    </defs>
    <g style="mix-blend-mode:normal">
      <use xmlns:xlink="http://www.w3.org/1999/xlink" xlink:href="#s-Union_1-b2a25" fill="#F6656E" fill-opacity="1.0" stroke-width="1.0" stroke="#F6656E" stroke-linecap="butt"></use>
    </g>
    <g style="mix-blend-mode:normal">
      <use xmlns:xlink="http://www.w3.org/1999/xlink" xlink:href="#s-Union_5-b2a25" fill="#F6656E" fill-opacity="1.0" stroke-width="0.5" stroke="#F6656E" stroke-linecap="butt"></use>
    </g>
  </g>
</svg>
