<?xml version="1.0" encoding="UTF-8"?>
<svg xmlns="http://www.w3.org/2000/svg" width="150.39663696289062" height="67.78657531738281" viewBox="324.18532133048626 754.9999987790891 150.39663696289062 67.78657531738281" preserveAspectRatio="none">
  <g>
    <defs>
      <path id="s-Path_11-b2a25" d="M468.62114319396517 794.2177381649956 C469.65591981451564 794.2177381649956 470.46574499115235 793.3179323893404 470.46574499115235 792.2381654156479 C470.46574499115235 791.1583984419556 469.6109295150063 790.2585926663004 468.62114319396517 790.2585926663004 C467.5863665734147 790.2585926663004 466.77654139677804 791.1134081424464 466.77654139677804 792.2381654156479 C466.77653860788257 793.3629254241124 467.58637204394023 794.2177381649956 468.62114319396517 794.2177381649956 Z M468.62114319396517 790.7085011319188 C469.4309683706018 790.7085011319188 470.1058227023433 791.4283457631694 470.1058227023433 792.2831612393154 C470.1058227023433 793.1379767154614 469.4309683706018 793.8578213467122 468.62114319396517 793.8578213467122 C467.81131801732846 793.8578213467122 467.13646368558705 793.1379767154614 467.13646368558705 792.2831612393154 C467.13646915611264 791.3833554636602 467.81132348785405 790.7085011319188 468.62114319396517 790.7085011319188 Z M468.30621941045376 792.5980918878001 L468.30621941045376 792.5980918878001 L468.4411902821653 792.5980918878001 L468.57616115387685 792.5980918878001 C468.6661417327832 792.5980918878001 468.7111320255884 792.5980918878001 468.7561223116895 792.6430821772533 C468.84610289059583 792.6880724667064 468.89109318340104 792.7330627561596 468.89109318340104 792.7780530489648 C468.89109318340104 792.823043338418 468.9360834728542 792.9130239206763 468.9360834728542 793.047994792388 C468.9360834728542 793.1829656640995 468.9360834728542 793.2729462363018 468.9810737623074 793.317936535811 L469.4759669496443 793.317936535811 L469.4759669496443 793.2729462463578 C469.4759669496443 793.2729462463578 469.4759669496443 793.2279559569047 469.4759669496443 793.2279559569047 C469.4759669496443 793.2279559569047 469.4759669496443 793.1829656674515 469.4759669496443 793.1829656674515 L469.4759669496443 793.0030045096388 C469.4759669496443 792.7780530657251 469.43097666019116 792.6430821940135 469.2960057918316 792.5531016218113 C469.25101550237844 792.508111332358 469.116044634019 792.4631210429048 468.9810737757156 792.4181307500996 C469.1160446474271 792.4181307500996 469.25101551913866 792.3731404606465 469.3409960913409 792.2831598783881 C469.4309766702472 792.1931792994818 469.4759669630525 792.1031987205754 469.4759669630525 791.9232375627628 C469.4759669630525 791.698286118849 469.3859863841461 791.5183249744443 469.2060252196294 791.4283443754258 C469.11604464072303 791.3833540859727 468.9810737757156 791.3383637965195 468.80111263131107 791.3383637965195 C468.75612234185786 791.3383637965195 468.62115147349834 791.3383637965195 468.39620004299275 791.3383637965195 L467.766330453082 791.3383637965195 L467.766330453082 793.3629267917438 L468.30621393992817 793.3629267917438 L468.30621393992817 792.5980918878001 Z M468.30621941045376 791.6083069075739 L468.4411902821653 791.6083069075739 C468.57616115387685 791.6083069075739 468.6661417260791 791.6083069075739 468.75612229828135 791.6532971970272 C468.8461028771877 791.6982874864804 468.936083456094 791.7882680687387 468.936083456094 791.878248640941 C468.936083456094 792.0132195126525 468.89109316664087 792.0582097987536 468.8461028771877 792.1032000848547 L468.8461028771877 792.1032000848547 C468.75612229828135 792.148190374308 468.666141719375 792.1931806637612 468.53117086107164 792.1931806637612 L468.3062194171578 792.1931806637612 L468.3062194171578 791.6083069075739 Z M446.57590169041157 803.0358375124064 C446.57590169041157 801.9110802928374 447.88062010801775 801.1912357152191 449.72522190520493 801.1462454693425 C451.52483345651547 801.1462454693425 452.96452261175165 801.7311192020654 452.96452261175165 803.0358375124064 C452.96452261175165 804.0256238870802 452.0647168360964 804.9704200158774 449.72522190520493 804.9704200158774 L449.72522190520493 804.9704200158774 C447.34074209169717 804.9704213030598 446.57590169041157 803.9806363228337 446.57590169041157 803.0358375124064 Z M356.8202790012872 761.6897614345503 C360.59946308741485 758.720402417794 364.33365757125716 758.8553731554241 366.04328820175346 761.3298391189248 C367.7529191540454 763.8043050019769 366.85311337839016 767.6284795485117 363.0739291849972 770.5978387797983 C359.2947450988695 773.5671977965545 354.34581333276566 774.377022865926 352.6361818441477 771.9025571974045 C350.88155882247054 769.4280931646774 353.0410940570378 764.6591198077152 356.8202790012872 761.6897614345503 Z M368.74270209623256 796.7821901175917 C368.74270209623256 795.6574328980226 369.59751757237854 794.7576271223674 370.6772845997035 794.7576271223674 C371.75705157339587 794.7576271223674 372.61186710317446 795.6574328980226 372.61186710317446 796.7821901175917 C372.61186710317446 797.9069473371608 371.75705162702855 798.806753112816 370.6772845997035 798.806753112816 C369.597521702089 798.8517392826149 368.74270209623256 797.9069473371608 368.74270209623256 796.7821901175917 Z M427.2750705485958 794.7576271223674 C427.2750705485958 793.677860148675 428.0848957252325 792.8230446188965 429.119672345783 792.8230446188965 C430.1094587204568 792.8230446188965 430.9642741429701 793.6778600950423 430.9642741429701 794.7576271223674 C430.9642741429701 795.8373940960597 430.15444896633346 796.6922096258384 429.119672345783 796.6922096258384 C428.129883289479 796.6922040480475 427.2750705485958 795.8373913071644 427.2750705485958 794.7576271223674 Z M335.67484327338883 764.884071251629 C334.41511520892453 762.0046927266262 335.0449792411567 759.5302270581046 336.7096198939393 758.7204017742027 C338.41925084623125 757.9105765975661 340.5787849008812 759.0353337903189 341.8385126435499 761.9147122348728 C343.0982407080142 764.7940907598758 342.8732892641004 768.2133526644596 341.16365831180843 769.0231779483614 C339.4990178199236 769.7880134154475 336.9345710160575 767.7634504202232 335.67484327338883 764.884071251629 Z M445.99103342821434 809.1995057026502 L445.99103342821434 809.1995057026502 C446.12600429992585 808.569641670418 446.08101400712064 807.7148261942721 445.27118879696354 807.4448843972164 C444.55134416571286 807.2199329533025 443.8314995344621 807.4898746866695 443.5165674915297 808.4346707718902 C443.2016354754137 809.2444959485268 442.52678111685594 811.1790783447326 440.1422958328226 811.1790783447326 C440.1422958328226 811.1790783447326 438.52264547954917 811.2240686341858 437.2629173078197 809.4694473924407 C437.2629173078197 809.4694473924407 437.2629173078197 809.4694473924407 437.2629173078197 809.4244571029875 C438.92755801423493 807.8947872414675 440.3672472767364 805.8702242462432 440.8621404104407 804.9704186851184 C443.0216743578254 801.0112731864231 444.1014411169874 796.8721667042211 443.5615577374064 793.9028074729345 C443.0666645500695 791.0684191938083 441.08709185435447 790.4835455683506 439.5574222073649 790.7984775040177 C435.0134028686816 791.698283279673 430.6493453716266 801.0112734009535 433.52872368209904 808.8845739379369 C432.31398586351145 809.8293699594689 431.0992480449238 810.2342826014199 430.4243937131823 810.1443020024012 C428.2648597657976 809.6943991145736 427.90493758425373 806.7700303436941 428.66977240774855 803.0808267493197 L428.7147626972017 803.0358364598666 C429.2096558845386 800.8763025124817 430.46938400263554 798.4018366294298 428.39983068108563 798.0419142333556 C427.8149569483628 797.9519336544492 426.5102386380218 797.8169627894417 425.70041335411986 800.3814091642471 C425.11553962139703 802.1810207155576 425.29550076580153 801.7311178277299 424.71062697944603 803.5307293790404 C424.5306658216334 804.0256225663774 424.35070466382075 804.5655059995909 424.08076294721394 805.1503797323138 C423.0459863266634 807.2199329734148 420.48153984459293 810.6391948779986 416.25245287063757 807.4898746632052 C417.2872294911881 806.4550980426548 418.2320256199852 805.4653116679809 418.63693826193617 804.9704185342766 C421.6062972786924 801.2362244794951 423.4508990758796 797.007137076479 423.4508990758796 793.722846338586 C423.4508990758796 790.5735261237926 421.51631657240864 789.538749395977 419.8966662191353 789.538749395977 C415.08270540519186 789.538749395977 410.6286665582619 797.1870984890465 410.4037151143481 807.9397781946242 C409.1889772957604 808.6596228258749 407.7042977873823 809.8743606980951 408.2891716273704 811.1790789011709 C408.7840648147073 812.2588458748633 409.81884148889037 812.0788846768262 410.49369582063184 811.808942933403 C410.76363756405493 817.2077775873345 413.01315194956044 822.7865732247728 416.7473457898115 822.7865732247728 C419.4017728709006 822.7865732247728 420.88645227201346 820.0421656519303 420.88645227201346 817.3427481104342 C420.88645227201346 815.6331171581422 420.5265299563881 813.7435250078131 419.7616950524444 812.1688649004165 C421.8762385394221 811.9439134565026 424.08076294721394 810.9991174349707 425.74540354636395 808.9295641938697 C426.0153452897871 810.5042243012664 426.87016076593306 812.9336997239113 429.74953907640554 813.3836026117389 C431.09924773988837 813.6085540556527 432.94384953707555 812.9786900234205 434.8784318260161 811.673971659447 C436.22814048949897 813.4735832107574 438.1177325325628 814.4183792322893 440.0073245756267 814.4183792322893 L440.09730515453305 814.4183792322893 C444.1014358073596 814.238416673325 445.6760959147563 810.5042281963342 445.99103342821434 809.1995057026502 Z M419.8066798646679 792.553098853028 C420.3465633515141 792.553098853028 420.48153419640937 793.047992040365 420.48153419640937 793.5878754735786 C420.48153419640937 796.5122442444581 417.5121751796531 801.9560693587966 413.6880004185879 805.7802439053315 C414.67778968942235 796.5572386736778 418.591943440528 792.553098853028 419.8066798646679 792.553098853028 Z M416.8823110937883 819.4122998833426 C414.9927190507245 819.6372513272564 413.32807823704405 815.0482419572268 413.37306848292076 810.0993097620621 C413.37306848292076 810.054319472609 413.4180587723739 809.9643388903505 413.4180587723739 809.9193486042494 C413.46304906182706 809.8743583147963 413.5080393512802 809.8293680253431 413.5530296440855 809.8293680253431 C414.18289367631763 810.6391932019798 415.30765094951926 811.4040281327398 416.6573596130021 811.8089407746907 L416.6573596130021 811.8089407746907 C417.91708910878657 814.8232918004956 418.8618879192138 819.0523830650591 416.8823110937883 819.4122998833426 Z M440.00731678213896 793.5428838332542 C440.50220996947587 793.497893543801 440.6821711138804 793.8578158493702 440.77215171289896 794.3976993094001 C441.17706430121734 796.8271749465754 439.4224430494161 802.7209027342112 436.04817139070894 806.6800478038457 C434.7884542672957 800.9212953126112 438.43265667474225 793.7678352771679 440.00731678213896 793.5428838332542 Z M405.31980824961306 804.9704213030598 C402.9803133187216 804.9704213030598 402.1704880348197 803.980634928386 402.1704880348197 803.0358387995889 C402.1704880348197 801.8660913341431 403.47520645242594 801.146246756525 405.31980824961306 801.146246756525 C407.11941980092354 801.146246756525 408.55910895615983 801.7311204892478 408.55910895615983 803.0358387995889 C408.55910766897733 804.0256224926325 407.6593018933221 804.9704213030598 405.31980824961306 804.9704213030598 Z M354.7057333690053 782.3852977071076 C354.7507236584585 781.575472530471 354.7507236584585 780.810637599711 354.7057333690053 780.0458027762162 C357.2701797438106 780.3157445196392 360.8694028464316 782.925181301219 360.8694028464316 784.3198802105786 C360.8694028464316 785.5796082750429 358.57489816141685 784.6348122266947 353.89590808510343 788.0990642967063 C354.34581311823524 786.2544584234413 354.61575416443446 784.3198746327878 354.7057333690053 782.3852977071076 Z M344.40295998374205 782.9251797995062 C343.81808625101917 781.4854905370047 345.3027657593973 778.8760538090576 346.6974646687569 778.8310633486504 C347.8222218883259 778.8310633486504 347.8672121342026 779.9108303223428 347.8222218883259 780.3607332101705 C347.77723164244924 782.3852977071076 345.48272416853905 784.8147705553876 344.40295998374205 782.9251797995062 Z M472.6252761496417 813.2936247278709 C471.05061604224505 813.1586538561594 469.4309656889717 812.0788869092833 467.90129582745163 810.5492171550284 C469.3409850899531 810.0093336681823 470.7356841065779 809.3344793364408 471.9954122783074 808.4796639139274 C474.06496551940836 806.9050038065308 472.35533459393275 804.475528383886 470.375761925034 805.735256341085 C468.8910824166559 806.680052362617 467.316422201994 807.3998970475003 465.74176209459733 807.9397805343465 C464.2570825862192 805.9152175391222 462.95236427587827 803.5307321478236 461.9175875480625 801.2362276773392 C463.71719909937303 798.3118589064596 464.8419563189421 795.5674511190867 464.8419563189421 793.5428881238624 C464.8419563189421 791.1584027325639 463.4922476554592 788.8638982620795 460.88281082024685 788.8638982620795 C458.1833934932811 788.8638982620795 456.87867529020525 791.6532960807986 456.87867529020525 794.0827719325043 C456.87867529020525 795.9273737296915 457.4185587770515 798.3118589064596 458.3183645527067 800.8313152499187 C456.3837820492358 803.6657035290449 453.9093161661839 806.8150237438382 451.4348502831319 809.5144406417431 C450.17512221866764 809.4244600628368 449.3652970420309 809.2894891978293 449.1853358439938 809.2894891978293 C446.71086996094186 808.9745571817133 446.0810058750771 811.7639550808813 448.6004621112709 812.4837996584994 C447.1157826028928 813.9684791668775 445.72108358626804 815.1382267395885 444.5963265812294 815.9030615630833 C442.84170527579556 817.072809028529 442.48178309425174 818.197566248098 443.1566373187279 819.2323429759138 C444.23640429242033 820.7620128374338 446.53090897743516 818.9624012324907 446.53090897743516 818.9624012324907 C448.19554968385034 817.7026731680264 450.58003496788376 815.4531586216231 453.0095103905286 812.7987317550644 C455.97886940728483 812.8437220445176 460.2079565957706 812.6187705972517 464.3920531093188 811.6289842896186 C466.73154804021027 814.4633725687448 469.3859753358298 816.3979550722158 471.9054316792888 816.5329255953154 C475.4146795461516 816.8028686259211 475.27971417178196 813.5185761717847 472.6252761496417 813.2936247278709 Z M461.0177871356676 792.0582097954016 C461.82761231230427 792.0582097954016 461.9175929113229 793.0479961700754 461.82761231230427 793.5878796569217 C461.78262202285117 794.5326756784535 461.2877288254581 795.8373940960597 460.47790364882144 797.3220737117031 C459.62308543741267 794.3077242345397 459.62308543741267 792.0582097954016 461.0177871356676 792.0582097954016 Z M455.84390392564995 809.604422420679 C457.28359318815137 807.8947914683871 458.6333017443691 806.1401702702185 459.89302991609856 804.3855487502542 C460.6578648468586 805.9152186117742 461.5126802693719 807.4448884732942 462.45747629090386 808.8845776285305 C460.0729883252403 809.3344779419931 457.8234738861022 809.5594293859069 455.84390392564995 809.604422420679 Z M402.4854186833044 809.5594293859069 L402.4854186833044 809.5594293859069 C400.95574882178437 809.6944002576186 400.59582664024055 813.203642948935 397.53648691720053 813.3836039324417 C395.4219434302229 813.5185748041533 394.4771471941605 810.8641478035131 394.4771471941605 810.8641478035131 C394.4771471941605 810.8641478035131 400.415865227673 808.1197402306707 400.3708751963267 802.1810224116887 C400.28089461742036 800.4713914593967 399.42607917479484 797.7719740251657 396.276758745471 797.7719740251657 C394.92705008198817 797.7719740251657 393.3973802204681 798.671779800821 392.5425646906896 799.6165758223528 C392.85749670680565 797.9969254690795 393.1274384234124 795.9273722279786 393.2624093219403 793.1379744092594 C393.3523899008466 791.2933726120723 392.09266185649454 791.1584016599118 391.597768615525 791.1584016599118 C391.2378462998997 791.1584016599118 390.1580793530236 791.4733336760279 390.02310850812836 793.0929841633828 C389.52821532079145 798.5817993090676 389.4832250212821 799.3916245929695 389.03332213345453 802.9008667747763 C388.2234969568178 809.3344781565236 383.76945843168346 811.5839921666009 380.8450892317431 811.404031183094 C379.5853611672788 811.3140506041877 377.6507787710731 810.6391962523342 377.6507787710731 807.2649247008922 C377.6507787710731 803.6207111378641 379.94528345608785 800.9212938108983 381.1600213819407 801.1012552234658 C382.01483685808665 801.2362260951774 382.46473979954686 802.1360318440163 381.6999048687869 803.3957599084806 C381.07004083655477 804.475526882173 380.4401768043226 805.960206283286 382.01483688490293 806.5900703691507 C383.9044289279668 807.2199344013828 385.29912805185677 804.475526882173 385.3441182977335 801.9110805073677 C385.3441182977335 799.9315077580201 384.1293804791458 797.5920126125982 381.070040863371 797.4570420894986 C377.875730402701 797.2770809316859 374.09654610204285 801.6861290634539 374.09654610204285 807.6248475260272 C374.09654610204285 808.1197407133642 374.141536391496 808.5696435475592 374.1865266809492 809.0195464353868 C373.9615752370354 810.3692550988696 372.8368180174663 811.7189637623526 371.71206079789727 811.7189637623526 C370.4973229793096 811.7189637623526 369.46254635875914 809.8743619651653 369.59751731091956 807.5798572801506 C369.73248818263113 805.1953718888519 370.45233278706553 803.575721750109 370.7672647763653 802.6309255140467 C371.3971288085975 800.651352764699 370.6322939046538 800.2464401227481 369.7774784016915 800.0664791392413 C369.1026240699501 799.9315082675298 367.977866850381 800.1114694286946 367.39299301039296 802.0910421344657 C366.8531095235468 803.8906536857762 366.1782551918053 806.320129108421 365.5933814590825 808.1647311201386 C365.2334591434571 809.2894883397078 364.7385659829365 810.5492165114372 364.10870195070436 811.4490222870925 C363.5688184638581 812.0788863193246 362.98394473113524 812.483798907643 362.3990709984124 812.483798907643 C360.41949824906476 812.483798907643 362.08413898229634 808.4796633776015 362.08413898229634 805.6902651298215 C362.08413898229634 804.9254301990615 361.45427495006413 803.4857409365601 359.51969260749104 803.890653578511 C361.67922655487575 800.6063624115571 362.8039837744449 797.8169645928381 362.71400306816105 794.9375862823656 C362.57903219644953 791.7882660675722 360.3745081372696 790.888460291917 358.7098675381195 790.888460291917 C354.2558291202504 790.9784408708233 351.9163337602981 796.152323993688 351.06151844504996 808.254711075566 C347.0573829150084 812.2588466056075 342.15344160931164 814.6883224573131 337.474450889407 814.2834096008318 C330.8608785241531 813.6985358681089 327.44161683409965 806.8600119516759 327.8915197219273 798.6717790499646 C328.52138375415944 787.154264949953 337.11452892239356 773.2972554899891 345.302761824105 774.1520716633589 C348.1821403491079 774.467003679475 350.16171309845555 777.1214306801152 349.8467811627884 782.9251779759977 C349.486858847163 789.673721293412 344.8978493966845 799.4816039048056 340.0388985513948 799.1666715400776 C337.7893841122567 799.031700668366 337.1145297805152 796.6022251652723 337.2944909785524 794.4876816782946 C337.65441329417774 789.853681847858 339.90392781376477 788.5939536761284 340.0388985513948 786.7043620621254 C340.12887913030113 785.5796048425564 339.049112176721 785.1297019547287 338.284277245961 785.3996436445192 C336.9345685824781 785.8495465323468 334.2351512555124 789.4037791745607 333.92021931984516 794.3977014010717 C333.51530673152683 800.561370878498 337.33948122442905 802.4509629215618 339.6339859094438 802.5859343027831 C346.33753876645113 802.9908468911015 352.9061211003588 793.0479927375889 353.4460049090006 782.655236715268 C353.805927224626 775.9066933978536 351.01652927182533 771.5426350426769 345.75266535552385 770.9577616317497 C335.53986945858816 769.7880141663039 324.7871914692539 783.9599549183438 324.20231634208335 798.8517406770625 C323.8873843259673 807.7148279105154 327.9365103968648 817.0278180317958 337.3844706121841 817.7476619658228 C341.8834994904603 818.0625939819388 346.6524702730575 816.1730018584261 350.79157632619865 812.7987301997189 C350.79157632619865 813.5635651304789 350.79157632619865 814.2384194622203 350.79157632619865 814.7333127031898 C350.8365666156518 815.9930407676541 351.24147921402624 817.0728076340813 352.5461976316324 817.0278173882047 C353.7609354502201 816.9828270987515 354.12085773902913 816.0380310135308 354.07586749315243 814.913273901227 C354.07586749315243 814.2384195694856 354.07586749315243 813.6085554836208 354.07586749315243 812.978691397756 C354.3458092365755 807.5798567438245 356.9102557722787 806.7700314599226 357.9450325000943 806.9949829038364 C359.38472176259575 807.3099149199526 358.2149742435174 808.6596236102517 358.394935387922 812.5737785412747 C358.48491596682834 815.3631763599938 360.6444498270601 816.0830211521422 361.6342360944687 816.0830211521422 C363.97373102536017 816.0830211521422 365.99829402058447 814.2834096008318 367.2130317319069 811.6289827342731 L367.2580220213601 811.58399244482 C368.29279864191057 814.3284000176624 370.04741984007916 815.2731960391943 371.44211896396916 815.2731960391943 C373.0617693172425 815.2731960391943 374.6364294246392 814.01346797473 375.62621590657824 812.6187689581053 C376.9759245700611 814.373390263539 378.910507073532 815.1382250870339 380.35019622876825 815.2282057933177 C383.3195552455245 815.3631766650292 385.83901137445315 813.9234873757115 387.68361295710986 812.0338953326476 C387.4586615131961 813.5185748410257 387.188719769773 815.5431379435153 387.188719769773 815.9030603395895 C387.188719769773 816.8028661152448 387.5936323580913 817.4327302011095 388.4034575883606 817.5227106928628 C389.7981564977202 817.7026718506755 390.7879429796592 816.7128855162262 391.1928554070797 811.9439150554247 C391.1928554070797 811.9439150554247 393.12743791055067 816.6678953776147 397.4465053762594 816.6678953776147 C401.76557327102887 816.6678953776147 403.65516531409276 812.3038374514989 403.65516531409276 810.9541287880161 C403.6551689376455 810.3692559569913 403.5201966983026 809.424457146564 402.4854186833044 809.5594293859069 Z M357.36016109368563 801.6411358141514 C356.59532616292563 802.8108832795972 355.6055397882518 804.1156016972034 354.39080207692945 805.5552908524396 C354.4357923663826 804.9704171197168 354.52577294864096 804.3855433869938 354.5707632347421 803.8456599001477 C355.515559256274 796.1073298862639 356.95524862604066 793.4978934801122 358.7998502086974 793.8128258448403 C359.3847239414203 793.9477967165518 359.6546656848434 794.5776607756003 359.6546656848434 795.1175442624465 C359.8346269767376 796.8721693221626 359.1147830427107 798.9417184871857 357.36016109368563 801.6411358141514 Z M392.0926660934702 808.2097207224241 C392.63254958031644 802.3159927202578 394.3421805326083 801.1012550089354 395.6918891960912 801.0112745171821 C396.90662701467886 801.0112745171821 397.2215590576112 802.2260123357697 397.17656870446933 802.945857020653 C396.9066256202311 805.7802478741442 393.0374580389243 808.0747484830811 392.0926660934702 808.2097207224241 Z M344.35796694897 760.3400527710673 C345.12280187973 756.5158782245326 347.46229691788665 754.5812957210616 349.7118111424944 755.0761890692963 C351.96132558163254 755.6160725561425 353.31103424511537 758.4054704821268 352.5461994216206 762.2296448141312 C351.7813644908606 766.053819360666 349.1719277629134 769.2481300358666 346.9224133237753 768.7082462272248 C344.67290102994133 768.1683637057654 343.54814381037227 764.1642273176022 344.35796694897 760.3400527710673 Z M330.4559687448424 766.4587313590258 C331.3557745204976 765.3789643853333 333.0204151196477 765.3789643853333 334.5950752270444 766.8186536746512 C336.16973533444104 768.2583429371526 336.97956061834293 770.4628672376792 336.0797547354225 771.5876244572482 C335.22493925927654 772.6673914309407 333.0204150123825 772.2174884894805 331.4007648736395 770.7777992806116 C329.87109533391515 769.2931209253345 329.6011542877159 767.5384989763094 330.4559687448424 766.4587313590258 Z "></path>
    </defs>
    <g style="mix-blend-mode:normal">
      <use xmlns:xlink="http://www.w3.org/1999/xlink" xlink:href="#s-Path_11-b2a25" fill="#E51636" fill-opacity="1.0"></use>
    </g>
  </g>
</svg>
