<?xml version="1.0" encoding="UTF-8"?>
<svg xmlns="http://www.w3.org/2000/svg" width="115.68316650390625" height="49.10344758672818" viewBox="161.0 769.5162961574437 115.68316650390625 49.10344758672818" preserveAspectRatio="none">
  <g>
    <defs>
      <path id="s-Path_8-b2a25" d="M214.96785759740158 782.11981103505 C214.96785759740158 782.11981103505 219.30610146574153 783.7835844903522 224.41640616974854 786.5763706800257 C232.67644975898844 791.2120751545605 239.5113568118499 791.1525832245667 243.37433204862373 785.6853261437423 C245.92915004020932 782.1198108756789 247.9505445931647 777.9593750327103 251.39707536375641 776.592393622138 C251.39707536375641 776.592393622138 250.8616464797883 776.1766173986787 250.56552291683775 775.8196647828048 C249.85161776477543 775.1070965146156 248.84225737217085 774.3343677549678 247.7713997636057 774.2742071041382 C244.44318445090755 773.9774150594084 241.7693822805925 778.3751513358552 240.8195143757802 777.8403907742954 C239.51135665247887 777.1271540243268 243.5521400739952 773.6799546125848 239.2138962056552 770.4118999507161 C234.22257599911973 766.6084163251938 223.7639982336468 776.2354410062642 217.52334367233885 774.8684595956918 C217.52334367233885 774.8684595956918 220.37629067221292 778.3156590871195 227.15036867215105 778.8504193299373 C230.53807591484286 779.0883877272389 230.47858398484914 779.8611165267295 230.47858398484914 780.1579085714593 C230.53874453607185 783.546284216245 214.9678572786595 782.1198108756789 214.9678572786595 782.1198108756789 Z "></path>
      <path id="s-Union_7-b2a25" d="M221.14115738650347 791.9404758499736 C221.15120665648192 791.9404758499736 221.16123590799432 791.9404758499736 221.17128517797278 791.9405559238379 C221.18129441101908 791.9404758499736 221.1913236625315 791.9404758499736 221.2013328955778 791.9404758499736 Z M267.1261764017692 793.8890733394261 C267.71513969267926 793.8890733394261 268.2499129958766 794.0599509659926 268.7428677234066 794.3769633950347 C269.21812612691076 794.6737972102557 269.57575602365483 795.1496761862086 269.63459029550097 795.743263742786 C269.8137155300974 796.6944611776414 269.51560053304655 798.4177308127556 267.1980827319738 801.3890316979464 C264.6416045011538 804.5842191079164 260.7831652726041 805.0551335042785 258.618228220089 805.0551335042785 C258.1661912372523 805.0551335042785 257.7880023758311 805.0346345949996 257.51088674971146 805.0140556118564 C260.00823043169396 798.2399668338536 263.4547496834565 794.911056070385 265.8317623657564 794.138983870126 C266.2914864395727 793.9697077208472 266.72162322050417 793.8890733394261 267.1261764017692 793.8890733394261 Z M274.7820786111506 812.0197180056183 C275.1383672706665 812.0197180056183 275.4946559301824 812.0197180056183 275.4946559301824 812.4354615094292 C275.4946559301824 812.6728004434228 275.25735703312085 812.9107799683317 274.95922201760396 812.9107799683317 L274.5427778674798 812.9107799683317 L274.5427778674798 812.0197180056183 Z M274.3054789704183 811.7803772250154 L274.3054789704183 814.0992362633165 L274.543458495327 814.0992362633165 L274.543458495327 813.0885439472339 L274.90106837360497 813.0885439472339 L275.6136456926367 814.0992362633165 L275.90975884307824 814.0992362633165 L275.19720154251263 813.0885439472339 C275.3763467955752 813.0290490660068 275.73261543662494 812.8512850871045 275.73261543662494 812.4348209185143 C275.73261543662494 812.1380671771578 275.6136456926367 812.0190774147036 275.4351610489552 811.9000876522491 C275.3161712865009 811.7803772250154 275.0788723894393 811.7803772250154 274.7820786111506 811.7803772250154 Z M274.95990264545105 811.2463646235295 C275.7914497084711 811.2463646235295 276.5046876368839 812.0190774147036 276.5046876368839 812.9695541847794 C276.5046876368839 813.9208316934992 275.7921103178521 814.6928238198939 274.95990264545105 814.6928238198939 C274.06818007335676 814.6928238198939 273.4150976355522 813.9208316934992 273.4150976355522 812.9695541847794 C273.4157782633993 812.0197180056183 274.06818007335676 811.2463646235295 274.95990264545105 811.2463646235295 Z M274.95990264545105 811.0685205707629 C273.9491903109024 811.0685205707629 273.17647751972856 811.900728243164 273.17647751972856 812.9702748495588 C273.17647751972856 814.0404620468685 273.9491903109024 814.8726697192697 274.95990264545105 814.8726697192697 C275.9104394709254 814.8726697192697 276.68315226209927 814.0404620468685 276.68315226209927 812.9702748495588 C276.6838328899465 811.900728243164 275.9104394709254 811.0685205707629 274.95990264545105 811.0685205707629 Z M222.26337257718782 793.7295662016004 C222.71893281005686 793.7295662016004 223.1411422784156 793.8233326967783 223.5181700688034 794.0199941076718 C224.23074738783512 794.3769633950347 224.70734702856745 795.0306864237543 225.06363568808334 796.0407381489218 C225.9553382417116 798.8930492716581 225.12244994146337 803.4685499556442 222.98407739345316 807.7480175630532 C220.32478432078162 812.9147035876857 216.34325154422862 816.5402880186465 213.54284830407045 816.5402880186465 C213.0897303240647 816.5402880186465 212.66754087417206 816.4453204155033 212.28686972295543 816.2466571580004 C211.5141369133154 815.8896878706373 210.97938362858415 815.1764699606906 210.68258985029541 814.1664182355231 C209.73137239697394 811.3141871866512 210.56360008784108 806.7379658378857 212.70265326369844 802.5187137764832 C215.26415612950768 797.395107490882 219.41542548005972 793.7295662016004 222.26337257718782 793.7295662016004 Z M267.1392484601277 792.2372295913302 C263.33644054884934 792.3562193537845 255.96744299550681 794.911056070385 252.28294421883567 804.1824885303703 C250.3203738400505 809.1149585017195 251.21207639367876 812.3241588379544 252.34175847221564 814.2259131167502 C253.9460383448756 816.8402447145779 256.61984480546425 818.0287810834269 258.5824151842494 818.2667606083356 C258.9009690351807 818.3023934779806 259.2165801715965 818.3195292849558 259.528908279573 818.3195292849558 C266.4987976744275 818.3195292849558 271.84146603448 809.8148040763166 272.012924196563 809.5307820793948 C272.19072821239735 809.2339482641739 272.1319139590173 808.6992149979087 271.6566355370471 808.4023811826878 C271.48263502977034 808.3057320283928 271.315000394711 808.265534948479 271.16181909217056 808.265534948479 C270.843665610561 808.265534948479 270.5879497246943 808.4388948648407 270.4674785957491 808.6397201166815 C270.4674785957491 808.6987345547225 265.4911681836571 816.4853573476885 259.66533412599404 816.4853573476885 C259.62147366678516 816.4853573476885 259.5775731706441 816.4848769045024 259.53363263757086 816.4839960919941 C257.2161148364981 816.424501210767 256.0870933673423 814.9384904357821 255.9079481142797 811.7299306904622 L255.9079481142797 811.3141871866512 C255.9079481142797 809.4117923169405 256.50219628023814 807.4511837478324 256.799670686374 806.7373252469706 C257.11063753865625 806.7561426050978 257.6247718033122 806.7809655030526 258.28359954088535 806.7809655030526 C261.77992473628626 806.7809655030526 269.3508285386385 806.0819206670994 272.2509037214717 800.0815055666429 C273.14260627509987 798.1797512878471 273.14260627509987 796.2787176738306 272.1319139590173 794.7332920914828 C271.12122164293476 793.1289321449585 269.2188067547579 792.2372295913302 267.1392484601277 792.2372295913302 Z M221.17128517797278 791.9405559238379 C214.82138769647182 791.9590529865076 208.18358463562726 797.8347930801395 206.28485314521143 805.0146962027715 C205.27482143850992 808.8776996415903 205.8095747232412 812.6216332440903 207.7708238832642 815.1176156703785 C209.37510375592416 817.197214001941 211.75277704760518 818.3268960804778 214.48607838942095 818.3268960804778 C220.78488874545366 818.3268960804778 227.50080386099154 812.4431486004089 229.4018775119402 805.2519550629006 C230.41256982802275 801.3301774076341 229.8784771526725 797.6456586124968 227.91724801111562 795.0901813049815 C226.31805282884315 793.0768040592534 223.9523705983516 791.9486433841396 221.17128517797278 791.9405559238379 Z M183.26417765578626 778.1511158144845 C179.11024584924388 778.1511158144845 174.79528550145272 779.1000711811373 171.34093902944798 780.827504657199 C168.54748219702392 782.2539404770923 166.46792390239375 783.739230587298 164.92245828311383 785.343510459958 C162.42647585682562 788.0179775299276 161.0 791.0487732963455 161.0 793.7827352475423 C161.0 794.2579736325803 161.05949488122718 794.793427563625 161.11898976245433 795.2091710674357 C161.71389853779385 798.0621227810869 162.6644353632682 799.4879180100653 163.9124465948784 800.6176000886024 C166.4084290211666 802.9351779450734 169.3201949881978 803.1129419239757 169.43918475065215 803.1129419239757 C169.7961340195491 803.1129419239757 170.15242267906495 802.8756830638462 170.15242267906495 802.4592188952561 C170.15242267906495 802.0427547266659 169.91512378200343 801.8642700829843 169.61766939433366 801.8047752017571 C169.49867963187933 801.74528032053 167.775409996765 801.4485265791735 166.17113012410505 799.1309487227023 C165.45789219569224 798.2392461690742 164.8041491485066 796.9912949928622 164.50669476083687 794.2573330416654 C163.9124465948784 789.8001014553543 167.24065671203374 784.6296519590963 172.29147585492234 781.9558254800417 C175.01476796369187 780.4622877618058 178.452338961111 779.7155189026879 181.9561310443644 779.7155189026879 C183.19283184263227 779.7155189026879 184.43778024893032 779.8084846592219 185.66248998600872 779.9945763200185 C190.41649533214252 780.8267839924197 192.7941886422896 781.9558254800417 195.70595460932086 784.8675514101408 C198.49873081389774 787.7205031237918 200.3409902114664 792.5935582877781 200.3409902114664 797.2285538529917 C200.3409902114664 797.4658927869854 200.3409902114664 797.7045129028089 200.28215593962028 797.8829975464905 C200.22268107685923 800.3783393818638 199.62775228305358 805.0741910839986 196.53750167234085 809.1149585017195 C192.9124977768968 813.9879335918417 186.85098631792565 816.425141801682 178.64976107371606 816.425141801682 C175.2025611941064 816.425141801682 171.93384595817824 816.4846366829091 169.79481280078699 816.5441315641363 C176.15377864742788 813.2754363466742 180.19456608361497 803.9451495963766 183.28547730370877 796.9324407025501 C184.11702436672877 794.9116966612999 184.88975717636876 793.1296528097379 185.60299510478154 791.8214860875194 C188.9312052219369 785.5219951036394 192.7340131332153 785.2840155787309 192.85300289566962 785.2840155787309 C193.14979667395835 785.2840155787309 193.38775618040094 784.986541172595 193.38775618040094 784.7492823124657 C193.38775618040094 784.3929536160176 193.0909624021122 784.1550541649732 192.85300289566962 784.1550541649732 C192.7928874419936 784.1550541649732 192.6097785326447 784.141601755759 192.3229539504701 784.141601755759 C190.90652736362296 784.141601755759 186.96088769677397 784.4703049689994 182.8095382723575 788.3743062263757 C180.96727887478886 790.0975758614901 179.36233839274783 792.7125480502326 177.9953574171494 796.0407381489218 C175.61834473484944 801.8642700829843 173.65711559329256 806.3809965505227 172.05215509278543 809.4712871981677 C170.80416387964132 811.967269624456 169.25937888820854 814.5822418131985 167.3576246094127 815.5327185832743 C165.58855272387856 816.466219694104 163.61659368449602 816.5470142232537 162.98653248269795 816.5470142232537 C162.8545307172834 816.5470142232537 162.78142327911328 816.5434909732214 162.78142327911328 816.5434909732214 C162.7219283978861 816.5434909732214 162.3649791289892 816.5434909732214 162.12768023192766 816.7807498333506 C162.00869046947332 816.899739595805 161.8903813348661 817.0775836485717 161.8903813348661 817.374977980843 C161.8903813348661 817.7313066772913 162.00935107885437 817.9699267931148 162.12768023192766 818.0882759646543 C162.3649791289892 818.2667606083356 162.60293863543177 818.2667606083356 162.7219283978861 818.2667606083356 C162.78142327911328 818.2667606083356 167.3576246094127 818.3856702969256 179.0053891238509 818.3856702969256 C188.8703691034815 818.3856702969256 196.17989179406285 816.0681725143189 200.69659824313516 811.5514460467806 C204.9158703230037 807.4505431569175 205.80757287663195 802.2800936606596 205.80757287663195 798.7145646279768 C205.80757287663195 793.5447557226336 203.72735397262068 788.3148113451485 200.16184495840383 784.7486417215506 C196.06156264098956 780.6482993487381 192.25741349248298 778.9838840039359 185.78013851123487 778.2713066849043 C184.95399643405986 778.1907523773477 184.1124401379936 778.1511158144845 183.26417765578626 778.1511158144845 Z M248.92810954177713 792.1827793635583 C247.67325199476332 792.1827793635583 247.11493697544105 792.762594215464 246.90970766105983 793.120604463064 C246.73056240799727 793.4180788691998 246.61225327339008 793.7750481565629 246.61225327339008 794.0718018979194 C246.61225327339008 794.4287711852824 246.7312230173783 794.7256050005033 246.90970766105983 795.0223587418598 C247.20716204872957 795.3793280292227 247.6824404706998 795.43882291045 248.03872913021567 795.43882291045 C248.0975433835957 795.43882291045 248.27602802727722 795.43882291045 248.39499777126545 795.4983177916771 C249.76197874686392 795.9735561767152 250.23725716883413 797.9348053367382 250.2974126594423 799.7770647343067 C250.35624693128844 800.7871164594744 249.88096850931825 804.293791201845 249.34553459673978 805.4816069059149 C246.29900431597326 812.1387878419372 241.6464725744628 816.8142207086574 238.08140396649992 816.8142207086574 C237.89102835395946 816.8142207086574 237.70375560366327 816.8008483733076 237.51998608493335 816.7737834071504 C236.80740876590158 816.6547936446962 236.39096461577745 816.3573192385603 236.15300510933488 815.8820007796578 C235.3214380278488 814.2777209069978 236.39030400639646 810.593282185725 238.9457813139118 805.7202270217387 C239.65969987017175 804.4127809642995 243.0467242407071 797.7569612839716 241.02668084577022 794.2502865416008 C240.37225717073738 793.0023353653888 239.1242659575933 792.348532262805 237.34084083187076 792.23026316513 C237.1431184422743 792.2188126025251 236.95010039220955 792.2132875058834 236.7617266262783 792.2132875058834 C232.08156940156007 792.2132875058834 230.26535402837786 795.6241939064673 230.15098853159088 795.795792197813 C230.03065753190836 796.0925459391694 230.03065753190836 796.5083695168446 230.38828742865246 796.8064845138955 C230.56845362348577 796.9415691230884 230.739971840967 796.9912949928622 230.89327325430406 796.9912949928622 C231.14436487450337 796.9912949928622 231.3465714005046 796.857811860957 231.45779399811502 796.7469896326684 C231.51318509379323 796.6922191094391 233.68196569179807 794.0698801251744 235.9266763316921 794.0698801251744 C236.12075536045973 794.0698801251744 236.31539490627796 794.0894181480808 236.50929376885077 794.1320174439259 C236.7465926659123 794.191512325153 236.86556240990058 794.2510072063801 236.92573791897485 794.4882660665095 C237.75728498199484 796.4495152265325 234.60687888067386 802.9274908540939 233.59750778335342 805.007009111792 C232.64564973911698 807.0270324882626 230.15098853159088 812.9702748495588 232.2893610796011 816.2389700670209 C233.24123914230367 817.7844757232331 234.96448875895186 818.5571885144068 237.40033571309792 818.6166833956341 C237.47592544106354 818.6186852422434 237.55129496590212 818.6197262024803 237.62640425068153 818.6197262024803 C246.29249831449314 818.6197262024803 251.84818317223682 805.1538645790471 252.61426985113403 801.5016956251153 C252.61426985113403 801.3232109814339 253.8021055736699 796.331166054993 252.0200016667095 793.7756887474776 C251.425753500751 792.8839861938495 250.5928652005028 792.4087478088114 249.58283349380136 792.23026316513 C249.3459549845277 792.1975129546025 249.1281740919065 792.1827793635583 248.92810954177713 792.1827793635583 Z "></path>
    </defs>
    <g style="mix-blend-mode:normal">
      <use xmlns:xlink="http://www.w3.org/1999/xlink" xlink:href="#s-Path_8-b2a25" fill="#C8AE65" fill-opacity="1.0"></use>
    </g>
    <g style="mix-blend-mode:normal">
      <use xmlns:xlink="http://www.w3.org/1999/xlink" xlink:href="#s-Union_7-b2a25" fill="#28539C" fill-opacity="1.0"></use>
    </g>
  </g>
</svg>
