<?xml version="1.0" encoding="UTF-8"?>
<svg xmlns="http://www.w3.org/2000/svg" width="62.46999740600586" height="66.64317321777344" viewBox="1172.9999993369483 1387.504693424493 62.46999740600586 66.64317321777344" preserveAspectRatio="none">
  <g>
    <defs>
      <path id="s-Path_17-b2a25" d="M1234.47 1422.9497468610004 L1234.47 1422.8577171493546 C1234.47 1422.8354518958236 1234.47 1422.814670995477 1234.4625782490075 1422.792405741946 C1234.4632994262665 1422.7845056407557 1234.4632994262665 1422.776556240844 1234.4625782490075 1422.768656139654 C1234.4625782490075 1422.7478752370955 1234.4551564980147 1422.7270943345372 1234.4507034478615 1422.7063134341906 L1234.4507034478615 1422.6825638318987 L1234.4328912461426 1422.623189823957 L1234.423985145283 1422.5979558706927 C1234.423985145283 1422.5801436689737 1234.4091416432977 1422.5623314672546 1234.401719891752 1422.544519262218 L1234.389845090606 1422.5178009579806 C1234.38141207263 1422.5009347764671 1234.371994380842 1422.4845791632513 1234.3616408063656 1422.4688188534005 C1234.357093130094 1422.458456699539 1234.3516287816444 1422.448521520338 1234.3453129545132 1422.4391318494297 C1234.3372766457092 1422.4247376806425 1234.3283533330946 1422.4108569726232 1234.318594650276 1422.397570044313 L1234.2978137477178 1422.3663986915813 L1234.2696110947195 1422.3322586369043 C1234.2610147603832 1422.3207037299503 1234.251588977851 1422.3097896658878 1234.2414084417214 1422.2996029331998 L1234.2132057887234 1422.2699159292292 L1234.180550085019 1422.2372602255248 L1234.1523474320209 1422.2135106232329 L1234.112269975665 1422.1808549195287 L1234.0870360224003 1422.1630427178097 L1234.0395368178165 1422.131871365078 L1234.014302864552 1422.1185122129593 C1233.9971214849477 1422.1079618073181 1233.9792715339506 1422.09854100034 1233.9608662560775 1422.0903095599613 L1233.9371166537856 1422.0799191086821 L1233.877742645844 1422.0546851554175 L1233.853993043552 1422.0472634044247 C1233.8332121409935 1422.0472634044247 1233.8124312384352 1422.033904252306 1233.7916503380886 1422.0294512027058 L1233.7679007357967 1422.0294512027058 L1233.7129797785615 1422.0175764015598 C1233.2127537860943 1421.9389058464562 1221.3928733142598 1420.1814352503131 1213.8538597647862 1426.6190619484676 C1210.037595597102 1429.87572631481 1208.0337228589324 1434.6345529011458 1207.8971623482596 1440.7664031175543 L1205.1362709634914 1442.7465262755504 L1205.1362709634914 1423.0625589239692 C1210.8005512140678 1418.9776271705082 1213.8568282499698 1414.1460674595019 1214.2145566198383 1408.6940487632178 C1214.916653495239 1398.1002422788754 1205.2520516708973 1389.1006270006837 1204.83939797317 1388.7221178189432 L1204.8304918723104 1388.7221178189432 L1204.805257919046 1388.701336916385 L1204.7622117651683 1388.667196861708 L1204.7251030107577 1388.6419629084432 L1204.687994256347 1388.6182133061513 C1204.6746283209948 1388.6099145521755 1204.6607461390472 1388.6024776687254 1204.6464324512303 1388.5959480526203 L1204.60932369682 1388.5766515010346 L1204.5722149424093 1388.5603236491825 L1204.5276844353473 1388.5425114474635 L1204.4979974313765 1388.5425114474635 L1204.44159212538 1388.5261835956112 L1204.425264273528 1388.5261835956112 L1204.3554998154132 1388.5128244434927 L1204.3554998154132 1388.5128244434927 C1204.1527894093779 1388.4855414250408 1203.9466828417087 1388.5273904743294 1203.7706658374093 1388.6315724593758 L1203.76175973655 1388.6315724593758 C1203.739494483019 1388.6449316114945 1203.7187135826723 1388.659775112374 1203.6979326779021 1388.6746186132534 C1203.685901499776 1388.6832022124995 1203.6744929647302 1388.6926266542046 1203.663792623225 1388.7028212662515 C1203.6522865768636 1388.7103969723048 1203.6413701757413 1388.7188323733067 1203.6311369195207 1388.7280552195161 L1203.6222308186611 1388.7280552195161 C1203.2110658226236 1389.106564507426 1193.5523997654007 1398.1061796794484 1194.2515279963643 1408.6925650923904 C1194.610740750383 1414.1445832224397 1197.6655334021345 1418.9761429334458 1203.3312977537441 1423.0610752531418 L1203.3312977537441 1442.7391045002273 L1200.5689219848257 1440.7589813422312 C1200.4323617661175 1434.625646458555 1198.4284890191007 1429.868303690135 1194.6122245682989 1426.6116401731445 C1187.0687570170217 1420.1769823848497 1175.2533298391975 1421.9359371174157 1174.7531045545238 1422.0101546262367 L1174.6907637142065 1422.023513800474 L1174.6655297609418 1422.023513800474 L1174.6002183535331 1422.0428103520596 L1174.5794374509749 1422.0428103520596 L1174.515610392327 1422.0695286562968 L1174.4963138407413 1422.0769504072896 L1174.4384241859843 1422.109606110994 L1174.4191276343986 1422.1199965622732 C1174.400644665055 1422.1308330438783 1174.3828027671227 1422.1427276417614 1174.365691025924 1422.155620965711 C1174.3589163316767 1422.159557728466 1174.3524639762975 1422.16402474407 1174.3463944743382 1422.1689801178297 L1174.2988952697544 1422.2060888722401 L1174.2781143671962 1422.223901073959 L1174.2395212640247 1422.2624941771305 L1174.2157716617328 1422.2862437794224 L1174.184600309001 1422.323352533833 L1174.1608507067092 1422.3545238865645 C1174.1519446058498 1422.3649143378439 1174.144522854857 1422.3767891400958 1174.1356167534445 1422.3886639412417 L1174.1118671511526 1422.427257044413 L1174.0970236436376 1422.4688188534005 C1174.088221251098 1422.4836834739663 1174.08029131036 1422.4990477346078 1174.0732740413457 1422.5148337092235 L1174.0599148892272 1422.5430363622215 C1174.0524931382345 1422.5608485639405 1174.0450713872417 1422.5771764168985 1174.0391339866687 1422.5949886175117 L1174.0302278858094 1422.621706921749 L1174.0124156840905 1422.679596576506 L1174.0124156840905 1422.7033461787978 C1174.0124156840905 1422.7241270813563 1174.0035095832309 1422.7449079839146 1174.0005408829445 1422.7656888842612 C1173.9998197056852 1422.7735889854514 1173.9998197056852 1422.7815383853629 1174.0005408829445 1422.789438486553 C1174.0005408829445 1422.8102193891114 1174.0005408829445 1422.8324846404307 1174.0005408829445 1422.8547498939618 L1174.0005408829445 1422.9467796056076 C1174.0005408829445 1422.9467796056076 1174.0005408829445 1422.9586544067536 1174.0005408829445 1422.9660761571934 C1174.0005408829445 1422.9734979076331 1174.0005408829445 1423.0046692603648 1174.0005408829445 1423.025450165135 C1174.0703053410593 1423.5271605417527 1175.7817610946506 1435.3455566294365 1184.111934692419 1440.724841351698 C1186.749625023869 1442.4273910436902 1189.7524653628222 1443.2794078694237 1193.0699877806312 1443.2794078694237 C1195.2884940024883 1443.256316364098 1197.4930728767433 1442.9251049923591 1199.6204252677267 1442.2952836854688 L1203.3313007087813 1444.9567235970922 L1203.3313007087813 1452.2819914912402 C1203.3513753028674 1452.7766729036161 1203.774955489124 1453.1672153003365 1204.2696369015 1453.1471407062504 C1204.7368064412028 1453.1281825674478 1205.1158279777078 1452.7491610309428 1205.1347861165104 1452.2819914912402 L1205.1347861165104 1444.959691095789 L1208.845661557565 1442.2982511841656 C1210.9729930786193 1442.9281664106975 1213.1775851737336 1443.2593797687107 1215.3960990446606 1443.2823753681205 C1218.718074614921 1443.2823753681205 1221.7164623676574 1442.4303584008283 1224.3541521328725 1440.7278088503947 C1232.6843251644063 1435.3544610985007 1234.3957813028603 1423.5301276157734 1234.4655459423473 1423.0284176638318 C1234.4655459423473 1423.0076367612733 1234.4655459423473 1422.9883402074759 1234.4655459423473 1422.9690436558901 C1234.4655459423473 1422.9497471043044 1234.468514200263 1422.9556855300718 1234.47 1422.9497468610004 Z M1185.0930900223634 1439.2167399008224 C1178.7281957410862 1435.1154841684656 1176.5165148841932 1426.5062531452188 1175.948008494831 1423.6934077489486 C1178.8038982002925 1423.4291934217922 1187.6877334965661 1423.0729494006848 1193.445527966803 1427.9906016229368 C1196.5626633372888 1430.6535259187103 1198.3231027371228 1434.4920552824176 1198.6941902812282 1439.4200979813852 L1184.5245836330014 1429.2567521422295 C1184.130701984834 1428.9568022525561 1183.5597649033045 1429.034096409902 1183.259815013631 1429.4279780580694 C1182.9598651239576 1429.8218597062366 1183.0371592813035 1430.3927967877662 1183.4310409294708 1430.6927466774396 C1183.44494968909 1430.703338516213 1183.459163284027 1430.7135239666084 1183.4736637194194 1430.7232901335215 L1197.6981914487453 1440.9252284034446 C1192.8131944745558 1442.0325523666897 1188.5768600676208 1441.4685011116003 1185.0930900223634 1439.2167399008224 Z M1196.0490783121431 1408.5753002961164 C1195.4998691998549 1400.3237982089724 1202.151241978011 1392.7951739329658 1204.2293322250016 1390.6562259176258 C1206.3074224719921 1392.7951744992004 1212.9587958163831 1400.3237982089724 1212.40958613786 1408.5753014285856 C1212.1127161025756 1413.120381793361 1209.6620539273292 1417.2260940755773 1205.136270273393 1420.798924904926 L1205.136270273393 1401.524638090582 C1205.1161956793069 1401.0299566782057 1204.6926154930502 1400.6394142814854 1204.1979340806743 1400.6594888755715 C1203.7307645409714 1400.6784470143741 1203.3517430044665 1401.057468550879 1203.3327848656638 1401.524638090582 L1203.3327848656638 1420.798924904926 C1198.7980954730592 1417.226092943108 1196.3504012167618 1413.1174127419426 1196.0490783121431 1408.5753002961164 Z M1223.3774495008438 1439.2122870314884 C1219.8921953545532 1441.4610774921439 1215.65882858345 1442.0325523666897 1210.7604730012579 1440.9252271294167 L1224.9894538830354 1430.7203196665164 C1225.3833355312026 1430.420369776843 1225.4606296885486 1429.8494326953135 1225.1606797988752 1429.4555510471462 C1224.8726970918146 1429.077384202597 1224.332787953786 1428.9882482541263 1223.9385339694534 1429.2537816752247 L1209.7689273212266 1439.4171275143801 C1210.140014865332 1434.4920535837136 1211.9004541236072 1430.659461473491 1215.0175896356518 1427.9876311559317 C1220.7753841058886 1423.0699788629004 1229.6607043525473 1423.4262231317355 1232.5165937748918 1423.6904372819436 C1231.948085969943 1426.5032815457446 1229.7453108517182 1435.100639760726 1223.3774495008438 1439.2122870314884 Z "></path>
    </defs>
    <g style="mix-blend-mode:normal">
      <use xmlns:xlink="http://www.w3.org/1999/xlink" xlink:href="#s-Path_17-b2a25" fill="#F6656E" fill-opacity="1.0" stroke-width="1.0" stroke="#F6656E" stroke-linecap="butt"></use>
    </g>
  </g>
</svg>
