<?xml version="1.0" encoding="UTF-8"?>
<svg xmlns="http://www.w3.org/2000/svg" width="16.0" height="16.0" viewBox="1171.0 3734.0 16.0 16.0" preserveAspectRatio="none">
  <g>
    <defs>
      <path id="s-Path_31-b2a25" d="M1186.9593601226807 3738.704055786133 C1186.9218406677246 3737.8539118766785 1186.7843208312988 3737.2694478034973 1186.58736038208 3736.763000011444 C1186.3841590881348 3736.2254161834717 1186.0715198516846 3735.744120121002 1185.6619205474854 3735.3440160751343 C1185.26176071167 3734.9376878738403 1184.7772006988525 3734.621949672699 1184.2457599639893 3734.4219584465027 C1183.736240386963 3734.225019931793 1183.1547203063965 3734.0875415802 1182.304479598999 3734.0500588417053 C1181.447759628296 3734.009401321411 1181.1758403778076 3734.0 1179.0031204223633 3734.0 C1176.83039188385 3734.0 1176.558440208435 3734.009401321411 1175.7049598693848 3734.046884536743 C1174.8546481132507 3734.084367275238 1174.2700719833374 3734.2219681739807 1173.763648033142 3734.4187841415405 C1173.2258400917053 3734.621949672699 1172.7444558143616 3734.9345121383667 1172.3442721366882 3735.3440160751343 C1171.9378638267517 3735.744120121002 1171.6221904754639 3736.2285919189453 1171.4220390319824 3736.759943962097 C1171.2250633239746 3737.2694478034973 1171.0875582695007 3737.850736141205 1171.0500683784485 3738.700880050659 C1171.0094032287598 3739.557375907898 1171.0 3739.829279899597 1171.0 3742.001600265503 C1171.0 3744.1739196777344 1171.0094032287598 3744.4457597732544 1171.046893119812 3745.299119949341 C1171.0843830108643 3746.1492805480957 1171.2220106124878 3746.7337608337402 1171.4189863204956 3747.2401599884033 C1171.6221904754639 3747.777759552002 1171.9378638267517 3748.2590408325195 1172.3442721366882 3748.6591205596924 C1172.7444558143616 3749.0655193328857 1173.229015827179 3749.3812007904053 1173.7604718208313 3749.581199645996 C1174.2700719833374 3749.778160095215 1174.85147190094 3749.915599822998 1175.701904296875 3749.953119277954 C1176.5552644729614 3749.9907207489014 1176.8273439407349 3750.0 1179.0000801086426 3750.0 C1181.172800064087 3750.0 1181.4447202682495 3749.9907207489014 1182.2982397079468 3749.953119277954 C1183.1485595703125 3749.915599822998 1183.7331199645996 3749.778160095215 1184.2395191192627 3749.581199645996 C1185.315040588379 3749.1655197143555 1186.1653594970703 3748.3153591156006 1186.5811195373535 3747.2401599884033 C1186.7779998779297 3746.730640411377 1186.915599822998 3746.1492805480957 1186.953119277954 3745.299119949341 C1186.9905605316162 3744.4457597732544 1187.0 3744.1739196777344 1187.0 3742.001600265503 C1187.0 3739.829279899597 1186.9967994689941 3739.557375907898 1186.9593601226807 3738.704055786133 Z M1185.5182399749756 3745.2366399765015 C1185.4837608337402 3746.017999649048 1185.3524799346924 3746.4400005340576 1185.2431201934814 3746.721279144287 C1184.9741592407227 3747.4183197021484 1184.4208793640137 3747.971519470215 1183.7236804962158 3748.240400314331 C1183.4423198699951 3748.349760055542 1183.0172805786133 3748.481039047241 1182.2387199401855 3748.51535987854 C1181.394639968872 3748.5529594421387 1181.1415195465088 3748.562240600586 1179.0063199996948 3748.562240600586 C1176.8710556030273 3748.562240600586 1176.6147356033325 3748.5529594421387 1175.7737121582031 3748.51535987854 C1174.9921522140503 3748.481039047241 1174.5701122283936 3748.349760055542 1174.28875207901 3748.240400314331 C1173.941815853119 3748.112159729004 1173.6260237693787 3747.90904045105 1173.3696961402893 3747.6433601379395 C1173.1039681434631 3747.3839206695557 1172.9007678031921 3747.071279525757 1172.7725439071655 3746.724479675293 C1172.6631197929382 3746.4431190490723 1172.5318479537964 3746.017999649048 1172.4975280761719 3745.2397603988647 C1172.4599199295044 3744.395839691162 1172.4506402015686 3744.1426401138306 1172.4506402015686 3742.007840156555 C1172.4506402015686 3739.8729915618896 1172.4599199295044 3739.616711616516 1172.4975280761719 3738.7759675979614 C1172.5318479537964 3737.9945678710938 1172.6631197929382 3737.5726079940796 1172.7725439071655 3737.2913041114807 C1172.9007678031921 3736.944312095642 1173.1039681434631 3736.6286959648132 1173.372871875763 3736.372295856476 C1173.6322479248047 3736.1066160202026 1173.9448719024658 3735.90345621109 1174.2919278144836 3735.775375843048 C1174.5732879638672 3735.665976047516 1174.9985041618347 3735.534728050232 1175.7768802642822 3735.5002961158752 C1176.6209602355957 3735.4628162384033 1176.8742322921753 3735.4534158706665 1179.0093603134155 3735.4534158706665 C1181.1477603912354 3735.4534158706665 1181.4008798599243 3735.4628162384033 1182.2419204711914 3735.5002961158752 C1183.0234394073486 3735.534728050232 1183.445520401001 3735.665976047516 1183.726879119873 3735.775375843048 C1184.073839187622 3735.90345621109 1184.3896007537842 3736.1066160202026 1184.6459197998047 3736.372295856476 C1184.9116802215576 3736.6317439079285 1185.1148796081543 3736.944312095642 1185.2431201934814 3737.2913041114807 C1185.3524799346924 3737.5726079940796 1185.4837608337402 3737.997615814209 1185.5182399749756 3738.7759675979614 C1185.555679321289 3739.619888305664 1185.5651206970215 3739.8729915618896 1185.5651206970215 3742.007840156555 C1185.5651206970215 3744.1426401138306 1185.555679321289 3744.392720222473 1185.5182399749756 3745.2366399765015 Z M1178.946536064148 3738.277440071106 C1176.7677602767944 3738.277440071106 1175.0 3740.0450801849365 1175.0 3742.223999977112 C1175.0 3744.402879714966 1176.7677602767944 3746.1704807281494 1178.946536064148 3746.1704807281494 C1181.1254396438599 3746.1704807281494 1182.8930397033691 3744.402879714966 1182.8930397033691 3742.223999977112 C1182.8930397033691 3740.0450801849365 1181.1254396438599 3738.277440071106 1178.946536064148 3738.277440071106 Z M1178.946536064148 3744.7840003967285 C1177.5330562591553 3744.7840003967285 1176.3865203857422 3743.6375999450684 1176.3865203857422 3742.223999977112 C1176.3865203857422 3740.810383796692 1177.5330562591553 3739.663960456848 1178.946536064148 3739.663960456848 C1180.3601598739624 3739.663960456848 1181.5065603256226 3740.810383796692 1181.5065603256226 3742.223999977112 C1181.5065603256226 3743.6375999450684 1180.3601598739624 3744.7840003967285 1178.946536064148 3744.7840003967285 Z M1183.0491199493408 3739.0426721572876 C1183.5580005645752 3739.0426721572876 1183.9705600738525 3738.6301279067993 1183.9705600738525 3738.1213359832764 C1183.9705600738525 3737.6124238967896 1183.5580005645752 3737.199999809265 1183.0491199493408 3737.199999809265 C1182.5403203964233 3737.199999809265 1182.1277599334717 3737.6124238967896 1182.1277599334717 3738.1213359832764 C1182.1277599334717 3738.6301279067993 1182.5403203964233 3739.0426721572876 1183.0491199493408 3739.0426721572876 Z "></path>
    </defs>
    <g style="mix-blend-mode:normal">
      <use xmlns:xlink="http://www.w3.org/1999/xlink" xlink:href="#s-Path_31-b2a25" fill="#1B2437" fill-opacity="1.0"></use>
    </g>
  </g>
</svg>
