<?xml version="1.0" encoding="UTF-8"?>
<svg xmlns="http://www.w3.org/2000/svg" width="67.95001220703125" height="61.388916015625" viewBox="407.00000000128534 1398.0 67.95001220703125 61.388916015625" preserveAspectRatio="none">
  <g>
    <defs>
      <path id="s-Union_8-b2a25" d="M426.2936320877455 1420.801546851807 L426.2936320877455 1423.0752684336376 L428.567296025281 1423.0752684336376 L428.567296025281 1420.801546851807 Z M421.61637397118136 1425.478804968371 L421.61637397118136 1427.7525265502018 L423.89003790871703 1427.7525265502018 L423.89003790871703 1425.478804968371 Z M429.80157567516846 1425.478804968371 L429.80157567516846 1427.7525265502018 L432.0752396127041 1427.7525265502018 L432.0752396127041 1425.478804968371 Z M447.88412994065055 1400.2736062932402 C445.7208836506659 1402.349953808136 444.88022807089123 1405.4640139261173 445.70471442584835 1408.3469204201479 L451.84305367196 1429.831295125498 L451.79431542032637 1429.831295125498 L441.36519423515256 1407.930152165492 C441.02385354083117 1407.2106360721848 440.8461938228714 1406.4243678849782 440.84506975911404 1405.6280695903984 C440.8483843060909 1402.6920150561482 443.2633632334312 1400.2769496623648 446.19941776768155 1400.2736062932402 Z M452.926161157555 1400.302889595227 C452.80098657042015 1400.522629648719 452.69454637924156 1400.752515098175 452.6080511142193 1400.990240171785 L452.5853680840385 1401.052841876426 C451.7237876250882 1403.444273109157 451.4339521085725 1406.0046021269695 451.7391210076247 1408.5281540844128 L454.3398298542596 1429.831295125498 L454.2077379516949 1429.831295125498 L447.8908743231948 1407.7222868368212 C447.0102424246645 1404.6400463698178 448.82194498006857 1401.3791085875398 451.90421426921995 1400.4985343333046 C452.23834942663507 1400.403075380371 452.5803818524994 1400.3375914609674 452.926161157555 1400.302889595227 Z M456.87868637209175 1400.2751050449165 C457.1314277846141 1400.2751050449165 457.3878584320326 1400.317877111992 457.6378329183832 1400.4082633669436 C458.26849033056294 1400.636188910361 458.7659029542729 1401.1336591783663 458.9939149641334 1401.7642877683984 C459.74804645673805 1403.8566603973736 459.9925735571874 1406.098908193998 459.7072054735536 1408.3046095074344 L456.8993806740864 1429.831295125498 L456.6303259260082 1429.831295125498 L453.99598163309497 1408.2526143531193 C453.73364244541335 1406.0833442342807 453.9827234451875 1403.882600330236 454.72322206196566 1401.8268894730395 L454.74593391429414 1401.7642877683984 C455.0768121690276 1400.849011648423 455.95320721185703 1400.2751050449165 456.87868637209175 1400.2751050449165 Z M460.83121158662834 1400.3322881858044 C464.00461650656956 1400.781106668619 466.24660490386543 1403.7617778873926 465.7977864210509 1406.9352116294815 C465.7601735184004 1407.201067119173 465.7042585520082 1407.4640403941025 465.6304738540885 1407.7222868368212 L459.31366786988366 1429.831295125498 L459.1922401619401 1429.831295125498 L461.96173150506627 1408.5987107017984 C462.293676179262 1406.033078408823 462.0092592264997 1403.424904625953 461.1321436299796 1400.9911624805088 C461.0497122877725 1400.763813380044 460.94906534826646 1400.5434968835996 460.83121158662834 1400.3322881858044 Z M467.3219880538969 1400.2736062932402 C470.259368406938 1400.2737215818308 472.6763937067597 1402.690862170243 472.67633606246443 1405.6283001675793 C472.6763072403168 1406.424598462159 472.49864752235715 1407.2110972265468 472.15626923072125 1407.9300368769013 L461.7270904012522 1429.831295125498 L461.67835214961855 1429.831295125498 L467.81669139573023 1408.347035708738 C468.6411777506873 1405.464129214708 467.8005221709127 1402.3500690967264 465.63727588092803 1400.2736062932402 Z M418.108459205906 1429.5714346425123 L418.108459205906 1431.8450409357524 L420.3821231434415 1431.8450409357524 L420.3821231434415 1429.5714346425123 Z M426.2936320877455 1429.5714346425123 L426.2936320877455 1431.8450409357524 L428.567296025281 1431.8450409357524 L428.567296025281 1429.5714346425123 Z M434.4788049695849 1429.5714346425123 L434.4788049695849 1431.8450409357524 L436.75246890712054 1431.8450409357524 L436.75246890712054 1429.5714346425123 Z M427.4780494222419 1418.3939752164063 C428.6650031057293 1418.3939752164063 429.8598252355184 1418.7605929341946 430.87344252318985 1419.520805899948 C431.304304808034 1419.843959819118 431.6870917506399 1420.2267179395765 432.01024566980993 1420.657551402273 L442.24176221086765 1434.2995350274866 L412.68410220075754 1434.2995350274866 L422.9156187418153 1420.657551402273 C424.0263666669826 1419.176669457307 425.7437919775058 1418.3939752164063 427.4780494222419 1418.3939752164063 Z M461.3080163747866 1432.104901418738 L461.3080163747866 1434.5834908258867 L452.213389446792 1436.4023989181972 L452.213389446792 1432.104901418738 Z M444.8452668058223 1436.5732566093172 L435.8927330656182 1452.4888465277709 L419.03316016815467 1452.4888465277709 L410.080597605803 1436.5732566093172 Z M435.42074157611336 1454.762568109602 L435.42074157611336 1457.036174402842 L419.50512283551194 1457.036174402842 L419.50512283551194 1454.762568109602 Z M461.3080163747866 1436.9020596694218 L461.3080163747866 1457.1152623759249 L452.213389446792 1457.1152623759249 L452.213389446792 1438.7210830503225 L461.3080163747866 1436.9020596694218 Z M427.44173351623454 1416.1242887352428 C425.78010788351315 1416.1242887352428 424.10741454610377 1416.6375535401464 422.68844257423603 1417.7016672304567 C422.0851085580047 1418.1541749481673 421.5491895450678 1418.6901516053993 421.0967106495049 1419.2934567994832 L409.8420943342073 1434.2995350274866 L408.1368031478341 1434.2995350274866 C407.51317833967477 1434.2995350274866 406.9999711790663 1434.8127998323903 407.0000000012139 1435.4363958184017 C407.0000000012139 1435.6315794021173 407.05026582667165 1435.8235349052993 407.14595535678626 1435.9937008648762 L417.2314588979764 1453.9234977479466 L417.2314588979764 1458.1730351937574 C417.2314300758287 1458.7966311797693 417.7446372364372 1459.309895984673 418.36829086674425 1459.309895984673 L436.55757354488117 1459.309895984673 C437.1812271751881 1459.309895984673 437.6944343357966 1458.7966311797693 437.694405513649 1458.1730351937574 L437.694405513649 1453.9234977479466 L447.779909054839 1435.9937008648762 C448.085625574696 1435.4501151606712 447.8899231923232 1434.7512357250635 447.34636631026575 1434.4456056716494 C447.1762291728361 1434.3498008529443 446.9842736696545 1434.2995350274866 446.7890612637912 1434.2995350274866 L445.08377007741814 1434.2995350274866 L433.8291537621203 1419.2934567994832 C432.27414125346326 1417.2199914993498 429.86971123215375 1416.1242887352428 427.44173351623454 1416.1242887352428 Z M446.19941776768155 1398.0 C442.01481662046945 1398.0 438.5714058215785 1401.4434396210386 438.5714058215785 1405.6280695903984 C438.5714058215785 1406.7627398980942 438.82457956631544 1407.883114420568 439.31239441486633 1408.9075688357468 L449.9397255092564 1431.2249036074556 L449.9397255092564 1458.2520078782497 C449.9396966871088 1458.8757191528518 450.45290384771715 1459.388868669165 451.0765574780242 1459.388868669165 L462.4448483435544 1459.388868669165 C463.0685019738613 1459.388868669165 463.5817091344698 1458.8757191528518 463.5816803123222 1458.2520078782497 L463.5816803123222 1431.2249036074556 L474.20909787315514 1408.9075688357468 C474.6953563257343 1407.8825379776158 474.9484147818806 1406.762509320913 474.95000000000005 1405.6280695903984 C474.9452443456419 1401.445168949896 471.5047734058087 1398.0047268322103 467.3219880538969 1398.0 Z "></path>
    </defs>
    <g style="mix-blend-mode:normal">
      <use xmlns:xlink="http://www.w3.org/1999/xlink" xlink:href="#s-Union_8-b2a25" fill="#F6656E" fill-opacity="1.0"></use>
    </g>
  </g>
</svg>
