<?xml version="1.0" encoding="UTF-8"?>
<svg xmlns="http://www.w3.org/2000/svg" width="120.81302642822266" height="32.33941650390625" viewBox="517.4822154955951 786.0829179723679 120.81302642822266 32.33941650390625" preserveAspectRatio="none">
  <g>
    <defs>
      <path id="s-Path_10-b2a25" d="M570.1286906549071 800.1726484304113 L563.7324866646701 787.9168625254191 L554.8759561278566 787.9168625254191 L570.1286918865873 816.9900477563833 L585.3355783540675 787.9168625254191 L576.5248940293042 787.9168625254191 L570.1286900390671 800.1726484304113 Z M625.8605838615093 794.4028264336994 L638.2952442022221 816.3197532885451 L628.7225705221601 816.3197532885451 L627.2024629820772 813.2776010835221 L616.3770216199246 813.2776010835221 L614.9014711847204 816.3197532885451 L605.3300895370701 816.3197532885451 L621.7890958229151 787.2013653983764 L625.8605815521091 794.4028264336994 Z M625.8605838615093 789.9748838654756 C626.2176864088249 789.9748838654756 626.5315234217933 789.8405668040637 626.7549546544727 789.5725784280155 C627.0235887772966 789.3039443051916 627.1572600919328 788.990753077489 627.1572600919328 788.6330047449076 C627.1572600919328 788.2752564123263 627.023588786919 788.0066222895024 626.7549546544727 787.7386339519443 C626.5315234025484 787.4699998291203 626.2176864088249 787.3356827677084 625.8605838615093 787.3356827677084 C625.5021897821522 787.3356827677084 625.1896443012254 787.4699998291203 624.9210101784015 787.7386339519443 C624.6523760555776 788.0072680747681 624.5626160990444 788.2752564123263 624.5626160990444 788.6330047449076 C624.5626160990444 788.990753077489 624.6975789168546 789.3039443051916 624.9210101784015 789.5725784280155 C625.1896443012254 789.8405667848186 625.5021897436623 789.9748838654756 625.8605838615093 789.9748838654756 Z M625.8605838615093 787.0670488373345 C625.4582784240492 787.0670488373345 625.0546814930376 787.2013658987464 624.7873389407453 787.5145571264491 C624.4289448613881 787.7825454832522 624.2939820532005 788.185496686733 624.2939820532005 788.6323591520918 C624.2939820532005 789.0798674412064 624.4289448710107 789.4821728401764 624.741490342315 789.7501611777345 C625.0540358039968 790.0633524054372 625.412429902599 790.2422265717279 625.8599381532235 790.2422265717279 C626.2622435906836 790.2422265717279 626.6645490281437 790.0633524054372 626.9770944705806 789.7947182826133 C627.290931445059 789.4821728209315 627.4246027596951 789.0792216174507 627.4246027596951 788.631713366826 C627.4246027596951 788.2294079293661 627.2909314546814 787.8264567836202 626.9770944705806 787.5139113411833 C626.6651947556745 787.2013658795015 626.3068006955623 787.0670488373345 625.8605839384893 787.0670488373345 Z M625.8605838615093 788.9009932364257 C625.9044952099898 788.9009932364257 625.9503438180426 788.9461960928915 625.994255166523 788.9461960928915 C626.0394580229888 788.9461960928915 626.0840151230562 788.990753192959 626.0840151230562 789.0805131543034 C626.129217979522 789.1250702543709 626.129217979522 789.1696273544384 626.129217979522 789.3039444062279 C626.129217979522 789.393704362761 626.129217979522 789.4828185725186 626.1731293280025 789.5273756581522 L626.5754347654625 789.5273756581522 L626.5754347654625 789.4828185580848 L626.5754347654625 789.4382614580172 L626.5754347654625 789.2148340983944 C626.5754347654625 789.0359599321038 626.531523416982 788.9016428706918 626.3965605991718 788.8125286609343 C626.3526492506915 788.7679715608668 626.2628892941582 788.7679715608668 626.1731293472475 788.7227687044011 C626.2902003571573 788.7177329603629 626.4014518961842 788.6699223803621 626.4856748089293 788.5884516429892 C626.530877665395 788.5438945429216 626.5754347654625 788.4541345815773 626.5754347654625 788.2752604152865 C626.5754347654625 788.0963862489959 626.531523416982 787.9620691875839 626.3520035135381 787.8723092310507 C626.2406157755306 787.8163500643593 626.1182238340936 787.7856969482054 625.9936094341809 787.7825492745175 L625.1431499608306 787.7825492745175 L625.1431499608306 789.5273794638513 L625.6352153548238 789.5273794638513 L625.6352153548238 788.900997008446 L625.8605838615093 788.900997008446 Z M625.8605838615093 788.0963823615056 L625.6358610967884 788.0963823615056 L625.6358610967884 788.5884477554989 L625.8599335344232 788.5884477554989 C625.9496934909564 788.5884477554989 625.9936048394369 788.5438906554314 626.0388077007138 788.5438906554314 C626.1285676572471 788.4993335553639 626.1285676572471 788.4095735940194 626.1285676572471 788.320459403507 C626.1285676572471 788.2306994469737 626.0833648007814 788.1415852372163 625.9936048394369 788.1415852372163 C625.9503392473548 788.0963823807506 625.9044906393019 788.0963823807506 625.8605792908215 788.0963823807506 Z M621.7890981323153 802.6768868354607 L619.0607829402607 807.955288800055 L624.5187047409414 807.955288800055 L621.7890978243952 802.6768868354607 Z M553.1317714928487 816.3197575994254 L553.1317714928487 787.917510389145 L544.8570663065617 787.917510389145 L544.8570663065617 816.3197575994254 L553.1317714928487 816.3197575994254 Z M604.5693923681431 795.5212775547482 L604.5693923681431 787.917510389145 L587.0797617573954 787.917510389145 L587.0797617573954 816.3197575994254 L604.5693923681431 816.3197575994254 L604.5693923681431 808.7611943247068 L595.4003156190927 808.7611943247068 L595.4003156190927 805.0481025593999 L604.5693923681431 805.0481025593999 L604.5693923681431 799.0994067428074 L595.4003156190927 799.0994067428074 L595.4003156190927 795.5212778626682 L604.5693923681431 795.5212778626682 Z M539.9364107500486 787.917510389145 L531.6617055637616 787.917510389145 L531.6617055637616 798.9650883342454 L517.4822154955951 786.0829179723679 L517.4822154955951 816.3197551360653 L525.7569212977221 816.3197551360653 L525.7569212977221 805.7629512068767 L539.9357662734429 818.4223340428804 L539.9357662734429 787.917510389145 L539.9364120285633 787.917510389145 Z "></path>
    </defs>
    <g style="mix-blend-mode:normal">
      <use xmlns:xlink="http://www.w3.org/1999/xlink" xlink:href="#s-Path_10-b2a25" fill="#000000" fill-opacity="1.0"></use>
    </g>
  </g>
</svg>
