<?xml version="1.0" encoding="UTF-8"?>
<svg xmlns="http://www.w3.org/2000/svg" width="18.0001220703125" height="18.028419494628906" viewBox="1228.9998779296875 41.96638488769531 18.0001220703125 18.028419494628906" preserveAspectRatio="none">
  <g>
    <defs>
      <path id="s-Union_2-b2a25" d="M1235.9546030005333 43.602831831216946 C1235.9624931471567 43.602831831216946 1235.97038329378 43.602850558865995 1235.9782734404034 43.602884892889236 C1238.8927338026322 43.61591933662273 1241.2857453608035 46.03053755315322 1241.272661699947 48.945124694893224 L1241.272661699947 48.952456569493314 C1241.2727615752208 48.96833449460641 1241.2727615752208 48.984193692070455 1241.272661699947 49.00003416188547 C1241.2596779143644 51.90326922703093 1238.8600745881279 54.29474943316957 1235.954403249986 54.29474943316957 C1235.9465131033626 54.29474943316957 1235.9386229567394 54.29473070552053 1235.9307328101158 54.29469637149728 C1233.016272447887 54.28165880648895 1230.6232608897158 51.86704058995846 1230.6363445505722 48.95245344821846 L1229.8181663083126 48.94878907155584 L1230.6363445505722 48.94512157361838 C1230.6362446752983 48.929243648505285 1230.6362446752983 48.913384451041225 1230.6363445505722 48.897540859951384 C1230.6493283361551 45.994312037355584 1233.0489316623914 43.602831831216946 1235.9546030005333 43.602831831216946 Z M1235.9545031252596 41.96638488769531 C1232.1473575665811 41.96638488769531 1229.0170667378577 45.086816983884596 1228.999988066053 48.89022147045065 C1228.9998881907788 48.90978249987541 1228.9998881907788 48.929356014399545 1228.999988066053 48.94894513529787 C1228.9850067749958 52.765602554836235 1232.1065085796324 55.91405433526776 1235.923342039861 55.93112458736988 C1235.9337290683272 55.93117140649248 1235.9441160967936 55.93119325541637 1235.9545031252596 55.93119325541637 C1237.577875824196 55.93119325541637 1239.0781023106442 55.36386721915111 1240.2664183172853 54.41817088290851 L1245.6031536928833 59.75515445808127 C1245.7629541308247 59.914920032061794 1245.9723925798016 59.99480594032689 1246.181731153505 59.99480594032689 C1246.3910697272079 59.99480594032689 1246.6005081761848 59.914920032061794 1246.760308614126 59.75515445808127 C1247.079809614735 59.43561706757055 1247.079809614735 58.917547869561595 1246.760308614126 58.59801047905087 L1241.4203772297692 53.25778077804411 C1242.345422014902 52.081865452123566 1242.901827164759 50.60485322744936 1242.9090181844663 49.007353551386196 C1242.9091180597402 48.9878050070608 1242.9091180597402 48.9682408563612 1242.9090181844663 48.94865797801255 C1242.9239994755233 45.13199119464964 1239.802497670887 41.98352380784393 1235.9856642106581 41.9664535557418 C1235.975277182192 41.96640673661919 1235.964890153726 41.96638488769531 1235.9545031252596 41.96638488769531 Z "></path>
    </defs>
    <g style="mix-blend-mode:normal">
      <use xmlns:xlink="http://www.w3.org/1999/xlink" xlink:href="#s-Union_2-b2a25" fill="#1B2437" fill-opacity="1.0"></use>
    </g>
  </g>
</svg>
