<?xml version="1.0" encoding="UTF-8"?>
<svg xmlns="http://www.w3.org/2000/svg" width="18.0" height="14.0" viewBox="1228.0 3736.0 18.0 14.0" preserveAspectRatio="none">
  <g>
    <defs>
      <path id="s-Path_36-b2a25" d="M1246.0 3737.6573791503906 C1245.330623626709 3737.938455581665 1244.6173725128174 3738.124762535095 1243.8737468719482 3738.2152242660522 C1244.6387481689453 3737.777994155884 1245.2226238250732 3737.0909185409546 1245.4971237182617 3736.2627687454224 C1244.7838745117188 3736.6698451042175 1243.9963722229004 3736.9573802948 1243.1571216583252 3737.117841720581 C1242.4798698425293 3736.427537918091 1241.5146198272705 3736.0 1240.461618423462 3736.0 C1238.4186153411865 3736.0 1236.7738819122314 3737.5873789787292 1236.7738819122314 3739.5333757400513 C1236.7738819122314 3739.8133754730225 1236.7986326217651 3740.0826053619385 1236.8593921661377 3740.338912963867 C1233.79150390625 3740.1956825256348 1231.0768752098083 3738.788146018982 1229.2532477378845 3736.6439990997314 C1228.9348723888397 3737.1727643013 1228.748122215271 3737.777994155884 1228.748122215271 3738.429531097412 C1228.748122215271 3739.652914047241 1229.4062480926514 3740.737373352051 1230.387249469757 3741.365219116211 C1229.794373512268 3741.3544492721558 1229.2127475738525 3741.1896810531616 1228.7199971675873 3740.930142402649 C1228.7199971675873 3740.940912246704 1228.7199971675873 3740.954912185669 1228.7199971675873 3740.968912124634 C1228.7199971675873 3742.6855239868164 1229.9991235733032 3744.1113681793213 1231.6765007972717 3744.4398288726807 C1231.3761253356934 3744.5184440612793 1231.048749923706 3744.5561361312866 1230.708999633789 3744.5561361312866 C1230.4727492332458 3744.5561361312866 1230.2342491149902 3744.5432138442993 1230.0103735923767 3744.49582862854 C1230.4884991645813 3745.8947763442993 1231.8452606201172 3746.923236846924 1233.4585027694702 3746.956621170044 C1232.203001499176 3747.8967723846436 1230.608874320984 3748.463233947754 1228.8831224441528 3748.463233947754 C1228.5804970264435 3748.463233947754 1228.290250301361 3748.450309753418 1228.0 3748.4147720336914 C1229.6346235275269 3749.4238471984863 1231.5718755722046 3750.0 1233.661003112793 3750.0 C1240.4514932632446 3750.0 1244.1639976501465 3744.61536693573 1244.1639976501465 3739.9479904174805 C1244.1639976501465 3739.7918367385864 1244.1583728790283 3739.641067504883 1244.1504974365234 3739.4913759231567 C1244.8828735351562 3738.9938383102417 1245.498249053955 3738.3724546432495 1246.0 3737.6573791503906 Z "></path>
    </defs>
    <g style="mix-blend-mode:normal">
      <use xmlns:xlink="http://www.w3.org/1999/xlink" xlink:href="#s-Path_36-b2a25" fill="#1B2437" fill-opacity="1.0"></use>
    </g>
  </g>
</svg>
